<?xml version="1.0" encoding="iso-8859-1"?>
<!-- Generator: Adobe Illustrator 18.1.1, SVG Export Plug-In . SVG Version: 6.00 Build 0)  -->
<svg version="1.1" id="Capa_1" xmlns="http://www.w3.org/2000/svg" xmlns:xlink="http://www.w3.org/1999/xlink" x="0px" y="0px"
	 viewBox="0 0 13.236 13.236" style="enable-background:new 0 0 13.236 13.236;" xml:space="preserve">
<g>
	<path style="fill:#030104;" d="M12.749,0.47c-0.84-0.84-2.521-0.476-3.826,0.829C8.465,1.757,8.124,2.262,7.91,2.759L6.361,2.78
		C6.283,2.781,6.208,2.812,6.153,2.868L0.088,8.934c-0.117,0.116-0.117,0.306,0,0.424l3.773,3.772c0.117,0.117,0.307,0.117,0.423,0
		l6.065-6.065c0.056-0.055,0.087-0.128,0.089-0.206l0.087-3.826c0.003-0.081-0.028-0.16-0.086-0.218s-0.136-0.089-0.217-0.088
		L8.579,2.75c0.186-0.353,0.444-0.707,0.766-1.029c1.033-1.032,2.396-1.412,2.979-0.828c0.693,0.693,0.227,1.925-1.318,3.468
		c-0.115,0.117-0.115,0.306,0,0.423c0.118,0.118,0.308,0.118,0.424,0C13.881,2.335,13.308,1.03,12.749,0.47z M9.098,5.672
		C8.669,6.1,7.976,6.1,7.547,5.672c-0.429-0.429-0.429-1.124,0-1.552c0.031-0.031,0.067-0.055,0.102-0.082
		c0.019,0.427,0.164,0.805,0.445,1.087C8.367,5.398,8.742,5.551,9.181,5.57C9.154,5.605,9.129,5.64,9.098,5.672z M9.098,4.12
		c0.235,0.233,0.335,0.545,0.315,0.851C9.12,4.992,8.767,4.953,8.517,4.702C8.305,4.49,8.221,4.173,8.25,3.806
		C8.554,3.786,8.865,3.887,9.098,4.12z"/>
</g>
<g>
</g>
<g>
</g>
<g>
</g>
<g>
</g>
<g>
</g>
<g>
</g>
<g>
</g>
<g>
</g>
<g>
</g>
<g>
</g>
<g>
</g>
<g>
</g>
<g>
</g>
<g>
</g>
<g>
</g>
</svg>
