<svg width="259" height="23" viewBox="0 0 259 23" fill="none" xmlns="http://www.w3.org/2000/svg">
<path d="M2.505 5.70288L0.705 16.2029H6.51L6.78 14.6129H2.745L4.26 5.70288H2.505ZM10.797 16.3529C11.587 16.3529 12.277 16.1829 12.867 15.8429C13.457 15.5029 13.937 15.0529 14.307 14.4929L12.957 13.9229C12.727 14.2429 12.437 14.5079 12.087 14.7179C11.747 14.9179 11.362 15.0179 10.932 15.0179C10.542 15.0179 10.222 14.9379 9.97195 14.7779C9.73195 14.6079 9.55695 14.3729 9.44695 14.0729C9.33695 13.7729 9.29195 13.4279 9.31195 13.0379C9.33195 12.6679 9.39695 12.3229 9.50695 12.0029C9.61695 11.6729 9.77195 11.3879 9.97195 11.1479C10.172 10.9079 10.407 10.7229 10.677 10.5929C10.957 10.4529 11.267 10.3829 11.607 10.3829C11.927 10.3829 12.192 10.4479 12.402 10.5779C12.622 10.7079 12.782 10.8929 12.882 11.1329C12.992 11.3629 13.047 11.6429 13.047 11.9729C13.047 12.0929 13.027 12.2179 12.987 12.3479C12.947 12.4679 12.902 12.5879 12.852 12.7079L13.347 12.0179H8.59195V13.1279H14.532C14.582 13.0179 14.622 12.8729 14.652 12.6929C14.682 12.5129 14.697 12.3429 14.697 12.1829C14.697 11.5329 14.577 10.9829 14.337 10.5329C14.107 10.0829 13.772 9.74288 13.332 9.51288C12.892 9.27288 12.357 9.15288 11.727 9.15288C11.147 9.15288 10.607 9.26288 10.107 9.48288C9.61695 9.69288 9.19195 9.98288 8.83195 10.3529C8.47195 10.7229 8.19195 11.1529 7.99195 11.6429C7.79195 12.1329 7.69195 12.6529 7.69195 13.2029C7.69195 13.8629 7.82195 14.4279 8.08195 14.8979C8.34195 15.3679 8.70195 15.7279 9.16195 15.9779C9.63195 16.2279 10.177 16.3529 10.797 16.3529ZM16.2485 13.9529L15.2135 14.8679C15.4135 15.1279 15.6585 15.3779 15.9485 15.6179C16.2385 15.8479 16.5735 16.0379 16.9535 16.1879C17.3335 16.3279 17.7585 16.3979 18.2285 16.3979C18.7185 16.3979 19.1485 16.3079 19.5185 16.1279C19.8985 15.9379 20.1985 15.6779 20.4185 15.3479C20.6385 15.0079 20.7535 14.6229 20.7635 14.1929C20.7735 13.7929 20.6935 13.4629 20.5235 13.2029C20.3635 12.9429 20.1435 12.7279 19.8635 12.5579C19.5835 12.3779 19.2735 12.2179 18.9335 12.0779C18.7135 11.9779 18.5035 11.8829 18.3035 11.7929C18.1035 11.7029 17.9435 11.5979 17.8235 11.4779C17.7135 11.3479 17.6635 11.1979 17.6735 11.0279C17.6735 10.8379 17.7535 10.6829 17.9135 10.5629C18.0835 10.4429 18.3035 10.3829 18.5735 10.3829C18.8935 10.3829 19.1935 10.4729 19.4735 10.6529C19.7635 10.8229 20.0185 11.0379 20.2385 11.2979L21.1385 10.3679C20.8585 10.0279 20.4985 9.74288 20.0585 9.51288C19.6285 9.27288 19.1385 9.15288 18.5885 9.15288C18.1785 9.15288 17.7885 9.22788 17.4185 9.37788C17.0585 9.51788 16.7585 9.73288 16.5185 10.0229C16.2885 10.3029 16.1685 10.6629 16.1585 11.1029C16.1485 11.4929 16.2285 11.8179 16.3985 12.0779C16.5685 12.3279 16.7835 12.5379 17.0435 12.7079C17.3135 12.8679 17.5885 13.0029 17.8685 13.1129C18.0885 13.2029 18.2985 13.2979 18.4985 13.3979C18.7085 13.4979 18.8735 13.6179 18.9935 13.7579C19.1235 13.8979 19.1885 14.0729 19.1885 14.2829C19.1885 14.5129 19.0935 14.7079 18.9035 14.8679C18.7235 15.0179 18.4885 15.0929 18.1985 15.0929C17.9485 15.1029 17.7085 15.0579 17.4785 14.9579C17.2485 14.8579 17.0285 14.7229 16.8185 14.5529C16.6185 14.3729 16.4285 14.1729 16.2485 13.9529ZM26.7469 7.33788H29.4469L27.9169 16.2029H29.6719L31.2019 7.33788H33.8869L34.1719 5.70288H27.0319L26.7469 7.33788ZM32.1566 12.7529C32.0666 13.4129 32.1416 14.0179 32.3816 14.5679C32.6216 15.1079 32.9916 15.5379 33.4916 15.8579C33.9916 16.1779 34.5816 16.3379 35.2616 16.3379C35.9616 16.3379 36.6066 16.1829 37.1966 15.8729C37.7866 15.5529 38.2766 15.1229 38.6666 14.5829C39.0566 14.0429 39.2966 13.4329 39.3866 12.7529C39.4766 12.0929 39.4016 11.4929 39.1616 10.9529C38.9216 10.4029 38.5516 9.96788 38.0516 9.64788C37.5616 9.31788 36.9716 9.15288 36.2816 9.15288C35.5816 9.15288 34.9316 9.31288 34.3316 9.63288C33.7416 9.94288 33.2516 10.3679 32.8616 10.9079C32.4816 11.4479 32.2466 12.0629 32.1566 12.7529ZM33.7766 12.7529C33.8366 12.3529 33.9766 11.9879 34.1966 11.6579C34.4266 11.3279 34.7116 11.0629 35.0516 10.8629C35.3916 10.6629 35.7566 10.5679 36.1466 10.5779C36.5366 10.5779 36.8616 10.6829 37.1216 10.8929C37.3816 11.1029 37.5666 11.3729 37.6766 11.7029C37.7866 12.0229 37.8166 12.3729 37.7666 12.7529C37.7066 13.1429 37.5616 13.5079 37.3316 13.8479C37.1116 14.1779 36.8316 14.4379 36.4916 14.6279C36.1516 14.8179 35.7816 14.9129 35.3816 14.9129C34.9916 14.9129 34.6666 14.8129 34.4066 14.6129C34.1566 14.4029 33.9766 14.1329 33.8666 13.8029C33.7566 13.4729 33.7266 13.1229 33.7766 12.7529ZM41.1847 19.4879L42.8947 9.30288H41.3197L39.5497 19.5029L41.1847 19.4879ZM47.8747 12.7529C47.9547 12.0929 47.8997 11.4879 47.7097 10.9379C47.5197 10.3879 47.2047 9.94788 46.7647 9.61788C46.3347 9.28788 45.7997 9.12288 45.1597 9.12288C44.6897 9.12288 44.2597 9.21788 43.8697 9.40788C43.4897 9.59788 43.1547 9.86288 42.8647 10.2029C42.5747 10.5329 42.3347 10.9179 42.1447 11.3579C41.9647 11.7979 41.8397 12.2629 41.7697 12.7529C41.7097 13.2129 41.7047 13.6629 41.7547 14.1029C41.8147 14.5329 41.9297 14.9229 42.0997 15.2729C42.2797 15.6129 42.5297 15.8829 42.8497 16.0829C43.1697 16.2829 43.5597 16.3829 44.0197 16.3829C44.6597 16.3829 45.2547 16.2279 45.8047 15.9179C46.3547 15.5979 46.8147 15.1629 47.1847 14.6129C47.5547 14.0529 47.7847 13.4329 47.8747 12.7529ZM46.2247 12.7529C46.1647 13.1629 46.0147 13.5329 45.7747 13.8629C45.5347 14.1829 45.2447 14.4379 44.9047 14.6279C44.5647 14.8179 44.1947 14.9079 43.7947 14.8979C43.5347 14.8879 43.3047 14.8279 43.1047 14.7179C42.9047 14.6079 42.7397 14.4529 42.6097 14.2529C42.4797 14.0529 42.3897 13.8279 42.3397 13.5779C42.2897 13.3179 42.2797 13.0429 42.3097 12.7529C42.3697 12.4429 42.4697 12.1579 42.6097 11.8979C42.7597 11.6379 42.9397 11.4129 43.1497 11.2229C43.3697 11.0229 43.6047 10.8679 43.8547 10.7579C44.1047 10.6479 44.3647 10.5929 44.6347 10.5929C45.0247 10.5929 45.3447 10.6929 45.5947 10.8929C45.8547 11.0829 46.0397 11.3429 46.1497 11.6729C46.2597 11.9929 46.2847 12.3529 46.2247 12.7529ZM49.5591 13.9529L48.5241 14.8679C48.7241 15.1279 48.9691 15.3779 49.2591 15.6179C49.5491 15.8479 49.8841 16.0379 50.2641 16.1879C50.6441 16.3279 51.0691 16.3979 51.5391 16.3979C52.0291 16.3979 52.4591 16.3079 52.8291 16.1279C53.2091 15.9379 53.5091 15.6779 53.7291 15.3479C53.9491 15.0079 54.0641 14.6229 54.0741 14.1929C54.0841 13.7929 54.0041 13.4629 53.8341 13.2029C53.6741 12.9429 53.4541 12.7279 53.1741 12.5579C52.8941 12.3779 52.5841 12.2179 52.2441 12.0779C52.0241 11.9779 51.8141 11.8829 51.6141 11.7929C51.4141 11.7029 51.2541 11.5979 51.1341 11.4779C51.0241 11.3479 50.9741 11.1979 50.9841 11.0279C50.9841 10.8379 51.0641 10.6829 51.2241 10.5629C51.3941 10.4429 51.6141 10.3829 51.8841 10.3829C52.2041 10.3829 52.5041 10.4729 52.7841 10.6529C53.0741 10.8229 53.3291 11.0379 53.5491 11.2979L54.4491 10.3679C54.1691 10.0279 53.8091 9.74288 53.3691 9.51288C52.9391 9.27288 52.4491 9.15288 51.8991 9.15288C51.4891 9.15288 51.0991 9.22788 50.7291 9.37788C50.3691 9.51788 50.0691 9.73288 49.8291 10.0229C49.5991 10.3029 49.4791 10.6629 49.4691 11.1029C49.4591 11.4929 49.5391 11.8179 49.7091 12.0779C49.8791 12.3279 50.0941 12.5379 50.3541 12.7079C50.6241 12.8679 50.8991 13.0029 51.1791 13.1129C51.3991 13.2029 51.6091 13.2979 51.8091 13.3979C52.0191 13.4979 52.1841 13.6179 52.3041 13.7579C52.4341 13.8979 52.4991 14.0729 52.4991 14.2829C52.4991 14.5129 52.4041 14.7079 52.2141 14.8679C52.0341 15.0179 51.7991 15.0929 51.5091 15.0929C51.2591 15.1029 51.0191 15.0579 50.7891 14.9579C50.5591 14.8579 50.3391 14.7229 50.1291 14.5529C49.9291 14.3729 49.7391 14.1729 49.5591 13.9529Z" fill="white"/>
<path d="M97.91 10.9529C98 10.4329 98.17 9.94788 98.42 9.49788C98.68 9.04788 98.995 8.65788 99.365 8.32788C99.745 7.98788 100.165 7.72288 100.625 7.53288C101.085 7.34288 101.57 7.24788 102.08 7.24788C102.74 7.24788 103.305 7.38288 103.775 7.65288C104.255 7.92288 104.655 8.28288 104.975 8.73288L105.305 6.63288C104.885 6.26288 104.43 5.98288 103.94 5.79288C103.45 5.60288 102.87 5.51288 102.2 5.52288C101.42 5.52288 100.68 5.66288 99.98 5.94288C99.29 6.22288 98.665 6.61288 98.105 7.11288C97.555 7.60288 97.1 8.17788 96.74 8.83788C96.38 9.48788 96.14 10.1929 96.02 10.9529C95.92 11.6729 95.95 12.3629 96.11 13.0229C96.27 13.6829 96.545 14.2629 96.935 14.7629C97.325 15.2629 97.82 15.6579 98.42 15.9479C99.02 16.2379 99.7 16.3829 100.46 16.3829C101.16 16.3829 101.78 16.2879 102.32 16.0979C102.87 15.8979 103.385 15.6229 103.865 15.2729L104.18 13.1879C103.73 13.5879 103.215 13.9329 102.635 14.2229C102.065 14.5129 101.42 14.6529 100.7 14.6429C100.2 14.6429 99.76 14.5429 99.38 14.3429C99.01 14.1429 98.7 13.8729 98.45 13.5329C98.2 13.1829 98.03 12.7879 97.94 12.3479C97.85 11.9079 97.84 11.4429 97.91 10.9529ZM111.918 9.30288L110.748 16.2029H112.293L113.493 9.30288H111.918ZM105.723 12.7529C105.633 13.4029 105.688 14.0029 105.888 14.5529C106.088 15.0929 106.403 15.5279 106.833 15.8579C107.273 16.1779 107.813 16.3379 108.453 16.3379C108.913 16.3379 109.333 16.2479 109.713 16.0679C110.103 15.8779 110.443 15.6179 110.733 15.2879C111.033 14.9579 111.278 14.5779 111.468 14.1479C111.668 13.7079 111.798 13.2429 111.858 12.7529C111.918 12.2829 111.918 11.8379 111.858 11.4179C111.808 10.9879 111.688 10.6029 111.498 10.2629C111.308 9.92288 111.053 9.65288 110.733 9.45288C110.423 9.25288 110.033 9.15288 109.563 9.15288C108.933 9.14288 108.343 9.29788 107.793 9.61788C107.243 9.93788 106.783 10.3729 106.413 10.9229C106.053 11.4629 105.823 12.0729 105.723 12.7529ZM107.373 12.7529C107.443 12.3429 107.593 11.9679 107.823 11.6279C108.063 11.2879 108.353 11.0229 108.693 10.8329C109.043 10.6429 109.413 10.5529 109.803 10.5629C110.073 10.5729 110.303 10.6379 110.493 10.7579C110.693 10.8779 110.858 11.0379 110.988 11.2379C111.128 11.4379 111.223 11.6679 111.273 11.9279C111.323 12.1879 111.328 12.4629 111.288 12.7529C111.238 13.0529 111.138 13.3379 110.988 13.6079C110.838 13.8679 110.653 14.0979 110.433 14.2979C110.223 14.4979 109.988 14.6579 109.728 14.7779C109.478 14.8879 109.223 14.9379 108.963 14.9279C108.573 14.9279 108.248 14.8279 107.988 14.6279C107.738 14.4279 107.558 14.1629 107.448 13.8329C107.348 13.4929 107.323 13.1329 107.373 12.7529ZM114.488 9.30288L114.233 10.7279H118.073L118.313 9.30288H114.488ZM115.988 6.90288L114.428 16.2029H115.973L117.593 6.90288H115.988ZM121.368 16.3529C122.158 16.3529 122.848 16.1829 123.438 15.8429C124.028 15.5029 124.508 15.0529 124.878 14.4929L123.528 13.9229C123.298 14.2429 123.008 14.5079 122.658 14.7179C122.318 14.9179 121.933 15.0179 121.503 15.0179C121.113 15.0179 120.793 14.9379 120.543 14.7779C120.303 14.6079 120.128 14.3729 120.018 14.0729C119.908 13.7729 119.863 13.4279 119.883 13.0379C119.903 12.6679 119.968 12.3229 120.078 12.0029C120.188 11.6729 120.343 11.3879 120.543 11.1479C120.743 10.9079 120.978 10.7229 121.248 10.5929C121.528 10.4529 121.838 10.3829 122.178 10.3829C122.498 10.3829 122.763 10.4479 122.973 10.5779C123.193 10.7079 123.353 10.8929 123.453 11.1329C123.563 11.3629 123.618 11.6429 123.618 11.9729C123.618 12.0929 123.598 12.2179 123.558 12.3479C123.518 12.4679 123.473 12.5879 123.423 12.7079L123.918 12.0179H119.163V13.1279H125.103C125.153 13.0179 125.193 12.8729 125.223 12.6929C125.253 12.5129 125.268 12.3429 125.268 12.1829C125.268 11.5329 125.148 10.9829 124.908 10.5329C124.678 10.0829 124.343 9.74288 123.903 9.51288C123.463 9.27288 122.928 9.15288 122.298 9.15288C121.718 9.15288 121.178 9.26288 120.678 9.48288C120.188 9.69288 119.763 9.98288 119.403 10.3529C119.043 10.7229 118.763 11.1529 118.563 11.6429C118.363 12.1329 118.263 12.6529 118.263 13.2029C118.263 13.8629 118.393 14.4279 118.653 14.8979C118.913 15.3679 119.273 15.7279 119.733 15.9779C120.203 16.2279 120.748 16.3529 121.368 16.3529ZM125.545 16.6679C125.505 17.2679 125.6 17.7929 125.83 18.2429C126.07 18.7029 126.43 19.0579 126.91 19.3079C127.39 19.5679 127.975 19.6979 128.665 19.6979C129.365 19.6979 129.99 19.5479 130.54 19.2479C131.1 18.9479 131.565 18.5229 131.935 17.9729C132.305 17.4229 132.545 16.7829 132.655 16.0529L133.81 9.30288H132.235L131.065 16.0529C131.005 16.4929 130.86 16.8829 130.63 17.2229C130.4 17.5629 130.115 17.8229 129.775 18.0029C129.435 18.1929 129.075 18.2879 128.695 18.2879C128.325 18.2879 128.02 18.2179 127.78 18.0779C127.54 17.9379 127.365 17.7429 127.255 17.4929C127.155 17.2529 127.11 16.9779 127.12 16.6679H125.545ZM126.085 12.7079C126.005 13.3679 126.065 13.9679 126.265 14.5079C126.465 15.0479 126.785 15.4779 127.225 15.7979C127.665 16.1079 128.2 16.2629 128.83 16.2629C129.29 16.2629 129.71 16.1729 130.09 15.9929C130.48 15.8129 130.82 15.5629 131.11 15.2429C131.41 14.9129 131.655 14.5329 131.845 14.1029C132.035 13.6729 132.165 13.2129 132.235 12.7229C132.295 12.2429 132.295 11.7929 132.235 11.3729C132.175 10.9529 132.05 10.5779 131.86 10.2479C131.67 9.90788 131.415 9.64288 131.095 9.45288C130.775 9.25288 130.385 9.15288 129.925 9.15288C129.295 9.14288 128.705 9.29788 128.155 9.61788C127.615 9.92788 127.16 10.3529 126.79 10.8929C126.42 11.4229 126.185 12.0279 126.085 12.7079ZM127.735 12.7229C127.805 12.3129 127.955 11.9429 128.185 11.6129C128.425 11.2729 128.715 11.0129 129.055 10.8329C129.405 10.6429 129.775 10.5529 130.165 10.5629C130.425 10.5629 130.655 10.6229 130.855 10.7429C131.065 10.8529 131.235 11.0079 131.365 11.2079C131.495 11.4079 131.585 11.6379 131.635 11.8979C131.695 12.1479 131.7 12.4179 131.65 12.7079C131.6 13.0079 131.5 13.2929 131.35 13.5629C131.21 13.8229 131.03 14.0529 130.81 14.2529C130.6 14.4429 130.365 14.5929 130.105 14.7029C129.855 14.8129 129.6 14.8629 129.34 14.8529C128.95 14.8529 128.625 14.7579 128.365 14.5679C128.105 14.3679 127.92 14.1079 127.81 13.7879C127.71 13.4579 127.685 13.1029 127.735 12.7229ZM134.73 12.7529C134.64 13.4129 134.715 14.0179 134.955 14.5679C135.195 15.1079 135.565 15.5379 136.065 15.8579C136.565 16.1779 137.155 16.3379 137.835 16.3379C138.535 16.3379 139.18 16.1829 139.77 15.8729C140.36 15.5529 140.85 15.1229 141.24 14.5829C141.63 14.0429 141.87 13.4329 141.96 12.7529C142.05 12.0929 141.975 11.4929 141.735 10.9529C141.495 10.4029 141.125 9.96788 140.625 9.64788C140.135 9.31788 139.545 9.15288 138.855 9.15288C138.155 9.15288 137.505 9.31288 136.905 9.63288C136.315 9.94288 135.825 10.3679 135.435 10.9079C135.055 11.4479 134.82 12.0629 134.73 12.7529ZM136.35 12.7529C136.41 12.3529 136.55 11.9879 136.77 11.6579C137 11.3279 137.285 11.0629 137.625 10.8629C137.965 10.6629 138.33 10.5679 138.72 10.5779C139.11 10.5779 139.435 10.6829 139.695 10.8929C139.955 11.1029 140.14 11.3729 140.25 11.7029C140.36 12.0229 140.39 12.3729 140.34 12.7529C140.28 13.1429 140.135 13.5079 139.905 13.8479C139.685 14.1779 139.405 14.4379 139.065 14.6279C138.725 14.8179 138.355 14.9129 137.955 14.9129C137.565 14.9129 137.24 14.8129 136.98 14.6129C136.73 14.4029 136.55 14.1329 136.44 13.8029C136.33 13.4729 136.3 13.1229 136.35 12.7529ZM145.528 9.30288H143.938L142.738 16.2029H144.343L145.528 9.30288ZM147.253 11.0129L148.228 9.67788C148.068 9.50788 147.888 9.37788 147.688 9.28788C147.498 9.19788 147.278 9.15288 147.028 9.15288C146.638 9.15288 146.268 9.29288 145.918 9.57288C145.568 9.84288 145.273 10.1979 145.033 10.6379C144.793 11.0679 144.628 11.5179 144.538 11.9879L145.003 12.3029C145.053 12.0229 145.133 11.7579 145.243 11.5079C145.363 11.2579 145.523 11.0529 145.723 10.8929C145.923 10.7329 146.163 10.6579 146.443 10.6679C146.613 10.6679 146.758 10.7029 146.878 10.7729C147.008 10.8329 147.133 10.9129 147.253 11.0129ZM149.763 6.55788C149.763 6.82788 149.858 7.05788 150.048 7.24788C150.248 7.43788 150.488 7.53288 150.768 7.53288C151.048 7.53288 151.288 7.43788 151.488 7.24788C151.688 7.05788 151.788 6.82788 151.788 6.55788C151.788 6.27788 151.688 6.04288 151.488 5.85288C151.288 5.66288 151.048 5.56788 150.768 5.56788C150.488 5.56788 150.248 5.66288 150.048 5.85288C149.858 6.04288 149.763 6.27788 149.763 6.55788ZM149.493 9.30288L148.353 16.2029H149.928L151.098 9.30288H149.493ZM155.25 16.3529C156.04 16.3529 156.73 16.1829 157.32 15.8429C157.91 15.5029 158.39 15.0529 158.76 14.4929L157.41 13.9229C157.18 14.2429 156.89 14.5079 156.54 14.7179C156.2 14.9179 155.815 15.0179 155.385 15.0179C154.995 15.0179 154.675 14.9379 154.425 14.7779C154.185 14.6079 154.01 14.3729 153.9 14.0729C153.79 13.7729 153.745 13.4279 153.765 13.0379C153.785 12.6679 153.85 12.3229 153.96 12.0029C154.07 11.6729 154.225 11.3879 154.425 11.1479C154.625 10.9079 154.86 10.7229 155.13 10.5929C155.41 10.4529 155.72 10.3829 156.06 10.3829C156.38 10.3829 156.645 10.4479 156.855 10.5779C157.075 10.7079 157.235 10.8929 157.335 11.1329C157.445 11.3629 157.5 11.6429 157.5 11.9729C157.5 12.0929 157.48 12.2179 157.44 12.3479C157.4 12.4679 157.355 12.5879 157.305 12.7079L157.8 12.0179H153.045V13.1279H158.985C159.035 13.0179 159.075 12.8729 159.105 12.6929C159.135 12.5129 159.15 12.3429 159.15 12.1829C159.15 11.5329 159.03 10.9829 158.79 10.5329C158.56 10.0829 158.225 9.74288 157.785 9.51288C157.345 9.27288 156.81 9.15288 156.18 9.15288C155.6 9.15288 155.06 9.26288 154.56 9.48288C154.07 9.69288 153.645 9.98288 153.285 10.3529C152.925 10.7229 152.645 11.1529 152.445 11.6429C152.245 12.1329 152.145 12.6529 152.145 13.2029C152.145 13.8629 152.275 14.4279 152.535 14.8979C152.795 15.3679 153.155 15.7279 153.615 15.9779C154.085 16.2279 154.63 16.3529 155.25 16.3529ZM160.702 13.9529L159.667 14.8679C159.867 15.1279 160.112 15.3779 160.402 15.6179C160.692 15.8479 161.027 16.0379 161.407 16.1879C161.787 16.3279 162.212 16.3979 162.682 16.3979C163.172 16.3979 163.602 16.3079 163.972 16.1279C164.352 15.9379 164.652 15.6779 164.872 15.3479C165.092 15.0079 165.207 14.6229 165.217 14.1929C165.227 13.7929 165.147 13.4629 164.977 13.2029C164.817 12.9429 164.597 12.7279 164.317 12.5579C164.037 12.3779 163.727 12.2179 163.387 12.0779C163.167 11.9779 162.957 11.8829 162.757 11.7929C162.557 11.7029 162.397 11.5979 162.277 11.4779C162.167 11.3479 162.117 11.1979 162.127 11.0279C162.127 10.8379 162.207 10.6829 162.367 10.5629C162.537 10.4429 162.757 10.3829 163.027 10.3829C163.347 10.3829 163.647 10.4729 163.927 10.6529C164.217 10.8229 164.472 11.0379 164.692 11.2979L165.592 10.3679C165.312 10.0279 164.952 9.74288 164.512 9.51288C164.082 9.27288 163.592 9.15288 163.042 9.15288C162.632 9.15288 162.242 9.22788 161.872 9.37788C161.512 9.51788 161.212 9.73288 160.972 10.0229C160.742 10.3029 160.622 10.6629 160.612 11.1029C160.602 11.4929 160.682 11.8179 160.852 12.0779C161.022 12.3279 161.237 12.5379 161.497 12.7079C161.767 12.8679 162.042 13.0029 162.322 13.1129C162.542 13.2029 162.752 13.2979 162.952 13.3979C163.162 13.4979 163.327 13.6179 163.447 13.7579C163.577 13.8979 163.642 14.0729 163.642 14.2829C163.642 14.5129 163.547 14.7079 163.357 14.8679C163.177 15.0179 162.942 15.0929 162.652 15.0929C162.402 15.1029 162.162 15.0579 161.932 14.9579C161.702 14.8579 161.482 14.7229 161.272 14.5529C161.072 14.3729 160.882 14.1729 160.702 13.9529Z" fill="white"/>
<path d="M208.716 10.3029C208.8 9.81755 208.959 9.36488 209.192 8.94488C209.435 8.52488 209.729 8.16088 210.074 7.85288C210.429 7.53555 210.821 7.28821 211.25 7.11088C211.679 6.93355 212.132 6.84488 212.608 6.84488C213.224 6.84488 213.751 6.97088 214.19 7.22288C214.638 7.47488 215.011 7.81088 215.31 8.23088L215.618 6.27088C215.226 5.92555 214.801 5.66421 214.344 5.48688C213.887 5.30955 213.345 5.22555 212.72 5.23488C211.992 5.23488 211.301 5.36555 210.648 5.62688C210.004 5.88821 209.421 6.25221 208.898 6.71888C208.385 7.17621 207.96 7.71288 207.624 8.32888C207.288 8.93555 207.064 9.59355 206.952 10.3029C206.859 10.9749 206.887 11.6189 207.036 12.2349C207.185 12.8509 207.442 13.3922 207.806 13.8589C208.17 14.3255 208.632 14.6942 209.192 14.9649C209.752 15.2355 210.387 15.3709 211.096 15.3709C211.749 15.3709 212.328 15.2822 212.832 15.1049C213.345 14.9182 213.826 14.6615 214.274 14.3349L214.568 12.3889C214.148 12.7622 213.667 13.0842 213.126 13.3549C212.594 13.6255 211.992 13.7562 211.32 13.7469C210.853 13.7469 210.443 13.6535 210.088 13.4669C209.743 13.2802 209.453 13.0282 209.22 12.7109C208.987 12.3842 208.828 12.0155 208.744 11.6049C208.66 11.1942 208.651 10.7602 208.716 10.3029ZM216.107 11.9829C216.023 12.5989 216.093 13.1635 216.317 13.6769C216.541 14.1809 216.886 14.5822 217.353 14.8809C217.819 15.1795 218.37 15.3289 219.005 15.3289C219.658 15.3289 220.26 15.1842 220.811 14.8949C221.361 14.5962 221.819 14.1949 222.183 13.6909C222.547 13.1869 222.771 12.6175 222.855 11.9829C222.939 11.3669 222.869 10.8069 222.645 10.3029C222.421 9.78955 222.075 9.38355 221.609 9.08488C221.151 8.77688 220.601 8.62288 219.957 8.62288C219.303 8.62288 218.697 8.77221 218.137 9.07088C217.586 9.36021 217.129 9.75688 216.765 10.2609C216.41 10.7649 216.191 11.3389 216.107 11.9829ZM217.619 11.9829C217.675 11.6095 217.805 11.2689 218.011 10.9609C218.225 10.6529 218.491 10.4055 218.809 10.2189C219.126 10.0322 219.467 9.94355 219.831 9.95288C220.195 9.95288 220.498 10.0509 220.741 10.2469C220.983 10.4429 221.156 10.6949 221.259 11.0029C221.361 11.3015 221.389 11.6282 221.343 11.9829C221.287 12.3469 221.151 12.6875 220.937 13.0049C220.731 13.3129 220.47 13.5555 220.153 13.7329C219.835 13.9102 219.49 13.9989 219.117 13.9989C218.753 13.9989 218.449 13.9055 218.207 13.7189C217.973 13.5229 217.805 13.2709 217.703 12.9629C217.6 12.6549 217.572 12.3282 217.619 11.9829ZM228.299 11.2829L227.627 15.2029H229.153L229.853 11.1149C229.918 10.6575 229.895 10.2422 229.783 9.86888C229.68 9.48621 229.484 9.18288 229.195 8.95888C228.915 8.73488 228.527 8.62288 228.033 8.62288C227.594 8.62288 227.211 8.72088 226.885 8.91688C226.567 9.10355 226.287 9.36488 226.045 9.70088L226.199 8.76288H224.701L223.581 15.2029H225.093L225.793 11.2409C225.83 10.9609 225.923 10.7182 226.073 10.5129C226.222 10.3075 226.409 10.1442 226.633 10.0229C226.866 9.90155 227.123 9.84088 227.403 9.84088C227.683 9.84088 227.893 9.91088 228.033 10.0509C228.173 10.1815 228.261 10.3589 228.299 10.5829C228.336 10.7975 228.336 11.0309 228.299 11.2829ZM231.243 8.76288L231.005 10.0929H234.589L234.813 8.76288H231.243ZM232.643 6.52288L231.187 15.2029H232.629L234.141 6.52288H232.643ZM240.521 8.76288L239.429 15.2029H240.871L241.991 8.76288H240.521ZM234.739 11.9829C234.655 12.5895 234.706 13.1495 234.893 13.6629C235.08 14.1669 235.374 14.5729 235.775 14.8809C236.186 15.1795 236.69 15.3289 237.287 15.3289C237.716 15.3289 238.108 15.2449 238.463 15.0769C238.827 14.8995 239.144 14.6569 239.415 14.3489C239.695 14.0409 239.924 13.6862 240.101 13.2849C240.288 12.8742 240.409 12.4402 240.465 11.9829C240.521 11.5442 240.521 11.1289 240.465 10.7369C240.418 10.3355 240.306 9.97621 240.129 9.65888C239.952 9.34155 239.714 9.08955 239.415 8.90288C239.126 8.71621 238.762 8.62288 238.323 8.62288C237.735 8.61355 237.184 8.75821 236.671 9.05688C236.158 9.35555 235.728 9.76155 235.383 10.2749C235.047 10.7789 234.832 11.3482 234.739 11.9829ZM236.279 11.9829C236.344 11.6002 236.484 11.2502 236.699 10.9329C236.923 10.6155 237.194 10.3682 237.511 10.1909C237.838 10.0135 238.183 9.92955 238.547 9.93888C238.799 9.94821 239.014 10.0089 239.191 10.1209C239.378 10.2329 239.532 10.3822 239.653 10.5689C239.784 10.7555 239.872 10.9702 239.919 11.2129C239.966 11.4555 239.97 11.7122 239.933 11.9829C239.886 12.2629 239.793 12.5289 239.653 12.7809C239.513 13.0235 239.34 13.2382 239.135 13.4249C238.939 13.6115 238.72 13.7609 238.477 13.8729C238.244 13.9755 238.006 14.0222 237.763 14.0129C237.399 14.0129 237.096 13.9195 236.853 13.7329C236.62 13.5462 236.452 13.2989 236.349 12.9909C236.256 12.6735 236.232 12.3375 236.279 11.9829ZM244.277 11.9829C244.342 11.6002 244.478 11.2549 244.683 10.9469C244.898 10.6389 245.168 10.3915 245.495 10.2049C245.831 10.0182 246.19 9.92488 246.573 9.92488C246.993 9.92488 247.366 10.0229 247.693 10.2189C248.029 10.4149 248.276 10.6809 248.435 11.0169L248.659 9.35088C248.416 9.11755 248.118 8.94021 247.763 8.81888C247.418 8.68821 247.035 8.62288 246.615 8.62288C245.962 8.62288 245.355 8.77221 244.795 9.07088C244.244 9.36021 243.787 9.75688 243.423 10.2609C243.059 10.7649 242.835 11.3389 242.751 11.9829C242.676 12.5989 242.751 13.1635 242.975 13.6769C243.199 14.1809 243.544 14.5822 244.011 14.8809C244.478 15.1795 245.033 15.3289 245.677 15.3289C246.106 15.3289 246.508 15.2635 246.881 15.1329C247.254 15.0022 247.586 14.8295 247.875 14.6149L248.099 12.9629C247.856 13.2522 247.534 13.5042 247.133 13.7189C246.741 13.9335 246.316 14.0362 245.859 14.0269C245.486 14.0175 245.168 13.9195 244.907 13.7329C244.655 13.5462 244.473 13.2989 244.361 12.9909C244.258 12.6735 244.23 12.3375 244.277 11.9829ZM249.468 8.76288L249.23 10.0929H252.814L253.038 8.76288H249.468ZM250.868 6.52288L249.412 15.2029H250.854L252.366 6.52288H250.868ZM253.65 13.1029L252.684 13.9569C252.87 14.1995 253.099 14.4329 253.37 14.6569C253.64 14.8715 253.953 15.0489 254.308 15.1889C254.662 15.3195 255.059 15.3849 255.498 15.3849C255.955 15.3849 256.356 15.3009 256.702 15.1329C257.056 14.9555 257.336 14.7129 257.542 14.4049C257.747 14.0875 257.854 13.7282 257.864 13.3269C257.873 12.9535 257.798 12.6455 257.64 12.4029C257.49 12.1602 257.285 11.9595 257.024 11.8009C256.762 11.6329 256.473 11.4835 256.156 11.3529C255.95 11.2595 255.754 11.1709 255.568 11.0869C255.381 11.0029 255.232 10.9049 255.12 10.7929C255.017 10.6715 254.97 10.5315 254.98 10.3729C254.98 10.1955 255.054 10.0509 255.204 9.93888C255.362 9.82688 255.568 9.77088 255.82 9.77088C256.118 9.77088 256.398 9.85488 256.66 10.0229C256.93 10.1815 257.168 10.3822 257.374 10.6249L258.214 9.75688C257.952 9.43955 257.616 9.17355 257.206 8.95888C256.804 8.73488 256.347 8.62288 255.834 8.62288C255.451 8.62288 255.087 8.69288 254.742 8.83288C254.406 8.96355 254.126 9.16421 253.902 9.43488C253.687 9.69621 253.575 10.0322 253.566 10.4429C253.556 10.8069 253.631 11.1102 253.79 11.3529C253.948 11.5862 254.149 11.7822 254.392 11.9409C254.644 12.0902 254.9 12.2162 255.162 12.3189C255.367 12.4029 255.563 12.4915 255.75 12.5849C255.946 12.6782 256.1 12.7902 256.212 12.9209C256.333 13.0515 256.394 13.2149 256.394 13.4109C256.394 13.6255 256.305 13.8075 256.128 13.9569C255.96 14.0969 255.74 14.1669 255.47 14.1669C255.236 14.1762 255.012 14.1342 254.798 14.0409C254.583 13.9475 254.378 13.8215 254.182 13.6629C253.995 13.4949 253.818 13.3082 253.65 13.1029Z" fill="white"/>
</svg>
