<svg width="296" height="23" viewBox="0 0 296 23" fill="none" xmlns="http://www.w3.org/2000/svg">
<path d="M3.415 13.5029H8.815L8.74 12.0029H3.97L3.415 13.5029ZM6.925 8.67288L7.87 12.5729L7.84 13.0079L8.665 16.2029H10.585L7.51 5.08788L0.58 16.2029H2.605L4.585 12.9179L4.675 12.5279L6.925 8.67288ZM17.1359 19.4879L18.8459 9.30288H17.2709L15.5009 19.5029L17.1359 19.4879ZM23.8259 12.7529C23.9059 12.0929 23.8509 11.4879 23.6609 10.9379C23.4709 10.3879 23.1559 9.94788 22.7159 9.61788C22.2859 9.28788 21.7509 9.12288 21.1109 9.12288C20.6409 9.12288 20.2109 9.21788 19.8209 9.40788C19.4409 9.59788 19.1059 9.86288 18.8159 10.2029C18.5259 10.5329 18.2859 10.9179 18.0959 11.3579C17.9159 11.7979 17.7909 12.2629 17.7209 12.7529C17.6609 13.2129 17.6559 13.6629 17.7059 14.1029C17.7659 14.5329 17.8809 14.9229 18.0509 15.2729C18.2309 15.6129 18.4809 15.8829 18.8009 16.0829C19.1209 16.2829 19.5109 16.3829 19.9709 16.3829C20.6109 16.3829 21.2059 16.2279 21.7559 15.9179C22.3059 15.5979 22.7659 15.1629 23.1359 14.6129C23.5059 14.0529 23.7359 13.4329 23.8259 12.7529ZM22.1759 12.7529C22.1159 13.1629 21.9659 13.5329 21.7259 13.8629C21.4859 14.1829 21.1959 14.4379 20.8559 14.6279C20.5159 14.8179 20.1459 14.9079 19.7459 14.8979C19.4859 14.8879 19.2559 14.8279 19.0559 14.7179C18.8559 14.6079 18.6909 14.4529 18.5609 14.2529C18.4309 14.0529 18.3409 13.8279 18.2909 13.5779C18.2409 13.3179 18.2309 13.0429 18.2609 12.7529C18.3209 12.4429 18.4209 12.1579 18.5609 11.8979C18.7109 11.6379 18.8909 11.4129 19.1009 11.2229C19.3209 11.0229 19.5559 10.8679 19.8059 10.7579C20.0559 10.6479 20.3159 10.5929 20.5859 10.5929C20.9759 10.5929 21.2959 10.6929 21.5459 10.8929C21.8059 11.0829 21.9909 11.3429 22.1009 11.6729C22.2109 11.9929 22.2359 12.3529 22.1759 12.7529ZM27.4752 9.30288H25.8852L24.6852 16.2029H26.2902L27.4752 9.30288ZM29.2002 11.0129L30.1752 9.67788C30.0152 9.50788 29.8352 9.37788 29.6352 9.28788C29.4452 9.19788 29.2252 9.15288 28.9752 9.15288C28.5852 9.15288 28.2152 9.29288 27.8652 9.57288C27.5152 9.84288 27.2202 10.1979 26.9802 10.6379C26.7402 11.0679 26.5752 11.5179 26.4852 11.9879L26.9502 12.3029C27.0002 12.0229 27.0802 11.7579 27.1902 11.5079C27.3102 11.2579 27.4702 11.0529 27.6702 10.8929C27.8702 10.7329 28.1102 10.6579 28.3902 10.6679C28.5602 10.6679 28.7052 10.7029 28.8252 10.7729C28.9552 10.8329 29.0802 10.9129 29.2002 11.0129ZM30.0804 12.7529C29.9904 13.4129 30.0654 14.0179 30.3054 14.5679C30.5454 15.1079 30.9154 15.5379 31.4154 15.8579C31.9154 16.1779 32.5054 16.3379 33.1854 16.3379C33.8854 16.3379 34.5304 16.1829 35.1204 15.8729C35.7104 15.5529 36.2004 15.1229 36.5904 14.5829C36.9804 14.0429 37.2204 13.4329 37.3104 12.7529C37.4004 12.0929 37.3254 11.4929 37.0854 10.9529C36.8454 10.4029 36.4754 9.96788 35.9754 9.64788C35.4854 9.31788 34.8954 9.15288 34.2054 9.15288C33.5054 9.15288 32.8554 9.31288 32.2554 9.63288C31.6654 9.94288 31.1754 10.3679 30.7854 10.9079C30.4054 11.4479 30.1704 12.0629 30.0804 12.7529ZM31.7004 12.7529C31.7604 12.3529 31.9004 11.9879 32.1204 11.6579C32.3504 11.3279 32.6354 11.0629 32.9754 10.8629C33.3154 10.6629 33.6804 10.5679 34.0704 10.5779C34.4604 10.5779 34.7854 10.6829 35.0454 10.8929C35.3054 11.1029 35.4904 11.3729 35.6004 11.7029C35.7104 12.0229 35.7404 12.3729 35.6904 12.7529C35.6304 13.1429 35.4854 13.5079 35.2554 13.8479C35.0354 14.1779 34.7554 14.4379 34.4154 14.6279C34.0754 14.8179 33.7054 14.9129 33.3054 14.9129C32.9154 14.9129 32.5904 14.8129 32.3304 14.6129C32.0804 14.4029 31.9004 14.1329 31.7904 13.8029C31.6804 13.4729 31.6504 13.1229 31.7004 12.7529ZM39.1086 19.4879L40.8186 9.30288H39.2436L37.4736 19.5029L39.1086 19.4879ZM45.7986 12.7529C45.8786 12.0929 45.8236 11.4879 45.6336 10.9379C45.4436 10.3879 45.1286 9.94788 44.6886 9.61788C44.2586 9.28788 43.7236 9.12288 43.0836 9.12288C42.6136 9.12288 42.1836 9.21788 41.7936 9.40788C41.4136 9.59788 41.0786 9.86288 40.7886 10.2029C40.4986 10.5329 40.2586 10.9179 40.0686 11.3579C39.8886 11.7979 39.7636 12.2629 39.6936 12.7529C39.6336 13.2129 39.6286 13.6629 39.6786 14.1029C39.7386 14.5329 39.8536 14.9229 40.0236 15.2729C40.2036 15.6129 40.4536 15.8829 40.7736 16.0829C41.0936 16.2829 41.4836 16.3829 41.9436 16.3829C42.5836 16.3829 43.1786 16.2279 43.7286 15.9179C44.2786 15.5979 44.7386 15.1629 45.1086 14.6129C45.4786 14.0529 45.7086 13.4329 45.7986 12.7529ZM44.1486 12.7529C44.0886 13.1629 43.9386 13.5329 43.6986 13.8629C43.4586 14.1829 43.1686 14.4379 42.8286 14.6279C42.4886 14.8179 42.1186 14.9079 41.7186 14.8979C41.4586 14.8879 41.2286 14.8279 41.0286 14.7179C40.8286 14.6079 40.6636 14.4529 40.5336 14.2529C40.4036 14.0529 40.3136 13.8279 40.2636 13.5779C40.2136 13.3179 40.2036 13.0429 40.2336 12.7529C40.2936 12.4429 40.3936 12.1579 40.5336 11.8979C40.6836 11.6379 40.8636 11.4129 41.0736 11.2229C41.2936 11.0229 41.5286 10.8679 41.7786 10.7579C42.0286 10.6479 42.2886 10.5929 42.5586 10.5929C42.9486 10.5929 43.2686 10.6929 43.5186 10.8929C43.7786 11.0829 43.9636 11.3429 44.0736 11.6729C44.1836 11.9929 44.2086 12.3529 44.1486 12.7529ZM46.8529 12.7529C46.7629 13.4129 46.8379 14.0179 47.0779 14.5679C47.3179 15.1079 47.6879 15.5379 48.1879 15.8579C48.6879 16.1779 49.2779 16.3379 49.9579 16.3379C50.6579 16.3379 51.3029 16.1829 51.8929 15.8729C52.4829 15.5529 52.9729 15.1229 53.3629 14.5829C53.7529 14.0429 53.9929 13.4329 54.0829 12.7529C54.1729 12.0929 54.0979 11.4929 53.8579 10.9529C53.6179 10.4029 53.2479 9.96788 52.7479 9.64788C52.2579 9.31788 51.6679 9.15288 50.9779 9.15288C50.2779 9.15288 49.6279 9.31288 49.0279 9.63288C48.4379 9.94288 47.9479 10.3679 47.5579 10.9079C47.1779 11.4479 46.9429 12.0629 46.8529 12.7529ZM48.4729 12.7529C48.5329 12.3529 48.6729 11.9879 48.8929 11.6579C49.1229 11.3279 49.4079 11.0629 49.7479 10.8629C50.0879 10.6629 50.4529 10.5679 50.8429 10.5779C51.2329 10.5779 51.5579 10.6829 51.8179 10.8929C52.0779 11.1029 52.2629 11.3729 52.3729 11.7029C52.4829 12.0229 52.5129 12.3729 52.4629 12.7529C52.4029 13.1429 52.2579 13.5079 52.0279 13.8479C51.8079 14.1779 51.5279 14.4379 51.1879 14.6279C50.8479 14.8179 50.4779 14.9129 50.0779 14.9129C49.6879 14.9129 49.3629 14.8129 49.1029 14.6129C48.8529 14.4029 48.6729 14.1329 48.5629 13.8029C48.4529 13.4729 48.4229 13.1229 48.4729 12.7529ZM55.686 13.9529L54.651 14.8679C54.851 15.1279 55.096 15.3779 55.386 15.6179C55.676 15.8479 56.011 16.0379 56.391 16.1879C56.771 16.3279 57.196 16.3979 57.666 16.3979C58.156 16.3979 58.586 16.3079 58.956 16.1279C59.336 15.9379 59.636 15.6779 59.856 15.3479C60.076 15.0079 60.191 14.6229 60.201 14.1929C60.211 13.7929 60.131 13.4629 59.961 13.2029C59.801 12.9429 59.581 12.7279 59.301 12.5579C59.021 12.3779 58.711 12.2179 58.371 12.0779C58.151 11.9779 57.941 11.8829 57.741 11.7929C57.541 11.7029 57.381 11.5979 57.261 11.4779C57.151 11.3479 57.101 11.1979 57.111 11.0279C57.111 10.8379 57.191 10.6829 57.351 10.5629C57.521 10.4429 57.741 10.3829 58.011 10.3829C58.331 10.3829 58.631 10.4729 58.911 10.6529C59.201 10.8229 59.456 11.0379 59.676 11.2979L60.576 10.3679C60.296 10.0279 59.936 9.74288 59.496 9.51288C59.066 9.27288 58.576 9.15288 58.026 9.15288C57.616 9.15288 57.226 9.22788 56.856 9.37788C56.496 9.51788 56.196 9.73288 55.956 10.0229C55.726 10.3029 55.606 10.6629 55.596 11.1029C55.586 11.4929 55.666 11.8179 55.836 12.0779C56.006 12.3279 56.221 12.5379 56.481 12.7079C56.751 12.8679 57.026 13.0029 57.306 13.1129C57.526 13.2029 57.736 13.2979 57.936 13.3979C58.146 13.4979 58.311 13.6179 58.431 13.7579C58.561 13.8979 58.626 14.0729 58.626 14.2829C58.626 14.5129 58.531 14.7079 58.341 14.8679C58.161 15.0179 57.926 15.0929 57.636 15.0929C57.386 15.1029 57.146 15.0579 56.916 14.9579C56.686 14.8579 56.466 14.7229 56.256 14.5529C56.056 14.3729 55.866 14.1729 55.686 13.9529Z" fill="white"/>
<path d="M110.945 5.70288L109.73 12.7529L103.58 5.19288L101.705 16.2029H103.43L104.645 9.13788L110.78 16.7129L112.67 5.70288H110.945ZM113.147 12.7529C113.057 13.4129 113.132 14.0179 113.372 14.5679C113.612 15.1079 113.982 15.5379 114.482 15.8579C114.982 16.1779 115.572 16.3379 116.252 16.3379C116.952 16.3379 117.597 16.1829 118.187 15.8729C118.777 15.5529 119.267 15.1229 119.657 14.5829C120.047 14.0429 120.287 13.4329 120.377 12.7529C120.467 12.0929 120.392 11.4929 120.152 10.9529C119.912 10.4029 119.542 9.96788 119.042 9.64788C118.552 9.31788 117.962 9.15288 117.272 9.15288C116.572 9.15288 115.922 9.31288 115.322 9.63288C114.732 9.94288 114.242 10.3679 113.852 10.9079C113.472 11.4479 113.237 12.0629 113.147 12.7529ZM114.767 12.7529C114.827 12.3529 114.967 11.9879 115.187 11.6579C115.417 11.3279 115.702 11.0629 116.042 10.8629C116.382 10.6629 116.747 10.5679 117.137 10.5779C117.527 10.5779 117.852 10.6829 118.112 10.8929C118.372 11.1029 118.557 11.3729 118.667 11.7029C118.777 12.0229 118.807 12.3729 118.757 12.7529C118.697 13.1429 118.552 13.5079 118.322 13.8479C118.102 14.1779 117.822 14.4379 117.482 14.6279C117.142 14.8179 116.772 14.9129 116.372 14.9129C115.982 14.9129 115.657 14.8129 115.397 14.6129C115.147 14.4029 114.967 14.1329 114.857 13.8029C114.747 13.4729 114.717 13.1229 114.767 12.7529ZM121.98 13.9529L120.945 14.8679C121.145 15.1279 121.39 15.3779 121.68 15.6179C121.97 15.8479 122.305 16.0379 122.685 16.1879C123.065 16.3279 123.49 16.3979 123.96 16.3979C124.45 16.3979 124.88 16.3079 125.25 16.1279C125.63 15.9379 125.93 15.6779 126.15 15.3479C126.37 15.0079 126.485 14.6229 126.495 14.1929C126.505 13.7929 126.425 13.4629 126.255 13.2029C126.095 12.9429 125.875 12.7279 125.595 12.5579C125.315 12.3779 125.005 12.2179 124.665 12.0779C124.445 11.9779 124.235 11.8829 124.035 11.7929C123.835 11.7029 123.675 11.5979 123.555 11.4779C123.445 11.3479 123.395 11.1979 123.405 11.0279C123.405 10.8379 123.485 10.6829 123.645 10.5629C123.815 10.4429 124.035 10.3829 124.305 10.3829C124.625 10.3829 124.925 10.4729 125.205 10.6529C125.495 10.8229 125.75 11.0379 125.97 11.2979L126.87 10.3679C126.59 10.0279 126.23 9.74288 125.79 9.51288C125.36 9.27288 124.87 9.15288 124.32 9.15288C123.91 9.15288 123.52 9.22788 123.15 9.37788C122.79 9.51788 122.49 9.73288 122.25 10.0229C122.02 10.3029 121.9 10.6629 121.89 11.1029C121.88 11.4929 121.96 11.8179 122.13 12.0779C122.3 12.3279 122.515 12.5379 122.775 12.7079C123.045 12.8679 123.32 13.0029 123.6 13.1129C123.82 13.2029 124.03 13.2979 124.23 13.3979C124.44 13.4979 124.605 13.6179 124.725 13.7579C124.855 13.8979 124.92 14.0729 124.92 14.2829C124.92 14.5129 124.825 14.7079 124.635 14.8679C124.455 15.0179 124.22 15.0929 123.93 15.0929C123.68 15.1029 123.44 15.0579 123.21 14.9579C122.98 14.8579 122.76 14.7229 122.55 14.5529C122.35 14.3729 122.16 14.1729 121.98 13.9529ZM132.673 13.9529L131.638 14.8679C131.838 15.1279 132.083 15.3779 132.373 15.6179C132.663 15.8479 132.998 16.0379 133.378 16.1879C133.758 16.3279 134.183 16.3979 134.653 16.3979C135.143 16.3979 135.573 16.3079 135.943 16.1279C136.323 15.9379 136.623 15.6779 136.843 15.3479C137.063 15.0079 137.178 14.6229 137.188 14.1929C137.198 13.7929 137.118 13.4629 136.948 13.2029C136.788 12.9429 136.568 12.7279 136.288 12.5579C136.008 12.3779 135.698 12.2179 135.358 12.0779C135.138 11.9779 134.928 11.8829 134.728 11.7929C134.528 11.7029 134.368 11.5979 134.248 11.4779C134.138 11.3479 134.088 11.1979 134.098 11.0279C134.098 10.8379 134.178 10.6829 134.338 10.5629C134.508 10.4429 134.728 10.3829 134.998 10.3829C135.318 10.3829 135.618 10.4729 135.898 10.6529C136.188 10.8229 136.443 11.0379 136.663 11.2979L137.563 10.3679C137.283 10.0279 136.923 9.74288 136.483 9.51288C136.053 9.27288 135.563 9.15288 135.013 9.15288C134.603 9.15288 134.213 9.22788 133.843 9.37788C133.483 9.51788 133.183 9.73288 132.943 10.0229C132.713 10.3029 132.593 10.6629 132.583 11.1029C132.573 11.4929 132.653 11.8179 132.823 12.0779C132.993 12.3279 133.208 12.5379 133.468 12.7079C133.738 12.8679 134.013 13.0029 134.293 13.1129C134.513 13.2029 134.723 13.2979 134.923 13.3979C135.133 13.4979 135.298 13.6179 135.418 13.7579C135.548 13.8979 135.613 14.0729 135.613 14.2829C135.613 14.5129 135.518 14.7079 135.328 14.8679C135.148 15.0179 134.913 15.0929 134.623 15.0929C134.373 15.1029 134.133 15.0579 133.903 14.9579C133.673 14.8579 133.453 14.7229 133.243 14.5529C133.043 14.3729 132.853 14.1729 132.673 13.9529ZM141.255 16.3529C142.045 16.3529 142.735 16.1829 143.325 15.8429C143.915 15.5029 144.395 15.0529 144.765 14.4929L143.415 13.9229C143.185 14.2429 142.895 14.5079 142.545 14.7179C142.205 14.9179 141.82 15.0179 141.39 15.0179C141 15.0179 140.68 14.9379 140.43 14.7779C140.19 14.6079 140.015 14.3729 139.905 14.0729C139.795 13.7729 139.75 13.4279 139.77 13.0379C139.79 12.6679 139.855 12.3229 139.965 12.0029C140.075 11.6729 140.23 11.3879 140.43 11.1479C140.63 10.9079 140.865 10.7229 141.135 10.5929C141.415 10.4529 141.725 10.3829 142.065 10.3829C142.385 10.3829 142.65 10.4479 142.86 10.5779C143.08 10.7079 143.24 10.8929 143.34 11.1329C143.45 11.3629 143.505 11.6429 143.505 11.9729C143.505 12.0929 143.485 12.2179 143.445 12.3479C143.405 12.4679 143.36 12.5879 143.31 12.7079L143.805 12.0179H139.05V13.1279H144.99C145.04 13.0179 145.08 12.8729 145.11 12.6929C145.14 12.5129 145.155 12.3429 145.155 12.1829C145.155 11.5329 145.035 10.9829 144.795 10.5329C144.565 10.0829 144.23 9.74288 143.79 9.51288C143.35 9.27288 142.815 9.15288 142.185 9.15288C141.605 9.15288 141.065 9.26288 140.565 9.48288C140.075 9.69288 139.65 9.98288 139.29 10.3529C138.93 10.7229 138.65 11.1529 138.45 11.6429C138.25 12.1329 138.15 12.6529 138.15 13.2029C138.15 13.8629 138.28 14.4279 138.54 14.8979C138.8 15.3679 139.16 15.7279 139.62 15.9779C140.09 16.2279 140.635 16.3529 141.255 16.3529ZM148.672 9.30288H147.082L145.882 16.2029H147.487L148.672 9.30288ZM150.397 11.0129L151.372 9.67788C151.212 9.50788 151.032 9.37788 150.832 9.28788C150.642 9.19788 150.422 9.15288 150.172 9.15288C149.782 9.15288 149.412 9.29288 149.062 9.57288C148.712 9.84288 148.417 10.1979 148.177 10.6379C147.937 11.0679 147.772 11.5179 147.682 11.9879L148.147 12.3029C148.197 12.0229 148.277 11.7579 148.387 11.5079C148.507 11.2579 148.667 11.0529 148.867 10.8929C149.067 10.7329 149.307 10.6579 149.587 10.6679C149.757 10.6679 149.902 10.7029 150.022 10.7729C150.152 10.8329 150.277 10.9129 150.397 11.0129ZM151.981 9.30288L154.291 16.8629L158.971 9.30288H157.171L154.756 13.7129L153.706 9.30288H151.981ZM160.275 6.55788C160.275 6.82788 160.37 7.05788 160.56 7.24788C160.76 7.43788 161 7.53288 161.28 7.53288C161.56 7.53288 161.8 7.43788 162 7.24788C162.2 7.05788 162.3 6.82788 162.3 6.55788C162.3 6.27788 162.2 6.04288 162 5.85288C161.8 5.66288 161.56 5.56788 161.28 5.56788C161 5.56788 160.76 5.66288 160.56 5.85288C160.37 6.04288 160.275 6.27788 160.275 6.55788ZM160.005 9.30288L158.865 16.2029H160.44L161.61 9.30288H160.005ZM164.277 12.7529C164.347 12.3429 164.492 11.9729 164.712 11.6429C164.942 11.3129 165.232 11.0479 165.582 10.8479C165.942 10.6479 166.327 10.5479 166.737 10.5479C167.187 10.5479 167.587 10.6529 167.937 10.8629C168.297 11.0729 168.562 11.3579 168.732 11.7179L168.972 9.93288C168.712 9.68288 168.392 9.49288 168.012 9.36288C167.642 9.22288 167.232 9.15288 166.782 9.15288C166.082 9.15288 165.432 9.31288 164.832 9.63288C164.242 9.94288 163.752 10.3679 163.362 10.9079C162.972 11.4479 162.732 12.0629 162.642 12.7529C162.562 13.4129 162.642 14.0179 162.882 14.5679C163.122 15.1079 163.492 15.5379 163.992 15.8579C164.492 16.1779 165.087 16.3379 165.777 16.3379C166.237 16.3379 166.667 16.2679 167.067 16.1279C167.467 15.9879 167.822 15.8029 168.132 15.5729L168.372 13.8029C168.112 14.1129 167.767 14.3829 167.337 14.6129C166.917 14.8429 166.462 14.9529 165.972 14.9429C165.572 14.9329 165.232 14.8279 164.952 14.6279C164.682 14.4279 164.487 14.1629 164.367 13.8329C164.257 13.4929 164.227 13.1329 164.277 12.7529ZM172.778 16.3529C173.568 16.3529 174.258 16.1829 174.848 15.8429C175.438 15.5029 175.918 15.0529 176.288 14.4929L174.938 13.9229C174.708 14.2429 174.418 14.5079 174.068 14.7179C173.728 14.9179 173.343 15.0179 172.913 15.0179C172.523 15.0179 172.203 14.9379 171.953 14.7779C171.713 14.6079 171.538 14.3729 171.428 14.0729C171.318 13.7729 171.273 13.4279 171.293 13.0379C171.313 12.6679 171.378 12.3229 171.488 12.0029C171.598 11.6729 171.753 11.3879 171.953 11.1479C172.153 10.9079 172.388 10.7229 172.658 10.5929C172.938 10.4529 173.248 10.3829 173.588 10.3829C173.908 10.3829 174.173 10.4479 174.383 10.5779C174.603 10.7079 174.763 10.8929 174.863 11.1329C174.973 11.3629 175.028 11.6429 175.028 11.9729C175.028 12.0929 175.008 12.2179 174.968 12.3479C174.928 12.4679 174.883 12.5879 174.833 12.7079L175.328 12.0179H170.573V13.1279H176.513C176.563 13.0179 176.603 12.8729 176.633 12.6929C176.663 12.5129 176.678 12.3429 176.678 12.1829C176.678 11.5329 176.558 10.9829 176.318 10.5329C176.088 10.0829 175.753 9.74288 175.313 9.51288C174.873 9.27288 174.338 9.15288 173.708 9.15288C173.128 9.15288 172.588 9.26288 172.088 9.48288C171.598 9.69288 171.173 9.98288 170.813 10.3529C170.453 10.7229 170.173 11.1529 169.973 11.6429C169.773 12.1329 169.673 12.6529 169.673 13.2029C169.673 13.8629 169.803 14.4279 170.063 14.8979C170.323 15.3679 170.683 15.7279 171.143 15.9779C171.613 16.2279 172.158 16.3529 172.778 16.3529ZM178.23 13.9529L177.195 14.8679C177.395 15.1279 177.64 15.3779 177.93 15.6179C178.22 15.8479 178.555 16.0379 178.935 16.1879C179.315 16.3279 179.74 16.3979 180.21 16.3979C180.7 16.3979 181.13 16.3079 181.5 16.1279C181.88 15.9379 182.18 15.6779 182.4 15.3479C182.62 15.0079 182.735 14.6229 182.745 14.1929C182.755 13.7929 182.675 13.4629 182.505 13.2029C182.345 12.9429 182.125 12.7279 181.845 12.5579C181.565 12.3779 181.255 12.2179 180.915 12.0779C180.695 11.9779 180.485 11.8829 180.285 11.7929C180.085 11.7029 179.925 11.5979 179.805 11.4779C179.695 11.3479 179.645 11.1979 179.655 11.0279C179.655 10.8379 179.735 10.6829 179.895 10.5629C180.065 10.4429 180.285 10.3829 180.555 10.3829C180.875 10.3829 181.175 10.4729 181.455 10.6529C181.745 10.8229 182 11.0379 182.22 11.2979L183.12 10.3679C182.84 10.0279 182.48 9.74288 182.04 9.51288C181.61 9.27288 181.12 9.15288 180.57 9.15288C180.16 9.15288 179.77 9.22788 179.4 9.37788C179.04 9.51788 178.74 9.73288 178.5 10.0229C178.27 10.3029 178.15 10.6629 178.14 11.1029C178.13 11.4929 178.21 11.8179 178.38 12.0779C178.55 12.3279 178.765 12.5379 179.025 12.7079C179.295 12.8679 179.57 13.0029 179.85 13.1129C180.07 13.2029 180.28 13.2979 180.48 13.3979C180.69 13.4979 180.855 13.6179 180.975 13.7579C181.105 13.8979 181.17 14.0729 181.17 14.2829C181.17 14.5129 181.075 14.7079 180.885 14.8679C180.705 15.0179 180.47 15.0929 180.18 15.0929C179.93 15.1029 179.69 15.0579 179.46 14.9579C179.23 14.8579 179.01 14.7229 178.8 14.5529C178.6 14.3729 178.41 14.1729 178.23 13.9529Z" fill="white"/>
<path d="M225.785 16.2029H230.96L231.215 14.6429H226.055L225.785 16.2029ZM227.315 7.26288H232.475L232.745 5.70288H227.585L227.315 7.26288ZM226.61 11.3279H231.485L231.755 9.81288H226.88L226.61 11.3279ZM226.505 5.70288L224.72 16.2029H226.415L228.23 5.70288H226.505ZM237.931 12.0029L237.211 16.2029H238.846L239.596 11.8229C239.666 11.3329 239.641 10.8879 239.521 10.4879C239.411 10.0779 239.201 9.75288 238.891 9.51288C238.591 9.27288 238.176 9.15288 237.646 9.15288C237.176 9.15288 236.766 9.25788 236.416 9.46788C236.076 9.66788 235.776 9.94788 235.516 10.3079L235.681 9.30288H234.076L232.876 16.2029H234.496L235.246 11.9579C235.286 11.6579 235.386 11.3979 235.546 11.1779C235.706 10.9579 235.906 10.7829 236.146 10.6529C236.396 10.5229 236.671 10.4579 236.971 10.4579C237.271 10.4579 237.496 10.5329 237.646 10.6829C237.796 10.8229 237.891 11.0129 237.931 11.2529C237.971 11.4829 237.971 11.7329 237.931 12.0029ZM241.085 9.30288L240.83 10.7279H244.67L244.91 9.30288H241.085ZM242.585 6.90288L241.025 16.2029H242.57L244.19 6.90288H242.585ZM247.531 9.30288H245.941L244.741 16.2029H246.346L247.531 9.30288ZM249.256 11.0129L250.231 9.67788C250.071 9.50788 249.891 9.37788 249.691 9.28788C249.501 9.19788 249.281 9.15288 249.031 9.15288C248.641 9.15288 248.271 9.29288 247.921 9.57288C247.571 9.84288 247.276 10.1979 247.036 10.6379C246.796 11.0679 246.631 11.5179 246.541 11.9879L247.006 12.3029C247.056 12.0229 247.136 11.7579 247.246 11.5079C247.366 11.2579 247.526 11.0529 247.726 10.8929C247.926 10.7329 248.166 10.6579 248.446 10.6679C248.616 10.6679 248.761 10.7029 248.881 10.7729C249.011 10.8329 249.136 10.9129 249.256 11.0129ZM253.166 16.3529C253.956 16.3529 254.646 16.1829 255.236 15.8429C255.826 15.5029 256.306 15.0529 256.676 14.4929L255.326 13.9229C255.096 14.2429 254.806 14.5079 254.456 14.7179C254.116 14.9179 253.731 15.0179 253.301 15.0179C252.911 15.0179 252.591 14.9379 252.341 14.7779C252.101 14.6079 251.926 14.3729 251.816 14.0729C251.706 13.7729 251.661 13.4279 251.681 13.0379C251.701 12.6679 251.766 12.3229 251.876 12.0029C251.986 11.6729 252.141 11.3879 252.341 11.1479C252.541 10.9079 252.776 10.7229 253.046 10.5929C253.326 10.4529 253.636 10.3829 253.976 10.3829C254.296 10.3829 254.561 10.4479 254.771 10.5779C254.991 10.7079 255.151 10.8929 255.251 11.1329C255.361 11.3629 255.416 11.6429 255.416 11.9729C255.416 12.0929 255.396 12.2179 255.356 12.3479C255.316 12.4679 255.271 12.5879 255.221 12.7079L255.716 12.0179H250.961V13.1279H256.901C256.951 13.0179 256.991 12.8729 257.021 12.6929C257.051 12.5129 257.066 12.3429 257.066 12.1829C257.066 11.5329 256.946 10.9829 256.706 10.5329C256.476 10.0829 256.141 9.74288 255.701 9.51288C255.261 9.27288 254.726 9.15288 254.096 9.15288C253.516 9.15288 252.976 9.26288 252.476 9.48288C251.986 9.69288 251.561 9.98288 251.201 10.3529C250.841 10.7229 250.561 11.1529 250.361 11.6429C250.161 12.1329 250.061 12.6529 250.061 13.2029C250.061 13.8629 250.191 14.4279 250.451 14.8979C250.711 15.3679 251.071 15.7279 251.531 15.9779C252.001 16.2279 252.546 16.3529 253.166 16.3529ZM258.813 19.4879L260.523 9.30288H258.948L257.178 19.5029L258.813 19.4879ZM265.503 12.7529C265.583 12.0929 265.528 11.4879 265.338 10.9379C265.148 10.3879 264.833 9.94788 264.393 9.61788C263.963 9.28788 263.428 9.12288 262.788 9.12288C262.318 9.12288 261.888 9.21788 261.498 9.40788C261.118 9.59788 260.783 9.86288 260.493 10.2029C260.203 10.5329 259.963 10.9179 259.773 11.3579C259.593 11.7979 259.468 12.2629 259.398 12.7529C259.338 13.2129 259.333 13.6629 259.383 14.1029C259.443 14.5329 259.558 14.9229 259.728 15.2729C259.908 15.6129 260.158 15.8829 260.478 16.0829C260.798 16.2829 261.188 16.3829 261.648 16.3829C262.288 16.3829 262.883 16.2279 263.433 15.9179C263.983 15.5979 264.443 15.1629 264.813 14.6129C265.183 14.0529 265.413 13.4329 265.503 12.7529ZM263.853 12.7529C263.793 13.1629 263.643 13.5329 263.403 13.8629C263.163 14.1829 262.873 14.4379 262.533 14.6279C262.193 14.8179 261.823 14.9079 261.423 14.8979C261.163 14.8879 260.933 14.8279 260.733 14.7179C260.533 14.6079 260.368 14.4529 260.238 14.2529C260.108 14.0529 260.018 13.8279 259.968 13.5779C259.918 13.3179 259.908 13.0429 259.938 12.7529C259.998 12.4429 260.098 12.1579 260.238 11.8979C260.388 11.6379 260.568 11.4129 260.778 11.2229C260.998 11.0229 261.233 10.8679 261.483 10.7579C261.733 10.6479 261.993 10.5929 262.263 10.5929C262.653 10.5929 262.973 10.6929 263.223 10.8929C263.483 11.0829 263.668 11.3429 263.778 11.6729C263.888 11.9929 263.913 12.3529 263.853 12.7529ZM269.152 9.30288H267.562L266.362 16.2029H267.967L269.152 9.30288ZM270.877 11.0129L271.852 9.67788C271.692 9.50788 271.512 9.37788 271.312 9.28788C271.122 9.19788 270.902 9.15288 270.652 9.15288C270.262 9.15288 269.892 9.29288 269.542 9.57288C269.192 9.84288 268.897 10.1979 268.657 10.6379C268.417 11.0679 268.252 11.5179 268.162 11.9879L268.627 12.3029C268.677 12.0229 268.757 11.7579 268.867 11.5079C268.987 11.2579 269.147 11.0529 269.347 10.8929C269.547 10.7329 269.787 10.6579 270.067 10.6679C270.237 10.6679 270.382 10.7029 270.502 10.7729C270.632 10.8329 270.757 10.9129 270.877 11.0129ZM273.387 6.55788C273.387 6.82788 273.482 7.05788 273.672 7.24788C273.872 7.43788 274.112 7.53288 274.392 7.53288C274.672 7.53288 274.912 7.43788 275.112 7.24788C275.312 7.05788 275.412 6.82788 275.412 6.55788C275.412 6.27788 275.312 6.04288 275.112 5.85288C274.912 5.66288 274.672 5.56788 274.392 5.56788C274.112 5.56788 273.872 5.66288 273.672 5.85288C273.482 6.04288 273.387 6.27788 273.387 6.55788ZM273.117 9.30288L271.977 16.2029H273.552L274.722 9.30288H273.117ZM276.474 13.9529L275.439 14.8679C275.639 15.1279 275.884 15.3779 276.174 15.6179C276.464 15.8479 276.799 16.0379 277.179 16.1879C277.559 16.3279 277.984 16.3979 278.454 16.3979C278.944 16.3979 279.374 16.3079 279.744 16.1279C280.124 15.9379 280.424 15.6779 280.644 15.3479C280.864 15.0079 280.979 14.6229 280.989 14.1929C280.999 13.7929 280.919 13.4629 280.749 13.2029C280.589 12.9429 280.369 12.7279 280.089 12.5579C279.809 12.3779 279.499 12.2179 279.159 12.0779C278.939 11.9779 278.729 11.8829 278.529 11.7929C278.329 11.7029 278.169 11.5979 278.049 11.4779C277.939 11.3479 277.889 11.1979 277.899 11.0279C277.899 10.8379 277.979 10.6829 278.139 10.5629C278.309 10.4429 278.529 10.3829 278.799 10.3829C279.119 10.3829 279.419 10.4729 279.699 10.6529C279.989 10.8229 280.244 11.0379 280.464 11.2979L281.364 10.3679C281.084 10.0279 280.724 9.74288 280.284 9.51288C279.854 9.27288 279.364 9.15288 278.814 9.15288C278.404 9.15288 278.014 9.22788 277.644 9.37788C277.284 9.51788 276.984 9.73288 276.744 10.0229C276.514 10.3029 276.394 10.6629 276.384 11.1029C276.374 11.4929 276.454 11.8179 276.624 12.0779C276.794 12.3279 277.009 12.5379 277.269 12.7079C277.539 12.8679 277.814 13.0029 278.094 13.1129C278.314 13.2029 278.524 13.2979 278.724 13.3979C278.934 13.4979 279.099 13.6179 279.219 13.7579C279.349 13.8979 279.414 14.0729 279.414 14.2829C279.414 14.5129 279.319 14.7079 279.129 14.8679C278.949 15.0179 278.714 15.0929 278.424 15.0929C278.174 15.1029 277.934 15.0579 277.704 14.9579C277.474 14.8579 277.254 14.7229 277.044 14.5529C276.844 14.3729 276.654 14.1729 276.474 13.9529ZM285.056 16.3529C285.846 16.3529 286.536 16.1829 287.126 15.8429C287.716 15.5029 288.196 15.0529 288.566 14.4929L287.216 13.9229C286.986 14.2429 286.696 14.5079 286.346 14.7179C286.006 14.9179 285.621 15.0179 285.191 15.0179C284.801 15.0179 284.481 14.9379 284.231 14.7779C283.991 14.6079 283.816 14.3729 283.706 14.0729C283.596 13.7729 283.551 13.4279 283.571 13.0379C283.591 12.6679 283.656 12.3229 283.766 12.0029C283.876 11.6729 284.031 11.3879 284.231 11.1479C284.431 10.9079 284.666 10.7229 284.936 10.5929C285.216 10.4529 285.526 10.3829 285.866 10.3829C286.186 10.3829 286.451 10.4479 286.661 10.5779C286.881 10.7079 287.041 10.8929 287.141 11.1329C287.251 11.3629 287.306 11.6429 287.306 11.9729C287.306 12.0929 287.286 12.2179 287.246 12.3479C287.206 12.4679 287.161 12.5879 287.111 12.7079L287.606 12.0179H282.851V13.1279H288.791C288.841 13.0179 288.881 12.8729 288.911 12.6929C288.941 12.5129 288.956 12.3429 288.956 12.1829C288.956 11.5329 288.836 10.9829 288.596 10.5329C288.366 10.0829 288.031 9.74288 287.591 9.51288C287.151 9.27288 286.616 9.15288 285.986 9.15288C285.406 9.15288 284.866 9.26288 284.366 9.48288C283.876 9.69288 283.451 9.98288 283.091 10.3529C282.731 10.7229 282.451 11.1529 282.251 11.6429C282.051 12.1329 281.951 12.6529 281.951 13.2029C281.951 13.8629 282.081 14.4279 282.341 14.8979C282.601 15.3679 282.961 15.7279 283.421 15.9779C283.891 16.2279 284.436 16.3529 285.056 16.3529ZM290.507 13.9529L289.472 14.8679C289.672 15.1279 289.917 15.3779 290.207 15.6179C290.497 15.8479 290.832 16.0379 291.212 16.1879C291.592 16.3279 292.017 16.3979 292.487 16.3979C292.977 16.3979 293.407 16.3079 293.777 16.1279C294.157 15.9379 294.457 15.6779 294.677 15.3479C294.897 15.0079 295.012 14.6229 295.022 14.1929C295.032 13.7929 294.952 13.4629 294.782 13.2029C294.622 12.9429 294.402 12.7279 294.122 12.5579C293.842 12.3779 293.532 12.2179 293.192 12.0779C292.972 11.9779 292.762 11.8829 292.562 11.7929C292.362 11.7029 292.202 11.5979 292.082 11.4779C291.972 11.3479 291.922 11.1979 291.932 11.0279C291.932 10.8379 292.012 10.6829 292.172 10.5629C292.342 10.4429 292.562 10.3829 292.832 10.3829C293.152 10.3829 293.452 10.4729 293.732 10.6529C294.022 10.8229 294.277 11.0379 294.497 11.2979L295.397 10.3679C295.117 10.0279 294.757 9.74288 294.317 9.51288C293.887 9.27288 293.397 9.15288 292.847 9.15288C292.437 9.15288 292.047 9.22788 291.677 9.37788C291.317 9.51788 291.017 9.73288 290.777 10.0229C290.547 10.3029 290.427 10.6629 290.417 11.1029C290.407 11.4929 290.487 11.8179 290.657 12.0779C290.827 12.3279 291.042 12.5379 291.302 12.7079C291.572 12.8679 291.847 13.0029 292.127 13.1129C292.347 13.2029 292.557 13.2979 292.757 13.3979C292.967 13.4979 293.132 13.6179 293.252 13.7579C293.382 13.8979 293.447 14.0729 293.447 14.2829C293.447 14.5129 293.352 14.7079 293.162 14.8679C292.982 15.0179 292.747 15.0929 292.457 15.0929C292.207 15.1029 291.967 15.0579 291.737 14.9579C291.507 14.8579 291.287 14.7229 291.077 14.5529C290.877 14.3729 290.687 14.1729 290.507 13.9529Z" fill="white"/>
</svg>
