<?xml version="1.0" encoding="iso-8859-1"?>
<!-- Generator: Adobe Illustrator 19.0.0, SVG Export Plug-In . SVG Version: 6.00 Build 0)  -->
<svg version="1.1" id="Layer_1" xmlns="http://www.w3.org/2000/svg" xmlns:xlink="http://www.w3.org/1999/xlink" x="0px" y="0px"
	fill="white" viewBox="0 0 479.9 479.9" style="enable-background:new 0 0 479.9 479.9;" xml:space="preserve">
<g transform="translate(0 -540.36)">
	<g>
		<g>
			<path d="M332.8,775.835l-92.6,10.2l-93.4-10.2c-5.5-0.6-10.4,3.4-11,8.9c-0.6,5.5,3.4,10.4,8.9,11l94.5,10.3
				c0.4,0.1,0.7,0.1,1.1,0.1s0.7,0,1-0.2l93.7-10.3c5.4-0.6,9.4-5.5,8.8-11C343.2,779.235,338.3,775.235,332.8,775.835z"/>
			<path d="M332.8,818.835l-92.6,10.2l-93.4-10.2c-5.5-0.6-10.4,3.4-11,8.9c-0.6,5.5,3.4,10.4,8.9,11l94.5,10.3
				c0.4,0.1,0.7,0.1,1.1,0.1s0.7,0,1-0.2l93.7-10.3c5.4-0.6,9.4-5.5,8.8-11C343.2,822.235,338.3,818.235,332.8,818.835z"/>
			<path d="M474.3,722.635L474.3,722.635l-20.9-10.3c-1.8-0.9-3.8-1.2-5.8-0.9l-41.8,5.9c-0.3-0.8-0.6-1.5-1.1-2.3l-41.8-64.5
				c-1.5-2.3-3.9-3.9-6.6-4.4l-114.6-20.7c-1.2-0.2-2.4-0.2-3.5,0l-115.4,20.7c-2.7,0.5-5.1,2.1-6.6,4.4l-41.8,64.5
				c-0.3,0.5-0.6,1-0.8,1.5l-41.5-5.1c-3.1-0.4-6.2,0.7-8.4,3l-20.9,21.5c-1.8,1.9-2.8,4.4-2.8,7v117.9c0,2.5,0.9,4.8,2.6,6.7
				l7.5,8.3v49.5c0,5.5,4.5,10,10,10h62.7c5.5,0,10-4.5,10-10v-33h293.6v33c0,5.5,4.5,10,10,10h62.7c5.5,0,10-4.5,10-10v-49.3l8-8.3
				c1.8-1.9,2.8-4.4,2.8-7v-129.1C479.9,727.835,477.7,724.335,474.3,722.635z M130.5,664.935L130.5,664.935l109.4-19.6l108.6,19.6
				l35.8,55.3l-9.2,1.3l-124.3-10.2c-0.5,0-1.1,0-1.6,0l-134.5,10.3l-19.3-2.4L130.5,664.935z M29.9,915.235v-31.2l40.8,8
				c0.6,0.1,1.3,0.2,1.9,0.2v23H29.9z M449.1,915.335h-42.8v-0.1v-23h0.9c0.7,0,1.3-0.1,2-0.2l39.9-7.9V915.335z M459.9,856.535
				l-5.9,6l-47.8,9.5H73.6l-48.5-9.5l-5.2-5.8v-109.9h0l14.6-15l78.7,9.7c0.7,0.1,1.3,0.1,2,0l134.7-10.3l124.7,10.3
				c0.7,0.1,1.5,0,2.2-0.1l70.5-9.9l12.6,6.2V856.535z"/>
			<path d="M103.7,779.335c-0.8-3.6-3.6-6.5-7.3-7.4l-41.8-10.3c-3.4-0.8-6.9,0.2-9.4,2.6c-2.5,2.5-3.5,6-2.7,9.4l10,43
				c0.8,3.6,3.6,6.5,7.3,7.4l41.8,10.3c0.8,0.2,1.6,0.3,2.4,0.3v0c2.6,0,5.1-1.1,7-2.9c2.5-2.5,3.5-6,2.7-9.4L103.7,779.335z
				 M70.5,806.035l-4.9-21.2l20,4.9l4.9,21.2L70.5,806.035z"/>
			<path d="M425.2,761.635l-41.8,10.3c-3.6,0.9-6.4,3.7-7.3,7.4l-10,43c-0.8,3.4,0.2,7,2.7,9.4c1.9,1.9,4.4,2.9,7,2.9v0
				c0.8,0,1.6-0.1,2.4-0.3l41.8-10.3c3.6-0.9,6.4-3.7,7.3-7.4l10-43c0.8-3.4-0.2-7-2.7-9.4
				C432.1,761.735,428.6,760.835,425.2,761.635z M409.3,806.135l-20,4.9l4.9-21.2l20-4.9L409.3,806.135z"/>
		</g>
	</g>
</g>
<g>
</g>
<g>
</g>
<g>
</g>
<g>
</g>
<g>
</g>
<g>
</g>
<g>
</g>
<g>
</g>
<g>
</g>
<g>
</g>
<g>
</g>
<g>
</g>
<g>
</g>
<g>
</g>
<g>
</g>
</svg>
