<svg xmlns="http://www.w3.org/2000/svg" viewBox="0 0 750 500"><g id="freepik--background-complete--inject-7"><path d="M60.52,96.89a2.67,2.67,0,0,1,2.79,0c.23.14.47.27.71.4l.74.38a2.63,2.63,0,0,1,1.55,2.3l.11,3.43,11.16-.35-.1-3.43a2.68,2.68,0,0,1,1.4-2.41,13.84,13.84,0,0,0,1.42-.87,2.66,2.66,0,0,1,2.77-.18l3,1.62L91.36,88l-3-1.61A2.66,2.66,0,0,1,87,83.93c0-.56,0-1.11,0-1.66a2.64,2.64,0,0,1,1.23-2.5L91.05,78l-5.89-9.49-2.93,1.81a2.63,2.63,0,0,1-2.77,0c-.23-.14-.47-.27-.71-.4s-.49-.26-.74-.37a2.66,2.66,0,0,1-1.55-2.31l-.11-3.43-11.16.34.11,3.42a2.67,2.67,0,0,1-1.4,2.41,16,16,0,0,0-1.42.88A2.68,2.68,0,0,1,59.7,71l-3-1.62-5.28,9.85,3,1.61a2.66,2.66,0,0,1,1.39,2.41c0,.56,0,1.12,0,1.67a2.64,2.64,0,0,1-1.23,2.5l-2.91,1.8,5.89,9.49Zm2.8-17.63a9.15,9.15,0,1,1,3.74,12.38A9.16,9.16,0,0,1,63.32,79.26Z" style="fill:#ebebeb"></path><path d="M619.69,232.73a1.87,1.87,0,0,1,.91,1.73c0,.19,0,.38,0,.58s0,.39,0,.58a1.87,1.87,0,0,1-.91,1.72l-2.08,1.2,3.91,6.78,2.08-1.2a1.85,1.85,0,0,1,1.95.06,10.23,10.23,0,0,0,1,.59,1.85,1.85,0,0,1,1,1.65v2.4h7.82v-2.4a1.87,1.87,0,0,1,1-1.65,9.19,9.19,0,0,0,1-.59,1.85,1.85,0,0,1,1.95-.06l2.08,1.2,3.91-6.78-2.09-1.21a1.84,1.84,0,0,1-.9-1.72c0-.19,0-.38,0-.57s0-.39,0-.58a1.87,1.87,0,0,1,.91-1.73l2.08-1.19-3.91-6.78-2.07,1.2a1.85,1.85,0,0,1-1.95-.07,10.29,10.29,0,0,0-1-.58,1.89,1.89,0,0,1-1-1.66v-2.39h-7.82v2.39a1.89,1.89,0,0,1-1,1.66,9.12,9.12,0,0,0-1,.58,1.87,1.87,0,0,1-2,.07l-2.07-1.2-3.91,6.78Zm11.81-4.11a6.41,6.41,0,1,1-6.41,6.42A6.42,6.42,0,0,1,631.5,228.62Z" style="fill:#ebebeb"></path><path d="M630.4,169.25a30.47,30.47,0,1,0,30.47-30.48A30.47,30.47,0,0,0,630.4,169.25Zm16.23,0a14.24,14.24,0,1,1,14.24,14.22A14.24,14.24,0,0,1,646.63,169.25Z" style="fill:#ebebeb"></path><polygon points="655.01 140.04 666.73 140.04 666.08 131.74 655.66 131.74 655.01 140.04" style="fill:#ebebeb"></polygon><polygon points="677.31 143.99 685.6 152.27 691.01 145.95 683.64 138.58 677.31 143.99" style="fill:#ebebeb"></polygon><polygon points="690.29 162.55 690.29 174.27 698.59 173.62 698.59 163.2 690.29 162.55" style="fill:#ebebeb"></polygon><polygon points="686.35 184.85 678.06 193.14 684.38 198.54 691.75 191.18 686.35 184.85" style="fill:#ebebeb"></polygon><polygon points="667.78 197.83 656.06 197.83 656.71 206.13 667.13 206.13 667.78 197.83" style="fill:#ebebeb"></polygon><polygon points="645.48 193.88 637.19 185.6 631.79 191.92 639.15 199.29 645.48 193.88" style="fill:#ebebeb"></polygon><polygon points="632.5 175.32 632.5 163.6 624.21 164.25 624.21 174.67 632.5 175.32" style="fill:#ebebeb"></polygon><polygon points="636.45 153.02 644.73 144.73 638.41 139.32 631.04 146.69 636.45 153.02" style="fill:#ebebeb"></polygon><path d="M117.12,283.3H105.78l-.54-6.84a30.28,30.28,0,0,1-11.32-4.32l-5.27,4.51-8-8L85,263.57a30.15,30.15,0,0,1-4.86-11.22l-6.87-.53V240.47l6.78-.54a30.46,30.46,0,0,1,4.56-11.1l-4.69-5.48,8-8L93.4,220a30.36,30.36,0,0,1,10.72-4.43l.6-7.68h11.34l.6,7.67a30.4,30.4,0,0,1,10.4,4.23l6.13-5.24,8,8-5.14,6a30.51,30.51,0,0,1,4.46,10.17l8.08.63v11.36l-7.73.59a30.51,30.51,0,0,1-4,10.6l5.07,5.92-8,8-5.58-4.75A30.43,30.43,0,0,1,117.69,276Zm-10.42-1h9.5l.55-7.09.36-.09a29.33,29.33,0,0,0,11-5l.32-.23,5.47,4.66,6.72-6.71-4.95-5.78.2-.31A29.56,29.56,0,0,0,140,250.81l.06-.39,7.59-.58v-9.5l-7.9-.62-.08-.36a29.45,29.45,0,0,0-4.6-10.5l-.22-.32,5-5.88-6.72-6.72-6,5.13-.31-.21a29.51,29.51,0,0,0-10.73-4.36l-.38-.07-.58-7.51h-9.5l-.58,7.51-.38.07a29.52,29.52,0,0,0-11,4.57l-.13.08h-.33L93,221,88,216.68l-6.72,6.72,4.59,5.36-.22.32a29.35,29.35,0,0,0-4.69,11.41l-.07.38-6.62.52v9.5l6.7.52.07.38a29.39,29.39,0,0,0,5,11.52l.22.32L82,268.58l6.72,6.71,5.13-4.39.31.2a29.32,29.32,0,0,0,11.64,4.44l.39.06Zm3.69-21.65a14.73,14.73,0,1,1,14.74-14.73A14.75,14.75,0,0,1,110.39,260.65Zm0-28.46a13.73,13.73,0,1,0,13.74,13.73A13.75,13.75,0,0,0,110.39,232.19Z" style="fill:#ebebeb"></path><path d="M113.27,381.56c-5.74.1-20.22.35-25.77.41l-8.69,0h-.45v-.45l0-11.19v-.5h.5l17.23.07c4.29,0,12.94.13,17.23.19h.25v.24l-.24,11.19Zm0,0L113,370.37l.24.24c-4.3.06-12.93.15-17.23.19l-17.23.07.5-.5,0,11.19-.45-.46,8.54,0c5.46.06,20.27.31,25.92.41Z" style="fill:#ebebeb"></path><path d="M94.05,395.67c-5.74.1-20.22.35-25.77.41l-8.69,0h-.46v-.45l0-11.19V384h.51l17.23.07c4.29,0,12.94.13,17.23.19h.24v.24l-.24,11.19Zm0,0-.24-11.19.24.24c-4.3.06-12.94.15-17.23.19L59.59,385l.5-.5L60,395.67l-.45-.46,8.53.05c5.46.06,20.28.31,25.93.41Z" style="fill:#ebebeb"></path><path d="M130.14,177.08c-5.74.1-20.21.35-25.76.41l-8.7,0h-.45v-.46l0-11.19v-.5h.5l17.23.07c4.29,0,12.94.13,17.23.19h.25v.24l-.24,11.19Zm0,0-.24-11.19.24.24c-4.29.06-12.93.16-17.23.19l-17.23.07.5-.5,0,11.19-.46-.45,8.54,0c5.46.06,20.27.31,25.92.41Z" style="fill:#ebebeb"></path><path d="M110.92,191.19c-5.74.1-20.22.35-25.77.41l-8.69.05H76v-.46L76,180v-.5h.5l17.23.07c4.29,0,12.94.13,17.23.19h.25V180l-.24,11.19Zm0,0L110.68,180l.24.24c-4.3.06-12.93.16-17.23.19l-17.23.07.5-.5,0,11.19-.46-.45,8.54,0c5.46.06,20.27.31,25.92.41Z" style="fill:#ebebeb"></path><rect x="114.91" y="180" width="34.46" height="11.19" style="fill:#ebebeb"></rect><rect x="640.07" y="384.48" width="34.46" height="11.19" style="fill:#ebebeb"></rect><rect x="640.07" y="43.24" width="34.46" height="11.19" style="fill:#ebebeb"></rect><path d="M693.75,68.54c-5.74.1-20.22.35-25.76.41l-8.7,0h-.45v-.46l-.05-11.19v-.5h.5l17.23.07c4.29,0,12.94.13,17.23.19H694v.23l-.24,11.19Zm0,0-.24-11.19.24.24c-4.3.07-12.93.16-17.23.2l-17.23.06.5-.5,0,11.19-.46-.45,8.54,0c5.46.07,20.27.32,25.92.41Z" style="fill:#ebebeb"></path><path d="M90.71,54.45c-5.74.1-20.22.34-25.77.41l-8.69,0h-.46v-.45l0-11.19v-.51h.5l17.23.06c4.29,0,12.94.13,17.23.19H91v.24l-.24,11.19Zm0,0-.24-11.19.24.24c-4.3.06-12.93.15-17.23.19l-17.23.06.5-.49,0,11.19L56.25,54l8.53,0c5.47.07,20.28.32,25.93.42Z" style="fill:#ebebeb"></path><rect x="408.81" y="80.44" width="34.46" height="11.19" transform="translate(852.07 172.07) rotate(180)" style="fill:#ebebeb"></rect><path d="M428,66.33c5.74-.1,20.22-.35,25.77-.41l8.69,0h.45v.46l0,11.19V78h-.5L445.26,78c-4.29,0-12.94-.13-17.23-.19h-.25v-.24L428,66.33Zm0,0,.24,11.19-.24-.24c4.3-.06,12.93-.15,17.23-.19L462.49,77l-.5.5,0-11.19.46.46L454,66.74c-5.46-.06-20.27-.31-25.92-.41Z" style="fill:#ebebeb"></path></g><g id="freepik--Floor--inject-7"><polygon points="50.72 441.6 131.79 441.36 212.86 441.27 375 441.11 537.14 441.27 618.21 441.36 699.28 441.6 618.21 441.85 537.14 441.94 375 442.1 212.86 441.94 131.79 441.85 50.72 441.6" style="fill:#263238"></polygon></g><g id="freepik--Device--inject-7"><rect x="68.63" y="419.29" width="612.74" height="22.32" style="fill:#c7c7c7"></rect><rect x="122.94" y="82.07" width="504.11" height="337.22" style="fill:#dbdbdb"></rect><rect x="126.61" y="86.18" width="496.79" height="328.99" style="fill:#263238"></rect><rect x="148.6" y="107.33" width="452.79" height="286.69" style="fill:#fff"></rect><rect x="148.6" y="107.33" width="452.79" height="7.45" style="fill:#455a64"></rect><path d="M155.64,111.05a1.42,1.42,0,1,1-1.41-1.41A1.41,1.41,0,0,1,155.64,111.05Z" style="fill:#c7c7c7"></path><path d="M161.42,111.05a1.42,1.42,0,1,1-1.42-1.41A1.42,1.42,0,0,1,161.42,111.05Z" style="fill:#fff"></path><path d="M167.19,111.05a1.42,1.42,0,1,1-1.42-1.41A1.41,1.41,0,0,1,167.19,111.05Z" style="fill:#FFC727"></path><rect x="148.6" y="114.78" width="452.79" height="41.85" style="fill:#FFC727"></rect><rect x="498.26" y="125.09" width="82.97" height="11.07" style="fill:#fff"></rect><path d="M581.34,136.28H498.15V125h83.19Zm-83-.23h82.75V125.2H498.37Z" style="fill:#c7c7c7"></path><rect x="570.04" y="124.97" width="11.31" height="11.31" style="fill:#455a64"></rect><path d="M579.2,133.73l-1,.78L576.29,132l-.7-.91a1.6,1.6,0,0,0,.4-.23,1.66,1.66,0,0,0,.53-.68l.73,1Z" style="fill:#fff"></path><path d="M577.19,127.84a2.79,2.79,0,1,0-.9,4.16,2.26,2.26,0,0,0,.38-.25,2.53,2.53,0,0,0,.58-.6A2.79,2.79,0,0,0,577.19,127.84Zm-1.2,3a1.6,1.6,0,0,1-.4.23,1.67,1.67,0,1,1,.93-.91A1.66,1.66,0,0,1,576,130.86Z" style="fill:#fff"></path><rect x="500.58" y="127.27" width="0.59" height="6.72" style="fill:#c7c7c7"></rect><rect x="203.59" y="125.09" width="271.49" height="11.07" style="fill:#fff"></rect><path d="M475.19,136.28H203.48V125H475.19Zm-271.49-.23H475V125.2H203.7Z" style="fill:#c7c7c7"></path><rect x="205.9" y="127.27" width="0.59" height="6.72" style="fill:#c7c7c7"></rect><polygon points="172.69 134.42 168.65 130.7 172.68 126.84 173.31 127.49 169.97 130.69 173.3 133.75 172.69 134.42" style="fill:#fff"></polygon><polygon points="182.42 126.84 186.45 130.55 182.43 134.41 181.8 133.76 185.14 130.56 181.81 127.5 182.42 126.84" style="fill:#fff"></polygon><rect x="148.6" y="107.33" width="452.79" height="286.69" style="fill:#fff;opacity:0.7000000000000001"></rect><rect x="204.94" y="140.72" width="340.11" height="230.94" style="fill:#fff"></rect><path d="M545.56,372.16H204.44V140.22H545.56Zm-340.12-1H544.56V141.22H205.44Z" style="fill:#ebebeb"></path><rect x="204.94" y="140.72" width="340.11" height="7.45" style="fill:#455a64"></rect><path d="M212,144.44a1.42,1.42,0,1,1-1.41-1.41A1.42,1.42,0,0,1,212,144.44Z" style="fill:#c7c7c7"></path><path d="M217.75,144.44a1.41,1.41,0,1,1-1.41-1.41A1.42,1.42,0,0,1,217.75,144.44Z" style="fill:#fff"></path><circle cx="222.11" cy="144.44" r="1.41" style="fill:#FFC727"></circle><path d="M297,229.61h-3.14l-.63,1.68a.74.74,0,0,1-.67.45.69.69,0,0,1-.25,0,.73.73,0,0,1-.42-.93l2.85-7.6a.75.75,0,0,1,1.37,0l2.85,7.6a.73.73,0,0,1-.42.93.66.66,0,0,1-.25,0,.71.71,0,0,1-.66-.45Zm-.53-1.42-1.05-2.78-1,2.78Z" style="fill:#263238"></path><path d="M303,231.74a2.7,2.7,0,0,1-2.69-2.68V226a.7.7,0,0,1,.69-.68.69.69,0,0,1,.68.68v3.09a1.3,1.3,0,0,0,1.32,1.31,1.33,1.33,0,0,0,1.35-1.31V226a.68.68,0,0,1,.67-.68.71.71,0,0,1,.7.68v3.09A2.72,2.72,0,0,1,303,231.74Z" style="fill:#263238"></path><path d="M311.28,226a.73.73,0,0,1-.72.71h-.32v3.6a.71.71,0,0,1,.71.72.7.7,0,0,1-.71.71,1.44,1.44,0,0,1-1.44-1.43v-3.6h-.37a.71.71,0,0,1-.71-.71.7.7,0,0,1,.71-.71h.37v-1.88a.72.72,0,0,1,.73-.71.7.7,0,0,1,.71.71v1.88h.32A.71.71,0,0,1,311.28,226Z" style="fill:#263238"></path><path d="M314.72,231a.72.72,0,0,1-.73.71.73.73,0,0,1-.68-.53,1,1,0,0,1,0-.18v-7.62a.72.72,0,0,1,1.44,0v2.25a2.9,2.9,0,0,1,1.38-.37,2.81,2.81,0,0,1,2.81,2.82V231a.71.71,0,0,1-1.42,0v-2.92a1.39,1.39,0,1,0-2.77,0Z" style="fill:#263238"></path><path d="M320.75,228.51a3.19,3.19,0,0,1,3.15-3.22,3.09,3.09,0,0,1,3.11,3v.07a.41.41,0,0,1,0,.11.63.63,0,0,1-.68.52h-4.1a1.7,1.7,0,0,0,.44.85,2,2,0,0,0,1.24.58,2.13,2.13,0,0,0,1.34-.32.72.72,0,0,1,1,0,.6.6,0,0,1,0,.84,3.27,3.27,0,0,1-2.31.85A3.2,3.2,0,0,1,320.75,228.51Zm1.4-.63h3.66a2.11,2.11,0,0,0-1.91-1.37A1.82,1.82,0,0,0,322.15,227.88Z" style="fill:#263238"></path><path d="M334.45,228v3.09a.68.68,0,0,1-.68.68.69.69,0,0,1-.68-.68V228a1.33,1.33,0,0,0-1.34-1.3,1.28,1.28,0,0,0-1.29,1.3v3.09a.26.26,0,0,1,0,.13.7.7,0,0,1-.68.55.68.68,0,0,1-.69-.68V226a.68.68,0,0,1,.69-.68.69.69,0,0,1,.63.4,2.53,2.53,0,0,1,1.37-.4A2.7,2.7,0,0,1,334.45,228Z" style="fill:#263238"></path><path d="M339.88,226a.73.73,0,0,1-.72.71h-.32v3.6a.71.71,0,0,1,.71.72.7.7,0,0,1-.71.71,1.44,1.44,0,0,1-1.44-1.43v-3.6H337a.71.71,0,0,1-.71-.71.7.7,0,0,1,.71-.71h.37v-1.88a.72.72,0,0,1,.73-.71.7.7,0,0,1,.71.71v1.88h.32A.71.71,0,0,1,339.88,226Z" style="fill:#263238"></path><path d="M343.55,223.67a.7.7,0,1,1-1.39,0v-.27a.7.7,0,1,1,1.39,0Zm0,2.34v5a.7.7,0,1,1-1.39,0v-5a.7.7,0,1,1,1.39,0Z" style="fill:#263238"></path><path d="M345.32,228.53a3.28,3.28,0,0,1,3.28-3.24,3.37,3.37,0,0,1,2,.71.68.68,0,1,1-.83,1.08,2.05,2.05,0,0,0-1.22-.41,1.85,1.85,0,1,0,0,3.7,2.1,2.1,0,0,0,1.22-.41.7.7,0,0,1,1,.14.71.71,0,0,1-.14,1,3.55,3.55,0,0,1-2,.68A3.27,3.27,0,0,1,345.32,228.53Z" style="fill:#263238"></path><path d="M358.6,228.53v2.53a.69.69,0,0,1-.68.68.7.7,0,0,1-.67-.55,3,3,0,0,1-3.91-.39,3.38,3.38,0,0,1,0-4.55,3,3,0,0,1,2.19-1,3,3,0,0,1,1.72.56.7.7,0,0,1,.67-.56.69.69,0,0,1,.68.69Zm-1.36,0a1.88,1.88,0,0,0-.51-1.33,1.59,1.59,0,0,0-1.2-.53,1.56,1.56,0,0,0-1.2.53,1.87,1.87,0,0,0-.49,1.33,1.94,1.94,0,0,0,.49,1.33,1.64,1.64,0,0,0,1.2.5,1.68,1.68,0,0,0,1.2-.5A2,2,0,0,0,357.24,228.53Z" style="fill:#263238"></path><path d="M364,226a.73.73,0,0,1-.72.71H363v3.6a.71.71,0,0,1,.71.72.7.7,0,0,1-.71.71,1.44,1.44,0,0,1-1.44-1.43v-3.6h-.37a.71.71,0,0,1-.71-.71.7.7,0,0,1,.71-.71h.37v-1.88a.72.72,0,0,1,.73-.71.7.7,0,0,1,.71.71v1.88h.32A.71.71,0,0,1,364,226Z" style="fill:#263238"></path><path d="M365.33,228.51a3.2,3.2,0,0,1,3.15-3.22,3.08,3.08,0,0,1,3.11,3v.07a.41.41,0,0,1,0,.11.63.63,0,0,1-.67.52h-4.1a1.68,1.68,0,0,0,.43.85,2,2,0,0,0,1.24.58,2.16,2.16,0,0,0,1.35-.32.71.71,0,0,1,1,0,.59.59,0,0,1,0,.84,3.25,3.25,0,0,1-2.31.85A3.21,3.21,0,0,1,365.33,228.51Zm1.41-.63h3.65a2.1,2.1,0,0,0-1.91-1.37A1.8,1.8,0,0,0,366.74,227.88Z" style="fill:#263238"></path><path d="M384,223.92l-2.65,3.62V231a.69.69,0,0,1-.71.71.72.72,0,0,1-.71-.71v-3.49l-2.62-3.62a.7.7,0,0,1,1.13-.83l2.2,3,2.21-3a.71.71,0,0,1,1.15.83Z" style="fill:#263238"></path><path d="M384.5,230.8a3.21,3.21,0,0,1-.9-2.27,3.32,3.32,0,0,1,.9-2.26,3,3,0,0,1,2.22-1,2.83,2.83,0,0,1,2.15,1,3.23,3.23,0,0,1,.91,2.26,3.14,3.14,0,0,1-.91,2.27,2.87,2.87,0,0,1-2.15,1A3,3,0,0,1,384.5,230.8Zm.51-2.27a2.06,2.06,0,0,0,.47,1.36,1.75,1.75,0,0,0,1.24.48,1.67,1.67,0,0,0,1.18-.48,2.06,2.06,0,0,0,0-2.71,1.82,1.82,0,0,0-1.18-.49,1.89,1.89,0,0,0-1.24.49A2.05,2.05,0,0,0,385,228.53Z" style="fill:#263238"></path><path d="M394.32,231.74a2.69,2.69,0,0,1-2.68-2.68V226a.69.69,0,0,1,.68-.68.68.68,0,0,1,.68.68v3.09a1.31,1.31,0,0,0,1.32,1.31,1.34,1.34,0,0,0,1.36-1.31V226a.67.67,0,0,1,.67-.68.72.72,0,0,1,.7.68v3.09A2.72,2.72,0,0,1,394.32,231.74Z" style="fill:#263238"></path><path d="M403.66,226a.69.69,0,0,1-.69.68,1.23,1.23,0,0,0-.77.25,1.87,1.87,0,0,0-.6.62,3.69,3.69,0,0,0-.52,1.08v2.46a.71.71,0,0,1-.71.68.69.69,0,0,1-.69-.68V226a.68.68,0,0,1,.69-.67.7.7,0,0,1,.71.67v.09a1.66,1.66,0,0,1,.27-.26,2.86,2.86,0,0,1,1.62-.5A.67.67,0,0,1,403.66,226Z" style="fill:#263238"></path><path d="M414,229.61h-3.13l-.64,1.68a.71.71,0,0,1-.67.45.64.64,0,0,1-.24,0,.73.73,0,0,1-.43-.93l2.85-7.6a.71.71,0,0,1,.69-.45.68.68,0,0,1,.68.45l2.86,7.6a.74.74,0,0,1-.43.93.62.62,0,0,1-.25,0,.69.69,0,0,1-.65-.45Zm-.53-1.42-1-2.78-1,2.78Z" style="fill:#263238"></path><path d="M416.79,228.53a3.28,3.28,0,0,1,3.28-3.24,3.37,3.37,0,0,1,2.05.71.7.7,0,0,1,.14.95.68.68,0,0,1-1,.13,2.11,2.11,0,0,0-1.23-.41,1.85,1.85,0,1,0,0,3.7,2.16,2.16,0,0,0,1.23-.41.69.69,0,0,1,1,.14.71.71,0,0,1-.14,1,3.55,3.55,0,0,1-2.05.68A3.27,3.27,0,0,1,416.79,228.53Z" style="fill:#263238"></path><path d="M424,228.53a3.28,3.28,0,0,1,3.28-3.24,3.37,3.37,0,0,1,2.05.71.68.68,0,1,1-.83,1.08,2.05,2.05,0,0,0-1.22-.41,1.85,1.85,0,1,0,0,3.7,2.1,2.1,0,0,0,1.22-.41.7.7,0,0,1,1,.14.71.71,0,0,1-.14,1,3.55,3.55,0,0,1-2.05.68A3.27,3.27,0,0,1,424,228.53Z" style="fill:#263238"></path><path d="M432.19,230.8a3.25,3.25,0,0,1-.89-2.27,3.35,3.35,0,0,1,.89-2.26,3,3,0,0,1,2.23-1,2.83,2.83,0,0,1,2.15,1,3.23,3.23,0,0,1,.9,2.26,3.13,3.13,0,0,1-.9,2.27,2.87,2.87,0,0,1-2.15,1A3.06,3.06,0,0,1,432.19,230.8Zm.52-2.27a2.06,2.06,0,0,0,.47,1.36,1.73,1.73,0,0,0,1.24.48,1.67,1.67,0,0,0,1.18-.48,2.06,2.06,0,0,0,0-2.71,1.82,1.82,0,0,0-1.18-.49,1.87,1.87,0,0,0-1.24.49A2.05,2.05,0,0,0,432.71,228.53Z" style="fill:#263238"></path><path d="M442,231.74a2.69,2.69,0,0,1-2.68-2.68V226a.69.69,0,0,1,.68-.68.68.68,0,0,1,.68.68v3.09a1.31,1.31,0,0,0,1.32,1.31,1.34,1.34,0,0,0,1.36-1.31V226a.67.67,0,0,1,.67-.68.72.72,0,0,1,.7.68v3.09A2.72,2.72,0,0,1,442,231.74Z" style="fill:#263238"></path><path d="M452.45,228v3.09a.67.67,0,0,1-.67.68.69.69,0,0,1-.68-.68V228a1.33,1.33,0,0,0-1.34-1.3,1.29,1.29,0,0,0-1.3,1.3v3.09a.37.37,0,0,1,0,.13.71.71,0,0,1-.69.55.68.68,0,0,1-.68-.68V226a.68.68,0,0,1,.68-.68.7.7,0,0,1,.64.4,2.51,2.51,0,0,1,1.37-.4A2.7,2.7,0,0,1,452.45,228Z" style="fill:#263238"></path><path d="M457.89,226a.73.73,0,0,1-.72.71h-.33v3.6a.7.7,0,0,1,.71.72.69.69,0,0,1-.71.71,1.44,1.44,0,0,1-1.43-1.43v-3.6H455a.71.71,0,0,1-.71-.71.7.7,0,0,1,.71-.71h.37v-1.88a.71.71,0,0,1,.72-.71.69.69,0,0,1,.71.71v1.88h.33A.72.72,0,0,1,457.89,226Z" style="fill:#263238"></path><rect x="251.85" y="258.74" width="33.34" height="43.72" style="fill:#ebebeb"></rect><rect x="292.01" y="258.74" width="33.34" height="43.72" style="fill:#ebebeb"></rect><rect x="332.17" y="258.74" width="33.34" height="43.72" style="fill:#ebebeb"></rect><rect x="384.49" y="258.74" width="33.34" height="43.72" style="fill:#ebebeb"></rect><rect x="424.65" y="258.74" width="33.34" height="43.72" style="fill:#ebebeb"></rect><rect x="464.8" y="258.74" width="33.34" height="43.72" style="fill:#ebebeb"></rect><path d="M272.82,278.35a8,8,0,0,1,2.38,5.74,8.12,8.12,0,0,1-2.38,5.71,8,8,0,0,1-5.72,2.39H267a7.91,7.91,0,0,1-5.68-2.39,1.79,1.79,0,0,1,0-2.61,1.85,1.85,0,0,1,2.61,0,4.36,4.36,0,0,0,6.23,0,4.43,4.43,0,0,0,1.31-3.1,4.42,4.42,0,0,0-4.41-4.41A4.34,4.34,0,0,0,264,281a1.85,1.85,0,0,1-2.61,0c-.13-.13-.23-.3-.36-.43s0-.09,0-.09a.22.22,0,0,0-.07-.17c0-.1,0-.16,0-.23s0,0,0-.06a1.32,1.32,0,0,1,0-.56l1-8.45a2,2,0,0,1,.81-1.3c.07,0,.1,0,.13-.07s.07,0,.1-.07a1.8,1.8,0,0,1,.85-.19h9.63a1.84,1.84,0,0,1,1.86,1.86,1.86,1.86,0,0,1-1.86,1.83h-8l-.39,3.23a8.24,8.24,0,0,1,2.18-.3A8,8,0,0,1,272.82,278.35Z" style="fill:#c7c7c7"></path><path d="M313.22,278.31A8,8,0,0,1,315.6,284a8.1,8.1,0,0,1-13.84,5.74,1.85,1.85,0,0,1,2.61-2.61,4.34,4.34,0,0,0,3.1,1.27,4.5,4.5,0,0,0,3.14-1.27,4.37,4.37,0,0,0,1.3-3.13,4.26,4.26,0,0,0-1.3-3.11,4.38,4.38,0,0,0-3.11-1.3,1.6,1.6,0,0,1-1.33-.59s0,0,0,0a1.85,1.85,0,0,1-.06-2.61l3.33-3.4h-5.29a1.84,1.84,0,0,1,0-3.68h9.63a1.83,1.83,0,0,1,1.86,1.82,2,2,0,0,1-.23.89,2.48,2.48,0,0,1-.33.45l-4.11,4.24A7.75,7.75,0,0,1,313.22,278.31Z" style="fill:#c7c7c7"></path><path d="M405.7,278.31a8,8,0,0,1,2.38,5.72,8.1,8.1,0,0,1-13.84,5.74,1.85,1.85,0,0,1,2.61-2.61,4.34,4.34,0,0,0,3.1,1.27,4.47,4.47,0,0,0,3.14-1.27,4.37,4.37,0,0,0,1.3-3.13,4.26,4.26,0,0,0-1.3-3.11,4.37,4.37,0,0,0-3.1-1.3,1.62,1.62,0,0,1-1.34-.59s0,0,0,0a1.86,1.86,0,0,1-.07-2.61l3.33-3.4h-5.29a1.84,1.84,0,0,1,0-3.68h9.63a1.82,1.82,0,0,1,1.86,1.82,2,2,0,0,1-.23.89,2.44,2.44,0,0,1-.32.45l-4.12,4.24A7.62,7.62,0,0,1,405.7,278.31Z" style="fill:#c7c7c7"></path><path d="M356,284.42a7.8,7.8,0,1,1-12.11-6.5,5.29,5.29,0,0,1-1.07-3.23,5.39,5.39,0,0,1,10.77,0,5.3,5.3,0,0,1-1.08,3.23A7.85,7.85,0,0,1,356,284.42Zm-3.56,0a4.25,4.25,0,0,0-4.21-4.25,4.23,4.23,0,1,0,0,8.46A4.22,4.22,0,0,0,352.39,284.42Zm-6.07-9.73a1.83,1.83,0,1,0,3.66,0,1.83,1.83,0,0,0-3.66,0Z" style="fill:#c7c7c7"></path><path d="M346.39,240a.18.18,0,0,1,.17-.18h2.65a.18.18,0,0,1,0,.36h-2.46v2h2.15a.19.19,0,0,1,.18.19.18.18,0,0,1-.18.17h-2.15v2h2.46a.18.18,0,0,1,0,.36h-2.66a.18.18,0,0,1-.16-.18Z" style="fill:#c7c7c7"></path><path d="M353.23,242.85a1.11,1.11,0,0,0-1.11-1.11,1.14,1.14,0,0,0-1.12,1.11v2a.11.11,0,0,1,0,.08.15.15,0,0,1-.13.07h0a.23.23,0,0,1-.12-.1v0a0,0,0,0,0,0,0v-3.28a.17.17,0,0,1,.18-.18.17.17,0,0,1,.16.18v.34a1.49,1.49,0,0,1,1.12-.52,1.46,1.46,0,0,1,1.46,1.46v2a.17.17,0,0,1-.18.18.17.17,0,0,1-.17-.18Z" style="fill:#c7c7c7"></path><path d="M356.41,241.56a.18.18,0,0,1-.18.17h-.46v2.62a.29.29,0,0,0,.27.27.18.18,0,1,1,0,.36.62.62,0,0,1-.63-.63v-2.62H355c-.18,0-.18-.08-.18-.17s0-.18.18-.18h.45v-1.33a.18.18,0,0,1,.17-.18.2.2,0,0,1,.19.18v1.33h.46A.19.19,0,0,1,356.41,241.56Z" style="fill:#c7c7c7"></path><path d="M357.54,243.19a1.74,1.74,0,1,1,3.48-.13h0v0a.17.17,0,0,1-.18.16h-2.95a1.42,1.42,0,0,0,1.4,1.38,1.36,1.36,0,0,0,1.16-.66.18.18,0,0,1,.23-.06.19.19,0,0,1,.06.25,1.7,1.7,0,0,1-1.45.82A1.77,1.77,0,0,1,357.54,243.19Zm.37-.29h2.73a1.4,1.4,0,0,0-1.35-1.17A1.42,1.42,0,0,0,357.91,242.9Z" style="fill:#c7c7c7"></path><path d="M362.11,241.57a.17.17,0,0,1,.18-.18.17.17,0,0,1,.17.18v.79l.05-.09a1.76,1.76,0,0,1,1.44-.88.17.17,0,0,1,.18.18.18.18,0,0,1-.18.17,1.3,1.3,0,0,0-1,.59,3.14,3.14,0,0,0-.43.84.08.08,0,0,0,0,.06v1.57a.17.17,0,0,1-.17.18.17.17,0,0,1-.18-.18Z" style="fill:#c7c7c7"></path><path d="M368.68,245a.16.16,0,0,1-.05-.08l-1.35-3.22a.16.16,0,0,1,.08-.22.17.17,0,0,1,.23.09l1.2,2.83,1.19-2.83a.17.17,0,0,1,.23-.09.16.16,0,0,1,.09.22L369,244.84a.41.41,0,0,1,0,.09.18.18,0,0,1-.12,0h-.11Z" style="fill:#c7c7c7"></path><path d="M374.63,241.56v3.24a.18.18,0,0,1-.17.18.18.18,0,0,1-.18-.18v-.53a1.69,1.69,0,0,1-1.35.71,1.8,1.8,0,0,1,0-3.6,1.67,1.67,0,0,1,1.35.71v-.53a.18.18,0,0,1,.18-.18A.18.18,0,0,1,374.63,241.56Zm-.35,1.62a1.35,1.35,0,1,0-1.35,1.45A1.4,1.4,0,0,0,374.28,243.18Z" style="fill:#c7c7c7"></path><path d="M376.31,240a.18.18,0,0,1,.36,0v4.78a.18.18,0,1,1-.36,0Z" style="fill:#c7c7c7"></path><path d="M378.1,240.38a.18.18,0,0,1,.17-.17.18.18,0,0,1,.19.17v.17a.18.18,0,0,1-.19.19.18.18,0,0,1-.17-.19Zm0,1.18a.18.18,0,0,1,.17-.18.18.18,0,0,1,.19.18v3.24a.18.18,0,0,1-.19.18.18.18,0,0,1-.17-.18Z" style="fill:#c7c7c7"></path><path d="M383,244.28a1.71,1.71,0,0,1-1.38.7,1.8,1.8,0,0,1,0-3.6,1.72,1.72,0,0,1,1.38.71V240a.18.18,0,0,1,.36,0v4.78a.18.18,0,1,1-.36,0Zm0-1v-.12a1.43,1.43,0,1,0,0,.12Z" style="fill:#c7c7c7"></path><path d="M386.94,243.17a1.81,1.81,0,0,1,1.85-1.79,1.84,1.84,0,0,1,1.14.4.16.16,0,0,1,0,.24.17.17,0,0,1-.24,0,1.51,1.51,0,0,0-.92-.32,1.45,1.45,0,1,0,0,2.9,1.51,1.51,0,0,0,.92-.32.17.17,0,0,1,.24,0,.18.18,0,0,1,0,.26,1.9,1.9,0,0,1-1.13.38A1.81,1.81,0,0,1,386.94,243.17Z" style="fill:#c7c7c7"></path><path d="M392.81,241.38a1.8,1.8,0,1,1-1.71,1.8A1.76,1.76,0,0,1,392.81,241.38Zm0,3.25a1.45,1.45,0,1,0-1.35-1.45A1.41,1.41,0,0,0,392.81,244.63Z" style="fill:#c7c7c7"></path><path d="M398.73,244.28a1.69,1.69,0,0,1-1.38.7,1.8,1.8,0,0,1,0-3.6,1.7,1.7,0,0,1,1.38.71V240a.19.19,0,0,1,.19-.18.18.18,0,0,1,.17.18v4.78a.18.18,0,0,1-.17.18.19.19,0,0,1-.19-.18Zm0-1v-.12a1.4,1.4,0,0,0-1.38-1.39,1.44,1.44,0,0,0,0,2.88A1.39,1.39,0,0,0,398.73,243.25Z" style="fill:#c7c7c7"></path><path d="M400.33,243.19a1.74,1.74,0,1,1,3.48-.13h0v0a.17.17,0,0,1-.17.16h-2.95a1.41,1.41,0,0,0,1.39,1.38,1.34,1.34,0,0,0,1.16-.66.18.18,0,0,1,.23-.06.19.19,0,0,1,.06.25,1.7,1.7,0,0,1-1.45.82A1.77,1.77,0,0,1,400.33,243.19Zm.38-.29h2.72a1.38,1.38,0,0,0-2.72,0Z" style="fill:#c7c7c7"></path><rect x="351.29" y="316.76" width="47.41" height="14.85" style="fill:#FFC727"></rect><path d="M361.4,325.34a.37.37,0,0,1,.53,0,2.45,2.45,0,0,0,1.41.56,1.58,1.58,0,0,0,.91-.27.67.67,0,0,0,.32-.53.37.37,0,0,0-.07-.23.58.58,0,0,0-.22-.22,2.87,2.87,0,0,0-1-.35h0a3.34,3.34,0,0,1-.94-.29,1.54,1.54,0,0,1-.69-.57,1.11,1.11,0,0,1-.17-.6,1.35,1.35,0,0,1,.59-1.07,2.17,2.17,0,0,1,1.27-.39,2.79,2.79,0,0,1,1.6.59.38.38,0,0,1-.42.63,2.1,2.1,0,0,0-1.18-.47,1.38,1.38,0,0,0-.82.25.57.57,0,0,0-.28.46.43.43,0,0,0,0,.21,1.25,1.25,0,0,0,.2.19,2.49,2.49,0,0,0,.92.32h0a4,4,0,0,1,1,.31,1.65,1.65,0,0,1,.74.61,1.16,1.16,0,0,1,.18.62,1.43,1.43,0,0,1-.64,1.14,2.3,2.3,0,0,1-1.35.42,3.17,3.17,0,0,1-1.88-.74A.38.38,0,0,1,361.4,325.34Z" style="fill:#fff"></path><path d="M368.58,326.61a2.11,2.11,0,0,1-2.12-2.12v-2.61a.39.39,0,0,1,.4-.4.41.41,0,0,1,.42.4v2.61a1.31,1.31,0,1,0,2.61,0v-2.61a.4.4,0,0,1,.41-.4.39.39,0,0,1,.4.4v2.61A2.11,2.11,0,0,1,368.58,326.61Z" style="fill:#fff"></path><path d="M372.42,326.21v-4.33a.4.4,0,0,1,.41-.4h1a1.4,1.4,0,0,1,1.4,1.39,1.44,1.44,0,0,1-.28.84,1.57,1.57,0,0,1-.83,2.9h-1.33A.41.41,0,0,1,372.42,326.21Zm.82-2.74h.63a.6.6,0,0,0,.58-.6.58.58,0,0,0-.58-.58h-.63Zm0,2.33h.92a.76.76,0,0,0,0-1.52h-.92Z" style="fill:#fff"></path><path d="M381.2,321.88v4.33a.41.41,0,0,1-.41.4.39.39,0,0,1-.4-.4v-3.09l-1.06,1.47a.4.4,0,0,1-.33.17h0a.41.41,0,0,1-.34-.17l-1-1.47v3.09a.41.41,0,0,1-.82,0v-4.33a.41.41,0,0,1,.41-.4h0a.39.39,0,0,1,.32.17l1.46,2,1.46-2a.4.4,0,0,1,.33-.17h0A.41.41,0,0,1,381.2,321.88Z" style="fill:#fff"></path><path d="M383,321.88a.39.39,0,0,1,.4-.4.4.4,0,0,1,.41.4v4.33a.4.4,0,0,1-.41.4.39.39,0,0,1-.4-.4Z" style="fill:#fff"></path><path d="M388.35,322.29h-1.16v3.92a.41.41,0,0,1-.81,0v-3.92h-1.16a.4.4,0,0,1-.4-.41.39.39,0,0,1,.4-.4h3.13a.4.4,0,0,1,.41.4A.42.42,0,0,1,388.35,322.29Z" style="fill:#fff"></path><circle cx="375" cy="194.36" r="20.45" transform="translate(-44.12 141.99) rotate(-20.27)" style="fill:#FFC727;opacity:0.30000000000000004"></circle><path d="M381.18,186.9v6.66H379.3V186.9a4.31,4.31,0,1,0-8.6,0v6.66h-1.88V186.9a6.19,6.19,0,1,1,12.36,0Z" style="fill:#fff"></path><polygon points="368.82 188.63 370.7 188.71 370.7 193.56 368.82 193.56 368.82 188.63" style="fill:#ebebeb"></polygon><polygon points="381.18 189.13 381.18 193.56 379.3 193.56 379.3 189.06 381.18 189.13" style="fill:#ebebeb"></polygon><rect x="366.4" y="191.1" width="17.19" height="14.27" style="fill:#FFC727"></rect><path d="M375.73,198.14l.72,3.41h-3.06l.72-3.41a1.53,1.53,0,1,1,1.62,0Z" style="fill:#263238"></path></g><g id="freepik--Plant--inject-7"><path d="M106.64,330.06s-9.14-14-29.58-11.29c-19.44,2.59-31.52,36.63-12.7,42.63s18.5-26.61,26-31.42C95.9,326.45,103.21,328,106.64,330.06Z" style="fill:#FFC727"></path><path d="M59.8,336.35a40.4,40.4,0,0,1,4.42-2.77,18.51,18.51,0,0,1,4.6-1.78,26.81,26.81,0,0,1,2.93-3.1,25.92,25.92,0,0,1,6.5-4.25c-.2,0-.39-.07-.59-.09a28.22,28.22,0,0,0-3.18-.27,17.67,17.67,0,0,0-6.33,1,.09.09,0,0,1-.06-.18,28.53,28.53,0,0,1,6.34-1.28,17.45,17.45,0,0,1,3.15,0c.56.06,1.12.15,1.67.26l.32.06a26.69,26.69,0,0,1,6-1.58l-.54-.2a27.29,27.29,0,0,0-2.92-.77,23.25,23.25,0,0,0-6-.48.1.1,0,0,1,0-.19,38.48,38.48,0,0,1,6.07.33,25.34,25.34,0,0,1,5,1.13,28.34,28.34,0,0,1,3.69-.07c7,.37,14.37,3.7,18.12,9.84s3.87,13.88,4,20.88a155.5,155.5,0,0,1-2,29.16c-.1.57-.9.39-.86-.16.52-8.25,1-16.5,1-24.77,0-3.83-.05-7.68-.33-11.5a33.63,33.63,0,0,0-1.87-9.62,17.16,17.16,0,0,0-6.07-7.9,23,23,0,0,0-9.28-3.85,26,26,0,0,0-9.06,0,5.94,5.94,0,0,1-.12,1.78,10.13,10.13,0,0,1-.64,2.14,11.55,11.55,0,0,1-1,1.86c-.44.66-1,1.22-1.44,1.84-.07.1-.23,0-.14-.12a9.13,9.13,0,0,0,1.92-3.8,15.44,15.44,0,0,0,.43-2c.08-.51.08-1,.16-1.54a26.53,26.53,0,0,0-9.18,3.78c-.52.34-1,.71-1.53,1.09a9.92,9.92,0,0,1,1.5,2.25,20.6,20.6,0,0,1,1.48,3.33A27.09,27.09,0,0,1,77,341.9c0,.12-.19.14-.19,0a20.29,20.29,0,0,0-1.65-6.81,26.83,26.83,0,0,0-1.5-3.1c-.29-.52-.59-1-.92-1.52-.17-.27-.36-.54-.52-.83a27.54,27.54,0,0,0-6.43,7.46l0,0a13.81,13.81,0,0,1,2,3.59,31,31,0,0,1,1.49,4.18A68.26,68.26,0,0,1,71,353.3c0,.12-.18.14-.19,0A34.55,34.55,0,0,0,68.73,345c-.48-1.31-1-2.6-1.54-3.89a32.78,32.78,0,0,1-1.55-3.67,25.72,25.72,0,0,0-3.16,9.05.1.1,0,0,1-.19,0,32.39,32.39,0,0,1,5.84-13.8c-1.27.4-2.55.79-3.79,1.31a20.78,20.78,0,0,0-4.44,2.53C59.81,336.58,59.69,336.42,59.8,336.35Z" style="fill:#263238"></path><path d="M74.4,338.48c.41,2,1,4,1.34,6.07a23,23,0,0,1,.33,6c0,.05-.1.05-.1,0a57.84,57.84,0,0,0-1.75-12A.09.09,0,1,1,74.4,338.48Z" style="fill:#263238"></path><path d="M62.19,332.38A10.83,10.83,0,0,1,65,330.74a19.11,19.11,0,0,1,3.17-.8c.12,0,.14.18,0,.19a12.26,12.26,0,0,0-3.07.94,21.93,21.93,0,0,0-2.88,1.41A.06.06,0,0,1,62.19,332.38Z" style="fill:#263238"></path><path d="M96.75,313.78s-1.93-23.51-19.41-31.13c-14.6-6.37-23,10-12.63,20.08C73.06,310.85,86.44,307.18,96.75,313.78Z" style="fill:#FFC727"></path><path d="M67.94,287.2a74.64,74.64,0,0,1,7.78,3.68,59,59,0,0,1,6,4c-.29-.6-.54-1.22-.83-1.8-.46-.91-1-1.8-1.49-2.66a24.8,24.8,0,0,0-3.85-4.87c-.09-.09,0-.22.14-.13a37.92,37.92,0,0,1,4,4.72,26.91,26.91,0,0,1,1.66,2.66,10.31,10.31,0,0,1,1.18,2.7l.19.14a57.59,57.59,0,0,1,8.35,8.17c-.05-.23-.1-.46-.16-.67-.32-1.15-.68-2.29-1.06-3.42a29.21,29.21,0,0,0-3.15-6.86c-.07-.1.1-.19.16-.09a53.57,53.57,0,0,1,3.66,6.69A24.68,24.68,0,0,1,91.81,303a14.82,14.82,0,0,1,.57,2.36c.76,1,1.51,1.94,2.22,2.94,7.5,10.68,11.27,23.61,12.17,36.54a111.82,111.82,0,0,1,.2,11.58,71.92,71.92,0,0,1-1,11.63c0,.24-.43.17-.42-.07.09-3.4.44-6.78.5-10.18s0-6.82-.32-10.21a94.69,94.69,0,0,0-3.82-20A71.4,71.4,0,0,0,93,308.72c-.73-.15-1.46-.35-2.19-.53l-2.61-.69a26.42,26.42,0,0,1-4.88-1.79c-.11-.06,0-.23.1-.16a15.8,15.8,0,0,0,5,1.7c1.37.27,2.79.45,4.16.77a66.1,66.1,0,0,0-4.07-5.35,30.23,30.23,0,0,1-9.94-.74,40.54,40.54,0,0,1-5.09-1.58c-1.76-.68-3.41-1.55-5.14-2.27a.09.09,0,1,1,.08-.17,29.24,29.24,0,0,0,10.08,3.3,63.47,63.47,0,0,0,9.43.78c-1.24-1.43-2.52-2.82-3.89-4.12-4.59-4.37-10-8.39-16.1-10.49C67.77,287.34,67.83,287.15,67.94,287.2Z" style="fill:#263238"></path><path d="M82.17,287.27a25.93,25.93,0,0,1,2.14,3.14,16.65,16.65,0,0,1,1.54,3.64,0,0,0,0,1-.07,0c-.58-1.15-1.07-2.35-1.67-3.5A17.5,17.5,0,0,0,82,287.41C82,287.31,82.09,287.18,82.17,287.27Z" style="fill:#263238"></path><path d="M65.91,295.1a17.69,17.69,0,0,0,3.59,1.5,34.4,34.4,0,0,0,3.65,1s0,.11,0,.1a17.49,17.49,0,0,1-3.78-.83,31.13,31.13,0,0,1-3.54-1.59C65.7,295.21,65.8,295,65.91,295.1Z" style="fill:#263238"></path><path d="M109.37,310.31c.11,1,2.65-8.53,17.43-17,13.42-7.71,29.44-27.74,16.28-40.39C132.46,242.69,104.47,265,109.37,310.31Z" style="fill:#FFC727"></path><path d="M99.2,365.08a261.55,261.55,0,0,1,2.34-29.72,133.43,133.43,0,0,1,6.25-26.6c1.1-3.11,2.35-6.17,3.72-9.18a19.54,19.54,0,0,1,.06-3.51c.07-1.51.21-3,.34-4.51s.29-3,.47-4.5.5-3,.56-4.48a.1.1,0,1,1,.19,0,31.52,31.52,0,0,0-.53,4.76c-.11,1.45-.2,2.9-.24,4.35s0,2.91,0,4.36c0,.53,0,1.09.05,1.65q2.09-4.41,4.49-8.65c-1-6.13.3-12.53,1.55-18.53,0-.12.21-.06.19.06a51.29,51.29,0,0,0-1,9.5c-.06,2.52.06,5,.07,7.55l1.07-1.81q2.88-4.69,6.14-9.17a14.49,14.49,0,0,1,.15-4.36,32.67,32.67,0,0,1,1.07-4.78q.7-2.34,1.63-4.61c.64-1.56,1.5-3,2.11-4.59.06-.13.25,0,.18.08a22.47,22.47,0,0,0-1.85,4.64,40.41,40.41,0,0,0-1.21,4.6c-.31,1.55-.57,3.11-.79,4.68-.14,1-.23,2.12-.41,3.17a114.23,114.23,0,0,1,10.35-12c.08-.09.21,0,.13.14a136.09,136.09,0,0,0-15,20.44l-.48.82c.82-.51,1.75-.91,2.52-1.34,1.43-.79,2.87-1.59,4.31-2.36s2.8-1.52,4.19-2.3c.71-.39,1.42-.81,2.15-1.18a17,17,0,0,0,2.51-1.39c.11-.08.23.09.11.15-1.42.79-2.68,1.95-4.06,2.83s-2.78,1.73-4.22,2.53c-2.62,1.46-5.48,2.52-8.06,4-1.8,3.14-3.45,6.37-5,9.65,1.57-1,3.17-2,4.8-2.88,1-.58,2.1-1.16,3.16-1.72a15.55,15.55,0,0,0,3-1.8.1.1,0,0,1,.13.14,27.62,27.62,0,0,1-5.68,3.95c-1.89,1.11-3.81,2.18-5.79,3.15q-2.37,5.19-4.28,10.58c-6.22,17.62-8.5,36.32-9.6,54.89-.32,5.54-.49,11.07-.56,16.62s.22,11.07.21,16.6c0,.17-.27.2-.29,0-.66-4.91-.78-9.91-1-14.85S99.08,370.12,99.2,365.08Z" style="fill:#263238"></path><path d="M126.05,285.33a71.23,71.23,0,0,0,7.86-4.06,81.52,81.52,0,0,0,7.45-4.74s.09,0,0,.07a62.47,62.47,0,0,1-7.16,5,71,71,0,0,1-8.11,3.89C126,285.55,125.94,285.38,126.05,285.33Z" style="fill:#263238"></path><path d="M121.77,265.42c.22-.86.49-1.71.78-2.54a.08.08,0,0,1,0-.1c.19-.48.38-.95.58-1.42a1.71,1.71,0,0,1,.07-.18c0-.09.07-.18.11-.27s.06,0,0,0-.1.33-.15.49a1.38,1.38,0,0,1-.08.27,71.58,71.58,0,0,0-2.19,10c0,.1-.18.11-.17,0A33.68,33.68,0,0,1,121.77,265.42Z" style="fill:#263238"></path><path d="M106.71,335.78c5.15-16,16.8-25.51,31.76-23.31s20.05,21.91,10.05,28.49-22.82-6.65-28.92-8.87S106.71,335.78,106.71,335.78Z" style="fill:#FFC727"></path><path d="M105.35,376.63c-.22-1.81-.41-3.63-.6-5.44q-.59-5.43-1.16-10.86c-.7-6.62-.91-13.19,1-19.66a30,30,0,0,1,9.66-14.95,24.38,24.38,0,0,1,5.69-3.49,14.33,14.33,0,0,1,6.54-4.9,29.37,29.37,0,0,1,10.06-1.7c.12,0,.15.19,0,.19a24.7,24.7,0,0,0-9.46,2.05,20.22,20.22,0,0,0-3.63,2,18.88,18.88,0,0,0-2,1.73,21,21,0,0,1,8.79-1.16,19.22,19.22,0,0,1,3.19.57,9.4,9.4,0,0,1,2.36-.55,15.27,15.27,0,0,1,3.17,0,24,24,0,0,1,6.28,1.74c.12.05,0,.22-.08.18a22.16,22.16,0,0,0-6.07-1.35,18,18,0,0,0-3,0,15.62,15.62,0,0,0-1.65.24A19.24,19.24,0,0,1,145,329.23c.07.11-.09.22-.15.12a17.65,17.65,0,0,0-13.19-7.8c-.33,0-.66,0-1-.05.17.45.23,1,.35,1.43.2.71.43,1.42.68,2.12a38,38,0,0,0,1.79,4.21,34.89,34.89,0,0,0,2.35,4,20.21,20.21,0,0,0,3,3.75.1.1,0,1,1-.14.14c-1.05-1.23-2.23-2.33-3.22-3.63a29.64,29.64,0,0,1-2.54-3.9,27.12,27.12,0,0,1-1.92-4.3c-.28-.78-.52-1.58-.73-2.38a5.74,5.74,0,0,1-.3-1.47,19.59,19.59,0,0,0-5.11.62c1.14,3.48,2.36,7.1,4.8,9.92.08.09-.08.21-.15.11a41.11,41.11,0,0,1-3.2-4.75,19.5,19.5,0,0,1-2-5.14,23.63,23.63,0,0,0-8,4,28.11,28.11,0,0,0-9.47,13.88,46.56,46.56,0,0,0-1.65,18.19c.61,7.72,1.61,15.43,1.93,23.17,0,.5-.74.78-.92.23A26.47,26.47,0,0,1,105.35,376.63Z" style="fill:#263238"></path><path d="M115.07,324.37a8.35,8.35,0,0,1,1.43-1.77c.53-.57,1.07-1.14,1.65-1.66a13.65,13.65,0,0,1,3.86-2.51c.12-.05.19.13.08.17a11.12,11.12,0,0,0-3.8,2.59c-.55.54-1.06,1.1-1.56,1.68a10.51,10.51,0,0,1-1.47,1.65A.12.12,0,0,1,115.07,324.37Z" style="fill:#263238"></path><path d="M139.08,326.48a44.73,44.73,0,0,1,4,3.94,27.08,27.08,0,0,1,3.18,4.57c0,.05,0,.09-.08.05a59.57,59.57,0,0,0-7.19-8.41C138.87,326.55,139,326.4,139.08,326.48Z" style="fill:#263238"></path><path d="M123.2,327.23a10.73,10.73,0,0,0,1.21,2.59,17.44,17.44,0,0,0,1.73,2.2c0,.05,0,.11-.08.08a9.88,9.88,0,0,1-3-4.8C123,327.19,123.16,327.11,123.2,327.23Z" style="fill:#263238"></path><polygon points="83.58 368.66 84.63 381.16 87.86 419.29 122.45 419.29 125.68 381.16 126.73 368.66 83.58 368.66" style="fill:#455a64"></polygon><polygon points="83.58 368.66 84.63 381.16 125.68 381.16 126.73 368.66 83.58 368.66" style="fill:#263238"></polygon><rect x="80.18" y="363.64" width="49.94" height="11.99" transform="translate(210.31 739.27) rotate(180)" style="fill:#455a64"></rect></g><g id="freepik--Character--inject-7"><path d="M606.13,314.43l-31,25.05c-6,4.76-11.09,9-13.53,11.5l0,0a5.24,5.24,0,0,0-1.49,1.91s0,0,0,.06c.22,2.73,36.84,51.38,38.69,52.65s5.61-3.9,5.69-6.92-5.61-27.93-5.61-27.93l30.73-25.32Z" style="fill:#ad6359"></path><path d="M581.49,334.34l-6.36,5.14c-6,4.76-11.09,9-13.53,11.5l0,0a9.75,9.75,0,0,0-1.49,1.91s0,0,0,.06c.22,2.73,36.84,51.38,38.69,52.65s5.61-3.9,5.69-6.92-5.61-27.93-5.61-27.93l6.53-5.13Z" style="fill:#ebebeb"></path><path d="M598.51,405.81c-1.85-1.27-38.52-49.88-38.74-52.62-.1-1,6.67-6.79,15.05-13.51l.27-.21,24,31.1-.54.39s5.72,24.88,5.64,27.92S600.36,407.08,598.51,405.81Z" style="fill:#FFC727"></path><path d="M600,403.84c-6-8.35-30.89-41.45-37.43-49.25-.06-.06-.1,0-.06,0,5.75,8.4,30.93,41.3,37.36,49.31C600,404.11,600.11,404,600,403.84Z" style="fill:#fff"></path><path d="M600.45,373.66c-1.83-3.68-5.3-7.25-9.46-8-.16,0-.2.2-.09.28a56.49,56.49,0,0,1,9.13,8A.26.26,0,0,0,600.45,373.66Z" style="fill:#fff"></path><path d="M600.8,377.05c-1.83-3.68-5.3-7.25-9.46-8-.16,0-.2.2-.08.28a56.79,56.79,0,0,1,9.12,8A.26.26,0,0,0,600.8,377.05Z" style="fill:#fff"></path><path d="M601.15,380.43c-1.83-3.67-5.3-7.25-9.45-8-.17,0-.2.2-.09.28a56.92,56.92,0,0,1,9.13,8A.26.26,0,0,0,601.15,380.43Z" style="fill:#fff"></path><path d="M600.81,405.24c.32,1.12-2.74,3.13-3.45,2.68s-40.45-53.63-40.93-54.68,3-3.16,4-2.24S600.81,405.24,600.81,405.24Z" style="fill:#FFC727"></path><path d="M600.81,405.24c.32,1.12-2.74,3.13-3.45,2.68s-40.45-53.63-40.93-54.68,3-3.16,4-2.24S600.81,405.24,600.81,405.24Z" style="opacity:0.30000000000000004"></path><path d="M575.7,351.6c-.9-4.85-8.44-3.47-7.55,1.39S576.59,356.46,575.7,351.6Z" style="fill:#fff"></path><path d="M624.64,285.3c-2.19,10.84-39.79,46.33-39.79,46.33l24,30.93s61.52-45.95,58.89-70c-2.76-25.24-34.21-110-34.21-110h-36S626.8,274.65,624.64,285.3Z" style="fill:#37474f"></path><path d="M627.36,278.57c-.5-2.68-1.07-5.36-1.63-8q-1.71-8.19-3.62-16.33-3.79-16.15-8.25-32.12c-3-10.68-6.15-21.34-9.8-31.82-.45-1.29-.91-2.58-1.37-3.87a.08.08,0,0,0-.16,0c3.16,10.49,6.41,21,9.36,31.5s5.68,21.08,8.25,31.69c1.29,5.32,2.49,10.67,3.66,16q.87,3.94,1.69,7.9a57.89,57.89,0,0,1,1.47,8.14,12.58,12.58,0,0,1-2.06,7.34c-1.32,2.19-2.87,4.25-4.36,6.31-3,4.14-31.57,36.51-32.49,37.39-.07.07,0,.17.11.11,3.84-3.5,28.07-30.19,31.15-34.31q2.28-3.07,4.47-6.21a24.56,24.56,0,0,0,3.48-6.25A15,15,0,0,0,627.36,278.57Z" style="fill:#263238"></path><path d="M627.27,182.59l-5.59,83.7c-6.23-29.34-24.16-83.7-24.16-83.7Z" style="fill:#263238"></path><path d="M612.24,359.37s7.37,37.55,7.37,37.57c.1,7.62.33,14.3.77,17.74a.09.09,0,0,0,0,.05,5.39,5.39,0,0,0,.59,2.35l0,.05c2.29,1.5,63.18,2.45,65.31,1.76s.36-6.82-2-8.74-25.5-12.71-25.5-12.71l-8.14-37.79Z" style="fill:#ad6359"></path><path d="M686.35,418.89c-2.14.68-63-.26-65.32-1.76l0-.05a5.34,5.34,0,0,1-.59-2.35.13.13,0,0,1,0-.06c-.44-3.43-.66-10.11-.77-17.72l-1.35-6.59h39.09l1.52,7.08s23.15,10.79,25.5,12.71S688.49,418.22,686.35,418.89Z" style="fill:#ebebeb"></path><path d="M686.34,418.9c-2.13.68-63-.27-65.31-1.78-.89-.55-1.27-9.43-1.42-20.18v-.33l39.29.17,0,.66s23.14,10.79,25.49,12.72S688.48,418.22,686.34,418.9Z" style="fill:#FFC727"></path><path d="M685.69,416.52c-10.26-.41-51.68-1.1-61.85-.73-.08,0-.09.06,0,.07,10.16.63,51.58,1,61.85.83C685.9,416.69,685.91,416.53,685.69,416.52Z" style="fill:#fff"></path><path d="M662.17,397.61c-4-.81-9-.27-12.1,2.56-.13.11,0,.28.16.24a57.47,57.47,0,0,1,11.92-2.29A.26.26,0,0,0,662.17,397.61Z" style="fill:#fff"></path><path d="M665.06,399.42c-4-.82-9-.28-12.11,2.55-.12.11,0,.28.17.24A56.8,56.8,0,0,1,665,399.93.26.26,0,0,0,665.06,399.42Z" style="fill:#fff"></path><path d="M668,401.22c-4-.82-9-.27-12.11,2.56-.12.1,0,.28.17.24a56.07,56.07,0,0,1,11.92-2.29A.26.26,0,0,0,668,401.22Z" style="fill:#fff"></path><path d="M687.31,416.73c1.08.43.79,4.09,0,4.37s-67.18-1-68.3-1.31-.65-4.31.67-4.5S687.31,416.73,687.31,416.73Z" style="fill:#FFC727"></path><path d="M687.31,416.73c1.08.43.79,4.09,0,4.37s-67.18-1-68.3-1.31-.65-4.31.67-4.5S687.31,416.73,687.31,416.73Z" style="opacity:0.30000000000000004"></path><path d="M629.56,403.58c-4.38-2.27-7.92,4.53-3.54,6.81S634,405.86,629.56,403.58Z" style="fill:#fff"></path><path d="M630,182.6a146.84,146.84,0,0,0-3.09,18c-.75,7.53-1.69,14.19-2.7,15s-6.82,4.59-8.74,5.75c0,0,17.73,53.75,22.31,71.66C644.44,319,656.2,385,656.2,385l-38.8,1.12s-12.27-63.48-17.89-88.2c-4.83-21.2-23.3-84.79-23.3-84.79a36.88,36.88,0,0,1,1.49-30.57S630,182.57,630,182.6Z" style="fill:#37474f"></path><path d="M627.24,213.45a80,80,0,0,0-11.67,7.81.14.14,0,0,0,.15.24c4-2.48,8-4.89,11.83-7.58A.28.28,0,0,0,627.24,213.45Z" style="fill:#263238"></path><path d="M624,184.21c0-.15-.3-.14-.27,0,.81,5,1.18,9.5,1.49,14.27.14,2.22.26,14.56-3.67,14.27-.66-.05-1.08-.62-1.32-1.56a15.39,15.39,0,0,1-.08-3.78c0-2.6,0-5.18-.2-7.77a70.82,70.82,0,0,0-2.37-14.25.13.13,0,0,0-.25.05,132.62,132.62,0,0,1,1.91,19.89c0,3.21-.83,8.18,2.53,8.16s4.35-8.28,4.42-10.51A73,73,0,0,0,624,184.21Z" style="fill:#263238"></path><path d="M621.71,213.08a21.27,21.27,0,0,0-.46,2.63,5.77,5.77,0,0,0,0,2.11.16.16,0,0,0,.28,0,7.34,7.34,0,0,0,.56-2.14c.17-.82.36-1.63.5-2.46A.43.43,0,0,0,621.71,213.08Z" style="fill:#263238"></path><path d="M582.21,212.87a41.88,41.88,0,0,0,10.72-2,25.34,25.34,0,0,0,10.4-6.42,20.47,20.47,0,0,0,4-5.58c0-.08.16,0,.13.06a18.51,18.51,0,0,1-2.82,5.59,21.61,21.61,0,0,1-4.58,4.38,24,24,0,0,1-11.64,4.49,18.79,18.79,0,0,1-6.26-.1C581.91,213.22,582,212.89,582.21,212.87Z" style="fill:#263238"></path><path d="M609.94,345.5c-1.33-7.48-2.86-14.92-4.48-22.34-.91-4.19-2-8.34-3.1-12.48-.08-.29-.48-.15-.43.13.68,3.79,1.33,7.59,2.11,11.36s1.54,7.52,2.29,11.29c1.48,7.45,7.34,33.77,7.51,34.82,0,.1.17.05.15,0C613.83,367.23,610.6,349.25,609.94,345.5Z" style="fill:#263238"></path><path d="M642.26,309.07c-1.41-7-3.31-13.95-5.22-20.85-3.84-13.89-8.37-27.57-12.89-41.26l-3.9-11.82c-.65-2-3.84-12.6-4.24-13.61a.09.09,0,0,0-.17.05c.92,3.62,2.17,8.9,3.23,12.48s2.18,7.06,3.28,10.59c2.17,6.93,4.36,13.84,6.46,20.79,4.15,13.73,8.27,27.46,11.64,41.41.94,3.91,1.88,7.81,2.74,11.74s1.6,7.86,2.42,11.79c0,.11.2.08.19,0A213.13,213.13,0,0,0,642.26,309.07Z" style="fill:#263238"></path><path d="M616,345.81c-2.33-13.4-5.12-26.72-8.21-40s-6.57-26.53-10.38-39.65-8-26.13-12.57-39A163.17,163.17,0,0,1,579,208.62c-1.39-6.25-2.1-13-.64-19.34a32.27,32.27,0,0,1,1.44-4.7c0-.1-.11-.19-.15-.09-5.09,11.86-1.79,24.84,2.08,36.53,2.13,6.41,4.39,12.76,6.49,19.18q3.22,9.88,6.18,19.84c3.9,13.17,7.53,26.41,10.78,39.75s6.14,26.76,8.68,40.25,4.71,27.13,6.88,40.73c.29,1.77.51,3.55.74,5.32,0,.1.17.1.16,0C620.05,372.61,618.28,359.19,616,345.81Z" style="fill:#263238"></path><path d="M629.66,123.21c18.92,19.75,36.23,41.12,37,51.43,1,14.28-8,17.56-11.88,17.31-10.6-.67-26.72-45-32.22-61.95C617.18,113.6,625.5,118.88,629.66,123.21Z" style="fill:#FFC727"></path><path d="M573.56,190.63c.12.16,64,4.23,64.55,3.68.17-.16,2.25-6.57,1.76-11.21-1.82-17.36-12-63.73-16.11-70.21-1.13-1.76-5.26-2.57-8.85-2.43a15.69,15.69,0,0,0-2.78.33l-.09,0a6.38,6.38,0,0,0-2.09.81c-10.54,7-33.66,60.58-35.31,65.73C573.2,181.81,573.36,190.36,573.56,190.63Z" style="fill:#FFC727"></path><path d="M617,187.86c6.37.28,12.71.55,19,.89l-.35.39-1.41-9.87.2.28a7.76,7.76,0,0,1-2.86-2.53A12.05,12.05,0,0,1,630,173.6a20,20,0,0,1-.8-3.65,25.77,25.77,0,0,1-.24-3.73l.34.37-15-.86.32-.25-.58,2.31c-.21.77-.5,1.51-.75,2.27s-.64,1.46-1,2.19l-.62,1c-.1.17-.2.35-.31.52l-.36.47a9.52,9.52,0,0,1-3.65,3.1,7.36,7.36,0,0,1-4.74.48l.17-.07L597.68,187Zm-14.46-10.22,0-.1.12,0a7.19,7.19,0,0,0,4.49-.57,9,9,0,0,0,3.43-3l.35-.47c.1-.16.19-.33.29-.5l.58-1c.31-.71.65-1.41.91-2.14s.51-1.48.7-2.23l.54-2.29.06-.26.26,0,15,.76.34,0v.35a27.51,27.51,0,0,0,.26,3.61,19.09,19.09,0,0,0,.79,3.52,12,12,0,0,0,1.52,3.22,7.15,7.15,0,0,0,2.56,2.3l.18.09,0,.19,1.35,9.88.06.41-.41,0c-6.44-.35-12.87-.77-19.26-1.18l-19-1.23Z" style="opacity:0.1"></path><path d="M621.17,128.56s-8-10.43-14-11.1l-5.77,3.79s-1.75.31-2.12-.83c-.9-2.81-.23-9.2,5.83-12.53,5.55-3,15.71-.79,22.28,2,6.32,2.68,9.37,7.07,6.74,11.06S621.17,128.56,621.17,128.56Z" style="fill:#FFC727"></path><path d="M622.12,126.64s8.31-4.28,9.55-7.36-4.7-7-8.64-8.84c-6.11-2.77-10.52-3-14.59-.11S622.12,126.64,622.12,126.64Z" style="opacity:0.1"></path><path d="M622.12,126.64c-3.06-.2-8-5.39-8.79-10.11-.05-.32,1.36-3,2.92-6.42.93-2.06,1.93-4.37,2.69-6.55.15-.44,12.49,8.06,12.49,8.06a36.62,36.62,0,0,0-4.22,7.9,4.71,4.71,0,0,0-.22.92s0,.1,0,.16C626.65,122.39,625.41,126.85,622.12,126.64Z" style="fill:#ad6359"></path><path d="M627,120.44l0,.16a9.37,9.37,0,0,1-1.43-.42c-8-3-6.59-13.75-6.11-16.44,2.3,1.19,12,7.88,12,7.88a36.93,36.93,0,0,0-4.23,7.9A5.5,5.5,0,0,0,627,120.44Z" style="fill:#263238"></path><path d="M616.61,95.92a26.26,26.26,0,0,1-1.58,4.47c-.67,1.07-3.67,1.46-3.67,1.46s2.65,2,3.56,2.06,3-1.67,3-1.67-2.36,3.08-3.63,2.88c-.78-.12,1.81.72,1.81.72a3.63,3.63,0,0,0,2.6-.34C619.87,104.78,616.61,95.92,616.61,95.92Z" style="fill:#263238"></path><path d="M621.83,85.7c-3.13,4.35-5.32,19.23-2.94,23.52,3.47,6.23,11.51,9.44,17.4,4.74,5.7-4.56,8.23-24,5.34-28.15C637.37,79.7,626.45,79.28,621.83,85.7Z" style="fill:#ad6359"></path><path d="M632.18,99.7s-.09,0-.09.08c-.12,1-.43,2.14-1.39,2.33,0,0,0,.06,0,.06C631.83,102.18,632.22,100.68,632.18,99.7Z" style="fill:#263238"></path><path d="M631.44,98.52c-1.59-.37-2.21,2.85-.73,3.19S632.78,98.83,631.44,98.52Z" style="fill:#263238"></path><path d="M637.75,100.88s.07.06.06.1c-.22,1-.31,2.16.52,2.66,0,0,0,.07,0,0C637.25,103.33,637.38,101.78,637.75,100.88Z" style="fill:#263238"></path><path d="M638.84,100c1.62.19,1.13,3.42-.38,3.25S637.48,99.85,638.84,100Z" style="fill:#263238"></path><path d="M630.46,96.81c.46,0,.88-.13,1.33-.2a2.11,2.11,0,0,0,1.31-.46.69.69,0,0,0,0-.84,1.7,1.7,0,0,0-1.66-.5,2.51,2.51,0,0,0-1.63.79A.74.74,0,0,0,630.46,96.81Z" style="fill:#263238"></path><path d="M640.61,97.57c-.43-.16-.8-.38-1.21-.58a2.2,2.2,0,0,1-1.13-.83.7.7,0,0,1,.2-.82,1.72,1.72,0,0,1,1.74,0,2.52,2.52,0,0,1,1.33,1.24C641.84,97.17,641.18,97.77,640.61,97.57Z" style="fill:#263238"></path><path d="M629.13,108.38c.19.28.37.65.72.75a2.65,2.65,0,0,0,1.12,0s.06,0,0,.06a1.36,1.36,0,0,1-1.36.3,1.08,1.08,0,0,1-.62-1C629,108.35,629.1,108.34,629.13,108.38Z" style="fill:#263238"></path><path d="M630.75,105.61a3.42,3.42,0,0,0,2,1.94,4.48,4.48,0,0,0,1.2.29l.24,0h.23a.26.26,0,0,0,.24-.19h0a.31.31,0,0,0,0-.1h0l0-.08c.17-.77.32-2,.32-2,.25.2,1.55,1.12,1.61.71a51.88,51.88,0,0,0,.66-10.5.1.1,0,0,0-.19,0c-.55,3.2-.53,6.48-1,9.71a6.34,6.34,0,0,0-1.51-.8c-.11,0-.25,2.29-.35,2.62l0,0a4.77,4.77,0,0,1-3.29-1.77C630.79,105.46,630.7,105.51,630.75,105.61Z" style="fill:#263238"></path><path d="M633.55,107.36a4.1,4.1,0,0,1-1.85.94,1.86,1.86,0,0,1-1.11-.14c-.76-.37-.64-1.1-.37-1.69a4.68,4.68,0,0,1,.54-.89A5.28,5.28,0,0,0,633.55,107.36Z" style="fill:#263238"></path><path d="M631.7,108.3a1.86,1.86,0,0,1-1.11-.14c-.76-.37-.64-1.1-.37-1.69A1.9,1.9,0,0,1,631.7,108.3Z" style="fill:#ff9bbc"></path><path d="M618.29,97.92c2.78.13,6.93-7.93,6.93-7.93l-1.09,4.83a11.75,11.75,0,0,0,4.1-2.7A8.78,8.78,0,0,0,630,87.58a16.08,16.08,0,0,0,4.76,5.83c1.08.72,9.86,3.63,10,3.08.55-1.62-.95-8.58-2.65-10.83a12.11,12.11,0,0,0-10.93-5.24c-5.91.25-8.42,3.15-10.07,5.5S617.27,97.87,618.29,97.92Z" style="fill:#263238"></path><path d="M621.44,98.48s-1.74-5.57-4.17-5.09-2.13,7.85,0,9.52a2.58,2.58,0,0,0,3.73-.27Z" style="fill:#ad6359"></path><path d="M617.41,95.5s-.06,0,0,.06a6.52,6.52,0,0,1,2,4.93,1.43,1.43,0,0,0-1.92-1c-.05,0,0,.1,0,.11a1.58,1.58,0,0,1,1.5,1.06,7.29,7.29,0,0,1,.37,1.6c0,.18.34.19.33,0v0C620.4,100,619.67,96.46,617.41,95.5Z" style="fill:#263238"></path><path d="M638.2,81.8a21.29,21.29,0,0,0-5-3.54c-2.08-1-9.11-2.75-11.21-1.92s-4.68,7.13-5,8.06-1.84,6.77-.23,8.83,5-7.55,9.37-9.68S638.2,81.8,638.2,81.8Z" style="fill:#FFC727"></path><path d="M638.2,81.81s-7.82-.38-12.15,1.74-7.76,11.75-9.37,9.69a4.77,4.77,0,0,1-.72-3.6c1.38-2.69,4-6.7,7.36-9,3.16-2.11,7.45-2.28,11.67-1.38A23,23,0,0,1,638.2,81.81Z" style="opacity:0.1"></path><path d="M615.32,99.18c1-2.53,6-8.56,10.06-11.61s12.94-2.65,14-2.21c2.7,1.08,3.35,2.22,3.87,2.12s-1.62-3.11-2.24-3.83-2.34-2.51-3.54-2.88-8.82-2.1-12.54.15-10.45,9.79-10.51,12.28c0,.59.59,1.18.56,2,0,1.1-.21,2.34-.14,3.14C614.94,99,615.23,99.4,615.32,99.18Z" style="fill:#FFC727"></path><path d="M626.6,86a14,14,0,0,1-1.34-1.91,9.45,9.45,0,0,1-1-2.14,0,0,0,0,0-.09,0,7.66,7.66,0,0,0,.78,2.29,6.4,6.4,0,0,0,1.54,1.85C626.57,86.18,626.66,86.07,626.6,86Z" style="fill:#263238"></path><path d="M616.16,96.59c0-.21-.08-.42-.11-.63a3.45,3.45,0,0,1,0-.72,6.06,6.06,0,0,0,.12-1.35,5,5,0,0,0-.32-1.06,1.85,1.85,0,0,1-.16-1.22s-.06-.08-.08,0a4.48,4.48,0,0,0,.2,2.29,8,8,0,0,1-.1,1.46,2.1,2.1,0,0,0,.33,1.3C616.06,96.68,616.16,96.66,616.16,96.59Z" style="fill:#263238"></path><path d="M618,94.09a10.62,10.62,0,0,1-.43-1.11,7.8,7.8,0,0,1-.23-1.15c-.06-.39-.08-.77-.13-1.15s-.16-.91-.19-1.36c0-.06-.09,0-.09,0,0,.47,0,.94,0,1.42a10,10,0,0,0,.14,1.21,6.38,6.38,0,0,0,.3,1.14,2.86,2.86,0,0,0,.59,1S618,94.12,618,94.09Z" style="fill:#263238"></path><path d="M619.76,91.88a7.72,7.72,0,0,1-.87-2c-.19-.71-.32-1.43-.46-2.15a0,0,0,0,0-.09,0,9.46,9.46,0,0,0,.24,2.25,4.64,4.64,0,0,0,.39,1,4.71,4.71,0,0,0,.71,1S619.79,91.93,619.76,91.88Z" style="fill:#263238"></path><path d="M621.59,89.81a2.63,2.63,0,0,1-.45-.92c-.13-.37-.25-.73-.36-1.1s-.21-.71-.31-1.07a2.77,2.77,0,0,1-.15-1.1c0-.05-.07-.07-.09,0a3,3,0,0,0,0,1.11,6.91,6.91,0,0,0,.25,1.2,11.08,11.08,0,0,0,.42,1.14,1.78,1.78,0,0,0,.65.85S621.64,89.87,621.59,89.81Z" style="fill:#263238"></path><path d="M623.35,87c-.16-.32-.32-.63-.46-1s-.25-.65-.36-1-.25-.7-.35-1.05c0-.06-.09,0-.09,0a8,8,0,0,0,.16,1.09,7.47,7.47,0,0,0,.35,1,8,8,0,0,0,.46,1,2.68,2.68,0,0,0,.65.87s.11,0,.09-.06A4.77,4.77,0,0,0,623.35,87Z" style="fill:#263238"></path><path d="M629.07,85.2c-.15-.4-.29-.79-.48-1.18a9.79,9.79,0,0,0-.64-1.14,11.29,11.29,0,0,0-1.55-2,0,0,0,0,0-.07,0c.87,1.45,1.8,2.87,2.66,4.33A0,0,0,1,0,629.07,85.2Z" style="fill:#263238"></path><path d="M631.37,83.51a5.25,5.25,0,0,0-.6-1.12,11.61,11.61,0,0,0-1.8-2s-.11,0-.07.06c.52.67,1.06,1.33,1.54,2a11.94,11.94,0,0,1,.67,1.07c.2.37.31.77.49,1.15,0,0,.07,0,.07,0A3.12,3.12,0,0,0,631.37,83.51Z" style="fill:#263238"></path><path d="M633.86,83.22a6.19,6.19,0,0,0-.53-1.1,6.85,6.85,0,0,0-1.52-1.74s-.09,0-.06.07a14,14,0,0,1,1.35,1.88c.2.33.38.68.56,1s.31.73.52,1.05a0,0,0,0,0,.05,0A5.72,5.72,0,0,0,633.86,83.22Z" style="fill:#263238"></path><path d="M635.84,82.45c-.2-.31-.41-.61-.62-.91a3.77,3.77,0,0,0-.73-.81,0,0,0,0,0-.06.07l1.14,1.81a9.88,9.88,0,0,1,.73,1.82,0,0,0,0,0,.06,0A3.51,3.51,0,0,0,635.84,82.45Z" style="fill:#263238"></path><path d="M637.92,82.68A5.45,5.45,0,0,0,636.55,81s-.09,0-.06.07a6.72,6.72,0,0,1,1.18,1.7,9.41,9.41,0,0,1,.72,1.94s.07,0,.07,0A4.75,4.75,0,0,0,637.92,82.68Z" style="fill:#263238"></path><path d="M640.07,84.68a3.89,3.89,0,0,0-.09-.47,4.8,4.8,0,0,0-.34-.89,9.77,9.77,0,0,0-1.09-1.62s-.1,0-.07.06a7.9,7.9,0,0,1,1,1.62,6.45,6.45,0,0,1,.32.87c0,.15.08.29.11.44a3.12,3.12,0,0,0,.09.44,0,0,0,0,0,.08,0A1.09,1.09,0,0,0,640.07,84.68Z" style="fill:#263238"></path><path d="M641.58,85.34a5.94,5.94,0,0,0-.28-.74,6.7,6.7,0,0,0-.37-.7c-.14-.23-.29-.45-.42-.68a0,0,0,1,0-.07,0,4.12,4.12,0,0,1,.36.73c.1.23.21.46.31.7l.3.7a5.74,5.74,0,0,0,.3.72,0,0,0,1,0,.06,0A2.85,2.85,0,0,0,641.58,85.34Z" style="fill:#263238"></path><path d="M622.12,126.64S616.51,113,607.4,110.37l-.23,7.09s5.54.82,14,11.1Z" style="fill:#FFC727"></path><path d="M604.64,117.23a11.77,11.77,0,0,1,4.89,1.39,21.87,21.87,0,0,1,4.26,2.79,38.51,38.51,0,0,1,3.74,3.48l1.71,1.91,1.62,2,.18.23.25-.09a43.56,43.56,0,0,0,5.45-2.29,25,25,0,0,0,2.57-1.46,15.14,15.14,0,0,0,2.33-1.81,26,26,0,0,1-5.12,2.8c-.89.38-1.8.73-2.71,1.07s-1.84.66-2.76.94l.44.14-1.62-2c-.56-.66-1.14-1.31-1.73-2s-1.23-1.23-1.87-1.82-1.31-1.16-2-1.67a20.65,20.65,0,0,0-4.52-2.64c-.4-.18-.82-.31-1.23-.46s-.84-.24-1.27-.32A7.3,7.3,0,0,0,604.64,117.23Z" style="fill:#263238"></path><path d="M601.4,121.25a28.55,28.55,0,0,0,5.77-3.79,25.94,25.94,0,0,0-3,1.72A25.26,25.26,0,0,0,601.4,121.25Z" style="fill:#263238"></path><path d="M618.64,123.08a52.53,52.53,0,0,0-2.93,8.44c-.53,2-1.48,9.46.83,9.74s-.23-5.29,0-9.27,2-6.54,2.65-8.8Z" style="fill:#FFC727"></path><g style="opacity:0.1"><path d="M618.64,123.08a52.53,52.53,0,0,0-2.93,8.44c-.53,2-1.48,9.46.83,9.74s-.23-5.29,0-9.27,2-6.54,2.65-8.8Z"></path></g><path d="M627,124.58a47.75,47.75,0,0,1-.17,8.1c-.19,1.88-1.72,8.51-3.77,8s1.86-4.42,2.88-7.89.4-6.18.53-8.32Z" style="fill:#FFC727"></path><g style="opacity:0.1"><path d="M627,124.58a47.75,47.75,0,0,1-.17,8.1c-.19,1.88-1.72,8.51-3.77,8s1.86-4.42,2.88-7.89.4-6.18.53-8.32Z"></path></g><path d="M603.05,120.44c-19.09,15-37.86,40.92-38,55.41-.14,14.32,4.85,12.93,6.26,12.84,8.65-.57,29-40.4,35.21-56.64S607.77,116.73,603.05,120.44Z" style="fill:#FFC727"></path><path d="M582.81,177.51c1-1.81,2-3.59,3-5.41l3-5.41c2-3.62,4-7.22,5.87-10.87s3.87-7.27,5.76-10.93c.94-1.83,1.87-3.66,2.77-5.52s1.78-3.71,2.65-5.58a111.89,111.89,0,0,1-4.73,11.44c-1.75,3.74-3.66,7.4-5.57,11.06s-4,7.23-6.09,10.78S585.18,174.13,582.81,177.51Z" style="fill:#263238"></path><path d="M603.82,138.59a16,16,0,0,1,1.18-1.87c.21-.29.42-.59.65-.88a11,11,0,0,1,.69-.87,5.57,5.57,0,0,1-.93,2A6.28,6.28,0,0,1,603.82,138.59Z" style="fill:#263238"></path><path d="M662.41,153.26c-.43-6.78-1.64-16.28-3.9-18.42s-11-9.79-13.57-10.9-14-6.45-16.27-5.36c-1.8.87-.09,5.58,5.35,8.17a82.49,82.49,0,0,1,8.55,5c1.39.73,4.5,5.63,3.41,7.62-.65,1.17-4.28,2.33-6.4,1.18s-2.34-5.53-4.7-7.77-6.79-2.3-7.14-1.13,1.08,1.84,3,6.06c1.27,2.72.9,9,3.87,13.72a76.35,76.35,0,0,1,3.94,8.59Z" style="fill:#ad6359"></path><path d="M632.68,130.72a4.37,4.37,0,0,1-2.12-1.15,1.85,1.85,0,0,1-.43-.93,2.09,2.09,0,0,1,0-.56c0-.17.11-.43.26-.52s0-.09,0,0a1.84,1.84,0,0,1-.23.25,2,2,0,0,0-.14.25,1.43,1.43,0,0,0-.13.54,1.74,1.74,0,0,0,.35,1.14,3,3,0,0,0,2.45,1.1A0,0,0,0,0,632.68,130.72Z" style="fill:#263238"></path><path d="M658.51,134.84c-1.88-3.51-6.89-10-12.15-12.42-3.55-1.67-16.58,3.52-16.39,6s2.34,2.6,5.55,2.45c1.17,0,7.46-1.79,8.41-.43,1.36,2,2.8,8.41,2.8,8.41Z" style="fill:#ad6359"></path><path d="M630.35,127.45c1.75-2.45,5.27-3.57,8.74-4.41a0,0,0,0,1,0,.09c-.89.21-6.61,2.35-8.73,4.37C630.37,127.52,630.34,127.48,630.35,127.45Z" style="fill:#263238"></path><path d="M658.51,134.84c-1.88-3.51-6.89-10-12.15-12.42-3.55-1.67-14.08,5.43-13.89,7.86s3.26,2.85,6.76,1.91c1.13-.3,5-2.63,6-1.27,1.37,2,4.69,6.82,4.69,6.82Z" style="fill:#ad6359"></path><path d="M648,134.74l-.72-1.29c-.32-.55-.64-1.09-1-1.61a4.56,4.56,0,0,0-1-1.27,2.35,2.35,0,0,0-1.48-.41,8.52,8.52,0,0,0-3.36,1.19c-1.17.56-3.57,1.43-5.34,1.11a3.45,3.45,0,0,1-1.38-.48,2.29,2.29,0,0,1-.79-.73c-.67-1.37.4-2.79,1.47-3.78a22.76,22.76,0,0,1,7-4.08c.61-.25,1.23-.48,1.84-.7a5.25,5.25,0,0,1,2.21-.46c1.24.08,3.17,1.49,3.77,1.91,0,0,.09,0,0-.07-.72-.53-2.49-2.21-4.5-2.26a6.31,6.31,0,0,0-2.12.54c-.72.25-1.43.53-2.13.81a27.67,27.67,0,0,0-4,2,11.84,11.84,0,0,0-3.33,2.71,3.48,3.48,0,0,0-.48,3.54,3,3,0,0,0,2.15,1.36,6,6,0,0,0,1.58.11,26.48,26.48,0,0,0,3.49-.75c1.12-.35,2.14-1,3.28-1.26a2.1,2.1,0,0,1,1.61.22,5.75,5.75,0,0,1,1.12,1.19,16.93,16.93,0,0,1,1.84,2.54C647.94,135,648.11,135,648,134.74Z" style="fill:#263238"></path><path d="M659.88,137.88c-.66-1.65-1.5-8.32-2.62-10.42s-6.39-9.5-9.11-9.4c-3.43.12-.34,6.51,1.25,9.16s1,6.91,1,6.91Z" style="fill:#ad6359"></path><path d="M647.23,122.86a30.71,30.71,0,0,1,1.55,2.66,20.2,20.2,0,0,1,1.34,2.62,8.79,8.79,0,0,1,.45,2.84c0,.48,0,1,0,1.43s-.12,1-.15,1.55a0,0,0,1,1-.08,0,22.43,22.43,0,0,0-.16-2.84,11.82,11.82,0,0,0-.65-2.87c-.66-1.84-1.7-3.51-2.38-5.34C647.08,122.84,647.19,122.8,647.23,122.86Z" style="fill:#263238"></path><path d="M650.28,134.85a9.89,9.89,0,0,1-1.22,4.71,18.12,18.12,0,0,1-1.25,2.12,19.75,19.75,0,0,1-1.56,1.9,18.68,18.68,0,0,0-2.76,3.78,19.17,19.17,0,0,0-1.64,4.46,12.36,12.36,0,0,1,1-4.78,14.62,14.62,0,0,1,2.7-4.12,23,23,0,0,0,2.84-3.76A14.31,14.31,0,0,0,650.28,134.85Z" style="fill:#263238"></path><path d="M653.79,191.38c-6.54-1.45-9.93-12.88-15.83-33-1-3.53,18-23,20.11-19.72,2.62,4.19,8.74,26.84,9.07,32.89C667.79,183.53,661.43,193.08,653.79,191.38Z" style="fill:#ad6359"></path><path d="M641,169.6l23.07-18.91s4.55,18.34,3.35,25.76-4.53,15.72-13.56,15.43C647.12,191.67,641,169.6,641,169.6Z" style="fill:#FFC727"></path><path d="M646.71,184.53c-.68-1.16-1.27-2.36-1.84-3.57s-1.09-2.43-1.59-3.67-.95-2.5-1.34-3.78a22.65,22.65,0,0,1-.91-3.91c.46,1.26,1,2.49,1.45,3.72L644,177c.48,1.23,1,2.47,1.43,3.72S646.31,183.24,646.71,184.53Z" style="fill:#263238"></path><path d="M645.31,173.6c1.13-1,2.36-2,3.55-3s2.39-2,3.6-2.91c2.43-1.9,4.86-3.79,7.32-5.65l2-1.52c.74-.53,1.53-1,2.26-1.51,0,0,.12,0,.06.09-.58.48-1.11,1-1.68,1.53s-1.21,1-1.83,1.5L657,165c-2.42,1.91-4.86,3.81-7.34,5.63-1.4,1-2.79,2.12-4.25,3.07A.08.08,0,0,1,645.31,173.6Z" style="fill:#263238"></path><path d="M624.92,126.44l-9,27.92c-.35.82,0,1.52.84,1.57l14.65,1a2.35,2.35,0,0,0,2.13-1.37l9-27.93c.36-.82,0-1.52-.84-1.57l-14.65-1A2.36,2.36,0,0,0,624.92,126.44Z" style="fill:#37474f"></path><path d="M626.66,126.53l-9,27.93c-.35.81,0,1.52.84,1.57l14.65,1a2.35,2.35,0,0,0,2.13-1.37l9-27.93c.36-.82,0-1.52-.84-1.57l-14.65-1A2.36,2.36,0,0,0,626.66,126.53Z" style="fill:#455a64"></path><path d="M630.59,128.09a1.24,1.24,0,1,1-1.13-1.35A1.25,1.25,0,0,1,630.59,128.09Z" style="fill:#263238"></path><path d="M569.33,188.66c6.4.88,14.37-4.09,35-19.19,2.86-2.09-6.45-26.25-9.62-24.18-4,2.61-18.92,13.62-19.91,14.56C566.49,167.8,565,188.06,569.33,188.66Z" style="fill:#ad6359"></path><path d="M587.38,152.6s5.89-8.27,10.32-11.65a35.81,35.81,0,0,1,15.91-6.43c6.2-.92,21.82,1.16,22,5.76.16,4.17-15.69,1.24-15.69,1.24s16.66.32,15.94,5.37-18.93.61-18.93.61,17.11.71,15.54,5.81c-1.19,3.85-17.91.74-17.91.74s14.7.72,13.66,4.73c-1.16,4.43-16.77,2.54-16.77,2.54-4.38,9.75-10.66,12.49-15.22,14C595.14,175.7,587.38,152.6,587.38,152.6Z" style="fill:#ad6359"></path><path d="M614.17,141c2,0,3.94-.08,5.9.06s3.9.35,5.84.67a33.69,33.69,0,0,1,7.4,2c-4.36-1.35-11.34-2-13.3-2.1s-3.89-.38-5.85-.53C614.12,141.11,614.13,141,614.17,141Z" style="fill:#263238"></path><path d="M613.54,148.09c2.5.06,5,0,7.48.21s4.84.56,7.31.91c.19,0,.11.12-.08.1-2.48-.25-4.8-.28-7.28-.5s-5-.54-7.44-.66C613.49,148.14,613.5,148.09,613.54,148.09Z" style="fill:#263238"></path><path d="M611.9,154a55.67,55.67,0,0,1,11.43,1.2c.18,0,.07.15-.12.12-3.79-.47-6.76-.87-11.31-1.19C611.83,154.17,611.82,154,611.9,154Z" style="fill:#263238"></path><path d="M587.38,149.31l8.15,29.7s-21.87,12.87-26.7,9.47-1.67-20.55,3.8-27.09C574.91,158.66,587.38,149.31,587.38,149.31Z" style="fill:#FFC727"></path><path d="M587.65,150.3l-.32-1,.08,0c-2.07,1.68-4.14,3.35-6.18,5.06s-4.1,3.4-6,5.19a30.59,30.59,0,0,0-2.78,2.8,23.27,23.27,0,0,0-2.2,3.26,25.16,25.16,0,0,0-2.64,7.45,21,21,0,0,1,2.14-7.72,18.79,18.79,0,0,1,2.18-3.41,30.88,30.88,0,0,1,2.79-2.92c2-1.8,4.06-3.49,6.17-5.13s4.28-3.19,6.5-4.67l.06,0,0,.07Z" style="fill:#263238"></path><path d="M582.59,156.68c.49,1.46.87,3,1.28,4.45s.82,3,1.19,4.48c.76,3,1.5,6,2.2,9,.2.82.39,1.64.56,2.47s.27,1.79.47,2.67a.05.05,0,1,1-.1,0c-.2-.73-.51-1.43-.72-2.16s-.43-1.51-.63-2.27c-.39-1.5-.78-3-1.16-4.48-.76-3-1.51-6-2.17-9-.38-1.7-.81-3.41-1.08-5.13A.08.08,0,0,1,582.59,156.68Z" style="fill:#263238"></path><path d="M573.56,188.75c4-.54,7.52-2.76,11.12-4.4l10.75-5.51-.1.22c-.18-.9-.37-1.79-.53-2.69.33.85.62,1.72.92,2.59l0,.13c-1.74,1.13-3.49,2.26-5.29,3.29a66.78,66.78,0,0,1-11,5.22c-1.9.61-3.91,1.38-6,1.15Z" style="fill:#263238"></path></g><g id="freepik--speech-bubble--inject-7"><path d="M698,81.69a19.84,19.84,0,0,1-31.67,15.93l-9.72,2.48,4-9a19.63,19.63,0,0,1-2.35-9.36,19.85,19.85,0,1,1,39.69,0Z" style="fill:#fff"></path><path d="M698,81.69c.06,16.26-18.77,25.84-31.88,16.21l.3.06-9.7,2.56-.88.24.37-.84,4-9.07v.42a20.24,20.24,0,0,1,4.91-25C678.19,55.48,698,64.8,698,81.69Zm0,0c0-12.68-12.35-22.34-24.6-19-12,3-18.29,17.24-12.32,28.1l.11.21-.09.21-4.09,9-.51-.61,9.74-2.4.17,0,.13.1c12.88,9.76,31.37.48,31.46-15.64Z" style="fill:#263238"></path><path d="M677.59,70.79a7.59,7.59,0,1,0,10.74,0A7.6,7.6,0,0,0,677.59,70.79Zm9.2,3.55a1.42,1.42,0,1,1,0-2A1.41,1.41,0,0,1,686.79,74.34Z" style="fill:#FFC727"></path><rect x="677.06" y="77.43" width="2.3" height="6.97" transform="translate(141.43 503.27) rotate(-45)" style="fill:#FFC727"></rect><polygon points="675.72 80.05 679.06 83.39 678.24 84.21 676.85 83.78 677.28 85.17 675.92 86.52 674.09 86.14 674.47 87.98 674.16 88.28 672.78 87.86 673.2 89.24 671.82 88.81 672.25 90.2 671.17 91.27 669.34 90.89 669.72 92.73 668.78 93.67 665.05 94.04 665.43 90.33 675.72 80.05" style="fill:#ebebeb"></polygon><rect x="665.27" y="86.7" width="13.55" height="0.33" transform="translate(135.41 500.65) rotate(-45)" style="fill:#dbdbdb"></rect><path d="M689.57,76.16c.11,5.84-7.29,9-11.43,4.82a6.8,6.8,0,0,1,0-9.64c4.14-4.15,11.55-1,11.43,4.82Zm0,0a6.48,6.48,0,1,0-11.13,4.52,6.5,6.5,0,0,0,11.13-4.52Z" style="opacity:0.1"></path></g></svg>
