<svg width="587" height="220" viewBox="0 0 587 220" fill="none" xmlns="http://www.w3.org/2000/svg">
<path d="M85.6994 122.949C85.1224 123.154 84.5237 123.292 83.915 123.361C84.2972 123.598 84.6661 123.856 85.0201 124.133C86.0536 124.936 87.5145 126.295 88.0134 127.877C88.8188 130.418 88.233 133.703 87.3545 134.145C86.7625 134.412 86.1961 134.732 85.662 135.101C84.5144 135.902 82.8764 137.384 80.6578 140.371C79.8575 141.416 76.6854 146.829 73.7636 152.121C71.2692 156.638 68.9791 161.086 68.2504 162.438C67.6204 163.607 66.9172 164.786 66.1646 165.96C62.0526 172.371 56.4388 178.666 53.0982 182.357C51.6662 183.941 50.3279 185.407 49.1377 186.848C47.0417 189.378 45.3918 191.805 44.4622 194.592C43.4916 197.486 40.9206 208.75 38.2933 213.459C35.3988 218.636 24.1406 220.786 12.215 217.454C0.289456 214.122 0 200.943 0 200.943L3.25212 191.673C3.25212 191.673 7.35048 176.162 9.76659 172.228C12.1827 168.295 12.4006 162.325 12.2542 157.151C12.1078 151.977 9.55035 141.521 7.8715 135.755C6.19266 129.988 6.81073 128.02 7.26194 124.53C7.71315 121.04 8.63431 112.84 8.48277 107.84C8.33123 102.839 8.78755 101.619 10.0152 99.0404C10.2659 98.5239 10.5432 98.0207 10.8461 97.5327C11.299 96.7771 11.4454 95.3846 11.8251 94.363C12.0124 93.8548 12.2968 93.7311 12.6339 93.2483C12.7463 92.7062 12.845 92.0963 12.92 91.3984L15.8775 89.6789C15.8775 90.553 11.7059 99.5046 11.9256 103.006C12.1452 106.508 12.7872 120.338 11.9256 124.453C11.064 128.568 14.5273 133.048 17.4031 135.67C20.279 138.292 23.6673 155.005 23.1241 160.136C22.581 165.267 37.1917 168.744 41.8537 165.954L41.8996 165.926C42.0563 165.828 42.201 165.747 42.3338 165.679C45.9418 162.992 43.4797 146.748 42.7935 138.404C42.041 129.227 32.2369 124.457 32.2369 124.457C32.2369 124.457 35.6916 120.779 40.6924 115.49C41.2662 114.882 41.8639 114.252 42.4768 113.604C55.2997 100.052 75.7966 78.5673 77.3989 77.9202C79.7418 76.9732 86.2528 76.8275 86.6223 82.7992C86.9918 88.7708 78.4937 92.0455 78.4937 92.0455L78.4205 95.6133C78.4205 95.6133 83.9831 94.668 86.9833 98.9642C89.7246 102.888 87.1535 108.937 86.687 109.959C86.6444 110.055 86.6189 110.106 86.6189 110.106C86.8317 110.316 87.0344 110.521 87.2234 110.719C90.6185 114.277 90.3665 116.334 89.3262 119.574C88.7098 121.531 87.0224 122.488 85.6994 122.949Z" fill="#B96B43"/>
<path d="M77.0345 123.762C77.0345 123.762 76.1967 131.313 73.4588 129.783C70.7209 128.253 59.3572 126.82 54.3156 128.131C49.2739 129.443 46.519 140.695 46.2993 147.249C46.2074 150.044 46.1938 156.04 45.7 159.508C45.0104 164.375 43.146 166.858 43.0404 167.007V167.016C42.0188 167.673 41.5233 166.225 41.869 165.957L41.9149 165.93C42.07 165.867 42.216 165.784 42.3491 165.683C45.9571 162.996 43.495 146.751 42.8088 138.408C42.0562 129.231 32.2522 124.46 32.2522 124.46L37.6906 114.804L40.6941 115.487L77.0345 123.762Z" fill="#8C4A2A"/>
<path d="M72.1785 17.6885H28.9201C25.0862 17.6885 21.9783 20.7808 21.9783 24.5953V117.547C21.9783 121.361 25.0862 124.453 28.9201 124.453H72.1785C76.0123 124.453 79.1203 121.361 79.1203 117.547V24.5953C79.1203 20.7808 76.0123 17.6885 72.1785 17.6885Z" fill="#190B2B"/>
<path d="M76.6021 26.4283H24.4983V116.989H76.6021V26.4283Z" fill="white"/>
<path d="M76.6021 26.4283H24.4983V116.989H76.6021V26.4283Z" fill="#0368B0"/>
<path d="M42.167 87.0615H29.2385V99.9247H42.167V87.0615Z" fill="#87CCFF"/>
<path d="M56.5002 87.0615H43.5718V99.9247H56.5002V87.0615Z" fill="#87CCFF"/>
<path d="M70.7483 87.0615H57.8198V99.9247H70.7483V87.0615Z" fill="#87CCFF"/>
<path d="M42.167 101.27H29.2385V114.133H42.167V101.27Z" fill="#87CCFF"/>
<path d="M56.5002 101.27H43.5718V114.133H56.5002V101.27Z" fill="#87CCFF"/>
<path d="M70.7483 101.27H57.8198V114.133H70.7483V101.27Z" fill="#87CCFF"/>
<path d="M39.6826 80.607V79.5262L41.0703 78.1862C44.4076 75.025 45.9161 73.3445 45.9366 71.3827C45.9366 70.063 45.293 68.8416 43.3417 68.8416C42.1498 68.8416 41.1708 69.4413 40.5663 69.9411L40.0044 68.701C41.0426 67.8403 42.353 67.3723 43.7044 67.3796C46.5189 67.3796 47.7057 69.3007 47.7057 71.1625C47.7057 73.563 45.957 75.5028 43.2021 78.1438L42.1549 79.1044V79.1451H48.0275V80.6054L39.6826 80.607Z" fill="white"/>
<path d="M49.9976 80.607V79.5262L51.3852 78.1862C54.7242 75.025 56.2311 73.3445 56.2515 71.3827C56.2515 70.063 55.6079 68.8416 53.6583 68.8416C52.4664 68.8416 51.4857 69.4413 50.883 69.9411L50.3194 68.701C51.3577 67.8406 52.668 67.3726 54.0193 67.3796C56.8355 67.3796 58.0206 69.3007 58.0206 71.1625C58.0206 73.563 56.2719 75.5028 53.517 78.1438L52.4716 79.1044V79.145H58.3424V80.6053L49.9976 80.607Z" fill="white"/>
<path d="M65.3201 69.5022C65.3239 69.8553 65.2569 70.2056 65.123 70.5326C64.989 70.8596 64.7907 71.1567 64.5399 71.4065C64.289 71.6563 63.9905 71.8537 63.6619 71.9872C63.3334 72.1207 62.9813 72.1876 62.6264 72.184C62.2809 72.1948 61.9367 72.1357 61.6148 72.0103C61.2929 71.8849 60.9999 71.6958 60.7537 71.4544C60.5074 71.213 60.3129 70.9243 60.1821 70.606C60.0512 70.2876 59.9867 69.9461 59.9924 69.6022C59.983 69.249 60.0452 68.8976 60.1753 68.5689C60.3053 68.2402 60.5006 67.9409 60.7495 67.6888C60.9983 67.4368 61.2956 67.2373 61.6236 67.102C61.9517 66.9668 62.3037 66.8987 62.6588 66.9018C63.0077 66.8888 63.3557 66.9469 63.6813 67.0723C64.0069 67.1978 64.3034 67.3881 64.5525 67.6315C64.8017 67.875 64.9983 68.1665 65.1302 68.4881C65.2622 68.8098 65.3268 69.1549 65.3201 69.5022ZM61.077 69.6022C61.077 70.5238 61.7581 71.2438 62.6452 71.2438C63.5323 71.2438 64.2338 70.5034 64.2338 69.5226C64.2338 68.7822 63.7928 67.842 62.6452 67.842C61.5997 67.842 61.077 68.7433 61.077 69.6022Z" fill="white"/>
<path d="M45.2482 51.8785C47.527 49.6113 47.527 45.9353 45.2482 43.6681C42.9695 41.4009 39.2749 41.4009 36.9962 43.6681C34.7174 45.9354 34.7174 49.6113 36.9962 51.8785C39.2749 54.1458 42.9695 54.1458 45.2482 51.8785Z" fill="#FCE304"/>
<path d="M41.1199 38.2225L40.1323 41.3956H41.1199H42.1091L41.1199 38.2225Z" fill="#FCE304"/>
<path d="M36.3215 39.5033L37.0588 42.7424L37.9152 42.2511L38.7717 41.7581L36.3215 39.5033Z" fill="#FCE304"/>
<path d="M32.8074 42.9983L35.0753 45.4378L35.5708 44.5857L36.0646 43.7335L32.8074 42.9983Z" fill="#FCE304"/>
<path d="M31.5217 47.7738L34.7109 48.7581V47.7738V46.7896L31.5217 47.7738Z" fill="#FCE304"/>
<path d="M32.8074 52.5495L36.0646 51.8142L35.5708 50.9621L35.0753 50.11L32.8074 52.5495Z" fill="#FCE304"/>
<path d="M36.3215 56.0444L38.7717 53.7879L37.9152 53.2966L37.0588 52.8053L36.3215 56.0444Z" fill="#FCE304"/>
<path d="M41.1216 57.3234L42.1091 54.1504H41.1216H40.1323L41.1216 57.3234Z" fill="#FCE304"/>
<path d="M45.9196 56.0444L45.1824 52.8036L44.3259 53.2966L43.4695 53.7879L45.9196 56.0444Z" fill="#FCE304"/>
<path d="M49.434 52.5495L47.166 50.11L46.6722 50.9621L46.1768 51.8142L49.434 52.5495Z" fill="#FCE304"/>
<path d="M50.7196 47.7738L47.5305 46.7896V47.7738V48.7581L50.7196 47.7738Z" fill="#FCE304"/>
<path d="M49.434 42.9983L46.1768 43.7335L46.6722 44.5857L47.166 45.4378L49.434 42.9983Z" fill="#FCE304"/>
<path d="M45.9196 39.5033L43.4695 41.7581L44.3259 42.2511L45.1824 42.7424L45.9196 39.5033Z" fill="#FCE304"/>
<path d="M62.9755 51.267C62.4913 51.2666 62.0092 51.3304 61.5419 51.4568C61.5572 51.2603 61.5674 51.062 61.5674 50.8604C61.5666 48.9409 60.8394 47.092 59.5306 45.6816C58.2218 44.2713 56.4272 43.403 54.5041 43.2495C52.581 43.0959 50.6702 43.6684 49.1521 44.853C47.634 46.0376 46.6198 47.7475 46.3114 49.6424C45.8752 49.0815 45.249 48.6975 44.5494 48.562C43.8498 48.4266 43.1245 48.5488 42.5088 48.906C41.8931 49.2632 41.4289 49.831 41.2028 50.5035C40.9767 51.176 41.0041 51.9074 41.2799 52.5613C40.6371 52.2651 39.9405 52.1019 39.2323 52.0816C38.5242 52.0614 37.8193 52.1845 37.1604 52.4436C36.5016 52.7026 35.9025 53.0922 35.3996 53.5886C34.8966 54.0851 34.5003 54.678 34.2347 55.3314C33.9691 55.9849 33.8397 56.6852 33.8544 57.3899C33.8691 58.0946 34.0276 58.789 34.3202 59.431C34.6128 60.0729 35.0335 60.649 35.5567 61.1242C36.0799 61.5994 36.6947 61.9639 37.3638 62.1956H62.9755C63.7044 62.2084 64.4286 62.0766 65.1058 61.8079C65.7829 61.5392 66.3995 61.139 66.9195 60.6306C67.4395 60.1222 67.8525 59.5159 68.1345 58.847C68.4164 58.1781 68.5617 57.46 68.5617 56.7347C68.5617 56.0094 68.4164 55.2913 68.1345 54.6224C67.8525 53.9535 67.4395 53.3472 66.9195 52.8388C66.3995 52.3304 65.7829 51.9302 65.1058 51.6615C64.4286 51.3928 63.7044 51.261 62.9755 51.2738V51.267Z" fill="#87CCFF"/>
<path d="M50.7485 33.6486H31.7806C31.5774 33.6486 31.3825 33.5683 31.2388 33.4253C31.0951 33.2823 31.0144 33.0884 31.0144 32.8862C31.0144 32.6841 31.0951 32.4902 31.2388 32.3472C31.3825 32.2042 31.5774 32.1239 31.7806 32.1239H50.7485C50.9517 32.1239 51.1466 32.2042 51.2903 32.3472C51.434 32.4902 51.5147 32.6841 51.5147 32.8862C51.5147 33.0884 51.434 33.2823 51.2903 33.4253C51.1466 33.5683 50.9517 33.6486 50.7485 33.6486Z" fill="white"/>
<path d="M67.954 33.6486H59.0711C58.8679 33.6486 58.673 33.5683 58.5293 33.4253C58.3857 33.2823 58.3049 33.0884 58.3049 32.8862C58.3049 32.6841 58.3857 32.4902 58.5293 32.3472C58.673 32.2042 58.8679 32.1239 59.0711 32.1239H67.954C68.1573 32.1239 68.3521 32.2042 68.4958 32.3472C68.6395 32.4902 68.7202 32.6841 68.7202 32.8862C68.7202 33.0884 68.6395 33.2823 68.4958 33.4253C68.3521 33.5683 68.1573 33.6486 67.954 33.6486Z" fill="white"/>
<path d="M42.3339 165.682C42.201 165.75 42.0563 165.832 41.8997 165.93C41.8823 165.935 41.8665 165.944 41.8537 165.957C37.1917 168.747 22.5776 165.257 23.1242 160.139C23.6707 155.022 20.2705 138.286 17.3964 135.67C14.5222 133.054 11.047 128.568 11.9188 124.453C12.7906 120.338 12.1453 106.496 11.9188 103.006C11.6924 99.5164 15.8708 90.553 15.8708 89.6788L12.9115 91.3983C12.9762 90.8257 13.0273 90.1955 13.0596 89.4959C13.3644 83.2752 12.8894 81.3812 16.0615 81.4134C19.2336 81.4456 19.8669 82.6501 22.6457 86.4431C25.1044 89.7906 24.5323 99.1149 24.0079 103.193C23.9398 103.728 23.8734 104.173 23.8138 104.502C23.6901 105.321 23.6252 106.149 23.6197 106.977C23.5243 110.852 23.9602 116.944 24.5459 118.558C24.7758 119.198 25.6169 120.017 26.6658 120.838C27.4779 121.479 28.4144 122.119 29.2845 122.68C30.868 123.696 32.2318 124.457 32.2318 124.457C32.2318 124.457 42.0342 129.227 42.7885 138.404C43.4798 146.753 45.9418 162.996 42.3339 165.682Z" fill="#B96B43"/>
<path d="M43.0319 167.007V167.016C41.5863 169.437 36.8393 173.88 30.3776 174.778C22.3409 175.896 11.5748 205.936 8.58323 215.955C8.58323 215.955 4.72665 214.235 2.36162 209.453C-0.00340544 204.67 2.80809e-08 200.943 2.80809e-08 200.943L3.25212 191.673C3.25212 191.673 7.35048 176.162 9.76659 172.228C12.1827 168.295 12.4006 162.325 12.2542 157.151C12.1078 151.977 9.55035 141.521 7.8715 135.755C6.19266 129.988 6.81073 128.019 7.26194 124.53C7.71315 121.04 8.63431 112.84 8.48277 107.839C8.33123 102.839 8.78755 101.619 10.0152 99.0404C10.2659 98.5239 10.5432 98.0206 10.8461 97.5326C11.299 96.7771 11.4454 95.3845 11.8251 94.363C12.0124 93.8548 12.2968 93.7311 12.6339 93.2483C12.7463 92.7062 12.845 92.0963 12.92 91.3983C12.92 91.3983 15.474 90.0719 15.0143 90.8071C14.2736 91.9794 14.6737 93.1043 14.3945 93.8378C13.2213 96.9295 11.0436 101.263 11.1747 103.338C11.3944 106.835 13.6674 118.702 11.9273 124.453C10.7082 128.48 13.9416 135.438 16.8157 138.06C19.6898 140.683 23.4579 154.986 23.1241 160.136C22.7104 166.546 33.3402 171.539 41.8537 165.954L41.8996 165.926C42.0563 165.828 42.201 165.747 42.3338 165.679C43.6313 165.029 43.7862 165.738 43.0319 167.007Z" fill="#8C4A2A"/>
<path d="M85.6619 135.096C84.5143 135.897 83.3446 136.761 81.1243 139.748C80.3785 140.425 79.0913 141.013 78.5021 141.291C77.913 141.569 76.4487 141.853 75.4509 141.438C72.965 140.398 70.7515 137.095 70.6289 133.154C70.5404 130.229 73.452 126.429 73.452 126.429C73.452 126.429 80.8484 132.295 85.6619 135.096Z" fill="#8C4A2A"/>
<path d="M64.9573 145.501C60.5303 141.374 50.9034 129.114 50.7569 128.023C50.6105 126.932 51.6355 124.494 54.6357 129.302C56.3571 132.058 61.3681 140.105 66.7894 144.915C71.5314 149.124 68.1856 148.515 64.9573 145.501Z" fill="#8C4A2A"/>
<path d="M66.1645 165.955C62.0542 172.366 56.4388 178.661 53.0998 182.352C51.6661 183.936 50.3278 185.402 49.1377 186.843C47.1659 185.18 45.2317 183.384 43.4865 182.534C34.7517 178.273 36.0815 174.559 36.0815 174.559C36.0815 174.559 46.1801 182.173 50.7433 179.303C55.378 176.399 59.9463 171.737 66.1645 165.955Z" fill="#8C4A2A"/>
<path d="M29.2862 122.676C27.9752 128.667 18.1592 134.464 20.6026 131.518C22.9029 128.734 25.6255 123.679 26.676 120.835C27.4848 121.475 28.4213 122.116 29.2862 122.676Z" fill="#8C4A2A"/>
<path d="M24.0079 103.189C23.9398 103.725 23.8734 104.17 23.8138 104.499C23.6901 105.318 23.6252 106.145 23.6197 106.974C20.9958 105.424 17.4645 101.97 19.3493 102.969C20.9277 103.804 22.5895 103.904 24.0079 103.189Z" fill="#8C4A2A"/>
<path d="M87.3562 134.14C87.3562 134.14 79.4506 139.966 75.6434 139.092C71.8362 138.218 71.1126 134.718 71.7272 132.246C72.1342 130.608 74.1519 129.304 75.3965 127.913C76.0776 127.155 75.6826 125.814 76.2836 125.668C77.9863 125.255 83.9184 123.361 83.9184 123.361L87.3562 134.14Z" fill="#B96B43"/>
<path d="M83.915 123.361C84.2975 123.598 84.6664 123.855 85.02 124.133C82.8763 124.453 78.3387 125.953 75.1887 128.133C75.1887 128.133 74.0769 126.383 75.1887 125.343C77.0123 123.635 81.5346 122.263 82.4507 122.014C83.5574 121.714 83.915 123.361 83.915 123.361Z" fill="#8C4A2A"/>
<path d="M86.3363 111.516L83.9151 123.366C83.9151 123.366 83.8487 123.278 79.5529 124.73C74.1043 126.947 72.3675 122.565 72.1479 121.636C71.9282 120.708 70.5933 118.778 74.1792 114.919C75.068 113.96 76.282 113.183 77.605 112.547C81.6131 110.64 86.6292 110.104 86.6292 110.104L86.3363 111.516Z" fill="#B96B43"/>
<path d="M87.2286 110.719C86.945 110.998 86.6472 111.262 86.3364 111.511C85.2895 112.343 84.1292 113.023 82.8901 113.53C80.9678 114.323 78.9535 113.433 77.6118 112.549C81.6199 110.642 86.636 110.106 86.636 110.106C86.837 110.316 87.0396 110.521 87.2286 110.719Z" fill="#8C4A2A"/>
<path d="M79.1203 96.9668L78.4256 99.0183C78.4256 99.0183 75.6076 103.498 76.0418 107.54C76.476 111.582 79.1152 113.274 82.3537 112.674C85.5922 112.075 86.6189 110.106 86.6189 110.106L79.1203 96.9668Z" fill="#B96B43"/>
<path d="M12.6152 93.2975C12.6152 93.2975 16.1347 92.4826 16.6472 90.443C17.1597 88.4033 18.0383 85.7097 16.6472 84.4713C15.2561 83.2329 14.3707 82.6078 13.642 82.6315C12.9132 82.6552 12.9421 83.9156 12.9132 84.927C12.8843 85.9384 12.6152 93.2975 12.6152 93.2975Z" fill="#FFE4DE"/>
<path d="M76.0266 134.074C74.3716 132.638 73.0826 132.529 73.5492 131.928C74.0157 131.326 77.1248 128.733 79.1204 129.415C81.1159 130.098 82.3316 131.901 81.7834 133.512C81.2351 135.123 79.7521 136.98 79.3996 137.007C79.0471 137.034 77.6799 135.511 76.0266 134.074Z" fill="#FFE4DE"/>
<path d="M75.5343 116.879C75.0934 116.661 75.6433 115.678 77.6933 115.168C79.7434 114.658 82.5852 114.321 83.6953 116.661C84.8055 119 82.2089 121.868 80.971 122.42C79.7332 122.973 79.5629 122.312 78.8086 120.747C78.0543 119.181 76.8522 117.535 75.5343 116.879Z" fill="#FFE4DE"/>
<path d="M81.0239 102.351C80.7957 102.191 81.3899 100.421 82.781 100.318C84.1721 100.214 86.7704 101.619 87.0258 104.214C87.2812 106.809 87.4651 108.517 87.0258 108.517C86.5865 108.517 86.2204 106.332 84.6421 104.875C83.0637 103.418 81.9365 102.989 81.0239 102.351Z" fill="#FFE4DE"/>
<path d="M102.331 71.1472C99.842 67.7404 96.5184 67.1492 96.5184 67.1492C96.5184 67.1492 93.3531 65.9853 89.4727 67.6692C85.5923 69.3532 84.2659 72.9717 84.2659 72.9717C85.4724 72.5238 86.8059 72.5553 87.9896 73.0598C89.9256 73.9154 90.4483 75.8263 90.4483 75.8263C92.626 74.0763 94.3883 74.9233 94.3883 74.9233C94.3883 74.9233 96.3396 75.0758 97.3323 77.6847C97.3323 77.6847 98.7574 76.3006 100.862 76.5378C102.14 76.6991 103.305 77.344 104.117 78.3386C104.117 78.3386 104.814 74.554 102.331 71.1472Z" fill="#87CCFF"/>
<path d="M88.9209 88.0796C87.4617 87.6866 87.1706 85.8773 87.4174 84.9743C87.4333 84.9163 87.4605 84.8619 87.4975 84.8143C87.5345 84.7667 87.5806 84.7268 87.6331 84.6969C87.6856 84.667 87.7435 84.6477 87.8035 84.6401C87.8635 84.6324 87.9244 84.6366 87.9827 84.6524C88.0411 84.6682 88.0958 84.6953 88.1436 84.7321C88.1914 84.7689 88.2315 84.8148 88.2616 84.867C88.2916 84.9192 88.311 84.9768 88.3187 85.0365C88.3263 85.0962 88.3221 85.1568 88.3062 85.2149C88.199 85.6079 88.2535 86.9496 89.1576 87.1953C89.9834 87.4189 90.6525 86.8378 90.9897 85.5994L96.0637 67.0288C96.0972 66.913 96.1752 66.815 96.2808 66.7559C96.3864 66.6968 96.511 66.6814 96.6279 66.7129C96.7448 66.7445 96.8446 66.8206 96.9056 66.9247C96.9667 67.0288 96.9841 67.1526 96.9542 67.2694L91.8802 85.84C91.3132 87.9288 89.98 88.3659 88.9209 88.0796Z" fill="#87CCFF"/>
<path d="M4.20392 53.8624C4.20392 53.8624 2.82985 57.813 3.10569 58.9989C3.38152 60.1848 4.69088 60.6032 5.70228 60.3728C6.71367 60.1424 7.71655 59.209 7.44072 58.0113C7.16488 56.8135 4.20392 53.8624 4.20392 53.8624Z" fill="#87CCFF"/>
<path d="M12.3139 49.2375C12.3139 49.2375 10.5959 54.1707 10.9398 55.6751C11.2837 57.1794 12.9234 57.6775 14.1885 57.3895C15.4536 57.1015 16.7068 55.9326 16.3629 54.4333C16.0189 52.934 12.3139 49.2375 12.3139 49.2375Z" fill="#87CCFF"/>
<path d="M10.2296 59.3496C10.2296 59.3496 8.05191 65.6059 8.4895 67.4999C8.92709 69.3939 11.0027 70.041 12.6066 69.6802C14.2105 69.3193 15.7974 67.8353 15.3615 65.9447C14.9256 64.0541 10.2296 59.3496 10.2296 59.3496Z" fill="#87CCFF"/>
<path d="M93.307 2.9652C93.0092 3.09731 92.7303 3.26822 92.4778 3.47343C92.4335 3.34807 92.3858 3.22271 92.3313 3.10073C91.8158 1.90821 90.8647 0.954711 89.6701 0.432708C88.4755 -0.0892959 87.1263 -0.140922 85.8949 0.288251C84.6636 0.717424 83.6417 1.59543 83.0356 2.74503C82.4295 3.89463 82.2844 5.2302 82.6295 6.48213C82.2091 6.25789 81.7214 6.19282 81.2565 6.29899C80.7917 6.40516 80.3813 6.67537 80.1013 7.05955C79.8214 7.44374 79.6909 7.91586 79.7341 8.38844C79.7772 8.86102 79.991 9.30203 80.3359 9.62975C79.8623 9.6244 79.3925 9.7145 78.9548 9.89463C78.5171 10.0748 78.1206 10.3412 77.7891 10.6779C77.4577 11.0145 77.1982 11.4145 77.0262 11.8536C76.8543 12.2927 76.7735 12.7619 76.7887 13.233C76.8039 13.704 76.9147 14.1671 77.1146 14.5943C77.3145 15.0216 77.5992 15.4042 77.9516 15.719C78.3041 16.0339 78.7169 16.2745 79.1653 16.4263C79.6137 16.5782 80.0884 16.6382 80.5607 16.6026L82.6925 15.6624L96.2833 9.67549C96.7261 9.48105 97.1261 9.20173 97.4605 8.85348C97.7948 8.50523 98.0569 8.09487 98.2319 7.64583C98.4068 7.19678 98.4912 6.71785 98.4801 6.23638C98.469 5.75491 98.3627 5.28032 98.1673 4.83972C97.9719 4.39911 97.6911 4.00112 97.3411 3.66846C96.9911 3.33581 96.5787 3.075 96.1273 2.90094C95.676 2.72687 95.1946 2.64296 94.7107 2.65399C94.2268 2.66501 93.7498 2.77077 93.307 2.9652Z" fill="#87CCFF"/>
<path d="M87.9027 8.45239L86.6001 16.7094L89.5287 15.4185L90.1127 21.0649L91.4834 13.0637L88.376 14.4325L87.9027 8.45239Z" fill="#FCE304"/>
<path d="M92.534 5.82483L91.7644 10.7089L93.496 9.94655L93.8417 13.2873L94.6522 8.55401L92.815 9.36378L92.534 5.82483Z" fill="#FCE304"/>
<path d="M232.076 81.3287H231.991C231.901 81.318 231.815 81.2899 231.737 81.2459C231.659 81.2019 231.59 81.1429 231.535 81.0723C231.479 81.0018 231.439 80.9211 231.415 80.8348C231.391 80.7485 231.385 80.6584 231.396 80.5697C231.465 80.031 231.536 79.4889 231.609 78.9468C231.633 78.7671 231.728 78.6043 231.873 78.4942C232.018 78.3841 232.201 78.3358 232.381 78.3598C232.562 78.3838 232.726 78.4783 232.836 78.6224C232.947 78.7664 232.996 78.9483 232.971 79.1281C232.896 79.669 232.826 80.2061 232.76 80.7391C232.739 80.9038 232.657 81.0548 232.531 81.1634C232.405 81.2721 232.243 81.3309 232.076 81.3287Z" fill="#F65216"/>
<path d="M321.063 107.28C319.927 107.269 318.793 107.201 317.695 107.082C317.606 107.073 317.519 107.045 317.44 107.002C317.361 106.959 317.292 106.901 317.235 106.832C317.179 106.762 317.137 106.682 317.112 106.596C317.086 106.51 317.078 106.42 317.088 106.331C317.098 106.242 317.125 106.156 317.168 106.077C317.211 105.999 317.27 105.929 317.34 105.873C317.41 105.817 317.491 105.775 317.577 105.75C317.663 105.725 317.754 105.717 317.843 105.727C318.897 105.842 319.985 105.907 321.078 105.917C321.259 105.917 321.432 105.988 321.56 106.115C321.688 106.242 321.759 106.415 321.759 106.594C321.759 106.774 321.688 106.946 321.56 107.073C321.432 107.201 321.259 107.272 321.078 107.272L321.063 107.28ZM324.366 107.162C324.186 107.169 324.009 107.105 323.877 106.983C323.744 106.861 323.665 106.691 323.658 106.511C323.651 106.332 323.715 106.156 323.838 106.024C323.961 105.892 324.131 105.814 324.312 105.807C325.383 105.72 326.467 105.583 327.533 105.4C327.622 105.385 327.712 105.387 327.8 105.407C327.887 105.427 327.97 105.463 328.043 105.515C328.117 105.566 328.179 105.632 328.227 105.707C328.275 105.783 328.307 105.867 328.322 105.955C328.338 106.043 328.335 106.133 328.315 106.22C328.296 106.307 328.259 106.389 328.207 106.462C328.155 106.535 328.089 106.597 328.014 106.645C327.938 106.693 327.853 106.725 327.765 106.74C326.66 106.93 325.536 107.079 324.424 107.162H324.366ZM314.501 106.557C314.452 106.557 314.403 106.552 314.354 106.542C313.251 106.302 312.162 105.997 311.094 105.63C310.923 105.571 310.782 105.447 310.703 105.285C310.624 105.123 310.613 104.936 310.672 104.766C310.732 104.595 310.857 104.455 311.02 104.377C311.183 104.298 311.37 104.287 311.542 104.346C312.559 104.696 313.596 104.986 314.647 105.214C314.816 105.245 314.966 105.339 315.069 105.476C315.171 105.613 315.218 105.783 315.199 105.953C315.181 106.123 315.099 106.279 314.969 106.391C314.84 106.503 314.672 106.562 314.501 106.557ZM330.881 106.049C330.711 106.054 330.546 105.996 330.418 105.886C330.289 105.777 330.206 105.624 330.185 105.457C330.163 105.289 330.205 105.12 330.303 104.983C330.4 104.845 330.545 104.748 330.71 104.711C331.759 104.434 332.801 104.107 333.802 103.74C333.887 103.709 333.976 103.695 334.066 103.699C334.156 103.702 334.244 103.723 334.325 103.761C334.407 103.798 334.48 103.852 334.541 103.917C334.602 103.983 334.649 104.06 334.68 104.144C334.711 104.228 334.725 104.317 334.722 104.406C334.718 104.495 334.697 104.583 334.659 104.664C334.621 104.745 334.568 104.818 334.502 104.879C334.436 104.939 334.358 104.986 334.274 105.017C333.232 105.398 332.153 105.737 331.061 106.025C331.002 106.037 330.941 106.041 330.881 106.037V106.049ZM308.272 104.399C308.166 104.399 308.061 104.374 307.966 104.326C306.951 103.82 305.973 103.243 305.041 102.598C304.892 102.495 304.79 102.337 304.758 102.16C304.727 101.982 304.767 101.799 304.87 101.651C304.974 101.503 305.133 101.402 305.311 101.37C305.49 101.338 305.673 101.378 305.822 101.482C306.701 102.089 307.622 102.634 308.579 103.111C308.718 103.178 308.831 103.291 308.897 103.43C308.964 103.57 308.981 103.727 308.945 103.877C308.909 104.027 308.823 104.161 308.701 104.256C308.579 104.351 308.427 104.401 308.272 104.399ZM337.077 103.772C336.92 103.775 336.768 103.724 336.645 103.628C336.522 103.532 336.436 103.397 336.401 103.246C336.366 103.094 336.384 102.936 336.453 102.796C336.522 102.656 336.637 102.545 336.779 102.479C337.747 102.012 338.689 101.49 339.598 100.917C339.674 100.869 339.758 100.837 339.847 100.821C339.935 100.806 340.026 100.808 340.113 100.827C340.201 100.847 340.284 100.883 340.357 100.934C340.431 100.985 340.493 101.05 340.542 101.126C340.59 101.201 340.623 101.285 340.638 101.373C340.654 101.461 340.652 101.551 340.632 101.638C340.613 101.725 340.576 101.808 340.525 101.881C340.473 101.954 340.408 102.016 340.332 102.064C339.379 102.665 338.392 103.212 337.376 103.703C337.282 103.744 337.18 103.764 337.077 103.76V103.772ZM302.873 100.629C302.698 100.63 302.529 100.563 302.402 100.443C301.578 99.6611 300.817 98.8172 300.123 97.9189C300.069 97.848 300.029 97.7672 300.005 97.6809C299.982 97.5946 299.976 97.5046 299.988 97.416C300 97.3275 300.029 97.2421 300.074 97.1647C300.118 97.0873 300.178 97.0195 300.249 96.9651C300.321 96.9107 300.402 96.8708 300.489 96.8477C300.575 96.8246 300.666 96.8186 300.755 96.8303C300.844 96.8419 300.93 96.8709 301.007 96.9155C301.085 96.9602 301.153 97.0196 301.208 97.0905C301.858 97.9348 302.572 98.7278 303.345 99.4622C303.444 99.5556 303.513 99.6766 303.543 99.8095C303.572 99.9424 303.561 100.081 303.51 100.207C303.459 100.334 303.371 100.442 303.257 100.518C303.144 100.594 303.01 100.634 302.873 100.633V100.629ZM342.629 100.213C342.489 100.214 342.351 100.172 342.236 100.093C342.12 100.013 342.032 99.9001 341.984 99.769C341.935 99.6378 341.929 99.495 341.965 99.36C342.001 99.2251 342.079 99.1045 342.186 99.015C342.999 98.3338 343.752 97.5852 344.437 96.7771C344.495 96.7086 344.565 96.652 344.645 96.6105C344.724 96.5691 344.811 96.5437 344.9 96.5356C344.99 96.5276 345.08 96.5372 345.165 96.5638C345.251 96.5904 345.331 96.6335 345.399 96.6907C345.468 96.7479 345.525 96.818 345.567 96.897C345.608 96.9761 345.634 97.0625 345.642 97.1514C345.65 97.2402 345.641 97.3298 345.614 97.415C345.587 97.5002 345.544 97.5793 345.486 97.6478C344.752 98.5174 343.944 99.3228 343.072 100.055C342.948 100.158 342.791 100.214 342.629 100.213ZM298.887 95.4218C298.762 95.4222 298.638 95.3881 298.531 95.3232C298.424 95.2584 298.337 95.1653 298.279 95.0542C297.762 94.0468 297.32 93.0033 296.955 91.932C296.896 91.7615 296.907 91.5747 296.987 91.4126C297.066 91.2506 297.207 91.1266 297.379 91.068C297.55 91.0094 297.738 91.0209 297.901 91.1C298.063 91.1791 298.188 91.3193 298.247 91.4898C298.59 92.4984 299.007 93.4808 299.493 94.4291C299.535 94.5083 299.56 94.595 299.568 94.684C299.576 94.7731 299.566 94.8628 299.539 94.948C299.511 95.0332 299.468 95.1122 299.41 95.1804C299.351 95.2486 299.28 95.3048 299.201 95.3456C299.104 95.3952 298.996 95.4213 298.887 95.4218ZM296.674 89.2282C296.521 89.2287 296.372 89.1778 296.251 89.0837C296.131 88.9897 296.046 88.8579 296.01 88.7098C295.778 87.7679 295.558 86.7667 295.3 85.4623C295.265 85.2855 295.302 85.1021 295.403 84.9524C295.504 84.8028 295.66 84.6992 295.838 84.6643C296.015 84.6295 296.2 84.6664 296.35 84.7668C296.501 84.8671 296.605 85.0229 296.64 85.1997C296.895 86.4804 297.11 87.463 297.338 88.3862C297.359 88.4729 297.364 88.563 297.35 88.6512C297.337 88.7395 297.306 88.8242 297.259 88.9006C297.213 88.977 297.151 89.0434 297.079 89.0961C297.007 89.1489 296.924 89.1869 296.837 89.2079C296.785 89.2197 296.732 89.2254 296.679 89.2248L296.674 89.2282ZM295.341 82.7754C295.182 82.7755 295.029 82.7208 294.907 82.6207C294.785 82.5205 294.701 82.3811 294.671 82.2265C294.493 81.3202 294.249 80.1411 293.965 79.0535C293.942 78.9672 293.937 78.8773 293.95 78.7891C293.962 78.7008 293.992 78.6159 294.038 78.5391C294.083 78.4623 294.144 78.3953 294.215 78.3417C294.287 78.2881 294.368 78.249 294.455 78.2268C294.542 78.2046 294.632 78.1995 294.721 78.212C294.81 78.2245 294.895 78.2542 294.972 78.2995C295.049 78.3448 295.117 78.4048 295.171 78.4761C295.224 78.5473 295.264 78.6284 295.286 78.7147C295.581 79.8379 295.829 81.0441 296.013 81.9707C296.031 82.0584 296.031 82.1487 296.013 82.2364C295.995 82.324 295.96 82.4073 295.91 82.4815C295.86 82.5557 295.796 82.6192 295.721 82.6685C295.646 82.7178 295.562 82.7518 295.473 82.7687C295.431 82.7737 295.388 82.7748 295.346 82.772L295.341 82.7754ZM232.757 76.4565C232.721 76.456 232.685 76.4532 232.649 76.448C232.561 76.4342 232.476 76.4031 232.399 76.3565C232.323 76.3099 232.256 76.2487 232.204 76.1765C232.151 76.1042 232.113 76.0223 232.092 75.9355C232.071 75.8486 232.068 75.7585 232.082 75.6704C232.253 74.571 232.443 73.4681 232.638 72.4093C232.654 72.3214 232.687 72.2375 232.735 72.1624C232.784 72.0873 232.847 72.0225 232.921 71.9716C232.994 71.9207 233.077 71.8848 233.165 71.8658C233.253 71.8469 233.343 71.8453 233.432 71.8613C233.52 71.8772 233.604 71.9102 233.68 71.9585C233.755 72.0069 233.821 72.0695 233.872 72.1429C233.923 72.2163 233.959 72.299 233.978 72.3863C233.997 72.4735 233.999 72.5637 233.983 72.6516C233.79 73.707 233.605 74.7929 233.431 75.8822C233.406 76.0423 233.324 76.1883 233.201 76.2936C233.077 76.399 232.92 76.4567 232.757 76.4565ZM293.542 76.4565C293.414 76.4568 293.287 76.4206 293.178 76.3522C293.069 76.2839 292.982 76.1861 292.926 76.0702C292.415 75.0216 291.838 74.2677 291.14 73.7663C291.067 73.714 291.006 73.6479 290.958 73.5719C290.911 73.4959 290.88 73.4114 290.865 73.3232C290.851 73.2351 290.854 73.145 290.875 73.0581C290.896 72.9711 290.933 72.8891 290.986 72.8167C291.038 72.7443 291.105 72.6829 291.181 72.636C291.258 72.5891 291.343 72.5576 291.431 72.5434C291.52 72.5292 291.61 72.5324 291.698 72.553C291.785 72.5736 291.867 72.6111 291.94 72.6634C292.829 73.3004 293.554 74.2237 294.154 75.4841C294.193 75.5646 294.215 75.6519 294.22 75.7411C294.225 75.8303 294.212 75.9196 294.182 76.0038C294.152 76.0881 294.106 76.1656 294.046 76.2319C293.986 76.2983 293.913 76.3521 293.832 76.3904C293.741 76.4304 293.642 76.4501 293.542 76.448V76.4565ZM273.236 75.0605C272.804 75.0605 272.385 75.0436 272.015 75.0148C271.926 75.0079 271.839 74.9836 271.759 74.9431C271.679 74.9027 271.608 74.847 271.549 74.7792C271.491 74.7114 271.447 74.6328 271.419 74.548C271.391 74.4631 271.38 74.3736 271.387 74.2847C271.394 74.1957 271.419 74.1089 271.459 74.0293C271.5 73.9498 271.556 73.8789 271.624 73.8209C271.692 73.7628 271.771 73.7187 271.856 73.691C271.942 73.6633 272.032 73.6526 272.121 73.6595C273.184 73.7259 274.252 73.7061 275.312 73.6002C275.401 73.5925 275.491 73.6023 275.577 73.6291C275.663 73.656 275.742 73.6994 275.811 73.7568C275.88 73.8142 275.936 73.8845 275.978 73.9638C276.019 74.043 276.045 74.1296 276.053 74.2186C276.06 74.3076 276.05 74.3972 276.024 74.4824C275.997 74.5676 275.953 74.6467 275.895 74.7151C275.837 74.7835 275.767 74.84 275.687 74.8812C275.608 74.9225 275.52 74.9477 275.431 74.9555C274.627 75.0216 273.911 75.0572 273.24 75.0572L273.236 75.0605ZM278.653 74.5523C278.563 74.5591 278.473 74.5483 278.388 74.5205C278.303 74.4927 278.224 74.4485 278.156 74.3904C278.088 74.3323 278.032 74.2614 277.991 74.1817C277.951 74.1021 277.926 74.0153 277.92 73.9264C277.913 73.8374 277.924 73.7479 277.951 73.6631C277.979 73.5783 278.024 73.4998 278.082 73.4321C278.141 73.3643 278.212 73.3087 278.292 73.2684C278.372 73.2281 278.459 73.2038 278.549 73.197C279.667 73.0276 280.817 72.8243 281.794 72.6516C281.972 72.6199 282.156 72.66 282.305 72.7631C282.453 72.8662 282.555 73.0238 282.587 73.2013C282.618 73.3788 282.578 73.5615 282.474 73.7094C282.371 73.8573 282.212 73.9582 282.034 73.9899C281.05 74.1593 279.89 74.3677 278.756 74.5405C278.723 74.5445 278.689 74.5462 278.656 74.5455L278.653 74.5523ZM268.925 74.1152C268.79 74.1152 268.658 74.0751 268.545 74C267.452 73.2699 266.843 72.1586 266.734 70.7C266.727 70.611 266.738 70.5216 266.766 70.4368C266.795 70.3521 266.839 70.2737 266.898 70.2062C266.956 70.1386 267.028 70.0832 267.108 70.0431C267.188 70.0029 267.275 69.9789 267.365 69.9723C267.454 69.9658 267.544 69.9768 267.629 70.0048C267.714 70.0328 267.793 70.0772 267.861 70.1355C267.929 70.1938 267.985 70.2648 268.025 70.3445C268.065 70.4242 268.089 70.511 268.096 70.6C268.174 71.6351 268.569 72.3788 269.308 72.8718C269.431 72.9524 269.525 73.0704 269.574 73.2082C269.624 73.346 269.628 73.4962 269.585 73.6363C269.542 73.7763 269.454 73.8987 269.335 73.985C269.216 74.0714 269.072 74.1171 268.925 74.1152ZM285.17 73.4258C284.99 73.4412 284.81 73.3847 284.672 73.2686C284.533 73.1525 284.446 72.9863 284.431 72.8066C284.415 72.6268 284.472 72.4483 284.589 72.3103C284.705 72.1722 284.872 72.086 285.053 72.0705C285.71 71.9575 286.366 71.848 287.02 71.7418C287.49 71.6662 287.966 71.6254 288.443 71.6199C288.624 71.6199 288.797 71.6912 288.925 71.8183C289.052 71.9454 289.124 72.1178 289.124 72.2975C289.124 72.4772 289.052 72.6496 288.925 72.7766C288.797 72.9037 288.624 72.9751 288.443 72.9751C288.036 72.9794 287.63 73.0145 287.229 73.0802C286.584 73.1818 285.933 73.2919 285.283 73.4054C285.247 73.4128 285.21 73.4173 285.174 73.419L285.17 73.4258ZM233.949 69.9783C233.902 69.9782 233.855 69.9731 233.809 69.963C233.721 69.9453 233.637 69.9104 233.563 69.8603C233.489 69.8103 233.425 69.7461 233.375 69.6715C233.326 69.5969 233.292 69.5132 233.275 69.4255C233.258 69.3377 233.259 69.2475 233.278 69.16C233.506 68.069 233.748 66.9814 233.998 65.926C234.04 65.7506 234.149 65.5987 234.303 65.5039C234.458 65.4091 234.643 65.379 234.82 65.4203C234.996 65.4617 235.148 65.571 235.244 65.7243C235.339 65.8776 235.369 66.0623 235.328 66.2377C235.081 67.2813 234.841 68.357 234.616 69.4362C234.585 69.5892 234.501 69.7268 234.379 69.8256C234.258 69.9244 234.106 69.9783 233.949 69.9783ZM267.832 68.0707C267.787 68.0704 267.743 68.0659 267.699 68.0572C267.611 68.0402 267.527 68.006 267.452 67.9566C267.378 67.9072 267.313 67.8437 267.263 67.7695C267.213 67.6954 267.179 67.6121 267.161 67.5245C267.144 67.437 267.144 67.3468 267.161 67.2593C267.364 66.2428 267.532 65.1671 267.672 64.0608C267.682 63.9718 267.71 63.8858 267.754 63.8076C267.798 63.7294 267.857 63.6605 267.928 63.605C267.999 63.5495 268.08 63.5083 268.166 63.4839C268.253 63.4595 268.344 63.4524 268.433 63.4628C268.522 63.4733 268.609 63.5012 268.688 63.5449C268.766 63.5886 268.835 63.6473 268.891 63.7176C268.947 63.7879 268.988 63.8685 269.013 63.9547C269.037 64.0409 269.045 64.1311 269.034 64.2201C268.9 65.3619 268.724 66.4732 268.523 67.5235C268.492 67.6816 268.406 67.8235 268.279 67.9238C268.152 68.024 267.994 68.0761 267.832 68.0707ZM235.481 63.5695C235.423 63.5692 235.366 63.5612 235.311 63.5458C235.224 63.5228 235.143 63.483 235.072 63.4288C235.001 63.3745 234.941 63.3068 234.896 63.2295C234.851 63.1522 234.822 63.0669 234.811 62.9784C234.799 62.89 234.805 62.8001 234.829 62.714C235.123 61.6247 235.433 60.5524 235.752 59.5257C235.805 59.3534 235.925 59.2093 236.085 59.1249C236.245 59.0406 236.432 59.0229 236.606 59.076C236.779 59.129 236.924 59.2483 237.009 59.4076C237.093 59.5669 237.111 59.7532 237.058 59.9256C236.744 60.942 236.44 61.994 236.148 63.0664C236.11 63.2146 236.022 63.3453 235.898 63.4373C235.775 63.5293 235.625 63.5771 235.471 63.5729L235.481 63.5695ZM268.614 61.5366H268.581C268.492 61.5327 268.404 61.5112 268.322 61.4734C268.241 61.4356 268.168 61.3821 268.108 61.3162C268.047 61.2502 268.001 61.173 267.97 61.0891C267.94 61.0051 267.926 60.916 267.931 60.8268C267.961 60.1492 267.978 59.4597 267.978 58.7939C267.978 58.3924 267.978 57.9892 267.96 57.586C267.954 57.4063 268.021 57.2318 268.145 57.1009C268.269 56.97 268.44 56.8934 268.62 56.8881C268.801 56.8827 268.976 56.9489 269.108 57.0721C269.239 57.1954 269.316 57.3656 269.322 57.5454C269.333 57.9644 269.339 58.38 269.339 58.7922C269.339 59.4783 269.324 60.1831 269.291 60.8878C269.285 61.0643 269.209 61.2312 269.08 61.353C268.952 61.4748 268.781 61.5419 268.603 61.54L268.614 61.5366ZM237.434 57.2743C237.356 57.2747 237.279 57.2615 237.206 57.2353C237.121 57.2059 237.043 57.1601 236.976 57.1004C236.909 57.0408 236.855 56.9686 236.816 56.888C236.777 56.8074 236.755 56.72 236.75 56.6307C236.745 56.5414 236.759 56.4522 236.789 56.368C237.172 55.2922 237.574 54.247 237.981 53.261C238.05 53.0943 238.182 52.9618 238.35 52.8925C238.517 52.8232 238.705 52.823 238.873 52.8917C239.04 52.9604 239.174 53.0926 239.243 53.2591C239.313 53.4255 239.313 53.6127 239.244 53.7794C238.842 54.745 238.449 55.7683 238.074 56.8288C238.027 56.962 237.938 57.0771 237.822 57.1579C237.705 57.2387 237.566 57.2812 237.424 57.2794L237.434 57.2743ZM268.406 54.9619C268.238 54.9629 268.075 54.9021 267.949 54.7911C267.824 54.68 267.744 54.5267 267.725 54.3605C267.602 53.2946 267.421 52.2359 267.185 51.1891C267.165 51.1021 267.163 51.0121 267.178 50.9242C267.193 50.8362 267.225 50.7521 267.273 50.6766C267.321 50.6011 267.383 50.5357 267.456 50.4841C267.529 50.4325 267.612 50.3958 267.699 50.376C267.787 50.3562 267.877 50.3537 267.965 50.3687C268.054 50.3837 268.138 50.4159 268.214 50.4634C268.29 50.5109 268.356 50.5728 268.408 50.6456C268.46 50.7184 268.497 50.8006 268.516 50.8876C268.765 51.9818 268.953 53.0885 269.082 54.2029C269.092 54.2916 269.085 54.3815 269.061 54.4675C269.037 54.5535 268.995 54.6338 268.94 54.7039C268.884 54.7739 268.815 54.8324 268.736 54.8758C268.658 54.9192 268.572 54.9467 268.482 54.9568C268.454 54.9622 268.425 54.9656 268.396 54.967L268.406 54.9619ZM239.971 51.1993C239.855 51.2001 239.74 51.1712 239.638 51.1155C239.536 51.0597 239.45 50.9788 239.389 50.8806C239.327 50.7825 239.292 50.6702 239.286 50.5546C239.28 50.4389 239.305 50.3238 239.356 50.2201C239.867 49.1766 240.409 48.1872 240.955 47.2741C241.048 47.1193 241.199 47.0076 241.375 46.9636C241.551 46.9196 241.737 46.9469 241.892 47.0395C242.048 47.132 242.16 47.2823 242.205 47.4572C242.249 47.6321 242.221 47.8173 242.128 47.9721C241.6 48.8496 241.081 49.8068 240.584 50.8181C240.528 50.9353 240.44 51.0342 240.329 51.1029C240.219 51.1717 240.091 51.2075 239.961 51.2061L239.971 51.1993ZM266.906 48.5684C266.767 48.5686 266.632 48.5267 266.518 48.4483C266.403 48.3699 266.316 48.2587 266.267 48.1296C265.894 47.1423 265.429 46.1918 264.878 45.2903C264.831 45.2142 264.799 45.1297 264.785 45.0415C264.771 44.9533 264.775 44.8633 264.796 44.7764C264.816 44.6896 264.854 44.6077 264.907 44.5354C264.96 44.4631 265.026 44.4019 265.103 44.3552C265.179 44.3085 265.264 44.2772 265.353 44.2631C265.441 44.2491 265.532 44.2526 265.619 44.2733C265.706 44.2941 265.789 44.3317 265.861 44.3842C265.934 44.4366 265.996 44.5027 266.042 44.5788C266.637 45.5526 267.14 46.5791 267.544 47.6451C267.584 47.7481 267.599 47.8593 267.586 47.9691C267.573 48.0789 267.534 48.1838 267.471 48.2749C267.408 48.3659 267.323 48.4402 267.225 48.4914C267.126 48.5426 267.017 48.569 266.906 48.5684ZM243.383 45.5715C243.256 45.5725 243.13 45.5378 243.021 45.4713C242.913 45.4048 242.825 45.3092 242.768 45.1955C242.711 45.0817 242.688 44.9544 242.7 44.828C242.713 44.7016 242.76 44.5812 242.838 44.4805C243.523 43.5766 244.277 42.727 245.094 41.9394C245.225 41.8145 245.4 41.7463 245.581 41.7498C245.762 41.7533 245.934 41.8282 246.06 41.958C246.185 42.0879 246.254 42.262 246.25 42.4422C246.247 42.6223 246.172 42.7937 246.041 42.9186C245.276 43.6583 244.57 44.4558 243.928 45.3039C243.864 45.3897 243.78 45.4592 243.683 45.5066C243.587 45.554 243.481 45.578 243.373 45.5766L243.383 45.5715ZM263.424 43.0304C263.244 43.0305 263.071 42.9599 262.944 42.8339C262.204 42.1061 261.368 41.483 260.458 40.9822C260.3 40.8951 260.183 40.749 260.133 40.5762C260.083 40.4034 260.104 40.2179 260.192 40.0607C260.28 39.9034 260.426 39.7872 260.6 39.7377C260.774 39.6881 260.96 39.7092 261.118 39.7964C262.138 40.3574 263.076 41.0557 263.904 41.8716C264.002 41.9659 264.069 42.0872 264.096 42.2197C264.124 42.3522 264.111 42.49 264.06 42.6152C264.008 42.7404 263.92 42.8474 263.806 42.9223C263.693 42.9972 263.56 43.0366 263.424 43.0355V43.0304ZM248.168 41.0856C248.018 41.0874 247.871 41.04 247.751 40.9506C247.631 40.8612 247.544 40.7349 247.504 40.5913C247.463 40.4476 247.471 40.2947 247.527 40.1562C247.583 40.0176 247.683 39.9013 247.812 39.8252C248.806 39.2181 249.882 38.756 251.008 38.453C251.095 38.4301 251.185 38.4244 251.274 38.4362C251.363 38.4481 251.449 38.4773 251.526 38.5221C251.604 38.5669 251.672 38.6265 251.726 38.6975C251.781 38.7685 251.821 38.8495 251.844 38.9358C251.867 39.0221 251.873 39.1121 251.861 39.2006C251.849 39.2891 251.819 39.3744 251.774 39.4517C251.729 39.5289 251.669 39.5966 251.598 39.6508C251.527 39.705 251.445 39.7447 251.359 39.7676C250.36 40.0373 249.404 40.4475 248.522 40.9856C248.413 41.0561 248.287 41.0943 248.157 41.0958L248.168 41.0856ZM257.72 39.8828C257.662 39.8832 257.605 39.8763 257.549 39.8625C256.525 39.6161 255.477 39.4765 254.423 39.4457C254.243 39.4426 254.071 39.3682 253.945 39.2388C253.82 39.1095 253.751 38.9359 253.754 38.7562C253.757 38.5765 253.832 38.4054 253.962 38.2805C254.092 38.1557 254.267 38.0873 254.447 38.0904H254.469C255.617 38.1241 256.759 38.2769 257.875 38.5461C258.042 38.5813 258.19 38.6777 258.289 38.8163C258.388 38.9548 258.431 39.1254 258.41 39.2942C258.388 39.4629 258.304 39.6175 258.173 39.7271C258.043 39.8368 257.875 39.8936 257.704 39.8862L257.72 39.8828Z" fill="#F65216"/>
<path d="M346.837 95.083C346.729 95.0837 346.624 95.0587 346.528 95.0101C346.448 94.9701 346.377 94.9146 346.318 94.847C346.259 94.7793 346.215 94.7008 346.187 94.6159C346.159 94.5311 346.148 94.4415 346.155 94.3525C346.162 94.2634 346.186 94.1766 346.227 94.097C346.461 93.6379 346.664 93.1643 346.837 92.6791C346.897 92.509 347.022 92.3696 347.185 92.2917C347.349 92.2137 347.537 92.2034 347.707 92.2632C347.878 92.3229 348.018 92.4478 348.097 92.6103C348.175 92.7728 348.186 92.9596 348.125 93.1297C347.934 93.671 347.706 94.1991 347.444 94.7103C347.388 94.8223 347.301 94.9164 347.194 94.9822C347.086 95.048 346.963 95.0829 346.837 95.083Z" fill="#F65216"/>
<path d="M185.592 158.442C185.428 158.446 185.267 158.39 185.141 158.285C185.014 158.18 184.93 158.032 184.904 157.87C184.879 157.709 184.913 157.543 185 157.404C185.088 157.265 185.223 157.163 185.381 157.115C185.862 156.954 186.329 156.751 186.776 156.511C186.936 156.427 187.123 156.409 187.296 156.463C187.469 156.516 187.614 156.636 187.699 156.795C187.783 156.955 187.8 157.141 187.747 157.313C187.693 157.486 187.573 157.629 187.412 157.714C186.897 157.99 186.359 158.222 185.803 158.408C185.735 158.431 185.664 158.442 185.592 158.442Z" fill="#F65216"/>
<path d="M189.849 155.984C189.706 155.985 189.567 155.942 189.45 155.86C189.333 155.778 189.245 155.662 189.199 155.528C189.152 155.393 189.149 155.248 189.19 155.112C189.231 154.976 189.314 154.856 189.427 154.769C190.267 154.107 191.06 153.387 191.799 152.614C191.924 152.484 192.096 152.408 192.277 152.403C192.459 152.399 192.634 152.466 192.766 152.591C192.897 152.715 192.974 152.886 192.978 153.067C192.982 153.247 192.915 153.422 192.79 153.553C192.005 154.372 191.164 155.135 190.273 155.836C190.153 155.932 190.003 155.984 189.849 155.984ZM194.397 151.222C194.256 151.222 194.119 151.179 194.004 151.098C193.93 151.047 193.867 150.982 193.818 150.907C193.769 150.832 193.736 150.748 193.72 150.66C193.704 150.572 193.706 150.482 193.726 150.394C193.745 150.307 193.782 150.224 193.833 150.151C194.449 149.287 194.988 148.371 195.444 147.413C195.482 147.333 195.536 147.26 195.602 147.2C195.669 147.14 195.746 147.094 195.83 147.063C195.915 147.033 196.004 147.019 196.094 147.024C196.183 147.028 196.271 147.049 196.353 147.087C196.434 147.125 196.507 147.179 196.567 147.245C196.627 147.311 196.674 147.388 196.705 147.472C196.735 147.556 196.748 147.645 196.744 147.734C196.74 147.823 196.718 147.91 196.68 147.991C196.193 149.02 195.616 150.004 194.957 150.934C194.894 151.024 194.809 151.097 194.71 151.147C194.612 151.198 194.503 151.223 194.392 151.222H194.397ZM197.154 145.279C197.103 145.278 197.052 145.273 197.002 145.262C196.915 145.242 196.832 145.205 196.759 145.153C196.686 145.101 196.624 145.036 196.577 144.96C196.529 144.884 196.497 144.8 196.482 144.712C196.468 144.624 196.471 144.534 196.491 144.447C196.697 143.552 196.802 142.636 196.805 141.718C196.805 141.596 196.805 141.474 196.805 141.352C196.799 141.172 196.865 140.998 196.988 140.866C197.112 140.735 197.283 140.658 197.464 140.652C197.644 140.647 197.82 140.712 197.952 140.835C198.083 140.958 198.161 141.128 198.167 141.308C198.167 141.445 198.167 141.582 198.167 141.718C198.167 142.738 198.053 143.754 197.826 144.749C197.792 144.901 197.706 145.037 197.582 145.134C197.459 145.231 197.306 145.282 197.149 145.279H197.154ZM197.002 138.757C196.848 138.757 196.699 138.705 196.578 138.61C196.458 138.515 196.373 138.382 196.338 138.233C196.085 137.191 195.771 136.165 195.398 135.16C195.336 134.991 195.344 134.804 195.421 134.64C195.497 134.477 195.636 134.35 195.806 134.289C195.976 134.227 196.164 134.235 196.328 134.311C196.493 134.387 196.62 134.525 196.682 134.694C197.074 135.747 197.403 136.822 197.668 137.913C197.689 138 197.692 138.091 197.678 138.179C197.663 138.267 197.631 138.352 197.584 138.428C197.536 138.504 197.474 138.57 197.401 138.622C197.328 138.674 197.245 138.711 197.157 138.731C197.106 138.746 197.053 138.755 197 138.757H197.002ZM194.789 132.561C194.657 132.562 194.528 132.524 194.418 132.453C194.307 132.382 194.219 132.281 194.165 132.162C193.745 131.238 193.277 130.278 192.733 129.226C192.651 129.065 192.635 128.878 192.691 128.706C192.746 128.535 192.868 128.392 193.03 128.309C193.191 128.227 193.379 128.212 193.552 128.267C193.724 128.322 193.868 128.443 193.951 128.604C194.503 129.676 194.972 130.657 195.41 131.601C195.447 131.682 195.468 131.77 195.471 131.859C195.474 131.948 195.46 132.037 195.428 132.121C195.396 132.205 195.348 132.281 195.287 132.346C195.225 132.411 195.151 132.464 195.07 132.5C194.978 132.542 194.878 132.563 194.777 132.561H194.789ZM191.783 126.686C191.661 126.687 191.541 126.654 191.435 126.592C191.33 126.53 191.243 126.441 191.184 126.334C190.719 125.487 190.205 124.582 189.566 123.469C189.522 123.391 189.493 123.305 189.482 123.217C189.47 123.128 189.477 123.037 189.5 122.951C189.548 122.776 189.664 122.627 189.822 122.537C189.98 122.448 190.167 122.424 190.343 122.472C190.519 122.519 190.668 122.634 190.758 122.792C191.4 123.911 191.918 124.824 192.386 125.672C192.43 125.75 192.457 125.836 192.467 125.924C192.477 126.013 192.47 126.103 192.445 126.189C192.42 126.275 192.378 126.355 192.322 126.424C192.265 126.494 192.196 126.552 192.117 126.595C192.012 126.656 191.893 126.687 191.771 126.686H191.783ZM188.509 120.953C188.389 120.954 188.271 120.923 188.167 120.863C188.063 120.804 187.977 120.718 187.917 120.615C187.368 119.666 186.815 118.712 186.267 117.75C186.222 117.672 186.193 117.586 186.182 117.497C186.17 117.408 186.177 117.318 186.2 117.231C186.248 117.057 186.364 116.908 186.522 116.818C186.68 116.728 186.868 116.705 187.043 116.752C187.219 116.8 187.368 116.915 187.459 117.072C188.007 118.031 188.555 118.984 189.103 119.93C189.163 120.033 189.195 120.15 189.195 120.269C189.195 120.388 189.163 120.505 189.103 120.608C189.043 120.711 188.957 120.797 188.853 120.856C188.75 120.916 188.632 120.947 188.513 120.947L188.509 120.953ZM185.248 115.214C185.125 115.214 185.005 115.182 184.899 115.119C184.793 115.057 184.706 114.967 184.647 114.86C184.074 113.815 183.563 112.857 183.086 111.932C183.003 111.772 182.988 111.586 183.044 111.414C183.099 111.242 183.221 111.1 183.382 111.018C183.544 110.935 183.731 110.92 183.903 110.976C184.076 111.031 184.219 111.152 184.302 111.312C184.773 112.226 185.279 113.176 185.848 114.209C185.905 114.313 185.934 114.429 185.932 114.547C185.93 114.665 185.897 114.781 185.837 114.882C185.776 114.984 185.69 115.068 185.587 115.126C185.484 115.184 185.367 115.214 185.248 115.214ZM182.236 109.342C182.106 109.343 181.979 109.306 181.869 109.236C181.759 109.166 181.671 109.067 181.617 108.949C181.125 107.902 180.673 106.876 180.275 105.9C180.241 105.817 180.225 105.729 180.225 105.639C180.226 105.55 180.245 105.462 180.28 105.38C180.315 105.298 180.366 105.223 180.43 105.161C180.494 105.098 180.57 105.049 180.653 105.015C180.736 104.982 180.825 104.965 180.915 104.966C181.004 104.967 181.093 104.985 181.176 105.02C181.258 105.055 181.333 105.106 181.396 105.17C181.459 105.233 181.508 105.309 181.542 105.392C181.932 106.347 182.374 107.353 182.854 108.38C182.893 108.461 182.914 108.548 182.918 108.638C182.922 108.727 182.909 108.816 182.878 108.9C182.847 108.984 182.8 109.061 182.74 109.126C182.679 109.192 182.606 109.245 182.524 109.283C182.43 109.325 182.328 109.345 182.224 109.342H182.236ZM179.759 103.233C179.615 103.234 179.475 103.189 179.359 103.105C179.242 103.021 179.155 102.903 179.11 102.767C178.744 101.671 178.429 100.587 178.179 99.5487C178.158 99.4618 178.154 99.3716 178.168 99.2834C178.182 99.1951 178.214 99.1105 178.26 99.0342C178.307 98.958 178.369 98.8917 178.442 98.8392C178.514 98.7866 178.596 98.7488 178.684 98.7279C178.771 98.707 178.862 98.7034 178.95 98.7173C179.039 98.7312 179.124 98.7624 179.201 98.809C179.277 98.8557 179.344 98.9169 179.397 98.9891C179.45 99.0614 179.488 99.1433 179.509 99.2302C179.751 100.231 180.054 101.278 180.408 102.339C180.436 102.424 180.448 102.513 180.442 102.603C180.435 102.692 180.411 102.779 180.371 102.859C180.331 102.939 180.275 103.01 180.207 103.069C180.138 103.127 180.059 103.172 179.974 103.199C179.901 103.223 179.824 103.235 179.747 103.233H179.759ZM178.227 96.833C178.06 96.8344 177.899 96.7753 177.774 96.6667C177.648 96.5581 177.567 96.4075 177.546 96.2435C177.396 95.1269 177.318 94.002 177.312 92.8756C177.312 92.6959 177.384 92.5236 177.512 92.3965C177.639 92.2694 177.813 92.198 177.993 92.198C178.174 92.198 178.347 92.2694 178.475 92.3965C178.603 92.5236 178.674 92.6959 178.674 92.8756C178.68 93.9443 178.755 95.0115 178.897 96.0707C178.909 96.1593 178.904 96.2494 178.88 96.3357C178.857 96.4221 178.817 96.503 178.762 96.5739C178.708 96.6447 178.639 96.7041 178.561 96.7486C178.483 96.7931 178.397 96.8218 178.308 96.833C178.279 96.8347 178.249 96.8347 178.22 96.833H178.227ZM178.227 90.2684C178.194 90.271 178.161 90.271 178.128 90.2684C178.039 90.256 177.953 90.2261 177.876 90.1806C177.798 90.135 177.731 90.0747 177.677 90.003C177.623 89.9314 177.584 89.8498 177.562 89.7631C177.54 89.6763 177.536 89.5861 177.549 89.4976C177.713 88.3751 177.966 87.2672 178.305 86.184C178.359 86.0119 178.479 85.8682 178.64 85.7845C178.8 85.7008 178.988 85.6839 179.161 85.7376C179.333 85.7913 179.478 85.9111 179.562 86.0708C179.646 86.2304 179.663 86.4168 179.609 86.5889C179.292 87.6039 179.056 88.6422 178.903 89.6941C178.878 89.8554 178.795 90.0023 178.67 90.1078C178.545 90.2133 178.385 90.2704 178.221 90.2684H178.227ZM207.763 88.1373C207.618 88.1372 207.476 88.0909 207.359 88.0051C206.508 87.3902 205.602 86.7888 204.651 86.2196C204.574 86.1735 204.507 86.1128 204.453 86.041C204.4 85.9692 204.361 85.8876 204.34 85.8009C204.318 85.7142 204.314 85.6242 204.327 85.5358C204.34 85.4475 204.371 85.3627 204.417 85.2861C204.464 85.2096 204.525 85.1429 204.597 85.0898C204.669 85.0367 204.751 84.9983 204.838 84.9768C204.925 84.9552 205.016 84.9509 205.104 84.9642C205.193 84.9775 205.279 85.008 205.355 85.054C206.341 85.6436 207.288 86.2687 208.167 86.9175C208.284 87.0015 208.372 87.1205 208.417 87.2574C208.462 87.3942 208.462 87.5418 208.417 87.6787C208.372 87.8156 208.284 87.9346 208.167 88.0186C208.049 88.1026 207.908 88.1471 207.763 88.1457V88.1373ZM202.098 84.7356C201.993 84.736 201.889 84.7122 201.795 84.6661C200.818 84.1833 199.818 83.7377 198.821 83.3413C198.652 83.2739 198.518 83.1428 198.447 82.9768C198.376 82.8108 198.374 82.6235 198.442 82.4562C198.509 82.2888 198.641 82.155 198.808 82.0844C198.975 82.0137 199.163 82.0118 199.331 82.0792C200.353 82.4892 201.395 82.95 202.396 83.4463C202.536 83.5129 202.65 83.6251 202.717 83.7645C202.784 83.9038 202.802 84.0618 202.766 84.2123C202.731 84.3628 202.645 84.4968 202.522 84.592C202.4 84.6871 202.248 84.7378 202.093 84.7356H202.098ZM180.413 84.1392C180.284 84.14 180.157 84.1043 180.048 84.0362C179.938 83.9682 179.851 83.8706 179.795 83.7549C179.739 83.6391 179.717 83.51 179.732 83.3825C179.747 83.255 179.799 83.1344 179.88 83.0347C180.64 82.1008 181.6 81.3483 182.691 80.8324C182.854 80.7535 183.041 80.7422 183.213 80.801C183.297 80.8301 183.375 80.8755 183.443 80.9347C183.51 80.9938 183.564 81.0656 183.604 81.1458C183.643 81.226 183.666 81.3131 183.671 81.4021C183.677 81.4912 183.664 81.5804 183.635 81.6647C183.606 81.749 183.56 81.8268 183.501 81.8935C183.441 81.9603 183.369 82.0148 183.289 82.0538C182.38 82.4844 181.58 83.1119 180.947 83.8902C180.882 83.9674 180.8 84.0291 180.708 84.0707C180.615 84.1123 180.514 84.1328 180.413 84.1308V84.1392ZM195.952 82.2961C195.885 82.2963 195.818 82.2866 195.754 82.2673C194.72 81.9535 193.671 81.6928 192.611 81.4863C192.433 81.4521 192.276 81.3491 192.174 81.1998C192.073 81.0504 192.035 80.8671 192.069 80.6901C192.104 80.513 192.207 80.3568 192.357 80.2558C192.507 80.1548 192.692 80.1172 192.87 80.1513C193.977 80.3671 195.072 80.6391 196.151 80.9662C196.31 81.0108 196.448 81.1118 196.538 81.2503C196.628 81.3888 196.665 81.5553 196.64 81.7185C196.616 81.8817 196.532 82.0304 196.406 82.1367C196.279 82.243 196.117 82.2997 195.952 82.2961ZM186.153 81.1949C186.063 81.201 185.973 81.1896 185.888 81.1612C185.803 81.1328 185.725 81.088 185.657 81.0294C185.59 80.9708 185.534 80.8995 185.494 80.8196C185.455 80.7398 185.431 80.6528 185.425 80.5639C185.419 80.4749 185.43 80.3855 185.459 80.301C185.487 80.2164 185.532 80.1383 185.591 80.071C185.65 80.0038 185.722 79.9487 185.802 79.909C185.882 79.8693 185.969 79.8457 186.059 79.8396C187.198 79.6878 188.35 79.6475 189.497 79.7194C189.677 79.7297 189.846 79.811 189.967 79.9454C190.087 80.0798 190.149 80.2562 190.139 80.436C190.128 80.6157 190.046 80.7839 189.911 80.9037C189.776 81.0235 189.599 81.085 189.418 81.0746C188.361 81.0096 187.3 81.0465 186.25 81.1847C186.218 81.1895 186.185 81.1918 186.153 81.1915V81.1949Z" fill="#F65216"/>
<path d="M211.494 91.3696C211.4 91.3695 211.307 91.3502 211.221 91.3129C211.136 91.2756 211.058 91.2211 210.995 91.1527C210.654 90.7834 210.268 90.409 209.866 90.0397C209.8 89.9791 209.747 89.9062 209.709 89.8251C209.672 89.744 209.651 89.6564 209.647 89.5672C209.64 89.387 209.705 89.2115 209.828 89.0792C209.951 88.9468 210.122 88.8686 210.303 88.8616C210.484 88.8546 210.661 88.9195 210.794 89.0419C211.22 89.4332 211.623 89.8313 211.986 90.2278C212.078 90.3241 212.14 90.4454 212.163 90.5765C212.187 90.7076 212.171 90.8427 212.118 90.9648C212.064 91.087 211.976 91.1909 211.864 91.2635C211.752 91.336 211.621 91.3741 211.487 91.373L211.494 91.3696Z" fill="#F65216"/>
<path d="M343.928 92.779C343.793 92.7801 343.66 92.741 343.547 92.6665C343.434 92.592 343.346 92.4856 343.294 92.3609C343.242 92.2363 343.228 92.099 343.255 91.9667C343.282 91.8345 343.348 91.7132 343.445 91.6186L351.277 83.8258C351.406 83.6981 351.579 83.6265 351.761 83.6265C351.942 83.6265 352.116 83.6981 352.244 83.8258C352.373 83.9534 352.445 84.1264 352.445 84.3069C352.445 84.4873 352.373 84.6604 352.244 84.788L344.412 92.5808C344.349 92.6439 344.273 92.6939 344.19 92.7279C344.107 92.7619 344.018 92.7793 343.928 92.779Z" fill="#F65216"/>
<path d="M351.759 92.779C351.669 92.7791 351.58 92.7614 351.497 92.7271C351.414 92.6928 351.339 92.6425 351.276 92.5791L343.443 84.7863C343.315 84.6587 343.243 84.4856 343.243 84.3052C343.243 84.1247 343.315 83.9516 343.443 83.824C343.571 83.6964 343.745 83.6248 343.927 83.6248C344.108 83.6248 344.282 83.6964 344.41 83.824L352.243 91.6168C352.339 91.7115 352.405 91.8328 352.432 91.965C352.459 92.0973 352.446 92.2345 352.394 92.3592C352.342 92.4839 352.254 92.5903 352.141 92.6648C352.028 92.7392 351.895 92.7784 351.759 92.7773V92.779Z" fill="#F65216"/>
<path d="M180.655 163.661C179.964 163.661 179.289 163.458 178.714 163.076C178.14 162.694 177.693 162.151 177.428 161.516C177.164 160.881 177.095 160.182 177.23 159.508C177.365 158.834 177.697 158.215 178.186 157.729C178.675 157.244 179.297 156.913 179.975 156.779C180.652 156.645 181.354 156.714 181.992 156.977C182.63 157.241 183.176 157.686 183.559 158.258C183.943 158.829 184.147 159.501 184.147 160.189C184.146 161.109 183.777 161.992 183.123 162.643C182.468 163.294 181.58 163.661 180.655 163.661ZM180.655 158.071C180.235 158.071 179.824 158.195 179.474 158.427C179.125 158.659 178.853 158.989 178.692 159.376C178.531 159.762 178.489 160.187 178.571 160.597C178.652 161.007 178.855 161.384 179.152 161.68C179.449 161.975 179.827 162.177 180.239 162.259C180.651 162.34 181.078 162.299 181.467 162.139C181.855 161.979 182.187 161.708 182.421 161.361C182.654 161.014 182.779 160.605 182.78 160.187C182.779 159.626 182.555 159.089 182.156 158.693C181.758 158.297 181.218 158.074 180.655 158.073V158.071Z" fill="#F65216"/>
<path d="M331.002 180.507C321.949 174.764 314.44 171.761 304.338 168.889C296.413 166.635 283.09 165.876 278.033 165.501C273.667 165.181 264.582 165.1 258.362 165.217C256.17 165.257 254.33 165.328 253.172 165.428C248.711 165.82 244.318 164.646 236.576 161.193C228.834 157.741 225.621 157.603 223.193 156.56C220.765 155.516 219.849 152.121 219.849 152.121C215.65 151.6 214.206 152.709 211.189 145.724C209.774 142.445 209.173 139.795 208.931 137.91C208.661 135.775 208.853 134.613 208.853 134.613C208.735 134.484 205.01 130.39 203.915 127.371C202.827 124.377 204.426 120.837 204.503 120.671C204.503 120.671 195.712 119.823 195.187 114.263C195.165 114.035 195.16 113.805 195.174 113.576C195.468 108.815 204.108 109.967 204.108 109.967L260.424 102.593C260.424 102.593 259.521 101.654 258.147 100.135C253.402 94.8831 243.024 82.6721 244.778 78.1116C245.029 77.4349 245.341 76.7823 245.711 76.1617C247.788 72.7735 250.242 74.5862 253.141 77.1324C256.487 80.0683 260.916 80.5579 268.295 87.607C275.675 94.6561 277.67 93.516 282.533 96.7551C287.13 99.8197 289.123 103.362 296.076 108.976C297.454 110.076 298.704 111.326 299.802 112.703C303.096 116.884 303.534 120.642 306.178 123.068C306.582 123.44 311.967 129.126 316.936 130.508C322.577 132.073 325.07 134.032 330.973 136.642C333.595 137.801 335.846 138.416 339.301 139.168C345.485 140.513 349.506 154.649 347.182 165.029C344.858 175.408 334.705 182.859 331.002 180.507Z" fill="#B96B43"/>
<path d="M258.142 100.121C253.397 94.8696 243.019 82.6603 244.774 78.0981C245.024 77.4212 245.336 76.7685 245.706 76.1482C245.535 78.0862 246.302 80.7104 250.473 83.5802C257.454 88.3778 258.712 89.3265 262.084 87.2021C265.455 85.0777 260.311 89.5518 260.509 91.4119C260.706 93.272 263.706 97.6445 268.973 102.29C272.412 105.32 264.442 102.696 258.142 100.121Z" fill="#8C4A2A"/>
<path d="M307.324 124.169C306.367 125.016 304.841 126.032 303.255 128.36C301.256 131.296 299.427 130.562 300.202 129.893C300.976 129.224 302.434 127.054 303.156 123.4C303.878 119.746 300.469 116.222 299.796 112.708C303.093 116.889 303.53 120.647 306.173 123.073C306.578 123.445 306.958 123.81 307.324 124.169Z" fill="#8C4A2A"/>
<path d="M250.185 132.192L244.032 148.481L238.195 149.645L230.586 145.707L227.652 146.046L220.133 140.263L220.332 138.789L211.494 118.57L250.185 132.192Z" fill="#7A371C"/>
<path d="M331.102 180.568C330.036 179.915 328.696 179.069 327.13 178.165C324.141 176.438 321.465 175.149 319.102 174.075C314.664 172.059 310.929 170.765 304.336 168.889C296.369 166.624 288.281 166.065 282.32 165.743L282.135 165.727C281.547 165.693 280.982 165.664 280.432 165.637C279.57 165.589 278.767 165.547 278.031 165.498C273.664 165.212 264.59 165.095 258.36 165.212C257.284 163.517 253.775 160.548 251.464 160.529C250.475 160.521 250.415 162.223 250.218 162.992C250.02 163.761 249.346 161.976 249.346 160.282C249.346 158.588 247.999 156.226 245.147 153.266C243.955 152.026 242.038 151.384 241.015 151.766C239.503 152.326 238.336 155.257 238.376 156.268C238.44 157.962 238.571 159.804 237.982 159.87C237.393 159.936 236.949 156.529 236.62 153.461C236.292 150.393 233.012 149.35 232.554 150.265C232.096 151.179 229.818 154.063 227.063 155.76C224.308 157.458 226.397 155.028 227.744 153.968C229.617 152.499 230.341 149.263 229.455 149.634C228.57 150.005 225.924 150.981 223.612 150.981C221.299 150.981 225.878 147.601 227.649 146.034L230.155 146.087C230.155 146.087 233.075 145.826 235.175 147.066C237.274 148.306 237.979 148.779 238.519 148.877C239.058 148.975 239.906 148.454 240.979 148.094C241.817 147.832 242.67 147.619 243.533 147.457L250.174 132.18C250.174 132.18 298.508 128.563 301.268 134.437C302.812 137.716 299.252 141.213 296.303 144.262C294.217 146.419 289.543 152.394 289.281 154.883C289.019 157.371 293.047 160.812 297.876 161.623C303.495 162.576 311.189 164.051 318.203 165.994C323.714 167.519 329.362 169.533 332.084 170.761C334.948 172.052 338.481 173.208 341.86 175.268C341.422 176.482 334.492 182.647 331.102 180.568Z" fill="#8C4A2A"/>
<path d="M206.876 113.564C206.876 113.564 207.784 115.072 207.596 115.717C207.121 117.357 206.064 120.306 204.501 120.659C204.501 120.659 199.052 120.132 196.474 117.191C203.13 120.139 204.969 117.614 206.876 113.564Z" fill="#8C4A2A"/>
<path d="M299.332 138.519L264.982 161.83C262.285 163.66 257.786 163.301 255.46 161.068L191.322 99.5723C189.017 97.431 189.388 94.1326 191.366 91.9489L227.243 73.0226C228.21 72.4323 229.34 72.1656 230.47 72.2616C231.599 72.3576 232.668 72.8114 233.52 73.5562L301.053 131.989C301.155 133.8 301.394 134.388 301.223 135.562C301.129 136.157 300.913 136.728 300.587 137.237C300.262 137.745 299.834 138.182 299.332 138.519Z" fill="#431D73"/>
<path d="M299.502 135.701L265.012 159.015C263.716 159.891 262.156 160.296 260.595 160.163C259.033 160.03 257.565 159.366 256.438 158.283L191.971 96.3468C191.608 95.9981 191.331 95.5711 191.16 95.0988C190.989 94.6266 190.93 94.1216 190.986 93.6229C191.043 93.1242 191.213 92.645 191.485 92.2223C191.757 91.7996 192.123 91.4447 192.555 91.1849L227.012 70.4408C227.977 69.8597 229.104 69.601 230.228 69.7025C231.351 69.804 232.413 70.2603 233.257 71.0049L299.883 129.761C300.315 130.142 300.654 130.616 300.874 131.146C301.093 131.677 301.189 132.251 301.152 132.824C301.115 133.396 300.947 133.953 300.661 134.452C300.375 134.95 299.979 135.378 299.502 135.701Z" fill="#190B2B"/>
<path d="M260.029 157.764C258.613 157.767 257.252 157.22 256.235 156.24L192.815 95.0627C192.603 94.8588 192.44 94.609 192.34 94.3327C192.24 94.0564 192.205 93.7609 192.238 93.469C192.271 93.1772 192.371 92.8967 192.53 92.6493C192.689 92.402 192.903 92.1942 193.156 92.0422L227.615 71.298C228.33 70.8663 229.166 70.6739 230 70.7492C230.833 70.8246 231.62 71.1635 232.246 71.7165L297.825 129.719C298.101 129.962 298.318 130.265 298.458 130.604C298.599 130.944 298.66 131.31 298.636 131.677C298.612 132.043 298.505 132.399 298.322 132.718C298.139 133.036 297.885 133.309 297.58 133.515L263.094 156.829C262.19 157.441 261.122 157.767 260.029 157.764Z" fill="white"/>
<path d="M216.37 126.859L209.485 133.954L208.861 134.596L208.851 134.609C208.734 134.482 205.008 130.386 203.913 127.367C202.825 124.374 204.424 120.833 204.501 120.667L207.879 114.638C208.932 114.383 210.026 114.348 211.094 114.534C212.527 114.804 214.094 115.6 214.996 117.621C215.967 119.796 216.314 122.073 216.418 123.821C216.486 124.834 216.47 125.85 216.37 126.859Z" fill="#B96B43"/>
<path d="M216.37 126.859L212.531 131.276C212.531 131.276 209.447 134.301 209.331 133.959C209.471 132.426 210.099 130.515 211.494 129.358C212.888 128.201 215.154 126.617 216.414 123.813C216.484 124.828 216.469 125.847 216.37 126.859Z" fill="#8C4A2A"/>
<path d="M224.504 134.3C224.053 135.814 222.985 137.029 221.635 137.959C220 139.224 217.967 139.785 216.108 140.087C214.598 140.33 213.203 140.312 212.246 140.037C210.768 139.612 209.6 138.826 208.94 137.899C208.669 135.765 208.86 134.604 208.86 134.604C208.86 134.604 211.836 130.054 214.33 128.656C216.854 127.249 217.889 124.116 219.924 124.116C220.797 124.116 222.084 124.635 223.132 125.81C223.463 126.18 223.749 126.587 223.983 127.023C224.843 128.656 225.265 131.03 224.504 134.3Z" fill="#B96B43"/>
<path d="M220.307 148.526C218.403 150.288 216.901 149.572 217.485 149.048C218.069 148.525 219.241 143.104 217.617 143.241C215.992 143.378 213.29 142.201 214.468 142.131C216.876 141.987 220.157 138.89 220.332 138.789C221.226 138.267 222.209 146.765 220.307 148.526Z" fill="#8C4A2A"/>
<path d="M291.7 161.547C292.131 155.181 298.279 151.235 299.481 148.494C300.684 145.753 304.526 137.916 304.642 136.549C304.773 134.984 308.129 130.232 308.129 131.367C308.129 132.502 305.691 136.354 305.298 138.508C304.904 140.661 301.942 147.417 300.36 150.942C298.778 154.468 296.337 158.779 296.238 159.882C296.139 160.985 291.499 164.456 291.7 161.547Z" fill="#8C4A2A"/>
<path d="M214.32 128.658C214.32 128.658 212.304 132.536 215.108 132.585C217.913 132.634 219.535 129.6 219.535 129.6C219.535 129.6 220.874 125.117 219.535 123.962C218.197 122.807 214.32 128.658 214.32 128.658Z" fill="#FFCEC7"/>
<path d="M205.425 118.112C204.914 119.251 204.622 120.122 204.562 120.543C204.409 121.619 204.758 122.939 205.464 123.432C206.449 124.11 207.777 122.202 208.269 119.635C208.761 117.069 208.843 114.748 207.875 114.629C206.908 114.511 205.939 116.974 205.425 118.112Z" fill="#FFCEC7"/>
<path d="M219.847 152.116C219.847 152.116 218.732 147.613 218.929 144.937C219.127 142.26 220.044 140.564 223.784 138.345C227.523 136.126 232.605 132.504 233.819 138.018C235.328 144.872 230.182 147.102 228.233 148.787C225.817 150.876 219.646 150.027 219.847 152.116Z" fill="#B96B43"/>
<path d="M228.626 135.665C228.626 135.665 223.257 139.258 223.784 140.695C224.31 142.131 228.381 141.608 230.015 140.695C231.65 139.782 234 137.676 232.721 135.782C231.81 134.418 231.33 134.271 228.626 135.665Z" fill="#FFCEC7"/>
<path d="M274.633 147.19L262.302 135.958L279.514 130.108L297.224 132.048L274.633 147.19Z" fill="#70D443"/>
<path d="M208.749 84.3729L221.243 96.8194L224.17 110.148L215.665 115.315L194.341 94.4528C194.23 94.344 194.145 94.2113 194.094 94.0649C194.042 93.9185 194.025 93.7624 194.043 93.6083C194.061 93.4543 194.115 93.3065 194.2 93.1763C194.284 93.046 194.398 92.9368 194.532 92.8569L208.749 84.3729Z" fill="#70D443"/>
<path d="M260.989 134.208L249.908 123.298L267.338 104.441L267.275 116.927L278.094 128.848L260.989 134.208Z" fill="#F2E1BD"/>
<path d="M269.511 106.449L269.61 116.269L278.968 128.272L296.817 130.259L269.511 106.449Z" fill="#F5C970"/>
<path d="M210.038 83.6395L222.166 95.31L235.593 91.0731L220.86 76.8834L210.038 83.6395Z" fill="#F5C970"/>
<path d="M216.929 116.481L244.82 143.112L254.861 137.012L245.68 127.008L225.558 111.238L216.929 116.481Z" fill="#F5C970"/>
<path d="M225.209 107.902L223.075 96.9109L234.718 92.6367L233.2 100.323L233.729 109.566L225.209 107.902Z" fill="#F2E1BD"/>
<path d="M225.49 109.347L242.372 122.81L234.453 111.534L225.49 109.347Z" fill="#F2E1BD"/>
<path d="M246.513 85.7197L265.482 102.288L239.072 94.7018L246.513 85.7197Z" fill="#70D443"/>
<path d="M238.522 96.4637L266.16 103.354L248.903 121.914L239.072 106.891L238.522 96.4637Z" fill="#F5C970"/>
<path d="M246.313 144.611L256.433 138.464L270.803 150.021L261.2 156.07C260.754 156.35 260.225 156.469 259.702 156.407C259.178 156.345 258.692 156.107 258.324 155.731L246.313 144.611Z" fill="#70D443"/>
<path d="M221.882 76.2786L228.621 72.184C229.064 71.9143 229.583 71.7959 230.1 71.8467C230.616 71.8974 231.102 72.1146 231.483 72.4652L242.258 82.3587L236.178 89.4518L221.882 76.2786Z" fill="#F2E1BD"/>
<path d="M273.759 110.16L273.652 110.747C272.646 116.269 271.609 121.98 269.073 125.356C268.312 126.332 267.37 127.154 266.3 127.779C263.984 129.187 260.768 130.164 256.892 130.611C256.196 130.691 255.489 130.754 254.778 130.796C253.808 130.857 252.833 130.885 251.851 130.879C245.04 130.854 238.214 129.307 234.402 126.759C224.878 120.399 208.861 100.707 200.256 90.1311L199.883 89.672L202.83 87.9136C203.202 88.371 203.053 88.1897 203.462 88.6895C211.96 99.1369 227.778 118.583 236.865 124.657C239.499 126.413 244.132 127.601 249.051 127.938C250.063 128.009 251.095 128.043 252.116 128.04C253.495 128.035 254.872 127.954 256.242 127.799C260.921 127.264 264.313 125.882 265.787 123.903C267.973 120.987 269.01 115.299 269.926 110.279C270.12 109.217 270.304 108.219 270.488 107.287L273.759 110.16Z" fill="#7AC7EB"/>
<path d="M243.443 82.8483L245.168 84.5085C236.622 91.9099 235.723 97.8782 237.708 107.76C238.716 112.774 245.03 120.584 252.104 128.035C252.986 128.96 253.876 129.878 254.774 130.791C262.656 138.799 271.021 146.116 273.42 148.188L271.748 149.284C270.752 148.437 261.146 140.451 251.847 130.874C250.906 129.903 249.974 128.921 249.048 127.933C242.251 120.635 236.332 113.078 235.312 107.99C234.092 101.922 234.674 96.5704 237.088 91.6287C238.861 88 239.481 86.2297 243.443 82.8483Z" fill="#F6BB19"/>
<path d="M269.807 113.564C264.503 113.564 259.608 117.824 259.608 123.711C259.608 129.598 269.807 146.441 269.807 146.441C269.807 146.441 280.006 129.597 280.006 123.711C280.006 117.826 275.111 113.564 269.807 113.564Z" fill="#F65216"/>
<path d="M275.859 124.491C276.401 121.172 274.135 118.044 270.799 117.506C267.463 116.967 264.32 119.221 263.778 122.54C263.237 125.859 265.502 128.987 268.838 129.525C272.174 130.064 275.318 127.81 275.859 124.491Z" fill="white"/>
<path d="M240.954 65.5635C237.301 65.5635 233.932 68.4993 233.932 72.5516C233.932 76.6039 240.954 88.2033 240.954 88.2033C240.954 88.2033 247.977 76.6039 247.977 72.5516C247.977 68.4993 244.606 65.5635 240.954 65.5635Z" fill="#F65216"/>
<path d="M240.953 76.6056C243.281 76.6056 245.168 74.7284 245.168 72.4127C245.168 70.0971 243.281 68.2198 240.953 68.2198C238.626 68.2198 236.739 70.0971 236.739 72.4127C236.739 74.7284 238.626 76.6056 240.953 76.6056Z" fill="white"/>
<path d="M490.245 14.5934H461.65C460.201 14.5934 459.026 15.7622 459.026 17.204V43.8943C459.026 45.3361 460.201 46.5049 461.65 46.5049H490.245C491.694 46.5049 492.869 45.3361 492.869 43.8943V17.204C492.869 15.7622 491.694 14.5934 490.245 14.5934Z" fill="#89A6D9"/>
<path d="M463.348 44.2281C463.294 44.2283 463.241 44.218 463.191 44.1976C463.141 44.1773 463.096 44.1473 463.058 44.1095C463.02 44.0717 462.99 44.0268 462.97 43.9774C462.949 43.928 462.939 43.875 462.939 43.8215V19.0692C462.935 19.0135 462.943 18.9576 462.962 18.9051C462.981 18.8525 463.011 18.8044 463.049 18.7637C463.088 18.7229 463.134 18.6905 463.185 18.6683C463.237 18.6461 463.292 18.6346 463.349 18.6346C463.405 18.6346 463.46 18.6461 463.512 18.6683C463.563 18.6905 463.61 18.7229 463.648 18.7637C463.686 18.8044 463.716 18.8525 463.735 18.9051C463.754 18.9576 463.762 19.0135 463.758 19.0692V43.8215C463.758 43.8751 463.747 43.9281 463.727 43.9775C463.706 44.027 463.676 44.0719 463.638 44.1096C463.6 44.1474 463.554 44.1773 463.505 44.1977C463.455 44.218 463.402 44.2283 463.348 44.2281Z" fill="white"/>
<path d="M489.966 42.1969H461.102C460.993 42.1969 460.889 42.1539 460.812 42.0773C460.735 42.0008 460.692 41.8969 460.692 41.7886C460.692 41.6804 460.735 41.5765 460.812 41.5C460.889 41.4234 460.993 41.3804 461.102 41.3804H489.966C490.075 41.3804 490.179 41.4234 490.256 41.5C490.333 41.5765 490.376 41.6804 490.376 41.7886C490.376 41.8969 490.333 42.0008 490.256 42.0773C490.179 42.1539 490.075 42.1969 489.966 42.1969Z" fill="white"/>
<path d="M463.515 42.1715C463.422 42.1714 463.33 42.1481 463.249 42.1037C463.122 42.0338 463.029 41.9167 462.989 41.7782C462.949 41.6397 462.966 41.4912 463.036 41.3651L469.847 29.1338L475.626 34.7819L482.668 24.4395L486.734 26.9315L489.138 26.1674C489.207 26.1457 489.279 26.1377 489.35 26.1437C489.422 26.1497 489.491 26.1697 489.555 26.2025C489.619 26.2353 489.676 26.2802 489.722 26.3348C489.768 26.3894 489.803 26.4526 489.825 26.5206C489.847 26.5887 489.855 26.6604 489.849 26.7316C489.843 26.8028 489.823 26.8721 489.79 26.9356C489.757 26.9991 489.712 27.0554 489.657 27.1015C489.602 27.1476 489.539 27.1825 489.47 27.2042L486.589 28.119L482.986 25.9167L475.786 36.4675L470.099 30.9092L463.993 41.8886C463.946 41.9742 463.877 42.0456 463.793 42.0954C463.709 42.1452 463.612 42.1715 463.515 42.1715Z" fill="white"/>
<path d="M462.067 21.0514C461.993 21.0509 461.92 21.0304 461.857 20.9922C461.793 20.9539 461.741 20.8992 461.706 20.8339C461.671 20.7686 461.655 20.6952 461.658 20.6213C461.662 20.5475 461.686 20.476 461.727 20.4144L462.983 18.5611C463.021 18.5059 463.072 18.4607 463.131 18.4294C463.191 18.3981 463.257 18.3817 463.324 18.3815C463.39 18.3811 463.455 18.3962 463.515 18.4256C463.574 18.4551 463.625 18.498 463.665 18.5509L464.955 20.4042C464.986 20.4487 465.007 20.4988 465.019 20.5515C465.03 20.6043 465.03 20.6588 465.02 20.7118C465.01 20.7648 464.99 20.8153 464.96 20.8605C464.931 20.9057 464.893 20.9447 464.848 20.9751C464.803 21.0056 464.753 21.027 464.7 21.0382C464.647 21.0493 464.592 21.0499 464.539 21.04C464.486 21.0301 464.435 21.0098 464.389 20.9804C464.344 20.951 464.305 20.9129 464.274 20.8684L463.326 19.5131L462.405 20.8684C462.367 20.9237 462.317 20.9693 462.259 21.0012C462.2 21.033 462.134 21.0502 462.067 21.0514Z" fill="white"/>
<path d="M488.372 43.4811C488.285 43.4809 488.2 43.453 488.129 43.4015C488.059 43.3499 488.007 43.2774 487.981 43.1944C487.955 43.1114 487.956 43.0224 487.985 42.9402C488.013 42.858 488.067 42.7869 488.139 42.7373L489.501 41.7937L488.139 40.8772C488.048 40.8166 487.986 40.7227 487.965 40.6163C487.945 40.5099 487.967 40.3996 488.028 40.3097C488.089 40.2199 488.183 40.1578 488.29 40.1371C488.397 40.1165 488.508 40.1389 488.599 40.1996L490.461 41.4515C490.517 41.4886 490.564 41.539 490.595 41.5981C490.627 41.6572 490.644 41.7233 490.644 41.7904C490.644 41.8574 490.627 41.9235 490.595 41.9826C490.564 42.0417 490.517 42.0921 490.461 42.1292L488.605 43.4133C488.536 43.459 488.455 43.4826 488.372 43.4811Z" fill="white"/>
<path d="M468.834 30.03C468.834 29.8065 468.9 29.588 469.025 29.4022C469.15 29.2164 469.327 29.0716 469.535 28.986C469.742 28.9005 469.971 28.8781 470.191 28.9217C470.411 28.9653 470.614 29.073 470.772 29.231C470.931 29.389 471.039 29.5903 471.083 29.8095C471.127 30.0287 471.105 30.2559 471.019 30.4624C470.933 30.6689 470.787 30.8453 470.6 30.9695C470.414 31.0937 470.194 31.1599 469.969 31.1599C469.668 31.1599 469.379 31.0409 469.166 30.829C468.953 30.6171 468.834 30.3297 468.834 30.03Z" fill="#FF7033"/>
<path d="M482.828 26.2606C483.455 26.2606 483.964 25.7547 483.964 25.1307C483.964 24.5066 483.455 24.0007 482.828 24.0007C482.201 24.0007 481.692 24.5066 481.692 25.1307C481.692 25.7547 482.201 26.2606 482.828 26.2606Z" fill="#FF7033"/>
<path d="M579.58 19.6486C584.099 24.131 586.743 30.1502 586.981 36.4946L561.662 37.484L551.276 14.4833C555.964 12.3878 561.181 11.7596 566.236 12.6821C571.291 13.6046 575.944 16.0342 579.58 19.6486Z" fill="#F0FFB3"/>
<path d="M586.981 36.4946C587.155 41.0629 586.077 45.5924 583.863 49.5978C581.648 53.6033 578.379 56.9338 574.408 59.2328C570.436 61.5318 565.911 62.7126 561.317 62.6487C556.722 62.5848 552.232 61.2787 548.326 58.8703C544.421 56.4618 541.247 53.0417 539.146 48.9763C537.044 44.9109 536.094 40.3532 536.396 35.7915C536.699 31.2298 538.242 26.8358 540.862 23.0802C543.482 19.3246 547.08 16.3487 551.269 14.4714L561.656 37.4721L586.981 36.4946Z" fill="#FFC982"/>
<path d="M551.269 14.4749L561.656 37.4755L541.155 22.6505C543.757 19.1014 547.239 16.2844 551.262 14.4749H551.269Z" fill="#C1BFFF"/>
<path d="M586.981 36.4946C587.174 41.4984 585.867 46.4462 583.226 50.7087C580.585 54.9712 576.729 58.3559 572.149 60.4321L561.662 37.484L586.981 36.4946Z" fill="#B0FFD2"/>
<path d="M580.668 36.7386C580.499 32.3906 578.831 28.233 575.944 24.9647C573.057 21.6964 569.127 19.5168 564.814 18.7922C560.502 18.0676 556.071 18.8424 552.265 20.9861C548.459 23.1298 545.511 26.5119 543.917 30.5636C542.322 34.6154 542.179 39.0898 543.51 43.2345C544.841 47.3793 547.566 50.9418 551.226 53.323C554.886 55.7042 559.259 56.7589 563.609 56.3098C567.959 55.8608 572.021 53.9353 575.112 50.8571C576.969 49.0143 578.422 46.808 579.378 44.3778C580.335 41.9475 580.774 39.3463 580.668 36.7386Z" fill="white"/>
<path d="M553.559 71.9248C553.559 71.9248 557.026 72.7092 556.454 75.6145C555.882 78.5199 551.625 78.2827 550.678 78.2827C549.732 78.2827 553.559 71.9248 553.559 71.9248Z" fill="#FF6970"/>
<path d="M552.083 78.4013C549.66 79.97 542.514 78.8723 542.514 78.8723L541.899 79.9938L541.567 80.5985C541.567 80.5985 543.028 80.402 546.064 80.441C546.19 80.441 546.314 80.4495 546.44 80.4613C547.095 80.5233 547.736 80.6826 548.342 80.934C548.983 81.1863 549.574 81.5493 550.088 82.0063C551.215 83.0482 551.937 84.2747 551.979 84.7575C552.058 85.6605 552.848 89.5857 548.351 91.4289C546.463 92.2048 544.372 92.1472 542.582 91.8236C541.07 91.5443 539.601 91.0688 538.213 90.409L533.362 89.9008C533.362 89.9008 543.342 93.9818 545.708 95.5709C548.075 97.16 548.548 100.928 547.365 103.364C546.551 105.037 543.59 105.905 541.821 106.294C541.019 106.464 540.459 106.542 540.459 106.542C540.745 106.861 540.969 107.231 541.118 107.633C541.506 108.703 541.671 109.841 541.603 110.977C541.547 112.356 540.556 113.581 539.257 114.35C538.713 114.675 538.122 114.913 537.505 115.056C537.049 115.146 536.589 115.209 536.126 115.246C533.401 115.505 528 115.668 522.989 115.924L521.716 115.988C520.704 116.042 519.722 116.1 518.796 116.157C516.718 116.298 513.223 116.695 509.208 117.199C499.976 118.363 488.003 120.106 484.264 120.709C478.9 121.572 467.599 122.573 462.333 124.162C457.067 125.751 445.058 134.64 441.39 137.466C437.722 140.291 429.587 146.626 429.587 146.626C429.587 146.626 418.94 151.584 416.228 135.848C413.515 120.111 421.646 102.762 424.52 100.972C433.856 95.1525 445.791 87.9272 448.686 87.2699C452.044 86.5041 456.763 82.6535 459.22 80.1547C459.537 79.8345 459.813 79.5364 460.046 79.2687C462.089 76.9139 466.041 70.4781 468.25 68.0453C470.458 65.6126 476.218 55.094 477.558 54.0742C478.898 53.0543 483.712 49.0512 485.842 45.6037C487.972 42.1563 490.732 40.5808 492.705 39.954C492.894 39.893 493.169 39.81 493.511 39.7049C496.746 38.7257 506.037 36.0288 506.037 36.0288C506.417 35.9169 506.795 36.0474 507.11 36.3676C508.244 37.5348 508.597 41.2262 505.484 45.5157C501.508 50.996 497.413 51.589 497.124 52.3394C496.414 54.3012 492.625 60.3999 492.47 61.0691C492.273 61.9161 492.196 63.9694 492.196 63.9694C493.497 63.3815 499.314 62.9936 499.314 62.9936L547.058 67.3508C547.058 67.3508 553.212 70.3527 554.278 72.3534C555.344 74.3541 554.506 76.8309 552.083 78.4013Z" fill="#B96B43"/>
<path d="M548.352 91.4289C546.464 92.2048 544.373 92.1472 542.584 91.8236C541.071 91.5444 539.603 91.0688 538.215 90.4091L533.364 89.9008C533.364 89.9008 543.343 93.9819 545.71 95.571C545.956 95.7349 546.184 95.924 546.391 96.1351C546.426 96.1678 546.459 96.2023 546.49 96.2384C547.682 97.9139 540.455 106.527 540.455 106.527L540.263 107.777L539.253 114.335C538.71 114.66 538.119 114.898 537.501 115.041C537.046 115.131 536.585 115.194 536.122 115.231C533.398 115.49 527.997 115.653 522.986 115.908L521.712 115.973L520.289 84.4103L541.899 80.0057L543.362 79.7058L546.44 80.4732L548.342 80.9459C548.983 81.1982 549.574 81.5612 550.087 82.0182C551.215 83.0601 551.937 84.2866 551.979 84.7694C552.059 85.6605 552.849 89.5857 548.352 91.4289Z" fill="#8C4A2A"/>
<path d="M505.477 45.514C501.502 50.9944 497.407 51.5873 497.117 52.3378C497.141 52.2057 497.694 48.9496 495.222 44.4942C494.829 42.7662 497.747 48.4177 501.454 45.2785C505.161 42.1394 506.916 39.1391 507.103 36.3608C508.237 37.5298 508.592 41.2212 505.477 45.514Z" fill="#8C4A2A"/>
<path d="M479.881 107.797C479.845 113.635 476.763 112.62 471.556 111.207C466.35 109.794 455.938 115.443 446.117 124.748C438.805 131.67 426.253 139.439 418.896 143.397C423.02 149.665 429.544 146.643 429.58 146.627L441.383 137.462C445.051 134.637 457.061 125.748 462.326 124.159C467.591 122.57 478.893 121.568 484.257 120.704C488.003 120.103 499.969 118.358 509.201 117.196L510.486 113.681C510.486 113.681 479.918 101.959 479.881 107.797Z" fill="#8C4A2A"/>
<path d="M536.119 115.243C533.394 115.502 527.993 115.665 522.982 115.91L529.735 111.05C529.912 111.758 532.769 115.448 536.119 115.243Z" fill="#8C4A2A"/>
<path d="M493.504 39.6863C491.29 41.211 488.238 43.6793 486.898 46.4491C485.323 49.7068 481.304 55.2787 479.508 57.7504C477.712 60.222 466.172 71.874 466.876 75.7704C467.579 79.6668 470.07 82.4908 475.389 80.9882C480.708 79.4855 473.082 89.938 470.419 89.7449C467.93 89.5653 461.092 88.781 459.2 80.1564C459.517 79.8362 459.793 79.5363 460.026 79.2704C462.069 76.9156 466.021 70.4797 468.229 68.047C470.438 65.6143 476.198 55.0957 477.538 54.0759C478.878 53.056 483.691 49.0529 485.821 45.6054C487.951 42.158 490.712 40.5825 492.685 39.9539C492.888 39.8811 493.162 39.7964 493.504 39.6863Z" fill="#8C4A2A"/>
<path d="M520.059 121.402L484.11 109.852C480.686 108.714 478.767 104.431 480.204 101.138L511.76 28.7611C512.304 27.5095 513.29 26.4994 514.531 25.9216C515.773 25.3439 517.184 25.2385 518.498 25.6254L553.883 36.0694C554.625 36.2884 555.314 36.6586 555.905 37.1563C556.496 37.6541 556.977 38.2687 557.317 38.9611C557.657 39.6535 557.849 40.4086 557.88 41.1785C557.911 41.9484 557.781 42.7164 557.498 43.4337L528.256 117.589C527.641 119.149 526.448 120.414 524.922 121.123C523.397 121.833 521.656 121.933 520.059 121.402Z" fill="#190B2B"/>
<path d="M536.425 92.3928C536.425 92.3928 543.078 94.1767 544.598 96.2892C546.119 98.4018 534.186 96.9364 534.186 96.9364L536.425 92.3928Z" fill="#8C4A2A"/>
<path d="M520.524 123.564L484.086 112.383C482.99 112.046 482.011 111.41 481.259 110.549C480.507 109.687 480.012 108.633 479.83 107.506C479.659 106.438 479.249 104.724 479.75 102.762L480.853 102.647L511.988 31.7003C513.054 29.0863 513.974 27.1178 516.71 27.8564L556.752 38.0481C557.168 38.5681 557.547 39.1166 557.886 39.6896C558.775 41.3109 558.397 43.7554 557.465 45.6308L529.173 119.293C527.973 122.559 523.866 124.587 520.524 123.564Z" fill="#190B2B"/>
<path d="M522.141 120.105C521.611 120.104 521.083 120.018 520.58 119.851L484.337 108.187C483.743 107.99 483.198 107.672 482.734 107.254C482.271 106.836 481.9 106.326 481.645 105.758C481.39 105.189 481.257 104.574 481.253 103.952C481.25 103.33 481.377 102.713 481.626 102.142L513.454 28.9272C513.839 28.0415 514.537 27.3271 515.415 26.9196C516.294 26.512 517.293 26.4397 518.222 26.7164L553.416 37.6365C553.941 37.7909 554.427 38.0521 554.845 38.4036C555.263 38.7551 555.602 39.1891 555.843 39.6781C556.083 40.1672 556.218 40.7005 556.24 41.2444C556.262 41.7883 556.17 42.3307 555.97 42.8373L526.725 116.993C526.367 117.912 525.737 118.701 524.919 119.257C524.101 119.813 523.132 120.108 522.141 120.105Z" fill="white"/>
<path d="M522.141 120.105C521.611 120.104 521.083 120.018 520.58 119.851L484.337 108.187C483.743 107.99 483.198 107.672 482.734 107.254C482.271 106.836 481.9 106.326 481.645 105.758C481.39 105.189 481.257 104.574 481.253 103.952C481.25 103.33 481.377 102.713 481.626 102.142L513.454 28.9272C513.839 28.0415 514.537 27.3271 515.415 26.9196C516.294 26.512 517.293 26.4397 518.222 26.7164L553.416 37.6365C553.941 37.7909 554.427 38.0521 554.845 38.4036C555.263 38.7551 555.602 39.1891 555.843 39.6781C556.083 40.1672 556.218 40.7005 556.24 41.2444C556.262 41.7883 556.17 42.3307 555.97 42.8373L526.725 116.993C526.367 117.912 525.737 118.701 524.919 119.257C524.101 119.813 523.132 120.108 522.141 120.105Z" fill="white"/>
<path d="M522.983 108.822C522.897 108.822 522.812 108.808 522.731 108.781L514.328 106.071C514.121 106.003 513.95 105.857 513.851 105.664C513.753 105.471 513.736 105.247 513.803 105.041C513.871 104.835 514.018 104.664 514.212 104.567C514.407 104.469 514.632 104.452 514.839 104.519L523.241 107.23C523.427 107.29 523.584 107.414 523.686 107.579C523.788 107.745 523.827 107.941 523.796 108.133C523.766 108.324 523.668 108.499 523.52 108.625C523.373 108.751 523.184 108.821 522.989 108.822H522.983Z" fill="#74EB3D"/>
<path d="M510.625 104.844C510.538 104.844 510.453 104.83 510.371 104.804L491.314 98.6711C491.212 98.6377 491.117 98.5846 491.035 98.5148C490.954 98.4449 490.887 98.3598 490.838 98.2641C490.789 98.1685 490.76 98.0642 490.752 97.9573C490.743 97.8504 490.756 97.743 490.79 97.6411C490.824 97.5392 490.877 97.4449 490.947 97.3635C491.017 97.2821 491.103 97.2153 491.199 97.1669C491.295 97.1184 491.4 97.0893 491.507 97.0811C491.615 97.0729 491.723 97.0859 491.825 97.1193L510.882 103.252C511.067 103.312 511.224 103.436 511.326 103.602C511.428 103.767 511.467 103.963 511.437 104.155C511.406 104.346 511.309 104.521 511.161 104.647C511.013 104.774 510.825 104.843 510.63 104.844H510.625Z" fill="#74EB3D"/>
<path d="M521.661 112.193C521.575 112.193 521.489 112.179 521.407 112.153L513.005 109.442C512.798 109.375 512.626 109.228 512.528 109.035C512.43 108.842 512.412 108.618 512.48 108.412C512.548 108.206 512.695 108.036 512.889 107.938C513.083 107.84 513.309 107.823 513.515 107.89L521.92 110.601C522.105 110.661 522.263 110.785 522.364 110.951C522.466 111.116 522.505 111.312 522.475 111.504C522.445 111.695 522.347 111.87 522.199 111.996C522.051 112.123 521.863 112.192 521.668 112.193H521.661Z" fill="#74EB3D"/>
<path d="M509.301 108.219C509.216 108.219 509.131 108.206 509.049 108.18L489.993 102.046C489.786 101.978 489.615 101.832 489.516 101.639C489.418 101.446 489.401 101.221 489.468 101.016C489.536 100.81 489.683 100.639 489.877 100.541C490.072 100.444 490.297 100.427 490.504 100.494L509.56 106.627C509.745 106.687 509.903 106.811 510.005 106.976C510.106 107.142 510.145 107.338 510.115 107.529C510.085 107.721 509.987 107.896 509.839 108.022C509.691 108.148 509.503 108.218 509.308 108.219H509.301Z" fill="#74EB3D"/>
<path d="M497.195 38.5969C497.003 38.5969 501.716 36.2981 504.018 35.4273C506.121 34.6328 507.134 34.2414 506.306 36.6437C505.675 38.0972 499.167 38.5969 497.195 38.5969Z" fill="#FF6970"/>
<path d="M540.464 106.538L540.272 107.789L539.262 114.347C539.141 114.391 536.892 115.194 535.221 114.934C532.62 114.543 532.012 112.293 532.226 109.781C532.371 108.087 533.284 106.054 534.78 105.522C535.034 105.431 535.301 105.387 535.571 105.392C537.047 105.417 540.464 106.538 540.464 106.538Z" fill="#B96B43"/>
<path d="M541.123 107.629C540.846 107.715 540.561 107.769 540.272 107.789C538.857 107.902 537.164 107.408 536.638 106.813C536.298 106.427 535.506 105.93 534.782 105.522C535.036 105.432 535.303 105.388 535.572 105.393C537.047 105.415 540.464 106.538 540.464 106.538C540.75 106.858 540.974 107.228 541.123 107.629Z" fill="#8C4A2A"/>
<path d="M540.464 106.538C540.464 106.538 536.602 107.357 535.572 104.506C534.542 101.654 536.282 96.5789 538.768 95.9504C541.254 95.3219 544.697 94.8035 546.386 96.1418C546.421 96.1746 546.453 96.2091 546.485 96.2452C547.697 97.9257 540.464 106.538 540.464 106.538Z" fill="#B96B43"/>
<path d="M548.352 91.4289C546.464 92.2048 544.373 92.1472 542.584 91.8236H542.562C542.562 91.8236 540.266 89.867 541.608 85.9807C542.694 82.8331 543.404 80.5241 547.006 81.0679C547.857 81.1966 549.371 81.3762 550.089 82.0132C550.925 82.7535 551.938 84.2799 551.981 84.7644C552.059 85.6605 552.849 89.5841 548.352 91.4289Z" fill="#B96B43"/>
<path d="M545.039 82.9923C545.039 82.9923 546.813 84.7575 546.537 86.5245C546.262 88.2914 544.961 89.235 545.039 89.545C545.117 89.855 549.141 90.1346 549.773 87.4257C550.404 84.7169 548.111 82.7297 545.039 82.9923Z" fill="#FF6970"/>
<path d="M539.32 99.474C539.32 99.474 540.701 100.66 540.74 102.339C540.779 104.018 539.122 104.929 539.083 105.322C539.044 105.715 544.605 104.497 544.605 101.436C544.605 98.3746 541.331 98.3746 540.069 98.7252C538.807 99.0759 539.32 99.474 539.32 99.474Z" fill="#FF6970"/>
<path d="M535.494 107.797C535.78 108.111 536.677 109.442 536.48 110.338C536.282 111.234 535.179 112.065 535.218 112.371C535.257 112.678 538.61 112.764 539.083 111.429C539.557 110.094 539.083 108.38 537.821 107.784C536.56 107.187 535.182 107.45 535.494 107.797Z" fill="#FF6970"/>
<path d="M491.968 116.09C491.968 116.09 490.883 115.229 489.661 115.324C487.916 115.458 486.857 117.006 486.899 118.817C486.899 120.1 487.65 119.93 489.858 120.1C492.067 120.269 491.968 116.09 491.968 116.09Z" fill="#FF6970"/>
<path d="M523.284 127.191C523.284 127.191 522.034 124.989 518.744 123.83C515.557 122.705 505.99 118.39 505.99 118.39L494.752 116.212C494.752 116.212 489.106 114.33 487.89 117.33C486.674 120.33 488.718 121.333 492.031 123.041C495.345 124.748 499.426 128.721 501.556 129.751C502.627 130.269 508.35 132.595 508.583 133.017C508.816 133.439 509.543 133.4 502.326 131.399L495.108 129.399L495.278 136.756L514.389 140.112L518.799 130.645L523.284 127.191Z" fill="#8C4A2A"/>
<path d="M526.934 148.803C524.721 151.63 524.891 152.65 525.594 155.631C526.298 158.613 525.041 163.009 521.728 164.737C518.414 166.465 517.641 166.543 517.054 169.25C516.466 171.957 515.041 173.135 513.092 174.373C511.142 175.612 508.535 177.197 507.883 178.021C507.231 178.844 505.813 178.846 505.813 178.846L502.028 183.731C502.028 183.731 489.779 188.441 485.283 189.152C485.243 189.158 485.202 189.166 485.163 189.176C480.448 190.137 461.238 205.799 461.238 205.799C461.238 205.799 450.184 209.937 443.125 201.662C442.596 201.038 442.111 200.378 441.674 199.688C440.827 198.328 440.13 196.882 439.594 195.373C439.316 194.611 439.073 193.869 438.856 193.149C435.655 182.476 439.417 175.923 439.417 175.923C439.417 175.923 442.325 174.678 446.888 172.115C451.082 169.757 456.035 166.57 459.604 163.016C467.061 155.599 468.117 147.476 468.658 143.238C469.2 138.999 475.105 132.526 478.42 128.523C481.735 124.52 489.935 119.453 492.542 113.488C495.149 107.523 499.089 101.56 501.226 100.933C503.363 100.306 511.222 99.9163 510.493 106.662C509.765 113.408 506.354 119.171 504.381 121.748C502.407 124.325 500.199 129.739 499.884 131.15C499.569 132.561 500.199 133.429 505.089 133.663C509.979 133.896 510.771 133.937 510.732 132.682C510.732 132.595 510.793 130.361 512.15 128.599C513.478 126.873 516.356 125.582 516.271 125.343C516.185 125.104 513.81 126.021 512.23 127.344C510.723 128.612 509.601 130.12 509.319 128.634C509.036 127.149 508.719 126.202 509.606 125.019C510.493 123.837 515.552 124.077 517.672 124.44C519.621 124.779 521.343 125.118 522.502 126.278C523.996 127.779 524.861 129.925 525.128 131.074C525.601 133.107 527.021 138.137 528.046 140.256C529.071 142.375 529.143 145.979 526.934 148.803Z" fill="#B96B43"/>
<path d="M526.935 148.803C524.721 151.63 524.891 152.65 525.595 155.631C526.298 158.613 525.041 163.009 521.728 164.737C518.414 166.465 517.641 166.543 517.054 169.25C516.466 171.957 515.041 173.135 513.092 174.373C511.142 175.612 508.535 177.197 507.883 178.021C507.231 178.844 505.813 178.846 505.813 178.846L502.028 183.731C502.028 183.731 489.779 188.441 485.284 189.152C485.243 189.158 485.202 189.166 485.163 189.176C480.448 190.137 461.238 205.799 461.238 205.799C461.238 205.799 450.184 209.937 443.125 201.662C443.125 201.662 442.691 201.14 442.34 200.665C441.989 200.191 441.674 199.688 441.674 199.688C440.827 198.328 440.13 196.882 439.594 195.373C439.316 194.611 439.073 193.869 438.856 193.149C448.683 188.639 473.828 177.916 475.817 174.556C478.183 170.553 480.846 166.135 483.211 162.133C485.576 158.132 505.385 151.835 510.487 147.939C518.746 141.64 524.409 134.791 528.04 140.246C529.065 142.368 529.143 145.979 526.935 148.803Z" fill="#8C4A2A"/>
<path d="M502.086 99.6706C502.086 99.6706 504.299 97.4683 506.187 97.9443C508.076 98.4204 509.579 99.6706 509.974 100.064C510.369 100.457 511.079 103.045 509.974 105.087C508.869 107.128 508.081 109.012 505.794 107.45C503.507 105.888 502.086 105.317 500.902 105.402C499.719 105.486 498.832 104.8 499.778 103.328C500.725 101.856 502.086 99.6706 502.086 99.6706Z" fill="#FF6970"/>
<path d="M494.275 113.483C494.275 113.483 497.824 113.289 500.746 114.623C503.272 115.775 505.234 118.556 505.183 117.716C504.02 115.363 503.547 114.667 500.96 113.503C497.865 112.115 492.634 113.318 494.275 113.483Z" fill="#8C4A2A"/>
<path d="M496.918 110.01C496.288 109.671 500.565 109.986 502.017 110.469C503.225 110.87 504.604 111.882 504.98 112.84C504.43 113.179 502.659 111.61 501.435 110.977C500.645 110.572 497.55 110.34 496.918 110.01Z" fill="#8C4A2A"/>
<path d="M548.346 44.8261C548.269 44.8264 548.194 44.8149 548.121 44.7922L527.634 38.5868C527.537 38.5574 527.447 38.5093 527.369 38.4453C527.291 38.3813 527.226 38.3025 527.178 38.2136C527.13 38.1246 527.101 38.0272 527.091 37.9268C527.081 37.8265 527.091 37.7252 527.121 37.6288C527.15 37.5323 527.199 37.4426 527.263 37.3648C527.327 37.2869 527.407 37.2224 527.496 37.175C527.585 37.1276 527.683 37.0981 527.784 37.0883C527.885 37.0786 527.987 37.0886 528.084 37.118L548.57 43.3252C548.747 43.3791 548.898 43.4942 548.996 43.6495C549.095 43.8049 549.134 43.9902 549.107 44.1718C549.079 44.3534 548.988 44.5193 548.848 44.6393C548.708 44.7594 548.53 44.8257 548.346 44.8261Z" fill="#58D120"/>
<path d="M524.086 37.484C524.01 37.4834 523.934 37.472 523.861 37.4501L517.616 35.5528C517.427 35.4877 517.271 35.3525 517.181 35.1756C517.091 34.9987 517.073 34.7938 517.131 34.6039C517.189 34.4141 517.319 34.254 517.493 34.1574C517.667 34.0608 517.872 34.0351 518.065 34.0857L524.299 35.9746C524.481 36.0224 524.64 36.1352 524.745 36.2917C524.849 36.4481 524.893 36.6373 524.866 36.8234C524.84 37.0095 524.746 37.1796 524.602 37.3013C524.459 37.4231 524.275 37.4881 524.086 37.484Z" fill="#58D120"/>
<path d="M502.661 92.6808L498.687 91.4763L503.664 80.1682L507.636 81.3727L502.661 92.6808Z" fill="#9FFF3D"/>
<path d="M506.633 93.8853L502.661 92.6808L505.271 86.7007L509.245 87.9052L506.633 93.8853Z" fill="#78CBFF"/>
<path d="M510.606 95.0898L506.633 93.8853L513.899 77.2155L517.871 78.42L510.606 95.0898Z" fill="#FFDC52"/>
<path d="M514.58 96.2943L510.606 95.0898L516.5 81.5659L520.473 82.7704L514.58 96.2943Z" fill="#FF78F2"/>
<path d="M518.552 97.4988L514.58 96.2943L517.086 90.5446L520.992 92.015L518.552 97.4988Z" fill="#FFA140"/>
<path d="M522.526 98.705L518.552 97.4988L523.975 85.1844L527.948 86.3889L522.526 98.705Z" fill="#FF7645"/>
<path d="M524.683 100.084C524.632 100.084 524.581 100.077 524.532 100.062L496.415 91.5423C496.351 91.5227 496.291 91.4907 496.239 91.4481C496.187 91.4054 496.144 91.353 496.112 91.2938C496.08 91.2345 496.061 91.1697 496.054 91.1029C496.048 91.0361 496.054 90.9687 496.074 90.9045C496.094 90.8403 496.126 90.7806 496.169 90.7288C496.212 90.677 496.264 90.6341 496.324 90.6026C496.383 90.571 496.449 90.5515 496.516 90.545C496.583 90.5385 496.651 90.5453 496.715 90.5648L524.832 99.0844C524.953 99.1161 525.059 99.1914 525.128 99.2958C525.198 99.4002 525.226 99.5264 525.207 99.6502C525.189 99.774 525.125 99.8867 525.029 99.9667C524.932 100.047 524.809 100.088 524.683 100.084Z" fill="#452D85"/>
<path d="M536.49 63.7847C534.946 66.7748 532.327 69.1245 529.279 70.5289L524.953 59.6765L534.569 51.0164C537.975 54.0284 538.944 59.0345 536.49 63.7847Z" fill="#9FFF3D"/>
<path d="M529.279 70.5289C525.858 72.1078 521.928 72.4822 518.452 71.2455C517.053 70.7597 515.77 69.9934 514.682 68.994C511.149 65.7075 510.502 60.3542 513.415 55.5735C516.691 50.188 523.4 47.3233 529.179 48.4447C529.794 48.5633 530.399 48.7286 530.988 48.9394C532.304 49.3989 533.517 50.1057 534.564 51.0215L524.952 59.6766L529.279 70.5289Z" fill="#FFA140"/>
<path d="M534.569 51.0181L524.953 59.6766L529.179 48.4397C529.794 48.5582 530.399 48.7236 530.989 48.9344C532.306 49.3938 533.521 50.1012 534.569 51.0181Z" fill="#FF7645"/>
<path d="M529.279 70.5288C525.858 72.1077 521.928 72.4821 518.452 71.2455C517.053 70.7596 515.77 69.9933 514.682 68.994L524.952 59.6765L529.279 70.5288Z" fill="#FFDC52"/>
</svg>
