<svg width="551" height="213" viewBox="0 0 551 213" fill="none" xmlns="http://www.w3.org/2000/svg">
<g filter="url(#filter0_d_1267_2505)">
<path fill-rule="evenodd" clip-rule="evenodd" d="M21.6033 10H107.937C110.057 19.8193 118.788 27.1769 129.237 27.1769C139.686 27.1769 148.417 19.8193 150.537 10H529.397C533.044 10 536 12.9578 536 16.6065V186.394C536 190.042 533.044 193 529.397 193H151.028C151.028 180.959 141.272 171.199 129.237 171.199C117.202 171.199 107.446 180.959 107.446 193H21.6033C17.9564 193 15 190.042 15 186.394V16.6065C15 12.9578 17.9564 10 21.6033 10Z" fill="white"/>
</g>
<path d="M187 30.3134C187 29.588 187.597 29 188.333 29H249.667C250.403 29 251 29.588 251 30.3134V71.6866C251 72.412 250.403 73 249.667 73H188.333C187.597 73 187 72.412 187 71.6866V30.3134Z" fill="#156C52"/>
<path d="M78 35.3146C78 34.5885 78.6076 34 79.3571 34H95.6429C96.3924 34 97 34.5885 97 35.3146V172.685C97 173.411 96.3924 174 95.6429 174H79.3571C78.6076 174 78 173.411 78 172.685V35.3146Z" fill="#156C52"/>
<path fill-rule="evenodd" clip-rule="evenodd" d="M323 99.5C323 99.2239 323.149 99 323.333 99L346.667 99C346.851 99 347 99.2239 347 99.5C347 99.7761 346.851 100 346.667 100L323.333 100C323.149 100 323 99.7761 323 99.5Z" fill="#156C52"/>
<path fill-rule="evenodd" clip-rule="evenodd" d="M329 128.5C329 128.224 329.143 128 329.32 128H344.68C344.857 128 345 128.224 345 128.5C345 128.776 344.857 129 344.68 129H329.32C329.143 129 329 128.776 329 128.5Z" fill="#156C52"/>
<path d="M281 45.2935V56.7065H284.314V45.2935H281ZM285.32 56.7065C286.629 56.7065 287.75 56.4783 288.684 56.0217C289.63 55.5543 290.355 54.8967 290.861 54.0489C291.378 53.1902 291.636 52.1739 291.636 51C291.636 49.8152 291.378 48.7989 290.861 47.9511C290.355 47.1033 289.63 46.4511 288.684 45.9946C287.75 45.5272 286.629 45.2935 285.32 45.2935H283.177V48.0652H285.188C285.573 48.0652 285.947 48.1087 286.31 48.1957C286.683 48.2717 287.019 48.4185 287.316 48.6359C287.612 48.8424 287.849 49.1413 288.025 49.5326C288.212 49.913 288.305 50.4022 288.305 51C288.305 51.5978 288.212 52.0924 288.025 52.4837C287.849 52.8641 287.612 53.163 287.316 53.3804C287.019 53.587 286.683 53.7337 286.31 53.8207C285.947 53.8967 285.573 53.9348 285.188 53.9348H283.177V56.7065H285.32Z" fill="#D21B33"/>
<path d="M296.204 51C296.204 50.3587 296.347 49.8152 296.633 49.3696C296.93 48.913 297.32 48.5707 297.803 48.3424C298.287 48.1033 298.82 47.9837 299.403 47.9837C299.953 47.9837 300.431 48.0543 300.838 48.1957C301.244 48.337 301.607 48.5217 301.926 48.75C302.245 48.9674 302.525 49.2011 302.767 49.4511V46.125C302.316 45.788 301.816 45.5163 301.266 45.3098C300.728 45.1033 300.035 45 299.189 45C298.232 45 297.353 45.1413 296.55 45.4239C295.748 45.7065 295.061 46.1141 294.489 46.6467C293.917 47.1793 293.472 47.8152 293.153 48.5543C292.846 49.2826 292.692 50.0978 292.692 51C292.692 51.9022 292.846 52.7228 293.153 53.462C293.472 54.1902 293.917 54.8207 294.489 55.3533C295.061 55.8859 295.748 56.2935 296.55 56.5761C297.353 56.8587 298.232 57 299.189 57C300.035 57 300.728 56.8967 301.266 56.6902C301.816 56.4728 302.316 56.2011 302.767 55.875V52.5489C302.525 52.7989 302.245 53.038 301.926 53.2663C301.607 53.4837 301.244 53.663 300.838 53.8043C300.431 53.9457 299.953 54.0163 299.403 54.0163C298.82 54.0163 298.287 53.9022 297.803 53.6739C297.32 53.4348 296.93 53.0924 296.633 52.6467C296.347 52.1902 296.204 51.6413 296.204 51Z" fill="#D21B33"/>
<path d="M309.79 48.8967L312.741 48.212V56.7065H315.808V45.0652L309.79 46.2065V48.8967Z" fill="#D21B33"/>
<path d="M321.157 51C321.157 50.5 321.201 50.0489 321.289 49.6467C321.388 49.2446 321.52 48.9022 321.684 48.6196C321.849 48.337 322.047 48.125 322.278 47.9837C322.509 47.8315 322.762 47.7554 323.037 47.7554C323.322 47.7554 323.575 47.8315 323.795 47.9837C324.026 48.125 324.224 48.337 324.389 48.6196C324.565 48.9022 324.697 49.2446 324.784 49.6467C324.883 50.0489 324.933 50.5 324.933 51C324.933 51.5 324.883 51.9511 324.784 52.3533C324.697 52.7554 324.565 53.0978 324.389 53.3804C324.224 53.663 324.026 53.8804 323.795 54.0326C323.575 54.1739 323.322 54.2446 323.037 54.2446C322.762 54.2446 322.509 54.1739 322.278 54.0326C322.047 53.8804 321.849 53.663 321.684 53.3804C321.52 53.0978 321.388 52.7554 321.289 52.3533C321.201 51.9511 321.157 51.5 321.157 51ZM318.09 51C318.09 52.2717 318.299 53.3478 318.716 54.2283C319.134 55.1087 319.711 55.7826 320.448 56.25C321.195 56.7065 322.058 56.9348 323.037 56.9348C324.07 56.9348 324.955 56.7065 325.691 56.25C326.428 55.7826 326.994 55.1087 327.39 54.2283C327.797 53.3478 328 52.2717 328 51C328 49.7283 327.797 48.6522 327.39 47.7717C326.994 46.8913 326.428 46.2228 325.691 45.7663C324.955 45.2989 324.07 45.0652 323.037 45.0652C322.058 45.0652 321.195 45.2989 320.448 45.7663C319.711 46.2228 319.134 46.8913 318.716 47.7717C318.299 48.6522 318.09 49.7283 318.09 51Z" fill="#D21B33"/>
<path d="M32.0905 165L41.632 165L41.632 162.362L32.0905 162.362L32.0905 165ZM41.632 161.562C41.632 160.521 41.4411 159.629 41.0595 158.885C40.6687 158.133 40.119 157.555 39.4102 157.153C38.6923 156.742 37.8426 156.536 36.8612 156.536C35.8707 156.536 35.0211 156.742 34.3123 157.153C33.6035 157.555 33.0582 158.133 32.6766 158.885C32.2858 159.629 32.0905 160.521 32.0905 161.562L32.0905 163.268L34.4077 163.268L34.4077 161.667C34.4077 161.361 34.444 161.063 34.5167 160.775C34.5803 160.477 34.703 160.21 34.8848 159.974C35.0574 159.738 35.3073 159.55 35.6344 159.41C35.9525 159.261 36.3614 159.187 36.8612 159.187C37.361 159.187 37.7745 159.261 38.1016 159.41C38.4197 159.55 38.6696 159.738 38.8513 159.974C39.024 160.21 39.1466 160.477 39.2193 160.775C39.2829 161.063 39.3147 161.361 39.3147 161.667L39.3147 163.268L41.632 163.268L41.632 161.562Z" fill="#D21B33"/>
<path d="M36.8612 152.901C36.3251 152.901 35.8707 152.787 35.4981 152.56C35.1165 152.324 34.8302 152.013 34.6394 151.628C34.4395 151.243 34.3395 150.819 34.3395 150.355C34.3395 149.918 34.3986 149.537 34.5167 149.214C34.6349 148.89 34.7893 148.601 34.9802 148.348C35.1619 148.094 35.3573 147.871 35.5663 147.678L32.7856 147.678C32.5039 148.037 32.2767 148.435 32.1041 148.872C31.9314 149.301 31.8451 149.852 31.8451 150.526C31.8451 151.287 31.9632 151.987 32.1995 152.625C32.4358 153.264 32.7765 153.811 33.2218 154.266C33.6671 154.721 34.1987 155.075 34.8166 155.329C35.4254 155.574 36.107 155.696 36.8612 155.696C37.6155 155.696 38.3015 155.574 38.9195 155.329C39.5283 155.075 40.0554 154.721 40.5006 154.266C40.9459 153.811 41.2867 153.264 41.5229 152.625C41.7592 151.987 41.8773 151.287 41.8773 150.526C41.8773 149.852 41.791 149.301 41.6183 148.872C41.4366 148.435 41.2094 148.037 40.9368 147.678L38.1561 147.678C38.3651 147.871 38.5651 148.094 38.7559 148.348C38.9376 148.601 39.0876 148.89 39.2057 149.214C39.3238 149.537 39.3829 149.918 39.3829 150.355C39.3829 150.819 39.2875 151.243 39.0967 151.628C38.8967 152.013 38.6105 152.324 38.2379 152.56C37.8563 152.787 37.3974 152.901 36.8612 152.901Z" fill="#D21B33"/>
<path d="M35.1029 142.09L34.5304 139.741L41.632 139.741L41.632 137.3L31.8996 137.3L32.8538 142.09L35.1029 142.09Z" fill="#D21B33"/>
<path d="M36.8612 133.044C36.4432 133.044 36.0661 133.009 35.7299 132.939C35.3936 132.86 35.1074 132.755 34.8711 132.624C34.6349 132.493 34.4577 132.335 34.3395 132.152C34.2123 131.968 34.1487 131.767 34.1487 131.548C34.1487 131.321 34.2123 131.119 34.3395 130.944C34.4577 130.761 34.6349 130.603 34.8711 130.472C35.1074 130.332 35.3936 130.227 35.7299 130.157C36.0661 130.078 36.4432 130.039 36.8612 130.039C37.2792 130.039 37.6563 130.078 37.9926 130.157C38.3288 130.227 38.615 130.332 38.8513 130.472C39.0876 130.603 39.2693 130.761 39.3965 130.944C39.5147 131.119 39.5737 131.321 39.5737 131.548C39.5737 131.767 39.5147 131.968 39.3965 132.152C39.2693 132.335 39.0876 132.493 38.8513 132.624C38.615 132.755 38.3288 132.86 37.9926 132.939C37.6563 133.009 37.2792 133.044 36.8612 133.044ZM36.8612 135.485C37.9244 135.485 38.824 135.319 39.5601 134.986C40.2962 134.654 40.8596 134.194 41.2503 133.608C41.632 133.013 41.8228 132.327 41.8228 131.548C41.8228 130.726 41.632 130.022 41.2503 129.435C40.8596 128.849 40.2962 128.399 39.5601 128.084C38.824 127.76 37.9244 127.598 36.8612 127.598C35.798 127.598 34.8984 127.76 34.1623 128.084C33.4263 128.399 32.8674 128.849 32.4857 129.435C32.095 130.022 31.8996 130.726 31.8996 131.548C31.8996 132.327 32.095 133.013 32.4857 133.608C32.8674 134.194 33.4263 134.654 34.1623 134.986C34.8984 135.319 35.798 135.485 36.8612 135.485Z" fill="#D21B33"/>
<path d="M40.596 122.369C40.9777 122.369 41.3094 122.243 41.5911 121.989C41.8637 121.726 42 121.39 42 120.978C42 120.567 41.8637 120.235 41.5911 119.981C41.3094 119.728 40.9777 119.601 40.596 119.601C40.2053 119.601 39.8736 119.728 39.601 119.981C39.3193 120.235 39.1784 120.567 39.1784 120.978C39.1784 121.39 39.3193 121.726 39.601 121.989C39.8736 122.243 40.2053 122.369 40.596 122.369ZM35.5254 122.369C35.9071 122.369 36.2387 122.243 36.5204 121.989C36.7931 121.726 36.9294 121.39 36.9294 120.978C36.9294 120.567 36.7931 120.235 36.5204 119.981C36.2387 119.728 35.9071 119.601 35.5254 119.601C35.1347 119.601 34.803 119.728 34.5304 119.981C34.2487 120.235 34.1078 120.567 34.1078 120.978C34.1078 121.39 34.2487 121.726 34.5304 121.989C34.803 122.243 35.1347 122.369 35.5254 122.369Z" fill="#D21B33"/>
<path d="M39.6691 112.319C39.5328 112.319 39.4238 112.293 39.342 112.24C39.2511 112.188 39.183 112.1 39.1375 111.978C39.0921 111.855 39.0694 111.694 39.0694 111.492C39.0694 111.204 39.1103 110.928 39.1921 110.666C39.2739 110.403 39.392 110.184 39.5465 110.01L38.5514 110.01C38.4242 110.123 38.3106 110.294 38.2107 110.521C38.1016 110.74 38.0153 110.998 37.9517 111.295C37.8881 111.584 37.8563 111.895 37.8563 112.227C37.8563 112.997 38.0289 113.588 38.3742 113.999C38.7195 114.401 39.1921 114.602 39.7918 114.602C40.2189 114.602 40.5824 114.502 40.8823 114.3C41.1731 114.099 41.3957 113.837 41.5502 113.513C41.6956 113.181 41.7683 112.822 41.7683 112.437C41.7683 112.035 41.6956 111.667 41.5502 111.335C41.4048 110.994 41.1912 110.727 40.9095 110.534C40.6278 110.333 40.2871 110.233 39.8872 110.233L39.0694 110.443C39.3511 110.443 39.5874 110.499 39.7782 110.613C39.9599 110.718 40.0962 110.858 40.1871 111.033C40.2689 111.208 40.3098 111.392 40.3098 111.584C40.3098 111.715 40.2871 111.838 40.2416 111.952C40.1871 112.065 40.1144 112.157 40.0235 112.227C39.9236 112.288 39.8055 112.319 39.6691 112.319ZM37.4201 113.421C37.3746 113.343 37.311 113.203 37.2292 113.001C37.1475 112.8 37.0748 112.568 37.0112 112.306C36.9475 112.035 36.9157 111.772 36.9157 111.519C36.9157 111.335 36.9385 111.173 36.9839 111.033C37.0202 110.893 37.0793 110.779 37.1611 110.692C37.2338 110.604 37.3247 110.543 37.4337 110.508C37.5428 110.464 37.6654 110.443 37.8017 110.443L41.632 110.443L41.632 108.277L37.2429 108.277C36.7976 108.277 36.4205 108.409 36.1115 108.671C35.8026 108.925 35.5708 109.275 35.4164 109.721C35.2528 110.158 35.171 110.652 35.171 111.204C35.171 111.772 35.2482 112.31 35.4027 112.818C35.5481 113.316 35.7071 113.758 35.8798 114.143L37.4201 113.421Z" fill="#D21B33"/>
<path d="M31 106.878L41.632 106.878L41.632 104.608L31 104.608L31 106.878Z" fill="#D21B33"/>
<path d="M31 103.174L41.632 103.174L41.632 100.904L31 100.904L31 103.174Z" fill="#D21B33"/>
<path d="M41.7683 96.1902C41.7683 95.3854 41.6093 94.7074 41.2912 94.1563C40.9732 93.5964 40.4915 93.1546 39.8463 92.8309L39.4238 94.878C39.6601 95.0092 39.8418 95.1929 39.969 95.4291C40.0872 95.6566 40.1462 95.9365 40.1462 96.269C40.1462 96.5402 40.0826 96.7676 39.9554 96.9513C39.8191 97.135 39.6283 97.275 39.3829 97.3712C39.1375 97.4675 38.8377 97.5112 38.4833 97.5024C38.0834 97.5024 37.7563 97.4587 37.5019 97.3712C37.2383 97.2837 37.043 97.1525 36.9157 96.9776C36.7885 96.8026 36.7249 96.5839 36.7249 96.3214C36.7249 96.1115 36.7749 95.9322 36.8748 95.7834C36.9657 95.626 37.102 95.5079 37.2838 95.4291C37.4564 95.3417 37.67 95.2979 37.9244 95.2979C37.988 95.2979 38.0653 95.3154 38.1561 95.3504C38.247 95.3854 38.3288 95.4248 38.4015 95.4685L37.7745 94.983L37.7745 98.5391L38.9876 98.5391L38.9876 92.9097C38.9058 92.9009 38.815 92.8965 38.715 92.8965C38.6059 92.8878 38.4969 92.8834 38.3879 92.8834C37.7063 92.8834 37.1338 93.0146 36.6704 93.2771C36.1979 93.5395 35.8389 93.9201 35.5936 94.4187C35.3482 94.9174 35.2255 95.5341 35.2255 96.269C35.2255 97.0038 35.3573 97.6337 35.6208 98.1586C35.8843 98.6835 36.2615 99.0859 36.7522 99.3658C37.2338 99.6458 37.8154 99.7857 38.4969 99.7857C39.1694 99.7857 39.7509 99.6414 40.2416 99.3527C40.7233 99.064 41.1004 98.6528 41.373 98.1192C41.6365 97.5768 41.7683 96.9338 41.7683 96.1902Z" fill="#D21B33"/>
<path d="M35.3618 89.5002L35.3618 91.7179L41.632 91.7179L41.632 89.5002L35.3618 89.5002ZM37.7745 87.7812L35.7435 86.8364C35.589 86.9326 35.4618 87.0814 35.3618 87.2826C35.2528 87.4838 35.1983 87.6937 35.1983 87.9124C35.1983 88.2624 35.3164 88.5992 35.5527 88.9229C35.7798 89.2378 36.0888 89.4915 36.4796 89.6839C36.8703 89.8764 37.3156 89.9726 37.8154 89.9726L38.7559 89.5002C38.456 89.5002 38.2061 89.4609 38.0062 89.3821C37.8063 89.2946 37.6563 89.1765 37.5564 89.0278C37.4564 88.8791 37.4064 88.7173 37.4064 88.5423C37.4064 88.3673 37.4428 88.223 37.5155 88.1093C37.5791 87.9868 37.6654 87.8774 37.7745 87.7812Z" fill="#D21B33"/>
<path d="M39.3965 82.7758L39.3965 79.9414L37.3928 79.9414L37.3928 82.7758L39.3965 82.7758Z" fill="#D21B33"/>
<path d="M35.3618 73.0077L35.3618 75.2253L41.632 75.2253L41.632 73.0077L35.3618 73.0077ZM37.7745 71.2887L35.7435 70.3439C35.589 70.4401 35.4618 70.5888 35.3618 70.79C35.2528 70.9912 35.1983 71.2012 35.1983 71.4199C35.1983 71.7698 35.3164 72.1066 35.5527 72.4303C35.7798 72.7452 36.0888 72.9989 36.4796 73.1914C36.8703 73.3839 37.3156 73.4801 37.8154 73.4801L38.7559 73.0077C38.456 73.0077 38.2061 72.9683 38.0062 72.8896C37.8063 72.8021 37.6563 72.684 37.5564 72.5353C37.4564 72.3866 37.4064 72.2247 37.4064 72.0498C37.4064 71.8748 37.4428 71.7305 37.5155 71.6167C37.5791 71.4943 37.6654 71.3849 37.7745 71.2887Z" fill="#D21B33"/>
<path d="M41.7683 66.4729C41.7683 65.6681 41.6093 64.9901 41.2912 64.439C40.9732 63.8791 40.4915 63.4373 39.8463 63.1136L39.4238 65.1607C39.6601 65.2919 39.8418 65.4756 39.969 65.7118C40.0872 65.9393 40.1462 66.2192 40.1462 66.5516C40.1462 66.8228 40.0826 67.0503 39.9554 67.234C39.8191 67.4177 39.6283 67.5577 39.3829 67.6539C39.1375 67.7501 38.8377 67.7939 38.4833 67.7851C38.0834 67.7851 37.7563 67.7414 37.5019 67.6539C37.2383 67.5664 37.043 67.4352 36.9157 67.2602C36.7885 67.0853 36.7249 66.8666 36.7249 66.6041C36.7249 66.3942 36.7749 66.2148 36.8748 66.0661C36.9657 65.9087 37.102 65.7905 37.2838 65.7118C37.4564 65.6243 37.67 65.5806 37.9244 65.5806C37.988 65.5806 38.0653 65.5981 38.1561 65.6331C38.247 65.6681 38.3288 65.7074 38.4015 65.7512L37.7745 65.2657L37.7745 68.8218L38.9876 68.8218L38.9876 63.1923C38.9058 63.1836 38.815 63.1792 38.715 63.1792C38.6059 63.1705 38.4969 63.1661 38.3879 63.1661C37.7063 63.1661 37.1338 63.2973 36.6704 63.5598C36.1979 63.8222 35.8389 64.2028 35.5936 64.7014C35.3482 65.2 35.2255 65.8168 35.2255 66.5516C35.2255 67.2865 35.3573 67.9164 35.6208 68.4412C35.8843 68.9661 36.2615 69.3686 36.7522 69.6485C37.2338 69.9284 37.8154 70.0684 38.4969 70.0684C39.1694 70.0684 39.7509 69.9241 40.2416 69.6354C40.7233 69.3467 41.1004 68.9355 41.373 68.4019C41.6365 67.8595 41.7683 67.2165 41.7683 66.4729Z" fill="#D21B33"/>
<path d="M35.3618 62.6567L37.2701 62.6567L37.2701 58.3132L35.3618 58.3132L35.3618 62.6567ZM33.1809 61.5675L41.632 61.5675L41.632 59.4024L33.1809 59.4024L33.1809 61.5675Z" fill="#D21B33"/>
<path d="M38.4969 57.8432C39.1603 57.8432 39.7373 57.6901 40.228 57.3839C40.7187 57.0777 41.1004 56.6578 41.373 56.1242C41.6365 55.5818 41.7683 54.9738 41.7683 54.3002C41.7683 53.6178 41.6365 53.0098 41.373 52.4762C41.1004 51.9425 40.7187 51.5226 40.228 51.2164C39.7373 50.9015 39.1603 50.744 38.4969 50.744C37.8245 50.744 37.2429 50.9015 36.7522 51.2164C36.2615 51.5226 35.8843 51.9425 35.6208 52.4762C35.3482 53.0098 35.2119 53.6178 35.2119 54.3002C35.2119 54.9738 35.3482 55.5818 35.6208 56.1242C35.8843 56.6578 36.2615 57.0777 36.7522 57.3839C37.2429 57.6901 37.8245 57.8432 38.4969 57.8432ZM38.4969 55.5074C38.2061 55.5074 37.9608 55.4549 37.7608 55.3499C37.5518 55.2362 37.3928 55.0875 37.2838 54.9038C37.1747 54.7201 37.1202 54.5189 37.1202 54.3002C37.1202 54.0815 37.1747 53.8802 37.2838 53.6965C37.3928 53.5128 37.5518 53.3641 37.7608 53.2504C37.9608 53.1367 38.2061 53.0798 38.4969 53.0798C38.7877 53.0798 39.0376 53.1367 39.2466 53.2504C39.4465 53.3641 39.601 53.5128 39.71 53.6965C39.81 53.8802 39.86 54.0815 39.86 54.3002C39.86 54.5189 39.81 54.7201 39.71 54.9038C39.601 55.0875 39.4465 55.2362 39.2466 55.3499C39.0376 55.4549 38.7877 55.5074 38.4969 55.5074Z" fill="#D21B33"/>
<path d="M39.1784 47.2464L35.3618 47.2464L35.3618 49.6216L39.4238 49.6216C40.1689 49.6216 40.7505 49.4553 41.1685 49.1229C41.5774 48.7905 41.7819 48.2306 41.7819 47.4433C41.7819 46.9884 41.6865 46.6122 41.4957 46.3148C41.2957 46.0086 41.0322 45.768 40.7051 45.593L41.632 45.593L41.632 43.3229L35.3618 43.3229L35.3618 45.593L39.1784 45.593C39.4056 45.593 39.5964 45.6324 39.7509 45.7111C39.9054 45.7811 40.019 45.8817 40.0917 46.0129C40.1644 46.1442 40.2007 46.306 40.2007 46.4985C40.2007 46.7871 40.1144 46.984 39.9418 47.089C39.76 47.1939 39.5056 47.2464 39.1784 47.2464Z" fill="#D21B33"/>
<path d="M35.3618 39.6638L35.3618 41.8815L41.632 41.8815L41.632 39.6638L35.3618 39.6638ZM37.7745 37.9448L35.7435 37C35.589 37.0962 35.4618 37.2449 35.3618 37.4462C35.2528 37.6474 35.1983 37.8573 35.1983 38.076C35.1983 38.4259 35.3164 38.7627 35.5527 39.0864C35.7798 39.4014 36.0888 39.6551 36.4796 39.8475C36.8703 40.04 37.3156 40.1362 37.8154 40.1362L38.7559 39.6638C38.456 39.6638 38.2061 39.6244 38.0062 39.5457C37.8063 39.4582 37.6563 39.3401 37.5564 39.1914C37.4564 39.0427 37.4064 38.8809 37.4064 38.7059C37.4064 38.5309 37.4428 38.3866 37.5155 38.2728C37.5791 38.1504 37.6654 38.041 37.7745 37.9448Z" fill="#D21B33"/>
<path d="M55.9552 163.246L61.0995 163.246L55.5721 169L63.6169 169L63.6169 167.694L58.4726 167.694L64 161.94L55.9552 161.94L55.9552 163.246Z" fill="#D21B33"/>
<path d="M59.7861 159.235C59.2607 159.235 58.7937 159.122 58.3851 158.897C57.9692 158.664 57.6444 158.345 57.4109 157.94C57.1774 157.534 57.0607 157.073 57.0607 156.555C57.0607 156.022 57.1774 155.556 57.4109 155.158C57.6444 154.753 57.9692 154.438 58.3851 154.213C58.7937 153.987 59.2607 153.875 59.7861 153.875C60.3114 153.875 60.7821 153.991 61.198 154.224C61.6066 154.449 61.9277 154.764 62.1612 155.17C62.3947 155.568 62.5114 156.029 62.5114 156.555C62.5114 157.073 62.3947 157.534 62.1612 157.94C61.9277 158.345 61.6066 158.664 61.198 158.897C60.7821 159.122 60.3114 159.235 59.7861 159.235ZM59.7861 160.642C60.3552 160.642 60.8842 160.541 61.3731 160.338C61.862 160.136 62.2852 159.854 62.6428 159.494C63.0003 159.126 63.2813 158.69 63.4856 158.187C63.6826 157.685 63.7811 157.14 63.7811 156.555C63.7811 155.962 63.6826 155.417 63.4856 154.922C63.2813 154.419 63.0003 153.984 62.6428 153.616C62.2852 153.248 61.862 152.963 61.3731 152.76C60.8842 152.557 60.3552 152.456 59.7861 152.456C59.2096 152.456 58.6806 152.557 58.199 152.76C57.7174 152.963 57.3015 153.252 56.9512 153.627C56.5937 153.995 56.3164 154.427 56.1194 154.922C55.9224 155.417 55.8239 155.962 55.8239 156.555C55.8239 157.133 55.9224 157.673 56.1194 158.176C56.3164 158.672 56.5937 159.107 56.9512 159.482C57.3015 159.85 57.7174 160.136 58.199 160.338C58.6806 160.541 59.2096 160.642 59.7861 160.642Z" fill="#D21B33"/>
<path d="M63.0587 151.437C63.263 151.437 63.4418 151.362 63.595 151.212C63.7483 151.054 63.8249 150.867 63.8249 150.649C63.8249 150.416 63.7483 150.225 63.595 150.075C63.4418 149.924 63.263 149.849 63.0587 149.849C62.8471 149.849 62.6683 149.924 62.5224 150.075C62.3692 150.225 62.2925 150.416 62.2925 150.649C62.2925 150.867 62.3692 151.054 62.5224 151.212C62.6683 151.362 62.8471 151.437 63.0587 151.437Z" fill="#D21B33"/>
<path d="M59.7861 143.776C59.3774 143.776 59.0017 143.734 58.6587 143.652C58.3158 143.569 58.0202 143.453 57.7721 143.303C57.524 143.145 57.3343 142.957 57.203 142.74C57.0643 142.522 56.995 142.282 56.995 142.019C56.995 141.741 57.0643 141.497 57.203 141.287C57.3343 141.069 57.524 140.885 57.7721 140.735C58.0202 140.578 58.3158 140.457 58.6587 140.375C59.0017 140.292 59.3774 140.251 59.7861 140.251C60.1947 140.251 60.5705 140.292 60.9134 140.375C61.2564 140.457 61.5519 140.578 61.8 140.735C62.0481 140.885 62.2415 141.069 62.3801 141.287C62.5114 141.497 62.5771 141.741 62.5771 142.019C62.5771 142.282 62.5114 142.522 62.3801 142.74C62.2415 142.957 62.0481 143.145 61.8 143.303C61.5519 143.453 61.2564 143.569 60.9134 143.652C60.5705 143.734 60.1947 143.776 59.7861 143.776ZM59.7861 145.082C60.5814 145.082 61.2746 144.954 61.8657 144.699C62.4567 144.436 62.9164 144.076 63.2448 143.618C63.5731 143.152 63.7373 142.619 63.7373 142.019C63.7373 141.403 63.5731 140.867 63.2448 140.409C62.9164 139.943 62.4567 139.583 61.8657 139.328C61.2746 139.072 60.5814 138.945 59.7861 138.945C58.9907 138.945 58.2975 139.072 57.7065 139.328C57.1154 139.583 56.6557 139.943 56.3274 140.409C55.999 140.867 55.8348 141.403 55.8348 142.019C55.8348 142.619 55.999 143.152 56.3274 143.618C56.6557 144.076 57.1154 144.436 57.7065 144.699C58.2975 144.954 58.9907 145.082 59.7861 145.082Z" fill="#D21B33"/>
<path d="M59.7861 136.738C59.3774 136.738 59.0017 136.697 58.6587 136.614C58.3158 136.531 58.0202 136.415 57.7721 136.265C57.524 136.107 57.3343 135.92 57.203 135.702C57.0643 135.484 56.995 135.244 56.995 134.981C56.995 134.703 57.0643 134.459 57.203 134.249C57.3343 134.032 57.524 133.848 57.7721 133.697C58.0202 133.54 58.3158 133.42 58.6587 133.337C59.0017 133.255 59.3774 133.213 59.7861 133.213C60.1947 133.213 60.5705 133.255 60.9134 133.337C61.2564 133.42 61.5519 133.54 61.8 133.697C62.0481 133.848 62.2415 134.032 62.3801 134.249C62.5114 134.459 62.5771 134.703 62.5771 134.981C62.5771 135.244 62.5114 135.484 62.3801 135.702C62.2415 135.92 62.0481 136.107 61.8 136.265C61.5519 136.415 61.2564 136.531 60.9134 136.614C60.5705 136.697 60.1947 136.738 59.7861 136.738ZM59.7861 138.044C60.5814 138.044 61.2746 137.916 61.8657 137.661C62.4567 137.398 62.9164 137.038 63.2448 136.58C63.5731 136.115 63.7373 135.582 63.7373 134.981C63.7373 134.366 63.5731 133.829 63.2448 133.371C62.9164 132.906 62.4567 132.545 61.8657 132.29C61.2746 132.035 60.5814 131.907 59.7861 131.907C58.9907 131.907 58.2975 132.035 57.7065 132.29C57.1154 132.545 56.6557 132.906 56.3274 133.371C55.999 133.829 55.8348 134.366 55.8348 134.981C55.8348 135.582 55.999 136.115 56.3274 136.58C56.6557 137.038 57.1154 137.398 57.7065 137.661C58.2975 137.916 58.9907 138.044 59.7861 138.044Z" fill="#D21B33"/>
<path d="M59.7861 129.7C59.3774 129.7 59.0017 129.659 58.6587 129.576C58.3158 129.494 58.0202 129.377 57.7721 129.227C57.524 129.069 57.3343 128.882 57.203 128.664C57.0643 128.446 56.995 128.206 56.995 127.943C56.995 127.666 57.0643 127.422 57.203 127.212C57.3343 126.994 57.524 126.81 57.7721 126.66C58.0202 126.502 58.3158 126.382 58.6587 126.299C59.0017 126.217 59.3774 126.176 59.7861 126.176C60.1947 126.176 60.5705 126.217 60.9134 126.299C61.2564 126.382 61.5519 126.502 61.8 126.66C62.0481 126.81 62.2415 126.994 62.3801 127.212C62.5114 127.422 62.5771 127.666 62.5771 127.943C62.5771 128.206 62.5114 128.446 62.3801 128.664C62.2415 128.882 62.0481 129.069 61.8 129.227C61.5519 129.377 61.2564 129.494 60.9134 129.576C60.5705 129.659 60.1947 129.7 59.7861 129.7ZM59.7861 131.006C60.5814 131.006 61.2746 130.879 61.8657 130.623C62.4567 130.361 62.9164 130 63.2448 129.542C63.5731 129.077 63.7373 128.544 63.7373 127.943C63.7373 127.328 63.5731 126.791 63.2448 126.333C62.9164 125.868 62.4567 125.507 61.8657 125.252C61.2746 124.997 60.5814 124.869 59.7861 124.869C58.9907 124.869 58.2975 124.997 57.7065 125.252C57.1154 125.507 56.6557 125.868 56.3274 126.333C55.999 126.791 55.8348 127.328 55.8348 127.943C55.8348 128.544 55.999 129.077 56.3274 129.542C56.6557 130 57.1154 130.361 57.7065 130.623C58.2975 130.879 58.9907 131.006 59.7861 131.006Z" fill="#D21B33"/>
<path d="M63.6169 124.194L63.6169 118.181L62.4129 118.181L62.4129 121.604L60.2786 119.363C59.9867 119.04 59.6547 118.781 59.2826 118.586C58.9104 118.383 58.5237 118.282 58.1224 118.282C57.867 118.282 57.6043 118.338 57.3343 118.451C57.0643 118.556 56.8163 118.721 56.59 118.946C56.3638 119.164 56.1814 119.442 56.0428 119.78C55.8968 120.117 55.8239 120.515 55.8239 120.973C55.8239 121.574 55.9479 122.084 56.196 122.505C56.4368 122.918 56.7725 123.233 57.203 123.451C57.6262 123.661 58.1114 123.766 58.6587 123.766L58.6587 122.448C58.3231 122.448 58.0275 122.392 57.7721 122.279C57.5167 122.159 57.3234 121.99 57.192 121.773C57.0534 121.555 56.9841 121.296 56.9841 120.996C56.9841 120.778 57.0206 120.587 57.0935 120.422C57.1592 120.256 57.2504 120.117 57.3672 120.005C57.4839 119.885 57.6153 119.798 57.7612 119.746C57.8998 119.686 58.0421 119.656 58.1881 119.656C58.3924 119.656 58.5857 119.69 58.7682 119.757C58.9506 119.825 59.133 119.926 59.3154 120.061C59.4978 120.196 59.6876 120.358 59.8846 120.545L63.6169 124.194Z" fill="#D21B33"/>
<path d="M62.1503 117.42L62.1502 110.934L61.0338 110.934L61.0338 112.545L61.1323 112.736L61.1323 115.472L58.2647 113.457L61.5701 113.457L61.6905 113.536L63.6169 113.536L63.6169 112.173L55.9552 112.173L55.9552 112.973L62.1503 117.42Z" fill="#D21B33"/>
<path d="M61.5483 107.109L61.5483 104.801L60.4866 104.801L60.4866 107.109L61.5483 107.109Z" fill="#D21B33"/>
<path d="M55.9552 100.492L63.6169 100.492L63.6169 96.0329L62.4567 96.0329L62.4567 99.1633L55.9552 99.1633L55.9552 100.492Z" fill="#D21B33"/>
<path d="M59.7861 94.4546C59.2607 94.4546 58.7937 94.3419 58.3851 94.1167C57.9692 93.884 57.6444 93.565 57.4109 93.1596C57.1774 92.7542 57.0607 92.2926 57.0607 91.7746C57.0607 91.2416 57.1774 90.7762 57.4109 90.3783C57.6444 89.9729 57.9692 89.6576 58.3851 89.4324C58.7937 89.2072 59.2607 89.0946 59.7861 89.0946C60.3114 89.0946 60.7821 89.211 61.198 89.4437C61.6066 89.6689 61.9277 89.9842 62.1612 90.3896C62.3947 90.7874 62.5114 91.2491 62.5114 91.7746C62.5114 92.2926 62.3947 92.7542 62.1612 93.1596C61.9277 93.565 61.6066 93.884 61.198 94.1167C60.7821 94.3419 60.3114 94.4546 59.7861 94.4546ZM59.7861 95.8621C60.3552 95.8621 60.8842 95.7607 61.3731 95.5581C61.862 95.3554 62.2852 95.0739 62.6428 94.7135C63.0003 94.3457 63.2813 93.9103 63.4856 93.4073C63.6826 92.9044 63.7811 92.3601 63.7811 91.7746C63.7811 91.1815 63.6826 90.6373 63.4856 90.1418C63.2813 89.6389 63.0003 89.2035 62.6428 88.8356C62.2852 88.4678 61.862 88.1825 61.3731 87.9798C60.8842 87.7772 60.3552 87.6758 59.7861 87.6758C59.2096 87.6758 58.6806 87.7772 58.199 87.9798C57.7174 88.1825 57.3015 88.4715 56.9512 88.8469C56.5937 89.2147 56.3164 89.6464 56.1194 90.1418C55.9224 90.6373 55.8239 91.1815 55.8239 91.7746C55.8239 92.3526 55.9224 92.8931 56.1194 93.3961C56.3164 93.8915 56.5937 94.3269 56.9512 94.7023C57.3015 95.0701 57.7174 95.3554 58.199 95.5581C58.6806 95.7607 59.2096 95.8621 59.7861 95.8621Z" fill="#D21B33"/>
<path d="M58.9542 84.9197L62.9055 82.5213L58.9542 80.1228L63.6169 79.5711L63.6169 78.1973L55.5721 79.2783L60.7711 82.5213L55.5721 85.753L63.6169 86.834L63.6169 85.4602L58.9542 84.9197Z" fill="#D21B33"/>
<path d="M63.6169 76.0826L63.6169 72.1077L62.4786 72.1077L62.4786 76.0826L63.6169 76.0826ZM57.0935 76.0826L57.0935 72.1077L55.9552 72.1077L55.9552 76.0826L57.0935 76.0826ZM60.0706 76.0826L60.0706 72.3329L58.9542 72.3329L58.9542 76.0826L60.0706 76.0826ZM55.9552 76.9046L63.6169 76.9046L63.6169 75.5984L55.9552 75.5984L55.9552 76.9046ZM53.4925 72.9185L53 73.9432L54.7512 75.6322L55.1343 74.9453L53.4925 72.9185Z" fill="#D21B33"/>
<path d="M61.5483 67.9178L61.5483 65.6094L60.4866 65.6094L60.4866 67.9178L61.5483 67.9178Z" fill="#D21B33"/>
<path d="M55.9552 61.3007L63.6169 61.3007L63.6169 59.9382L55.9552 59.9382L55.9552 61.3007ZM55.9552 57.0105L59.5781 60.3435L63.6169 56.8753L63.6169 55.2426L59.5453 58.7333L55.9552 55.4115L55.9552 57.0105Z" fill="#D21B33"/>
<path d="M61.6468 53.383L61.6468 49.2167L60.5522 49.4757L60.5522 53.1353L61.6468 53.383ZM58.1224 51.3224L60.9682 50.0725L61.2856 50.0387L63.6169 48.969L63.6169 47.4713L55.5284 51.3224L63.6169 55.1734L63.6169 53.6758L61.2199 52.5836L60.9353 52.561L58.1224 51.3224Z" fill="#D21B33"/>
<path d="M59.9612 44.9329L63.6169 42.4219L63.6169 40.8229L59.9612 43.4916L59.9612 44.9329ZM55.9552 46.5544L63.6169 46.5544L63.6169 45.2257L55.9552 45.2257L55.9552 46.5544ZM57.0716 45.7662L57.0716 44.1785C57.0716 43.8782 57.1227 43.6155 57.2249 43.3903C57.327 43.1575 57.473 42.9774 57.6627 42.8497C57.8524 42.7221 58.0859 42.6583 58.3632 42.6583C58.6332 42.6583 58.8667 42.7221 59.0637 42.8497C59.2534 42.9774 59.3993 43.1575 59.5015 43.3903C59.6036 43.6155 59.6547 43.8782 59.6547 44.1785L59.6547 45.7662L60.7164 45.7662L60.7164 44.1222C60.7164 43.5517 60.6179 43.0562 60.4209 42.6358C60.2239 42.2079 59.9466 41.8776 59.5891 41.6449C59.2315 41.4122 58.8119 41.2958 58.3303 41.2958C57.8488 41.2958 57.4328 41.4122 57.0826 41.6449C56.725 41.8776 56.4478 42.2079 56.2507 42.6358C56.0537 43.0562 55.9552 43.5517 55.9552 44.1222L55.9552 45.7662L57.0716 45.7662Z" fill="#D21B33"/>
<path d="M61.6468 38.9117L61.6468 34.7454L60.5522 35.0043L60.5522 38.664L61.6468 38.9117ZM58.1224 36.851L60.9682 35.6012L61.2856 35.5674L63.6169 34.4976L63.6169 33L55.5284 36.851L63.6169 40.7021L63.6169 39.2045L61.2199 38.1122L60.9353 38.0897L58.1224 36.851Z" fill="#D21B33"/>
<path d="M319.748 159.409V164.903L314 159V167.591H315.305V162.097L321.052 168V159.409H319.748Z" fill="#D21B33"/>
<path d="M323.754 163.5C323.754 162.939 323.867 162.44 324.092 162.004C324.324 161.56 324.643 161.213 325.048 160.964C325.453 160.714 325.914 160.59 326.431 160.59C326.964 160.59 327.429 160.714 327.826 160.964C328.231 161.213 328.546 161.56 328.771 162.004C328.996 162.44 329.108 162.939 329.108 163.5C329.108 164.061 328.992 164.564 328.759 165.008C328.535 165.444 328.22 165.787 327.815 166.036C327.417 166.286 326.956 166.41 326.431 166.41C325.914 166.41 325.453 166.286 325.048 166.036C324.643 165.787 324.324 165.444 324.092 165.008C323.867 164.564 323.754 164.061 323.754 163.5ZM322.348 163.5C322.348 164.108 322.45 164.673 322.652 165.195C322.854 165.717 323.136 166.169 323.496 166.551C323.863 166.932 324.298 167.232 324.8 167.451C325.303 167.661 325.846 167.766 326.431 167.766C327.024 167.766 327.567 167.661 328.062 167.451C328.565 167.232 328.999 166.932 329.367 166.551C329.734 166.169 330.019 165.717 330.222 165.195C330.424 164.673 330.525 164.108 330.525 163.5C330.525 162.884 330.424 162.319 330.222 161.805C330.019 161.291 329.731 160.847 329.356 160.473C328.988 160.091 328.557 159.795 328.062 159.584C327.567 159.374 327.024 159.269 326.431 159.269C325.854 159.269 325.314 159.374 324.812 159.584C324.317 159.795 323.882 160.091 323.507 160.473C323.139 160.847 322.854 161.291 322.652 161.805C322.45 162.319 322.348 162.884 322.348 163.5Z" fill="#D21B33"/>
<path d="M331.543 166.995C331.543 167.213 331.618 167.404 331.768 167.568C331.926 167.731 332.113 167.813 332.33 167.813C332.563 167.813 332.754 167.731 332.904 167.568C333.054 167.404 333.129 167.213 333.129 166.995C333.129 166.769 333.054 166.578 332.904 166.422C332.754 166.258 332.563 166.177 332.33 166.177C332.113 166.177 331.926 166.258 331.768 166.422C331.618 166.578 331.543 166.769 331.543 166.995Z" fill="#D21B33"/>
<path d="M339.196 163.5C339.196 163.064 339.237 162.662 339.32 162.296C339.402 161.93 339.518 161.614 339.668 161.349C339.826 161.084 340.013 160.882 340.231 160.742C340.448 160.594 340.688 160.519 340.951 160.519C341.228 160.519 341.472 160.594 341.682 160.742C341.899 160.882 342.083 161.084 342.233 161.349C342.39 161.614 342.51 161.93 342.593 162.296C342.675 162.662 342.717 163.064 342.717 163.5C342.717 163.936 342.675 164.338 342.593 164.704C342.51 165.07 342.39 165.386 342.233 165.651C342.083 165.916 341.899 166.122 341.682 166.27C341.472 166.41 341.228 166.481 340.951 166.481C340.688 166.481 340.448 166.41 340.231 166.27C340.013 166.122 339.826 165.916 339.668 165.651C339.518 165.386 339.402 165.07 339.32 164.704C339.237 164.338 339.196 163.936 339.196 163.5ZM337.891 163.5C337.891 164.349 338.019 165.09 338.274 165.721C338.536 166.352 338.896 166.843 339.353 167.194C339.818 167.544 340.351 167.719 340.951 167.719C341.566 167.719 342.102 167.544 342.559 167.194C343.024 166.843 343.384 166.352 343.639 165.721C343.894 165.09 344.021 164.349 344.021 163.5C344.021 162.651 343.894 161.91 343.639 161.279C343.384 160.648 343.024 160.157 342.559 159.806C342.102 159.456 341.566 159.281 340.951 159.281C340.351 159.281 339.818 159.456 339.353 159.806C338.896 160.157 338.536 160.648 338.274 161.279C338.019 161.91 337.891 162.651 337.891 163.5Z" fill="#D21B33"/>
<path d="M346.226 163.5C346.226 163.064 346.267 162.662 346.35 162.296C346.432 161.93 346.548 161.614 346.698 161.349C346.856 161.084 347.043 160.882 347.261 160.742C347.478 160.594 347.718 160.519 347.98 160.519C348.258 160.519 348.502 160.594 348.712 160.742C348.929 160.882 349.113 161.084 349.263 161.349C349.42 161.614 349.54 161.93 349.623 162.296C349.705 162.662 349.746 163.064 349.746 163.5C349.746 163.936 349.705 164.338 349.623 164.704C349.54 165.07 349.42 165.386 349.263 165.651C349.113 165.916 348.929 166.122 348.712 166.27C348.502 166.41 348.258 166.481 347.98 166.481C347.718 166.481 347.478 166.41 347.261 166.27C347.043 166.122 346.856 165.916 346.698 165.651C346.548 165.386 346.432 165.07 346.35 164.704C346.267 164.338 346.226 163.936 346.226 163.5ZM344.921 163.5C344.921 164.349 345.049 165.09 345.303 165.721C345.566 166.352 345.926 166.843 346.383 167.194C346.848 167.544 347.381 167.719 347.98 167.719C348.595 167.719 349.131 167.544 349.589 167.194C350.054 166.843 350.414 166.352 350.669 165.721C350.924 165.09 351.051 164.349 351.051 163.5C351.051 162.651 350.924 161.91 350.669 161.279C350.414 160.648 350.054 160.157 349.589 159.806C349.131 159.456 348.595 159.281 347.98 159.281C347.381 159.281 346.848 159.456 346.383 159.806C345.926 160.157 345.566 160.648 345.303 161.279C345.049 161.91 344.921 162.651 344.921 163.5Z" fill="#D21B33"/>
<path d="M353.256 163.5C353.256 163.064 353.297 162.662 353.379 162.296C353.462 161.93 353.578 161.614 353.728 161.349C353.885 161.084 354.073 160.882 354.29 160.742C354.508 160.594 354.748 160.519 355.01 160.519C355.288 160.519 355.531 160.594 355.741 160.742C355.959 160.882 356.142 161.084 356.292 161.349C356.45 161.614 356.57 161.93 356.652 162.296C356.735 162.662 356.776 163.064 356.776 163.5C356.776 163.936 356.735 164.338 356.652 164.704C356.57 165.07 356.45 165.386 356.292 165.651C356.142 165.916 355.959 166.122 355.741 166.27C355.531 166.41 355.288 166.481 355.01 166.481C354.748 166.481 354.508 166.41 354.29 166.27C354.073 166.122 353.885 165.916 353.728 165.651C353.578 165.386 353.462 165.07 353.379 164.704C353.297 164.338 353.256 163.936 353.256 163.5ZM351.951 163.5C351.951 164.349 352.078 165.09 352.333 165.721C352.596 166.352 352.956 166.843 353.413 167.194C353.878 167.544 354.41 167.719 355.01 167.719C355.625 167.719 356.161 167.544 356.619 167.194C357.084 166.843 357.443 166.352 357.698 165.721C357.953 165.09 358.081 164.349 358.081 163.5C358.081 162.651 357.953 161.91 357.698 161.279C357.443 160.648 357.084 160.157 356.619 159.806C356.161 159.456 355.625 159.281 355.01 159.281C354.41 159.281 353.878 159.456 353.413 159.806C352.956 160.157 352.596 160.648 352.333 161.279C352.078 161.91 351.951 162.651 351.951 163.5Z" fill="#D21B33"/>
<path d="M358.756 167.591H364.762V166.305H361.343L363.581 164.026C363.903 163.714 364.162 163.36 364.357 162.962C364.559 162.565 364.661 162.152 364.661 161.723C364.661 161.451 364.604 161.17 364.492 160.882C364.387 160.594 364.222 160.329 363.997 160.087C363.78 159.845 363.502 159.651 363.165 159.503C362.827 159.347 362.43 159.269 361.973 159.269C361.373 159.269 360.863 159.401 360.443 159.666C360.03 159.923 359.715 160.282 359.498 160.742C359.288 161.194 359.183 161.712 359.183 162.296H360.499C360.499 161.938 360.555 161.622 360.668 161.349C360.788 161.077 360.956 160.87 361.174 160.73C361.391 160.582 361.65 160.508 361.95 160.508C362.167 160.508 362.359 160.547 362.524 160.625C362.689 160.695 362.827 160.792 362.94 160.917C363.06 161.042 363.146 161.182 363.199 161.338C363.259 161.486 363.289 161.638 363.289 161.794C363.289 162.012 363.255 162.218 363.187 162.413C363.12 162.608 363.019 162.803 362.884 162.997C362.749 163.192 362.587 163.395 362.4 163.605L358.756 167.591Z" fill="#D21B33"/>
<path d="M365.521 166.025H372V164.832H370.392L370.2 164.938H367.467L369.481 161.875V165.405L369.402 165.534V167.591H370.763V159.409H369.964L365.521 166.025Z" fill="#D21B33"/>
<path d="M85.9618 127.769C86.2566 127.769 86.5145 127.707 86.7355 127.583C86.9504 127.454 87.1316 127.284 87.2789 127.074C87.4202 126.864 87.5246 126.63 87.5921 126.37C87.6597 126.111 87.6934 125.849 87.6934 125.583C87.6934 125.318 87.6597 125.055 87.5921 124.796C87.5246 124.537 87.4202 124.302 87.2789 124.092C87.1316 123.876 86.9504 123.707 86.7355 123.583C86.5145 123.453 86.2566 123.389 85.9618 123.389C85.5996 123.389 85.2925 123.49 85.0408 123.694C84.7829 123.892 84.5895 124.157 84.4605 124.491C84.3254 124.818 84.2579 125.182 84.2579 125.583C84.2579 125.978 84.3254 126.342 84.4605 126.676C84.5895 127.003 84.7829 127.268 85.0408 127.472C85.2925 127.67 85.5996 127.769 85.9618 127.769ZM86.1092 126.296C85.968 126.296 85.8421 126.268 85.7316 126.213C85.6149 126.151 85.5259 126.065 85.4645 125.954C85.4031 125.842 85.3724 125.719 85.3724 125.583C85.3724 125.435 85.4031 125.308 85.4645 125.204C85.5259 125.092 85.6149 125.009 85.7316 124.954C85.8421 124.892 85.968 124.861 86.1092 124.861C86.2566 124.861 86.3855 124.892 86.4961 124.954C86.6066 125.015 86.6925 125.102 86.7539 125.213C86.8154 125.318 86.8461 125.441 86.8461 125.583C86.8461 125.719 86.8154 125.842 86.7539 125.954C86.6925 126.059 86.6066 126.142 86.4961 126.204C86.3855 126.265 86.2566 126.296 86.1092 126.296ZM89.1026 128C89.3974 128 89.6614 127.935 89.8947 127.806C90.1281 127.676 90.3276 127.497 90.4934 127.268C90.6592 127.04 90.7851 126.781 90.8711 126.491C90.957 126.201 91 125.898 91 125.583C91 125.262 90.957 124.957 90.8711 124.666C90.7851 124.376 90.6592 124.117 90.4934 123.889C90.3276 123.66 90.1281 123.481 89.8947 123.352C89.6614 123.222 89.3974 123.157 89.1026 123.157C88.7649 123.157 88.4763 123.231 88.2368 123.379C87.9912 123.527 87.7947 123.725 87.6474 123.972C87.4939 124.213 87.3833 124.475 87.3158 124.759C87.2421 125.043 87.2053 125.318 87.2053 125.583C87.2053 125.849 87.2421 126.123 87.3158 126.407C87.3833 126.691 87.4939 126.954 87.6474 127.194C87.7947 127.435 87.9912 127.63 88.2368 127.778C88.4763 127.926 88.7649 128 89.1026 128ZM88.8632 126.444C88.7097 126.444 88.5684 126.407 88.4395 126.333C88.3105 126.253 88.2092 126.148 88.1355 126.018C88.0618 125.883 88.025 125.738 88.025 125.583C88.025 125.423 88.0618 125.278 88.1355 125.148C88.2092 125.012 88.3105 124.907 88.4395 124.833C88.5684 124.753 88.7097 124.713 88.8632 124.713C89.0535 124.713 89.2132 124.753 89.3421 124.833C89.4711 124.907 89.5693 125.012 89.6368 125.148C89.7044 125.278 89.7382 125.423 89.7382 125.583C89.7382 125.738 89.7044 125.883 89.6368 126.018C89.5693 126.148 89.4711 126.253 89.3421 126.333C89.2132 126.407 89.0535 126.444 88.8632 126.444Z" fill="white"/>
<path d="M88.7895 114.298C88.3412 114.298 87.9605 114.39 87.6474 114.575C87.3342 114.761 87.0947 115.004 86.9289 115.307C86.7632 115.603 86.6803 115.924 86.6803 116.27C86.6803 116.474 86.6987 116.671 86.7355 116.863C86.7662 117.048 86.8215 117.227 86.9013 117.4L85.75 117.029L85.75 114.437L84.4053 114.437L84.4053 118.178L88.1263 119.085C88.0158 118.863 87.9329 118.647 87.8776 118.437C87.8162 118.221 87.7763 118.014 87.7579 117.816C87.7333 117.613 87.7211 117.427 87.7211 117.261C87.7211 117.045 87.7518 116.844 87.8132 116.659C87.8746 116.468 87.9728 116.313 88.1079 116.196C88.2368 116.072 88.4088 116.011 88.6237 116.011C88.8263 116.011 88.9982 116.06 89.1395 116.159C89.2807 116.258 89.3851 116.4 89.4526 116.585C89.5202 116.77 89.5539 116.995 89.5539 117.261C89.5539 117.415 89.5263 117.588 89.4711 117.779C89.4097 117.971 89.3298 118.162 89.2316 118.353C89.1272 118.539 89.0013 118.721 88.8539 118.9L90.1342 119.511C90.2877 119.307 90.4289 119.082 90.5579 118.835C90.6807 118.588 90.7789 118.304 90.8526 117.983C90.9325 117.662 90.9724 117.304 90.9724 116.909C90.9724 116.594 90.9325 116.285 90.8526 115.983C90.7667 115.674 90.6347 115.393 90.4566 115.14C90.2785 114.881 90.0513 114.677 89.775 114.529C89.4987 114.375 89.1702 114.298 88.7895 114.298Z" fill="white"/>
<path d="M87.6289 112.052C87.3281 112.052 87.0548 112.024 86.8092 111.969C86.5575 111.913 86.3456 111.833 86.1737 111.728C85.9956 111.623 85.8605 111.499 85.7684 111.357C85.6702 111.209 85.6211 111.046 85.6211 110.867C85.6211 110.688 85.6702 110.527 85.7684 110.385C85.8605 110.237 85.9956 110.11 86.1737 110.005C86.3456 109.9 86.5575 109.82 86.8092 109.765C87.0548 109.709 87.3281 109.681 87.6289 109.681C87.9298 109.681 88.2061 109.709 88.4579 109.765C88.7035 109.82 88.9154 109.9 89.0934 110.005C89.2654 110.11 89.4004 110.237 89.4987 110.385C89.5908 110.527 89.6368 110.688 89.6368 110.867C89.6368 111.046 89.5908 111.209 89.4987 111.357C89.4004 111.499 89.2654 111.623 89.0934 111.728C88.9154 111.833 88.7035 111.913 88.4579 111.969C88.2061 112.024 87.9298 112.052 87.6289 112.052ZM87.6289 113.561C88.3289 113.561 88.9276 113.45 89.425 113.228C89.9224 112.999 90.3061 112.682 90.5763 112.274C90.8404 111.867 90.9724 111.397 90.9724 110.867C90.9724 110.311 90.8404 109.833 90.5763 109.431C90.3061 109.03 89.9224 108.721 89.425 108.505C88.9276 108.283 88.3289 108.172 87.6289 108.172C86.9289 108.172 86.3303 108.283 85.8329 108.505C85.3355 108.721 84.9548 109.03 84.6908 109.431C84.4206 109.833 84.2855 110.311 84.2855 110.867C84.2855 111.397 84.4206 111.867 84.6908 112.274C84.9548 112.682 85.3355 112.999 85.8329 113.228C86.3303 113.45 86.9289 113.561 87.6289 113.561Z" fill="white"/>
<path d="M87.6289 105.921C87.3281 105.921 87.0548 105.893 86.8092 105.837C86.5575 105.782 86.3456 105.702 86.1737 105.597C85.9956 105.492 85.8605 105.368 85.7684 105.226C85.6702 105.078 85.6211 104.915 85.6211 104.736C85.6211 104.557 85.6702 104.396 85.7684 104.254C85.8605 104.106 85.9956 103.979 86.1737 103.874C86.3456 103.769 86.5575 103.689 86.8092 103.634C87.0548 103.578 87.3281 103.55 87.6289 103.55C87.9298 103.55 88.2061 103.578 88.4579 103.634C88.7035 103.689 88.9154 103.769 89.0934 103.874C89.2654 103.979 89.4004 104.106 89.4987 104.254C89.5908 104.396 89.6368 104.557 89.6368 104.736C89.6368 104.915 89.5908 105.078 89.4987 105.226C89.4004 105.368 89.2654 105.492 89.0934 105.597C88.9154 105.702 88.7035 105.782 88.4579 105.837C88.2061 105.893 87.9298 105.921 87.6289 105.921ZM87.6289 107.43C88.3289 107.43 88.9276 107.319 89.425 107.097C89.9224 106.868 90.3061 106.55 90.5763 106.143C90.8404 105.736 90.9724 105.266 90.9724 104.736C90.9724 104.18 90.8404 103.702 90.5763 103.3C90.3061 102.899 89.9224 102.59 89.425 102.374C88.9276 102.152 88.3289 102.041 87.6289 102.041C86.9289 102.041 86.3303 102.152 85.8329 102.374C85.3355 102.59 84.9548 102.899 84.6908 103.3C84.4206 103.702 84.2855 104.18 84.2855 104.736C84.2855 105.266 84.4206 105.736 84.6908 106.143C84.9548 106.55 85.3355 106.868 85.8329 107.097C86.3303 107.319 86.9289 107.43 87.6289 107.43Z" fill="white"/>
<path d="M85.7408 97.1711L85.7408 94.2727L84.4053 94.2727L84.4053 97.1711L85.7408 97.1711ZM88.2645 97.1711L88.2645 94.3653L87.0118 94.3653L87.0118 97.1711L88.2645 97.1711ZM84.4053 98.2082L90.8526 98.2082L90.8526 96.7081L84.4053 96.7081L84.4053 98.2082Z" fill="white"/>
<path d="M87.6289 91.7565C87.2298 91.7565 86.889 91.667 86.6066 91.488C86.3241 91.3089 86.1092 91.0744 85.9618 90.7842C85.8145 90.4879 85.7408 90.1638 85.7408 89.8119C85.7408 89.5033 85.7807 89.2317 85.8605 88.9971C85.9342 88.7625 86.0386 88.5526 86.1737 88.3674C86.3026 88.1822 86.4408 88.0186 86.5882 87.8766L84.9118 87.8766C84.7092 88.1359 84.5496 88.4199 84.4329 88.7285C84.3162 89.0372 84.2579 89.4292 84.2579 89.9045C84.2579 90.4231 84.3377 90.9015 84.4974 91.3398C84.657 91.7781 84.8873 92.1547 85.1882 92.4695C85.489 92.7844 85.8452 93.0282 86.2566 93.201C86.668 93.3739 87.1254 93.4603 87.6289 93.4603C88.1325 93.4603 88.5899 93.3739 89.0013 93.201C89.4127 93.0282 89.7689 92.7844 90.0697 92.4695C90.3706 92.1547 90.6009 91.7781 90.7605 91.3398C90.9202 90.9015 91 90.4231 91 89.9045C91 89.4292 90.9417 89.0372 90.825 88.7285C90.7083 88.4199 90.5487 88.1359 90.3461 87.8766L88.6697 87.8766C88.8171 88.0186 88.9553 88.1822 89.0842 88.3674C89.2132 88.5526 89.3175 88.7625 89.3974 88.9971C89.4772 89.2317 89.5171 89.5033 89.5171 89.8119C89.5171 90.1638 89.4434 90.4879 89.2961 90.7842C89.1487 91.0744 88.9338 91.3089 88.6513 91.488C88.3627 91.667 88.0219 91.7565 87.6289 91.7565Z" fill="white"/>
<path d="M85.7408 85.5601L85.7408 82.6617L84.4053 82.6617L84.4053 85.5601L85.7408 85.5601ZM88.2645 85.5601L88.2645 82.7543L87.0118 82.7543L87.0118 85.5601L88.2645 85.5601ZM84.4053 86.5972L90.8526 86.5972L90.8526 85.0971L84.4053 85.0971L84.4053 86.5972Z" fill="white"/>
<path d="M89.6092 81.1114L89.6092 77.6853L88.4211 77.7872L88.4211 81.0003L89.6092 81.1114ZM86.7724 79.4169L88.8632 78.5002L89.2592 78.5557L90.8526 77.7779L90.8526 76L84 79.4169L90.8526 82.8245L90.8526 81.0559L89.1947 80.2503L88.8539 80.3244L86.7724 79.4169Z" fill="white"/>
<path d="M377.832 54.1414H383.924L383.644 52.3665H378.112L377.832 54.1414ZM380.845 49.2094L382.574 53.0262L382.541 53.5916L384.023 56.6387H386.69L380.845 45L375 56.6387H377.651L379.166 53.4974L379.116 52.9948L380.845 49.2094Z" fill="#156C52"/>
<path d="M387.941 45.644V56.6387H394.889V54.6754H390.295V45.644H387.941Z" fill="#156C52"/>
<path d="M396.238 45.644V56.6387H403.186V54.6754H398.592V45.644H396.238Z" fill="#156C52"/>
<path d="M406.05 56.6387H411.862V54.7382H406.05V56.6387ZM406.05 47.5445H411.862V45.644H406.05V47.5445ZM406.05 51.7382H411.532V49.8691H406.05V51.7382ZM404.535 45.644V56.6387H406.807V45.644H404.535Z" fill="#156C52"/>
<path d="M416.8 51.5183L420.258 56.6387H423.041L419.287 51.5183H416.8ZM414.182 45.644V56.6387H416.537V45.644H414.182ZM415.615 47.5602H417.904C418.321 47.5602 418.677 47.6283 418.974 47.7644C419.281 47.8901 419.517 48.0785 419.682 48.3298C419.846 48.5707 419.929 48.8639 419.929 49.2094C419.929 49.555 419.846 49.8534 419.682 50.1047C419.517 50.3456 419.281 50.534 418.974 50.6702C418.677 50.7958 418.321 50.8586 417.904 50.8586H415.615V52.6492H418.052C418.963 52.6492 419.737 52.5026 420.373 52.2094C421.01 51.9162 421.498 51.5079 421.839 50.9843C422.179 50.4503 422.349 49.8377 422.349 49.1466C422.349 48.445 422.179 47.8325 421.839 47.3089C421.498 46.7853 421.01 46.377 420.373 46.0838C419.737 45.7906 418.963 45.644 418.052 45.644H415.615V47.5602Z" fill="#156C52"/>
<path d="M428.16 53.7958H431.601V52.0209H428.16V53.7958Z" fill="#156C52"/>
<path d="M440.485 51.5183L443.943 56.6387H446.726L442.972 51.5183H440.485ZM437.867 45.644V56.6387H440.222V45.644H437.867ZM439.3 47.5602H441.589C442.006 47.5602 442.362 47.6283 442.659 47.7644C442.966 47.8901 443.202 48.0785 443.367 48.3298C443.531 48.5707 443.614 48.8639 443.614 49.2094C443.614 49.555 443.531 49.8534 443.367 50.1047C443.202 50.3456 442.966 50.534 442.659 50.6702C442.362 50.7958 442.006 50.8586 441.589 50.8586H439.3V52.6492H441.737C442.648 52.6492 443.422 52.5026 444.058 52.2094C444.695 51.9162 445.183 51.5079 445.524 50.9843C445.864 50.4503 446.034 49.8377 446.034 49.1466C446.034 48.445 445.864 47.8325 445.524 47.3089C445.183 46.7853 444.695 46.377 444.058 46.0838C443.422 45.7906 442.648 45.644 441.737 45.644H439.3V47.5602Z" fill="#156C52"/>
<path d="M449.593 56.6387H455.405V54.7382H449.593V56.6387ZM449.593 47.5445H455.405V45.644H449.593V47.5445ZM449.593 51.7382H455.076V49.8691H449.593V51.7382ZM448.078 45.644V56.6387H450.35V45.644H448.078Z" fill="#156C52"/>
<path d="M456.573 47.6702H459.668V56.6387H462.023V47.6702H465.135V45.644H456.573V47.6702Z" fill="#156C52"/>
<path d="M467.48 51.1414C467.48 50.4398 467.634 49.8168 467.941 49.2723C468.249 48.7277 468.671 48.2984 469.209 47.9843C469.747 47.6702 470.373 47.5131 471.086 47.5131C471.811 47.5131 472.442 47.6702 472.98 47.9843C473.518 48.2984 473.935 48.7277 474.231 49.2723C474.527 49.8168 474.676 50.4398 474.676 51.1414C474.676 51.8429 474.522 52.466 474.215 53.0105C473.918 53.555 473.501 53.9843 472.963 54.2984C472.425 54.6126 471.8 54.7696 471.086 54.7696C470.373 54.7696 469.747 54.6126 469.209 54.2984C468.671 53.9843 468.249 53.555 467.941 53.0105C467.634 52.466 467.48 51.8429 467.48 51.1414ZM464.994 51.1414C464.994 51.9686 465.142 52.7382 465.439 53.4503C465.735 54.1518 466.158 54.7644 466.706 55.288C467.255 55.8115 467.897 56.2199 468.633 56.5131C469.379 56.7958 470.197 56.9372 471.086 56.9372C471.975 56.9372 472.788 56.7958 473.523 56.5131C474.27 56.2199 474.912 55.8115 475.45 55.288C475.998 54.7644 476.421 54.1518 476.717 53.4503C477.025 52.7382 477.178 51.9686 477.178 51.1414C477.178 50.3037 477.025 49.5393 476.717 48.8482C476.421 48.1466 475.993 47.5393 475.433 47.0262C474.884 46.5131 474.242 46.1204 473.507 45.8482C472.771 45.5654 471.964 45.4241 471.086 45.4241C470.219 45.4241 469.412 45.5654 468.666 45.8482C467.93 46.1204 467.288 46.5131 466.739 47.0262C466.191 47.5393 465.762 48.1466 465.455 48.8482C465.148 49.5393 464.994 50.3037 464.994 51.1414Z" fill="#156C52"/>
<path d="M478.916 45.644V53.0262C478.916 53.6754 479.026 54.2461 479.246 54.7382C479.465 55.2304 479.772 55.644 480.168 55.9791C480.563 56.3141 481.029 56.5654 481.567 56.733C482.105 56.911 482.692 57 483.329 57C483.955 57 484.536 56.911 485.074 56.733C485.612 56.5654 486.079 56.3141 486.474 55.9791C486.88 55.644 487.193 55.2304 487.412 54.7382C487.632 54.2461 487.742 53.6754 487.742 53.0262V45.644H485.387V52.8848C485.387 53.5131 485.212 54.0209 484.86 54.4084C484.52 54.7853 484.01 54.9738 483.329 54.9738C482.648 54.9738 482.132 54.7853 481.781 54.4084C481.441 54.0209 481.271 53.5131 481.271 52.8848V45.644H478.916Z" fill="#156C52"/>
<path d="M492.76 51.5183L496.217 56.6387H499L495.246 51.5183H492.76ZM490.142 45.644V56.6387H492.496V45.644H490.142ZM491.574 47.5602H493.863C494.28 47.5602 494.637 47.6283 494.933 47.7644C495.24 47.8901 495.476 48.0785 495.641 48.3298C495.806 48.5707 495.888 48.8639 495.888 49.2094C495.888 49.555 495.806 49.8534 495.641 50.1047C495.476 50.3456 495.24 50.534 494.933 50.6702C494.637 50.7958 494.28 50.8586 493.863 50.8586H491.574V52.6492H494.011C494.922 52.6492 495.696 52.5026 496.333 52.2094C496.969 51.9162 497.458 51.5079 497.798 50.9843C498.138 50.4503 498.308 49.8377 498.308 49.1466C498.308 48.445 498.138 47.8325 497.798 47.3089C497.458 46.7853 496.969 46.377 496.333 46.0838C495.696 45.7906 494.922 45.644 494.011 45.644H491.574V47.5602Z" fill="#156C52"/>
<path d="M436 154.29C436 153.578 436.588 153 437.312 153H497.688C498.412 153 499 153.578 499 154.29V171.71C499 172.422 498.412 173 497.688 173H437.312C436.588 173 436 172.422 436 171.71V154.29Z" fill="#156C52"/>
<path d="M462.244 126.49C462.244 126.797 462.303 127.067 462.42 127.3C462.544 127.527 462.706 127.717 462.908 127.87C463.116 128.023 463.351 128.14 463.611 128.22C463.871 128.3 464.141 128.34 464.421 128.34C464.701 128.34 464.971 128.3 465.232 128.22C465.492 128.14 465.723 128.023 465.925 127.87C466.133 127.717 466.296 127.527 466.413 127.3C466.537 127.067 466.599 126.797 466.599 126.49C466.599 126.117 466.498 125.793 466.296 125.52C466.101 125.247 465.837 125.037 465.505 124.89C465.18 124.737 464.818 124.66 464.421 124.66C464.018 124.66 463.65 124.737 463.318 124.89C462.993 125.037 462.732 125.247 462.537 125.52C462.342 125.793 462.244 126.117 462.244 126.49ZM463.552 126.63C463.552 126.457 463.588 126.3 463.66 126.16C463.738 126.02 463.842 125.913 463.972 125.84C464.102 125.767 464.252 125.73 464.421 125.73C464.591 125.73 464.74 125.767 464.87 125.84C465.001 125.913 465.102 126.02 465.173 126.16C465.245 126.3 465.281 126.457 465.281 126.63C465.281 126.81 465.242 126.967 465.163 127.1C465.092 127.233 464.991 127.34 464.861 127.42C464.731 127.493 464.584 127.53 464.421 127.53C464.259 127.53 464.112 127.493 463.982 127.42C463.852 127.34 463.748 127.233 463.67 127.1C463.591 126.967 463.552 126.81 463.552 126.63ZM462 129.9C462 130.207 462.062 130.487 462.186 130.74C462.316 130.987 462.495 131.2 462.723 131.38C462.95 131.56 463.207 131.7 463.494 131.8C463.787 131.893 464.096 131.94 464.421 131.94C464.747 131.94 465.053 131.893 465.339 131.8C465.632 131.7 465.889 131.56 466.11 131.38C466.338 131.2 466.517 130.987 466.647 130.74C466.778 130.487 466.843 130.207 466.843 129.9C466.843 129.547 466.771 129.243 466.628 128.99C466.485 128.73 466.293 128.517 466.052 128.35C465.818 128.183 465.557 128.06 465.271 127.98C464.984 127.9 464.701 127.86 464.421 127.86C464.141 127.86 463.858 127.9 463.572 127.98C463.286 128.06 463.022 128.183 462.781 128.35C462.547 128.517 462.358 128.73 462.215 128.99C462.072 129.243 462 129.547 462 129.9ZM463.377 129.69C463.377 129.497 463.422 129.32 463.513 129.16C463.611 129 463.738 128.873 463.894 128.78C464.057 128.687 464.233 128.64 464.421 128.64C464.604 128.64 464.773 128.687 464.929 128.78C465.092 128.873 465.222 129 465.32 129.16C465.417 129.32 465.466 129.497 465.466 129.69C465.466 129.923 465.417 130.12 465.32 130.28C465.222 130.433 465.092 130.553 464.929 130.64C464.773 130.72 464.604 130.76 464.421 130.76C464.233 130.76 464.057 130.72 463.894 130.64C463.738 130.553 463.611 130.433 463.513 130.28C463.422 130.12 463.377 129.923 463.377 129.69Z" fill="black"/>
<path d="M472.148 134V127.2H470.879V134H472.148ZM475.839 129.5C475.839 128.973 475.738 128.53 475.536 128.17C475.334 127.803 475.067 127.527 474.735 127.34C474.41 127.153 474.058 127.06 473.681 127.06C473.297 127.06 472.962 127.16 472.675 127.36C472.395 127.56 472.177 127.843 472.021 128.21C471.871 128.57 471.796 129 471.796 129.5C471.796 129.993 471.871 130.423 472.021 130.79C472.177 131.157 472.395 131.44 472.675 131.64C472.962 131.84 473.297 131.94 473.681 131.94C474.058 131.94 474.41 131.847 474.735 131.66C475.067 131.473 475.334 131.197 475.536 130.83C475.738 130.463 475.839 130.02 475.839 129.5ZM474.53 129.5C474.53 129.773 474.475 130.007 474.364 130.2C474.254 130.393 474.104 130.54 473.915 130.64C473.733 130.74 473.531 130.79 473.31 130.79C473.121 130.79 472.936 130.743 472.753 130.65C472.578 130.55 472.431 130.403 472.314 130.21C472.203 130.017 472.148 129.78 472.148 129.5C472.148 129.22 472.203 128.983 472.314 128.79C472.431 128.597 472.578 128.453 472.753 128.36C472.936 128.26 473.121 128.21 473.31 128.21C473.531 128.21 473.733 128.26 473.915 128.36C474.104 128.46 474.254 128.607 474.364 128.8C474.475 128.993 474.53 129.227 474.53 129.5Z" fill="black"/>
<path d="M476.781 124V131.8H478.051V124H476.781Z" fill="black"/>
<path d="M480.197 130.37C480.197 130.237 480.226 130.127 480.285 130.04C480.343 129.947 480.434 129.877 480.558 129.83C480.682 129.777 480.841 129.75 481.036 129.75C481.277 129.75 481.505 129.783 481.72 129.85C481.941 129.917 482.14 130.017 482.315 130.15V129.55C482.25 129.47 482.143 129.387 481.993 129.3C481.844 129.213 481.658 129.14 481.437 129.08C481.222 129.02 480.971 128.99 480.685 128.99C480.125 128.99 479.692 129.12 479.386 129.38C479.08 129.64 478.928 129.993 478.928 130.44C478.928 130.753 478.999 131.02 479.142 131.24C479.292 131.453 479.487 131.617 479.728 131.73C479.969 131.843 480.229 131.9 480.509 131.9C480.783 131.9 481.043 131.85 481.29 131.75C481.544 131.65 481.749 131.5 481.905 131.3C482.068 131.1 482.15 130.853 482.15 130.56L481.993 129.96C481.993 130.18 481.944 130.37 481.847 130.53C481.749 130.683 481.622 130.803 481.466 130.89C481.31 130.97 481.134 131.01 480.939 131.01C480.802 131.01 480.675 130.987 480.558 130.94C480.447 130.887 480.36 130.813 480.294 130.72C480.229 130.62 480.197 130.503 480.197 130.37ZM479.709 128.5C479.774 128.453 479.875 128.397 480.011 128.33C480.148 128.263 480.311 128.207 480.499 128.16C480.688 128.113 480.887 128.09 481.095 128.09C481.232 128.09 481.355 128.103 481.466 128.13C481.577 128.157 481.671 128.2 481.749 128.26C481.834 128.32 481.896 128.397 481.935 128.49C481.974 128.577 481.993 128.683 481.993 128.81V131.8H483.214V128.54C483.214 128.227 483.129 127.963 482.96 127.75C482.791 127.53 482.556 127.363 482.257 127.25C481.957 127.137 481.616 127.08 481.232 127.08C480.815 127.08 480.438 127.14 480.099 127.26C479.761 127.373 479.474 127.493 479.24 127.62L479.709 128.5Z" fill="black"/>
<path d="M485.347 129.5C485.347 129.24 485.406 129.01 485.523 128.81C485.64 128.61 485.796 128.453 485.991 128.34C486.193 128.22 486.414 128.16 486.655 128.16C486.838 128.16 487.02 128.19 487.202 128.25C487.384 128.31 487.55 128.397 487.7 128.51C487.856 128.617 487.973 128.743 488.051 128.89V127.56C487.895 127.42 487.69 127.31 487.436 127.23C487.189 127.143 486.899 127.1 486.567 127.1C486.092 127.1 485.663 127.2 485.279 127.4C484.901 127.6 484.602 127.88 484.38 128.24C484.166 128.6 484.058 129.02 484.058 129.5C484.058 129.973 484.166 130.393 484.38 130.76C484.602 131.12 484.901 131.4 485.279 131.6C485.663 131.8 486.092 131.9 486.567 131.9C486.899 131.9 487.189 131.86 487.436 131.78C487.69 131.693 487.895 131.577 488.051 131.43V130.1C487.973 130.247 487.859 130.377 487.71 130.49C487.567 130.597 487.404 130.683 487.222 130.75C487.039 130.81 486.851 130.84 486.655 130.84C486.414 130.84 486.193 130.783 485.991 130.67C485.796 130.557 485.64 130.4 485.523 130.2C485.406 130 485.347 129.767 485.347 129.5Z" fill="black"/>
<path d="M491.286 131.9C491.826 131.9 492.288 131.793 492.672 131.58C493.063 131.36 493.375 131.033 493.609 130.6L492.506 130.25C492.376 130.47 492.21 130.637 492.008 130.75C491.813 130.857 491.575 130.91 491.295 130.91C491.048 130.91 490.837 130.853 490.661 130.74C490.485 130.627 490.352 130.463 490.261 130.25C490.176 130.037 490.134 129.777 490.134 129.47C490.14 129.15 490.186 128.883 490.27 128.67C490.361 128.45 490.488 128.287 490.651 128.18C490.82 128.067 491.029 128.01 491.276 128.01C491.478 128.01 491.653 128.057 491.803 128.15C491.953 128.243 492.067 128.37 492.145 128.53C492.23 128.69 492.272 128.883 492.272 129.11C492.272 129.157 492.259 129.217 492.233 129.29C492.213 129.357 492.19 129.41 492.164 129.45L492.506 128.99H489.587V129.79H493.609C493.616 129.75 493.619 129.697 493.619 129.63C493.626 129.563 493.629 129.5 493.629 129.44C493.629 128.947 493.538 128.527 493.356 128.18C493.173 127.827 492.906 127.56 492.555 127.38C492.21 127.193 491.79 127.1 491.295 127.1C490.801 127.1 490.371 127.2 490.007 127.4C489.642 127.593 489.359 127.87 489.157 128.23C488.962 128.583 488.864 129.007 488.864 129.5C488.864 129.987 488.962 130.41 489.157 130.77C489.359 131.123 489.642 131.4 490.007 131.6C490.371 131.8 490.798 131.9 491.286 131.9Z" fill="black"/>
<path d="M494.807 130.21L494.192 131.02C494.361 131.187 494.55 131.343 494.758 131.49C494.973 131.63 495.211 131.743 495.471 131.83C495.738 131.917 496.031 131.96 496.35 131.96C496.864 131.96 497.268 131.833 497.561 131.58C497.854 131.32 498 130.96 498 130.5C498 130.22 497.938 129.993 497.814 129.82C497.691 129.647 497.525 129.503 497.317 129.39C497.115 129.27 496.893 129.163 496.653 129.07C496.457 128.983 496.282 128.91 496.125 128.85C495.976 128.79 495.859 128.723 495.774 128.65C495.696 128.57 495.657 128.48 495.657 128.38C495.657 128.267 495.696 128.183 495.774 128.13C495.859 128.07 495.972 128.04 496.116 128.04C496.33 128.04 496.548 128.097 496.77 128.21C496.998 128.323 497.193 128.47 497.356 128.65L497.912 127.85C497.769 127.703 497.603 127.577 497.414 127.47C497.225 127.357 497.02 127.267 496.799 127.2C496.578 127.133 496.34 127.1 496.086 127.1C495.787 127.1 495.514 127.15 495.266 127.25C495.025 127.343 494.833 127.487 494.69 127.68C494.547 127.867 494.475 128.097 494.475 128.37C494.475 128.657 494.537 128.893 494.661 129.08C494.791 129.26 494.954 129.407 495.149 129.52C495.344 129.627 495.546 129.72 495.754 129.8C495.976 129.873 496.158 129.943 496.301 130.01C496.444 130.077 496.552 130.153 496.623 130.24C496.701 130.32 496.741 130.42 496.741 130.54C496.741 130.673 496.695 130.78 496.604 130.86C496.513 130.933 496.382 130.97 496.213 130.97C496.083 130.97 495.943 130.943 495.793 130.89C495.65 130.837 495.497 130.757 495.335 130.65C495.172 130.537 494.996 130.39 494.807 130.21Z" fill="black"/>
<path d="M281 95.9773L282.878 95.4773V101.864H284.431V93.7727L281 94.5114V95.9773Z" fill="black"/>
<path d="M287.697 97.8864C287.697 97.4848 287.735 97.1212 287.809 96.7955C287.884 96.4621 287.992 96.178 288.133 95.9432C288.275 95.7008 288.442 95.5152 288.636 95.3864C288.83 95.2576 289.046 95.1932 289.284 95.1932C289.53 95.1932 289.75 95.2576 289.944 95.3864C290.138 95.5152 290.305 95.7008 290.447 95.9432C290.588 96.178 290.696 96.4621 290.771 96.7955C290.845 97.1212 290.883 97.4848 290.883 97.8864C290.883 98.2879 290.845 98.6553 290.771 98.9886C290.696 99.3144 290.588 99.5985 290.447 99.8409C290.305 100.076 290.138 100.258 289.944 100.386C289.75 100.515 289.53 100.58 289.284 100.58C289.046 100.58 288.83 100.515 288.636 100.386C288.442 100.258 288.275 100.076 288.133 99.8409C287.992 99.5985 287.884 99.3144 287.809 98.9886C287.735 98.6553 287.697 98.2879 287.697 97.8864ZM286.144 97.8864C286.144 98.7273 286.274 99.4545 286.535 100.068C286.803 100.682 287.172 101.159 287.641 101.5C288.118 101.833 288.666 102 289.284 102C289.925 102 290.48 101.833 290.95 101.5C291.419 101.159 291.784 100.682 292.045 100.068C292.306 99.4545 292.436 98.7273 292.436 97.8864C292.436 97.0455 292.306 96.3182 292.045 95.7045C291.784 95.0909 291.419 94.6174 290.95 94.2841C290.48 93.9432 289.925 93.7727 289.284 93.7727C288.666 93.7727 288.118 93.9432 287.641 94.2841C287.172 94.6174 286.803 95.0909 286.535 95.7045C286.274 96.3182 286.144 97.0455 286.144 97.8864Z" fill="black"/>
<path d="M295.047 93H293.594V101.864H295.047V93ZM296.914 98.6818V101.864H298.367V98.4659C298.367 98.0341 298.303 97.6705 298.176 97.375C298.05 97.072 297.856 96.8447 297.595 96.6932C297.335 96.5417 297.003 96.4659 296.601 96.4659C296.198 96.4659 295.859 96.5644 295.583 96.7614C295.308 96.9583 295.099 97.2235 294.958 97.5568C294.823 97.8902 294.756 98.2652 294.756 98.6818H295.047C295.047 98.4621 295.088 98.2727 295.17 98.1136C295.252 97.9545 295.371 97.8333 295.528 97.75C295.684 97.6591 295.863 97.6136 296.064 97.6136C296.37 97.6136 296.586 97.7045 296.712 97.8864C296.846 98.0682 296.914 98.3333 296.914 98.6818Z" fill="black"/>
<path d="M301.079 97.8864C301.079 97.4848 301.116 97.1212 301.191 96.7955C301.265 96.4621 301.373 96.178 301.515 95.9432C301.656 95.7008 301.824 95.5152 302.018 95.3864C302.212 95.2576 302.428 95.1932 302.666 95.1932C302.912 95.1932 303.132 95.2576 303.326 95.3864C303.519 95.5152 303.687 95.7008 303.829 95.9432C303.97 96.178 304.078 96.4621 304.153 96.7955C304.227 97.1212 304.264 97.4848 304.264 97.8864C304.264 98.2879 304.227 98.6553 304.153 98.9886C304.078 99.3144 303.97 99.5985 303.829 99.8409C303.687 100.076 303.519 100.258 303.326 100.386C303.132 100.515 302.912 100.58 302.666 100.58C302.428 100.58 302.212 100.515 302.018 100.386C301.824 100.258 301.656 100.076 301.515 99.8409C301.373 99.5985 301.265 99.3144 301.191 98.9886C301.116 98.6553 301.079 98.2879 301.079 97.8864ZM299.525 97.8864C299.525 98.7273 299.656 99.4545 299.917 100.068C300.185 100.682 300.554 101.159 301.023 101.5C301.5 101.833 302.048 102 302.666 102C303.307 102 303.862 101.833 304.331 101.5C304.801 101.159 305.166 100.682 305.427 100.068C305.688 99.4545 305.818 98.7273 305.818 97.8864C305.818 97.0455 305.688 96.3182 305.427 95.7045C305.166 95.0909 304.801 94.6174 304.331 94.2841C303.862 93.9432 303.307 93.7727 302.666 93.7727C302.048 93.7727 301.5 93.9432 301.023 94.2841C300.554 94.6174 300.185 95.0909 299.917 95.7045C299.656 96.3182 299.525 97.0455 299.525 97.8864Z" fill="black"/>
<path d="M308.261 97.8864C308.261 97.4848 308.298 97.1212 308.373 96.7955C308.447 96.4621 308.555 96.178 308.697 95.9432C308.838 95.7008 309.006 95.5152 309.2 95.3864C309.394 95.2576 309.61 95.1932 309.848 95.1932C310.094 95.1932 310.314 95.2576 310.508 95.3864C310.701 95.5152 310.869 95.7008 311.011 95.9432C311.152 96.178 311.26 96.4621 311.335 96.7955C311.409 97.1212 311.446 97.4848 311.446 97.8864C311.446 98.2879 311.409 98.6553 311.335 98.9886C311.26 99.3144 311.152 99.5985 311.011 99.8409C310.869 100.076 310.701 100.258 310.508 100.386C310.314 100.515 310.094 100.58 309.848 100.58C309.61 100.58 309.394 100.515 309.2 100.386C309.006 100.258 308.838 100.076 308.697 99.8409C308.555 99.5985 308.447 99.3144 308.373 98.9886C308.298 98.6553 308.261 98.2879 308.261 97.8864ZM306.707 97.8864C306.707 98.7273 306.838 99.4545 307.099 100.068C307.367 100.682 307.736 101.159 308.205 101.5C308.682 101.833 309.23 102 309.848 102C310.489 102 311.044 101.833 311.513 101.5C311.983 101.159 312.348 100.682 312.609 100.068C312.87 99.4545 313 98.7273 313 97.8864C313 97.0455 312.87 96.3182 312.609 95.7045C312.348 95.0909 311.983 94.6174 311.513 94.2841C311.044 93.9432 310.489 93.7727 309.848 93.7727C309.23 93.7727 308.682 93.9432 308.205 94.2841C307.736 94.6174 307.367 95.0909 307.099 95.7045C306.838 96.3182 306.707 97.0455 306.707 97.8864Z" fill="black"/>
<path d="M358 95.9773L359.893 95.4773V101.864H361.458V93.7727L358 94.5114V95.9773Z" fill="black"/>
<path d="M369.268 99.2955C369.268 98.75 369.155 98.2841 368.93 97.8977C368.712 97.5038 368.423 97.2008 368.062 96.9886C367.702 96.7765 367.307 96.6705 366.879 96.6705C366.647 96.6705 366.418 96.6932 366.192 96.7386C365.974 96.7765 365.768 96.8485 365.573 96.9545L366.046 95.3182H369.144V93.9091H364.852L363.77 98.3864C364.041 98.2348 364.296 98.1212 364.536 98.0455C364.784 97.9621 365.024 97.9053 365.257 97.875C365.49 97.8371 365.712 97.8182 365.922 97.8182C366.207 97.8182 366.47 97.8712 366.71 97.9773C366.958 98.0758 367.154 98.2235 367.296 98.4205C367.446 98.6174 367.522 98.8598 367.522 99.1477C367.522 99.4432 367.458 99.6932 367.33 99.8977C367.202 100.095 367.018 100.246 366.778 100.352C366.545 100.458 366.26 100.511 365.922 100.511C365.704 100.511 365.475 100.47 365.235 100.386C364.994 100.295 364.762 100.174 364.536 100.023C364.318 99.8712 364.116 99.7008 363.928 99.5114L363.173 100.773C363.391 100.992 363.643 101.197 363.928 101.386C364.213 101.568 364.544 101.716 364.919 101.83C365.302 101.943 365.734 102 366.215 102C366.598 102 366.97 101.947 367.33 101.841C367.69 101.735 368.017 101.572 368.31 101.352C368.603 101.133 368.836 100.852 369.009 100.511C369.181 100.17 369.268 99.7652 369.268 99.2955Z" fill="black"/>
<path d="M371.905 93H370.441V101.864H371.905V93ZM373.786 98.6818V101.864H375.251V98.4659C375.251 98.0341 375.187 97.6705 375.059 97.375C374.932 97.072 374.736 96.8447 374.473 96.6932C374.211 96.5417 373.876 96.4659 373.471 96.4659C373.065 96.4659 372.724 96.5644 372.446 96.7614C372.168 96.9583 371.958 97.2235 371.815 97.5568C371.68 97.8902 371.612 98.2652 371.612 98.6818H371.905C371.905 98.4621 371.946 98.2727 372.029 98.1136C372.112 97.9545 372.232 97.8333 372.389 97.75C372.547 97.6591 372.727 97.6136 372.93 97.6136C373.238 97.6136 373.456 97.7045 373.584 97.8864C373.719 98.0682 373.786 98.3333 373.786 98.6818Z" fill="black"/>
<path d="M377.985 97.8864C377.985 97.4848 378.022 97.1212 378.097 96.7955C378.172 96.4621 378.281 96.178 378.424 95.9432C378.567 95.7008 378.736 95.5152 378.931 95.3864C379.126 95.2576 379.344 95.1932 379.584 95.1932C379.832 95.1932 380.054 95.2576 380.249 95.3864C380.444 95.5152 380.613 95.7008 380.756 95.9432C380.899 96.178 381.008 96.4621 381.083 96.7955C381.158 97.1212 381.195 97.4848 381.195 97.8864C381.195 98.2879 381.158 98.6553 381.083 98.9886C381.008 99.3144 380.899 99.5985 380.756 99.8409C380.613 100.076 380.444 100.258 380.249 100.386C380.054 100.515 379.832 100.58 379.584 100.58C379.344 100.58 379.126 100.515 378.931 100.386C378.736 100.258 378.567 100.076 378.424 99.8409C378.281 99.5985 378.172 99.3144 378.097 98.9886C378.022 98.6553 377.985 98.2879 377.985 97.8864ZM376.419 97.8864C376.419 98.7273 376.55 99.4545 376.813 100.068C377.084 100.682 377.455 101.159 377.928 101.5C378.409 101.833 378.961 102 379.584 102C380.23 102 380.79 101.833 381.263 101.5C381.736 101.159 382.104 100.682 382.367 100.068C382.63 99.4545 382.761 98.7273 382.761 97.8864C382.761 97.0455 382.63 96.3182 382.367 95.7045C382.104 95.0909 381.736 94.6174 381.263 94.2841C380.79 93.9432 380.23 93.7727 379.584 93.7727C378.961 93.7727 378.409 93.9432 377.928 94.2841C377.455 94.6174 377.084 95.0909 376.813 95.7045C376.55 96.3182 376.419 97.0455 376.419 97.8864Z" fill="black"/>
<path d="M385.224 97.8864C385.224 97.4848 385.261 97.1212 385.336 96.7955C385.411 96.4621 385.52 96.178 385.663 95.9432C385.806 95.7008 385.975 95.5152 386.17 95.3864C386.365 95.2576 386.583 95.1932 386.823 95.1932C387.071 95.1932 387.293 95.2576 387.488 95.3864C387.683 95.5152 387.852 95.7008 387.995 95.9432C388.137 96.178 388.246 96.4621 388.321 96.7955C388.397 97.1212 388.434 97.4848 388.434 97.8864C388.434 98.2879 388.397 98.6553 388.321 98.9886C388.246 99.3144 388.137 99.5985 387.995 99.8409C387.852 100.076 387.683 100.258 387.488 100.386C387.293 100.515 387.071 100.58 386.823 100.58C386.583 100.58 386.365 100.515 386.17 100.386C385.975 100.258 385.806 100.076 385.663 99.8409C385.52 99.5985 385.411 99.3144 385.336 98.9886C385.261 98.6553 385.224 98.2879 385.224 97.8864ZM383.658 97.8864C383.658 98.7273 383.789 99.4545 384.052 100.068C384.322 100.682 384.694 101.159 385.167 101.5C385.648 101.833 386.2 102 386.823 102C387.469 102 388.029 101.833 388.502 101.5C388.975 101.159 389.343 100.682 389.606 100.068C389.869 99.4545 390 98.7273 390 97.8864C390 97.0455 389.869 96.3182 389.606 95.7045C389.343 95.0909 388.975 94.6174 388.502 94.2841C388.029 93.9432 387.469 93.7727 386.823 93.7727C386.2 93.7727 385.648 93.9432 385.167 94.2841C384.694 94.6174 384.322 95.0909 384.052 95.7045C383.789 96.3182 383.658 97.0455 383.658 97.8864Z" fill="black"/>
<path d="M187 154.29C187 153.578 187.597 153 188.333 153H249.667C250.403 153 251 153.578 251 154.29V171.71C251 172.422 250.403 173 249.667 173H188.333C187.597 173 187 172.422 187 171.71V154.29Z" fill="#D21B33"/>
<path d="M198.777 162L201.123 165.487H203.011L200.464 162H198.777ZM197 158V165.487H198.598V158H197ZM197.972 159.305H199.525C199.808 159.305 200.05 159.351 200.251 159.444C200.46 159.529 200.62 159.658 200.732 159.829C200.844 159.993 200.9 160.193 200.9 160.428C200.9 160.663 200.844 160.866 200.732 161.037C200.62 161.201 200.46 161.33 200.251 161.422C200.05 161.508 199.808 161.551 199.525 161.551H197.972V162.77H199.626C200.244 162.77 200.769 162.67 201.201 162.471C201.633 162.271 201.965 161.993 202.196 161.636C202.427 161.273 202.542 160.856 202.542 160.385C202.542 159.907 202.427 159.49 202.196 159.134C201.965 158.777 201.633 158.499 201.201 158.299C200.769 158.1 200.244 158 199.626 158H197.972V159.305Z" fill="white"/>
<path d="M206.219 165.594C206.838 165.594 207.367 165.479 207.806 165.251C208.253 165.016 208.611 164.667 208.879 164.203L207.616 163.829C207.467 164.064 207.277 164.242 207.046 164.364C206.823 164.478 206.551 164.535 206.231 164.535C205.948 164.535 205.705 164.474 205.504 164.353C205.303 164.232 205.15 164.057 205.046 163.829C204.949 163.601 204.901 163.323 204.901 162.995C204.908 162.652 204.961 162.367 205.057 162.139C205.162 161.904 205.307 161.729 205.493 161.615C205.687 161.494 205.925 161.433 206.208 161.433C206.439 161.433 206.64 161.483 206.812 161.583C206.983 161.683 207.113 161.818 207.203 161.989C207.3 162.16 207.348 162.367 207.348 162.61C207.348 162.66 207.333 162.724 207.303 162.802C207.281 162.873 207.255 162.93 207.225 162.973L207.616 162.481H204.275V163.337H208.879C208.886 163.294 208.89 163.237 208.89 163.166C208.897 163.094 208.901 163.027 208.901 162.963C208.901 162.435 208.797 161.986 208.588 161.615C208.38 161.237 208.074 160.952 207.672 160.759C207.277 160.56 206.797 160.46 206.231 160.46C205.664 160.46 205.173 160.567 204.756 160.781C204.339 160.988 204.015 161.283 203.784 161.668C203.56 162.046 203.448 162.499 203.448 163.027C203.448 163.547 203.56 164 203.784 164.385C204.015 164.763 204.339 165.059 204.756 165.273C205.173 165.487 205.661 165.594 206.219 165.594Z" fill="white"/>
<path d="M210.25 163.786L209.546 164.652C209.739 164.831 209.955 164.998 210.194 165.155C210.439 165.305 210.711 165.426 211.009 165.519C211.315 165.611 211.65 165.658 212.015 165.658C212.603 165.658 213.065 165.522 213.4 165.251C213.736 164.973 213.903 164.588 213.903 164.096C213.903 163.797 213.832 163.554 213.691 163.369C213.549 163.184 213.359 163.03 213.121 162.909C212.89 162.781 212.637 162.667 212.361 162.567C212.138 162.474 211.937 162.396 211.758 162.332C211.587 162.267 211.453 162.196 211.356 162.118C211.266 162.032 211.222 161.936 211.222 161.829C211.222 161.708 211.266 161.619 211.356 161.561C211.453 161.497 211.583 161.465 211.747 161.465C211.993 161.465 212.242 161.526 212.495 161.647C212.756 161.768 212.98 161.925 213.166 162.118L213.803 161.262C213.639 161.105 213.449 160.97 213.233 160.856C213.017 160.734 212.782 160.638 212.529 160.567C212.276 160.496 212.004 160.46 211.713 160.46C211.371 160.46 211.058 160.513 210.775 160.62C210.499 160.72 210.279 160.873 210.115 161.08C209.952 161.28 209.87 161.526 209.87 161.818C209.87 162.125 209.94 162.378 210.082 162.578C210.231 162.77 210.417 162.927 210.641 163.048C210.864 163.162 211.095 163.262 211.333 163.348C211.587 163.426 211.795 163.501 211.959 163.572C212.123 163.643 212.246 163.725 212.328 163.818C212.417 163.904 212.462 164.011 212.462 164.139C212.462 164.282 212.41 164.396 212.305 164.481C212.201 164.56 212.052 164.599 211.859 164.599C211.71 164.599 211.549 164.57 211.378 164.513C211.214 164.456 211.039 164.371 210.853 164.257C210.667 164.135 210.466 163.979 210.25 163.786Z" fill="white"/>
<path d="M217.327 165.594C217.946 165.594 218.475 165.479 218.914 165.251C219.361 165.016 219.719 164.667 219.987 164.203L218.724 163.829C218.575 164.064 218.385 164.242 218.154 164.364C217.931 164.478 217.659 164.535 217.339 164.535C217.055 164.535 216.813 164.474 216.612 164.353C216.411 164.232 216.258 164.057 216.154 163.829C216.057 163.601 216.009 163.323 216.009 162.995C216.016 162.652 216.069 162.367 216.165 162.139C216.27 161.904 216.415 161.729 216.601 161.615C216.795 161.494 217.033 161.433 217.316 161.433C217.547 161.433 217.748 161.483 217.92 161.583C218.091 161.683 218.221 161.818 218.311 161.989C218.407 162.16 218.456 162.367 218.456 162.61C218.456 162.66 218.441 162.724 218.411 162.802C218.389 162.873 218.363 162.93 218.333 162.973L218.724 162.481H215.383V163.337H219.987C219.994 163.294 219.998 163.237 219.998 163.166C220.005 163.094 220.009 163.027 220.009 162.963C220.009 162.435 219.905 161.986 219.696 161.615C219.488 161.237 219.182 160.952 218.78 160.759C218.385 160.56 217.905 160.46 217.339 160.46C216.772 160.46 216.281 160.567 215.864 160.781C215.447 160.988 215.122 161.283 214.892 161.668C214.668 162.046 214.556 162.499 214.556 163.027C214.556 163.547 214.668 164 214.892 164.385C215.122 164.763 215.447 165.059 215.864 165.273C216.281 165.487 216.769 165.594 217.327 165.594Z" fill="white"/>
<path d="M222.52 160.567H221.101V165.487H222.52V160.567ZM224.028 162.011L224.687 160.834C224.583 160.706 224.445 160.61 224.274 160.545C224.11 160.481 223.935 160.449 223.749 160.449C223.48 160.449 223.22 160.542 222.966 160.727C222.713 160.906 222.508 161.148 222.352 161.455C222.196 161.754 222.117 162.1 222.117 162.492L222.52 162.877C222.52 162.642 222.549 162.442 222.609 162.278C222.676 162.107 222.773 161.975 222.899 161.882C223.026 161.79 223.179 161.743 223.358 161.743C223.507 161.743 223.629 161.768 223.726 161.818C223.831 161.861 223.931 161.925 224.028 162.011Z" fill="white"/>
<path d="M225.055 160.567L227.871 166L230.686 160.567H229.133L227.871 163.529L226.608 160.567H225.055Z" fill="white"/>
<path d="M233.64 165.594C234.258 165.594 234.787 165.479 235.227 165.251C235.674 165.016 236.031 164.667 236.299 164.203L235.037 163.829C234.888 164.064 234.698 164.242 234.467 164.364C234.244 164.478 233.972 164.535 233.651 164.535C233.368 164.535 233.126 164.474 232.925 164.353C232.724 164.232 232.571 164.057 232.467 163.829C232.37 163.601 232.322 163.323 232.322 162.995C232.329 162.652 232.381 162.367 232.478 162.139C232.582 161.904 232.728 161.729 232.914 161.615C233.108 161.494 233.346 161.433 233.629 161.433C233.86 161.433 234.061 161.483 234.232 161.583C234.404 161.683 234.534 161.818 234.623 161.989C234.72 162.16 234.769 162.367 234.769 162.61C234.769 162.66 234.754 162.724 234.724 162.802C234.702 162.873 234.676 162.93 234.646 162.973L235.037 162.481H231.696V163.337H236.299C236.307 163.294 236.311 163.237 236.311 163.166C236.318 163.094 236.322 163.027 236.322 162.963C236.322 162.435 236.218 161.986 236.009 161.615C235.8 161.237 235.495 160.952 235.093 160.759C234.698 160.56 234.217 160.46 233.651 160.46C233.085 160.46 232.594 160.567 232.176 160.781C231.759 160.988 231.435 161.283 231.204 161.668C230.981 162.046 230.869 162.499 230.869 163.027C230.869 163.547 230.981 164 231.204 164.385C231.435 164.763 231.759 165.059 232.176 165.273C232.594 165.487 233.082 165.594 233.64 165.594Z" fill="white"/>
<path d="M238.832 160.567H237.413V165.487H238.832V160.567ZM240.341 162.011L241 160.834C240.896 160.706 240.758 160.61 240.587 160.545C240.423 160.481 240.248 160.449 240.061 160.449C239.793 160.449 239.533 160.542 239.279 160.727C239.026 160.906 238.821 161.148 238.665 161.455C238.508 161.754 238.43 162.1 238.43 162.492L238.832 162.877C238.832 162.642 238.862 162.442 238.922 162.278C238.989 162.107 239.086 161.975 239.212 161.882C239.339 161.79 239.492 161.743 239.67 161.743C239.819 161.743 239.942 161.768 240.039 161.818C240.143 161.861 240.244 161.925 240.341 162.011Z" fill="white"/>
<path d="M476.739 96.3515H479.906V95.3635H476.739V96.3515ZM476.739 98.9427H479.805V97.9827H476.739V98.9427ZM476 95.3635V101.888H477.174V95.3635H476Z" fill="black"/>
<path d="M482.157 98.6258C482.157 98.1598 482.268 97.7559 482.491 97.4141C482.72 97.0661 483.017 96.7989 483.381 96.6125C483.752 96.4199 484.154 96.3236 484.585 96.3236C484.923 96.3236 485.226 96.364 485.496 96.4447C485.766 96.5255 486.009 96.6374 486.225 96.7803C486.447 96.917 486.639 97.0723 486.801 97.2463V95.9414C486.505 95.7177 486.184 95.5468 485.84 95.4288C485.496 95.3107 485.064 95.2517 484.545 95.2517C484.026 95.2517 483.54 95.3324 483.088 95.494C482.643 95.6556 482.255 95.8886 481.924 96.1931C481.594 96.4976 481.334 96.858 481.145 97.2743C480.963 97.6844 480.872 98.1349 480.872 98.6258C480.872 99.1167 480.963 99.5704 481.145 99.9867C481.334 100.397 481.594 100.754 481.924 101.059C482.255 101.363 482.643 101.596 483.088 101.758C483.54 101.919 484.026 102 484.545 102C485.064 102 485.496 101.941 485.84 101.823C486.184 101.705 486.505 101.534 486.801 101.31V100.005C486.639 100.179 486.447 100.338 486.225 100.481C486.009 100.617 485.766 100.726 485.496 100.807C485.226 100.888 484.923 100.928 484.585 100.928C484.154 100.928 483.752 100.835 483.381 100.648C483.017 100.456 482.72 100.186 482.491 99.8375C482.268 99.4896 482.157 99.0857 482.157 98.6258Z" fill="black"/>
<path d="M489.011 96.3515H492.178V95.3635H489.011V96.3515ZM489.011 98.9427H492.077V97.9827H489.011V98.9427ZM488.273 95.3635V101.888H489.446V95.3635H488.273Z" fill="black"/>
<path d="M493.688 100.21H497.432L497.199 99.2783H493.91L493.688 100.21ZM495.539 97.2091L496.663 99.6325L496.693 99.9028L497.654 101.888H499L495.539 95L492.079 101.888H493.425L494.406 99.8469L494.426 99.6045L495.539 97.2091Z" fill="black"/>
<path d="M421.41 95.0328C421.41 95.5574 421.52 96.0164 421.738 96.4098C421.968 96.7923 422.269 97.1148 422.641 97.377C423.013 97.6284 423.428 97.8142 423.888 97.9344C424.347 98.0546 424.812 98.1148 425.283 98.1148C425.753 98.1148 426.218 98.0546 426.677 97.9344C427.137 97.8142 427.553 97.6284 427.924 97.377C428.307 97.1148 428.608 96.7923 428.827 96.4098C429.057 96.0164 429.172 95.5574 429.172 95.0328C429.172 94.388 428.991 93.8415 428.63 93.3934C428.28 92.9344 427.81 92.5902 427.219 92.3607C426.639 92.1202 425.994 92 425.283 92C424.583 92 423.937 92.1202 423.346 92.3607C422.767 92.5902 422.296 92.9344 421.935 93.3934C421.585 93.8415 421.41 94.388 421.41 95.0328ZM424.019 95.2951C424.019 95.0437 424.068 94.8197 424.167 94.6229C424.276 94.4153 424.429 94.2568 424.626 94.1475C424.823 94.0383 425.042 93.9836 425.283 93.9836C425.545 93.9836 425.769 94.0383 425.955 94.1475C426.152 94.2568 426.3 94.4153 426.398 94.6229C426.508 94.8197 426.563 95.0437 426.563 95.2951C426.563 95.5574 426.508 95.7869 426.398 95.9836C426.289 96.1803 426.136 96.3333 425.939 96.4426C425.753 96.5519 425.534 96.6066 425.283 96.6066C425.042 96.6066 424.823 96.5519 424.626 96.4426C424.44 96.3333 424.293 96.1803 424.183 95.9836C424.074 95.7869 424.019 95.5574 424.019 95.2951ZM421 100.623C421 101.148 421.115 101.617 421.345 102.033C421.574 102.448 421.892 102.803 422.296 103.098C422.701 103.393 423.16 103.617 423.675 103.77C424.189 103.923 424.725 104 425.283 104C425.851 104 426.393 103.923 426.907 103.77C427.421 103.617 427.881 103.393 428.285 103.098C428.69 102.803 429.007 102.448 429.237 102.033C429.467 101.617 429.582 101.148 429.582 100.623C429.582 100.022 429.45 99.5082 429.188 99.082C428.925 98.6448 428.575 98.2951 428.138 98.0328C427.711 97.7596 427.246 97.5628 426.743 97.4426C426.24 97.3115 425.753 97.2459 425.283 97.2459C424.812 97.2459 424.325 97.3115 423.822 97.4426C423.319 97.5628 422.854 97.7596 422.428 98.0328C422.001 98.2951 421.656 98.6448 421.394 99.082C421.131 99.5082 421 100.022 421 100.623ZM423.757 100.197C423.757 99.9235 423.822 99.6721 423.954 99.4426C424.096 99.2131 424.282 99.0328 424.511 98.9016C424.752 98.7705 425.009 98.7049 425.283 98.7049C425.567 98.7049 425.824 98.7705 426.054 98.9016C426.295 99.0328 426.48 99.2131 426.612 99.4426C426.754 99.6721 426.825 99.9235 426.825 100.197C426.825 100.536 426.754 100.82 426.612 101.049C426.48 101.279 426.295 101.454 426.054 101.574C425.824 101.694 425.567 101.754 425.283 101.754C425.009 101.754 424.752 101.694 424.511 101.574C424.282 101.454 424.096 101.279 423.954 101.049C423.822 100.82 423.757 100.536 423.757 100.197Z" fill="black"/>
<path d="M445.281 100.066C445.281 99.2678 445.117 98.5902 444.789 98.0328C444.46 97.4754 444.028 97.0492 443.492 96.7541C442.967 96.459 442.398 96.3115 441.786 96.3115C441.425 96.3115 441.075 96.3443 440.736 96.4098C440.407 96.4645 440.09 96.5628 439.784 96.7049L440.44 94.6557H445.035V92.2623H438.406L436.798 98.8852C437.191 98.6885 437.574 98.541 437.946 98.4426C438.329 98.3333 438.695 98.2623 439.046 98.2295C439.407 98.1858 439.735 98.1639 440.03 98.1639C440.413 98.1639 440.768 98.2186 441.097 98.3279C441.436 98.4372 441.709 98.612 441.917 98.8525C442.136 99.082 442.245 99.388 442.245 99.7705C442.245 100.131 442.158 100.437 441.983 100.689C441.808 100.94 441.556 101.126 441.228 101.246C440.9 101.366 440.5 101.426 440.03 101.426C439.757 101.426 439.45 101.377 439.111 101.279C438.772 101.169 438.433 101.027 438.094 100.852C437.766 100.667 437.443 100.443 437.126 100.18L436.043 102.459C436.404 102.732 436.803 102.984 437.241 103.213C437.678 103.432 438.181 103.607 438.75 103.738C439.319 103.88 439.953 103.951 440.654 103.951C441.211 103.951 441.758 103.88 442.294 103.738C442.841 103.585 443.339 103.35 443.788 103.033C444.247 102.716 444.608 102.311 444.871 101.82C445.144 101.328 445.281 100.743 445.281 100.066Z" fill="black"/>
<path d="M449.26 98C449.26 97.4645 449.31 96.9781 449.408 96.541C449.507 96.0929 449.649 95.7158 449.835 95.4098C450.021 95.0929 450.239 94.8525 450.491 94.6885C450.754 94.5137 451.044 94.4262 451.361 94.4262C451.678 94.4262 451.962 94.5137 452.214 94.6885C452.477 94.8525 452.701 95.0929 452.887 95.4098C453.073 95.7158 453.215 96.0929 453.313 96.541C453.412 96.9781 453.461 97.4645 453.461 98C453.461 98.5355 453.412 99.0273 453.313 99.4754C453.215 99.9126 453.073 100.29 452.887 100.607C452.701 100.913 452.477 101.153 452.214 101.328C451.962 101.492 451.678 101.574 451.361 101.574C451.044 101.574 450.754 101.492 450.491 101.328C450.239 101.153 450.021 100.913 449.835 100.607C449.649 100.29 449.507 99.9126 449.408 99.4754C449.31 99.0273 449.26 98.5355 449.26 98ZM446.586 98C446.586 99.2459 446.783 100.311 447.177 101.197C447.581 102.082 448.145 102.765 448.867 103.246C449.589 103.716 450.42 103.951 451.361 103.951C452.345 103.951 453.193 103.716 453.904 103.246C454.615 102.765 455.162 102.082 455.545 101.197C455.939 100.311 456.136 99.2459 456.136 98C456.136 96.7541 455.939 95.6885 455.545 94.8033C455.162 93.918 454.615 93.2404 453.904 92.7705C453.193 92.2896 452.345 92.0492 451.361 92.0492C450.42 92.0492 449.589 92.2896 448.867 92.7705C448.145 93.2404 447.581 93.918 447.177 94.8033C446.783 95.6885 446.586 96.7541 446.586 98Z" fill="black"/>
<path d="M460.125 98C460.125 97.4645 460.174 96.9781 460.272 96.541C460.371 96.0929 460.513 95.7158 460.699 95.4098C460.885 95.0929 461.104 94.8525 461.355 94.6885C461.618 94.5137 461.908 94.4262 462.225 94.4262C462.542 94.4262 462.827 94.5137 463.078 94.6885C463.341 94.8525 463.565 95.0929 463.751 95.4098C463.937 95.7158 464.079 96.0929 464.178 96.541C464.276 96.9781 464.325 97.4645 464.325 98C464.325 98.5355 464.276 99.0273 464.178 99.4754C464.079 99.9126 463.937 100.29 463.751 100.607C463.565 100.913 463.341 101.153 463.078 101.328C462.827 101.492 462.542 101.574 462.225 101.574C461.908 101.574 461.618 101.492 461.355 101.328C461.104 101.153 460.885 100.913 460.699 100.607C460.513 100.29 460.371 99.9126 460.272 99.4754C460.174 99.0273 460.125 98.5355 460.125 98ZM457.45 98C457.45 99.2459 457.647 100.311 458.041 101.197C458.446 102.082 459.009 102.765 459.731 103.246C460.453 103.716 461.284 103.951 462.225 103.951C463.21 103.951 464.057 103.716 464.768 103.246C465.479 102.765 466.026 102.082 466.409 101.197C466.803 100.311 467 99.2459 467 98C467 96.7541 466.803 95.6885 466.409 94.8033C466.026 93.918 465.479 93.2404 464.768 92.7705C464.057 92.2896 463.21 92.0492 462.225 92.0492C461.284 92.0492 460.453 92.2896 459.731 92.7705C459.009 93.2404 458.446 93.918 458.041 94.8033C457.647 95.6885 457.45 96.7541 457.45 98Z" fill="black"/>
<path d="M290 124.376V131.893H294.342V130.55H291.471V124.376H290Z" fill="black"/>
<path d="M294.742 129.423C294.742 129.931 294.855 130.382 295.082 130.776C295.315 131.162 295.627 131.463 296.018 131.678C296.416 131.893 296.865 132 297.366 132C297.866 132 298.312 131.893 298.703 131.678C299.101 131.463 299.413 131.162 299.639 130.776C299.873 130.382 299.989 129.931 299.989 129.423C299.989 128.907 299.873 128.456 299.639 128.07C299.413 127.683 299.101 127.383 298.703 127.168C298.312 126.953 297.866 126.846 297.366 126.846C296.865 126.846 296.416 126.953 296.018 127.168C295.627 127.383 295.315 127.683 295.082 128.07C294.855 128.456 294.742 128.907 294.742 129.423ZM296.1 129.423C296.1 129.144 296.155 128.897 296.265 128.682C296.381 128.467 296.536 128.302 296.728 128.188C296.92 128.073 297.132 128.016 297.366 128.016C297.599 128.016 297.811 128.073 298.004 128.188C298.196 128.302 298.346 128.467 298.456 128.682C298.573 128.897 298.631 129.144 298.631 129.423C298.631 129.702 298.573 129.949 298.456 130.164C298.346 130.371 298.196 130.536 298.004 130.658C297.811 130.772 297.599 130.83 297.366 130.83C297.132 130.83 296.92 130.772 296.728 130.658C296.536 130.536 296.381 130.371 296.265 130.164C296.155 129.949 296.1 129.702 296.1 129.423Z" fill="black"/>
<path d="M307.985 128.736C307.985 128.335 307.93 127.995 307.821 127.715C307.718 127.429 307.556 127.214 307.337 127.071C307.117 126.921 306.833 126.846 306.483 126.846C306.161 126.846 305.873 126.917 305.619 127.06C305.372 127.204 305.163 127.415 304.991 127.694C304.888 127.415 304.724 127.204 304.497 127.06C304.271 126.917 303.983 126.846 303.633 126.846C303.318 126.846 303.047 126.917 302.82 127.06C302.594 127.204 302.412 127.411 302.275 127.683V126.953H300.989V131.893H302.275V128.886C302.275 128.671 302.309 128.489 302.378 128.338C302.446 128.181 302.543 128.066 302.666 127.995C302.789 127.916 302.933 127.877 303.098 127.877C303.345 127.877 303.523 127.962 303.633 128.134C303.743 128.299 303.798 128.549 303.798 128.886V131.893H305.125V128.886C305.125 128.671 305.159 128.489 305.228 128.338C305.296 128.181 305.392 128.066 305.516 127.995C305.639 127.916 305.783 127.877 305.948 127.877C306.195 127.877 306.373 127.962 306.483 128.134C306.593 128.299 306.648 128.549 306.648 128.886V131.893H307.985V128.736Z" fill="black"/>
<path d="M309.741 129.734H313.979C313.993 129.655 314 129.584 314 129.519C314 129.455 314 129.401 314 129.358C314 128.836 313.904 128.388 313.712 128.016C313.52 127.644 313.239 127.357 312.868 127.157C312.505 126.949 312.062 126.846 311.541 126.846C311.068 126.846 310.653 126.932 310.296 127.103C309.939 127.275 309.655 127.515 309.442 127.823C309.23 128.131 309.089 128.489 309.02 128.897C309.007 128.983 308.996 129.068 308.989 129.154C308.983 129.24 308.979 129.33 308.979 129.423C308.979 129.917 309.079 130.361 309.278 130.754C309.483 131.141 309.778 131.445 310.162 131.667C310.546 131.889 311.003 132 311.531 132C311.97 132 312.34 131.943 312.642 131.828C312.951 131.714 313.211 131.553 313.424 131.345C313.636 131.13 313.822 130.883 313.979 130.604L312.817 130.228C312.735 130.371 312.632 130.497 312.508 130.604C312.385 130.711 312.244 130.794 312.086 130.851C311.929 130.908 311.747 130.937 311.541 130.937C311.308 130.937 311.099 130.887 310.913 130.787C310.728 130.679 310.581 130.515 310.471 130.293C310.368 130.064 310.317 129.774 310.317 129.423L310.337 129.144C310.337 128.872 310.389 128.635 310.492 128.435C310.594 128.234 310.735 128.084 310.913 127.984C311.092 127.877 311.294 127.823 311.52 127.823C311.74 127.823 311.922 127.866 312.066 127.952C312.21 128.038 312.323 128.159 312.405 128.317C312.488 128.474 312.542 128.66 312.57 128.875H309.741V129.734ZM313.28 124.526L312.22 124L310.677 125.718L311.428 126.137L313.28 124.526Z" fill="black"/>
<path d="M286 128.5C286 130.433 284.657 132 283 132C281.343 132 280 130.433 280 128.5C280 126.567 281.343 125 283 125C284.657 125 286 126.567 286 128.5Z" fill="#D21B33"/>
<path d="M370 125V131.901H371.501V125H370ZM374.044 125L371.072 128.273L374.157 131.901H375.934L372.819 128.234L375.78 125H374.044Z" fill="black"/>
<path d="M377.539 130.492C377.539 130.36 377.57 130.252 377.631 130.166C377.692 130.074 377.788 130.005 377.917 129.959C378.046 129.907 378.213 129.88 378.417 129.88C378.669 129.88 378.908 129.913 379.132 129.979C379.364 130.045 379.571 130.143 379.755 130.275V129.683C379.687 129.604 379.575 129.522 379.418 129.437C379.262 129.351 379.068 129.279 378.836 129.22C378.611 129.161 378.349 129.131 378.05 129.131C377.464 129.131 377.011 129.259 376.691 129.515C376.371 129.772 376.211 130.12 376.211 130.561C376.211 130.869 376.286 131.132 376.436 131.349C376.593 131.56 376.797 131.721 377.049 131.832C377.301 131.944 377.573 132 377.866 132C378.152 132 378.424 131.951 378.683 131.852C378.948 131.754 379.163 131.606 379.326 131.408C379.497 131.211 379.582 130.968 379.582 130.679L379.418 130.087C379.418 130.304 379.367 130.492 379.265 130.649C379.163 130.8 379.03 130.919 378.867 131.004C378.703 131.083 378.52 131.123 378.315 131.123C378.172 131.123 378.04 131.1 377.917 131.054C377.801 131.001 377.709 130.929 377.641 130.837C377.573 130.738 377.539 130.623 377.539 130.492ZM377.028 128.648C377.097 128.602 377.202 128.546 377.345 128.48C377.488 128.415 377.658 128.359 377.856 128.313C378.053 128.267 378.261 128.244 378.479 128.244C378.622 128.244 378.751 128.257 378.867 128.283C378.982 128.309 379.081 128.352 379.163 128.411C379.251 128.47 379.316 128.546 379.357 128.638C379.398 128.723 379.418 128.829 379.418 128.954V131.901H380.695V128.687C380.695 128.378 380.606 128.119 380.429 127.908C380.252 127.692 380.007 127.527 379.694 127.415C379.381 127.304 379.023 127.248 378.622 127.248C378.186 127.248 377.791 127.307 377.437 127.425C377.083 127.537 376.783 127.655 376.538 127.78L377.028 128.648Z" fill="black"/>
<path d="M383.222 127.366H381.925V131.901H383.222V127.366ZM384.601 128.697L385.204 127.613C385.108 127.494 384.982 127.406 384.826 127.346C384.676 127.287 384.516 127.258 384.346 127.258C384.101 127.258 383.862 127.343 383.631 127.514C383.399 127.678 383.212 127.902 383.069 128.185C382.926 128.461 382.855 128.779 382.855 129.141L383.222 129.496C383.222 129.279 383.25 129.095 383.304 128.944C383.365 128.786 383.454 128.664 383.57 128.579C383.685 128.493 383.825 128.451 383.988 128.451C384.124 128.451 384.237 128.474 384.325 128.52C384.421 128.559 384.513 128.618 384.601 128.697Z" fill="black"/>
<path d="M386.844 130.492C386.844 130.36 386.875 130.252 386.936 130.166C386.997 130.074 387.093 130.005 387.222 129.959C387.351 129.907 387.518 129.88 387.723 129.88C387.974 129.88 388.213 129.913 388.437 129.979C388.669 130.045 388.877 130.143 389.06 130.275V129.683C388.992 129.604 388.88 129.522 388.723 129.437C388.567 129.351 388.373 129.279 388.141 129.22C387.917 129.161 387.654 129.131 387.355 129.131C386.769 129.131 386.317 129.259 385.997 129.515C385.677 129.772 385.517 130.12 385.517 130.561C385.517 130.869 385.591 131.132 385.741 131.349C385.898 131.56 386.102 131.721 386.354 131.832C386.606 131.944 386.878 132 387.171 132C387.457 132 387.729 131.951 387.988 131.852C388.254 131.754 388.468 131.606 388.631 131.408C388.802 131.211 388.887 130.968 388.887 130.679L388.723 130.087C388.723 130.304 388.672 130.492 388.57 130.649C388.468 130.8 388.335 130.919 388.172 131.004C388.009 131.083 387.825 131.123 387.62 131.123C387.477 131.123 387.345 131.1 387.222 131.054C387.106 131.001 387.014 130.929 386.946 130.837C386.878 130.738 386.844 130.623 386.844 130.492ZM386.334 128.648C386.402 128.602 386.507 128.546 386.65 128.48C386.793 128.415 386.963 128.359 387.161 128.313C387.358 128.267 387.566 128.244 387.784 128.244C387.927 128.244 388.056 128.257 388.172 128.283C388.288 128.309 388.386 128.352 388.468 128.411C388.557 128.47 388.621 128.546 388.662 128.638C388.703 128.723 388.723 128.829 388.723 128.954V131.901H390V128.687C390 128.378 389.911 128.119 389.734 127.908C389.557 127.692 389.312 127.527 388.999 127.415C388.686 127.304 388.329 127.248 387.927 127.248C387.491 127.248 387.096 127.307 386.742 127.425C386.388 127.537 386.089 127.655 385.843 127.78L386.334 128.648Z" fill="black"/>
<path d="M366 128.5C366 130.433 364.657 132 363 132C361.343 132 360 130.433 360 128.5C360 126.567 361.343 125 363 125C364.657 125 366 126.567 366 128.5Z" fill="#D21B33"/>
<path fill-rule="evenodd" clip-rule="evenodd" d="M128.5 27C128.776 27 129 27.2964 129 27.662L129 29.3487C129 29.7143 128.776 30.0107 128.5 30.0107C128.224 30.0107 128 29.7143 128 29.3487L128 27.662C128 27.2964 128.224 27 128.5 27ZM128.5 32.0599C128.776 32.0599 129 32.3563 129 32.7219L129 36.0951C129 36.4608 128.776 36.7572 128.5 36.7572C128.224 36.7572 128 36.4608 128 36.0951L128 32.7219C128 32.3563 128.224 32.0599 128.5 32.0599ZM128.5 38.8063C128.776 38.8063 129 39.1027 129 39.4684L129 42.8416C129 43.2072 128.776 43.5036 128.5 43.5036C128.224 43.5036 128 43.2072 128 42.8416L128 39.4684C128 39.1027 128.224 38.8063 128.5 38.8063ZM128.5 45.5528C128.776 45.5528 129 45.8492 129 46.2148L129 49.5881C129 49.9537 128.776 50.2501 128.5 50.2501C128.224 50.2501 128 49.9537 128 49.5881L128 46.2148C128 45.8492 128.224 45.5528 128.5 45.5528ZM128.5 52.2993C128.776 52.2993 129 52.5957 129 52.9613L129 56.3345C129 56.7002 128.776 56.9966 128.5 56.9966C128.224 56.9966 128 56.7002 128 56.3345L128 52.9613C128 52.5957 128.224 52.2993 128.5 52.2993ZM128.5 59.0457C128.776 59.0457 129 59.3421 129 59.7078L129 63.081C129 63.4467 128.776 63.7431 128.5 63.7431C128.224 63.7431 128 63.4467 128 63.081L128 59.7078C128 59.3421 128.224 59.0457 128.5 59.0457ZM128.5 65.7922C128.776 65.7922 129 66.0886 129 66.4543L129 69.8275C129 70.1931 128.776 70.4895 128.5 70.4895C128.224 70.4895 128 70.1931 128 69.8275L128 66.4543C128 66.0886 128.224 65.7922 128.5 65.7922ZM128.5 72.5387C128.776 72.5387 129 72.8351 129 73.2007L129 76.574C129 76.9396 128.776 77.236 128.5 77.236C128.224 77.236 128 76.9396 128 76.574L128 73.2007C128 72.8351 128.224 72.5387 128.5 72.5387ZM128.5 79.2852C128.776 79.2852 129 79.5816 129 79.9472L129 83.3204C129 83.6861 128.776 83.9825 128.5 83.9825C128.224 83.9825 128 83.6861 128 83.3204L128 79.9472C128 79.5816 128.224 79.2852 128.5 79.2852ZM128.5 86.0316C128.776 86.0316 129 86.328 129 86.6937L129 90.0669C129 90.4325 128.776 90.7289 128.5 90.7289C128.224 90.7289 128 90.4325 128 90.0669L128 86.6937C128 86.328 128.224 86.0316 128.5 86.0316ZM128.5 92.7781C128.776 92.7781 129 93.0745 129 93.4401L129 96.8134C129 97.179 128.776 97.4754 128.5 97.4754C128.224 97.4754 128 97.179 128 96.8134L128 93.4401C128 93.0745 128.224 92.7781 128.5 92.7781ZM128.5 99.5246C128.776 99.5246 129 99.821 129 100.187L129 103.56C129 103.925 128.776 104.222 128.5 104.222C128.224 104.222 128 103.925 128 103.56L128 100.187C128 99.821 128.224 99.5246 128.5 99.5246ZM128.5 106.271C128.776 106.271 129 106.567 129 106.933L129 110.306C129 110.672 128.776 110.968 128.5 110.968C128.224 110.968 128 110.672 128 110.306L128 106.933C128 106.567 128.224 106.271 128.5 106.271ZM128.5 113.018C128.776 113.018 129 113.314 129 113.68L129 117.053C129 117.418 128.776 117.715 128.5 117.715C128.224 117.715 128 117.418 128 117.053L128 113.68C128 113.314 128.224 113.018 128.5 113.018ZM128.5 119.764C128.776 119.764 129 120.06 129 120.426L129 123.799C129 124.165 128.776 124.461 128.5 124.461C128.224 124.461 128 124.165 128 123.799L128 120.426C128 120.06 128.224 119.764 128.5 119.764ZM128.5 126.51C128.776 126.51 129 126.807 129 127.173L129 130.546C129 130.911 128.776 131.208 128.5 131.208C128.224 131.208 128 130.911 128 130.546L128 127.173C128 126.807 128.224 126.51 128.5 126.51ZM128.5 133.257C128.776 133.257 129 133.553 129 133.919L129 137.292C129 137.658 128.776 137.954 128.5 137.954C128.224 137.954 128 137.658 128 137.292L128 133.919C128 133.553 128.224 133.257 128.5 133.257ZM128.5 140.003C128.776 140.003 129 140.3 129 140.665L129 144.039C129 144.404 128.776 144.701 128.5 144.701C128.224 144.701 128 144.404 128 144.039L128 140.665C128 140.3 128.224 140.003 128.5 140.003ZM128.5 146.75C128.776 146.75 129 147.046 129 147.412L129 150.785C129 151.151 128.776 151.447 128.5 151.447C128.224 151.447 128 151.151 128 150.785L128 147.412C128 147.046 128.224 146.75 128.5 146.75ZM128.5 153.496C128.776 153.496 129 153.793 129 154.158L129 157.532C129 157.897 128.776 158.194 128.5 158.194C128.224 158.194 128 157.897 128 157.532L128 154.158C128 153.793 128.224 153.496 128.5 153.496ZM128.5 160.243C128.776 160.243 129 160.539 129 160.905L129 164.278C129 164.644 128.776 164.94 128.5 164.94C128.224 164.94 128 164.644 128 164.278L128 160.905C128 160.539 128.224 160.243 128.5 160.243ZM128.5 166.989C128.776 166.989 129 167.286 129 167.651L129 169.338C129 169.704 128.776 170 128.5 170C128.224 170 128 169.704 128 169.338L128 167.651C128 167.286 128.224 166.989 128.5 166.989Z" fill="#156C52"/>
<defs>
<filter id="filter0_d_1267_2505" x="0" y="0" width="551" height="213" filterUnits="userSpaceOnUse" color-interpolation-filters="sRGB">
<feFlood flood-opacity="0" result="BackgroundImageFix"/>
<feColorMatrix in="SourceAlpha" type="matrix" values="0 0 0 0 0 0 0 0 0 0 0 0 0 0 0 0 0 0 127 0" result="hardAlpha"/>
<feOffset dy="5"/>
<feGaussianBlur stdDeviation="7.5"/>
<feComposite in2="hardAlpha" operator="out"/>
<feColorMatrix type="matrix" values="0 0 0 0 0 0 0 0 0 0 0 0 0 0 0 0 0 0 0.15 0"/>
<feBlend mode="normal" in2="BackgroundImageFix" result="effect1_dropShadow_1267_2505"/>
<feBlend mode="normal" in="SourceGraphic" in2="effect1_dropShadow_1267_2505" result="shape"/>
</filter>
</defs>
</svg>
