<svg width="184" height="16" viewBox="0 0 184 16" fill="none" xmlns="http://www.w3.org/2000/svg">
<path d="M2.91 6.75C3 6.23 3.17 5.745 3.42 5.295C3.68 4.845 3.995 4.455 4.365 4.125C4.745 3.785 5.165 3.52 5.625 3.33C6.085 3.14 6.57 3.045 7.08 3.045C7.74 3.045 8.305 3.18 8.775 3.45C9.255 3.72 9.655 4.08 9.975 4.53L10.305 2.43C9.885 2.06 9.43 1.78 8.94 1.59C8.45 1.4 7.87 1.31 7.2 1.32C6.42 1.32 5.68 1.46 4.98 1.74C4.29 2.02 3.665 2.41 3.105 2.91C2.555 3.4 2.1 3.975 1.74 4.635C1.38 5.285 1.14 5.99 1.02 6.75C0.92 7.47 0.95 8.16 1.11 8.82C1.27 9.48 1.545 10.06 1.935 10.56C2.325 11.06 2.82 11.455 3.42 11.745C4.02 12.035 4.7 12.18 5.46 12.18C6.16 12.18 6.78 12.085 7.32 11.895C7.87 11.695 8.385 11.42 8.865 11.07L9.18 8.985C8.73 9.385 8.215 9.73 7.635 10.02C7.065 10.31 6.42 10.45 5.7 10.44C5.2 10.44 4.76 10.34 4.38 10.14C4.01 9.94 3.7 9.67 3.45 9.33C3.2 8.98 3.03 8.585 2.94 8.145C2.85 7.705 2.84 7.24 2.91 6.75ZM10.8285 8.55C10.7385 9.21 10.8135 9.815 11.0535 10.365C11.2935 10.905 11.6635 11.335 12.1635 11.655C12.6635 11.975 13.2535 12.135 13.9335 12.135C14.6335 12.135 15.2785 11.98 15.8685 11.67C16.4585 11.35 16.9485 10.92 17.3385 10.38C17.7285 9.84 17.9685 9.23 18.0585 8.55C18.1485 7.89 18.0735 7.29 17.8335 6.75C17.5935 6.2 17.2235 5.765 16.7235 5.445C16.2335 5.115 15.6435 4.95 14.9535 4.95C14.2535 4.95 13.6035 5.11 13.0035 5.43C12.4135 5.74 11.9235 6.165 11.5335 6.705C11.1535 7.245 10.9185 7.86 10.8285 8.55ZM12.4485 8.55C12.5085 8.15 12.6485 7.785 12.8685 7.455C13.0985 7.125 13.3835 6.86 13.7235 6.66C14.0635 6.46 14.4285 6.365 14.8185 6.375C15.2085 6.375 15.5335 6.48 15.7935 6.69C16.0535 6.9 16.2385 7.17 16.3485 7.5C16.4585 7.82 16.4885 8.17 16.4385 8.55C16.3785 8.94 16.2335 9.305 16.0035 9.645C15.7835 9.975 15.5035 10.235 15.1635 10.425C14.8235 10.615 14.4535 10.71 14.0535 10.71C13.6635 10.71 13.3385 10.61 13.0785 10.41C12.8285 10.2 12.6485 9.93 12.5385 9.6C12.4285 9.27 12.3985 8.92 12.4485 8.55ZM19.8566 15.285L21.5666 5.1H19.9916L18.2216 15.3L19.8566 15.285ZM26.5466 8.55C26.6266 7.89 26.5716 7.285 26.3816 6.735C26.1916 6.185 25.8766 5.745 25.4366 5.415C25.0066 5.085 24.4716 4.92 23.8316 4.92C23.3616 4.92 22.9316 5.015 22.5416 5.205C22.1616 5.395 21.8266 5.66 21.5366 6C21.2466 6.33 21.0066 6.715 20.8166 7.155C20.6366 7.595 20.5116 8.06 20.4416 8.55C20.3816 9.01 20.3766 9.46 20.4266 9.9C20.4866 10.33 20.6016 10.72 20.7716 11.07C20.9516 11.41 21.2016 11.68 21.5216 11.88C21.8416 12.08 22.2316 12.18 22.6916 12.18C23.3316 12.18 23.9266 12.025 24.4766 11.715C25.0266 11.395 25.4866 10.96 25.8566 10.41C26.2266 9.85 26.4566 9.23 26.5466 8.55ZM24.8966 8.55C24.8366 8.96 24.6866 9.33 24.4466 9.66C24.2066 9.98 23.9166 10.235 23.5766 10.425C23.2366 10.615 22.8666 10.705 22.4666 10.695C22.2066 10.685 21.9766 10.625 21.7766 10.515C21.5766 10.405 21.4116 10.25 21.2816 10.05C21.1516 9.85 21.0616 9.625 21.0116 9.375C20.9616 9.115 20.9516 8.84 20.9816 8.55C21.0416 8.24 21.1416 7.955 21.2816 7.695C21.4316 7.435 21.6116 7.21 21.8216 7.02C22.0416 6.82 22.2766 6.665 22.5266 6.555C22.7766 6.445 23.0366 6.39 23.3066 6.39C23.6966 6.39 24.0166 6.49 24.2666 6.69C24.5266 6.88 24.7116 7.14 24.8216 7.47C24.9316 7.79 24.9566 8.15 24.8966 8.55ZM34.3712 5.1H32.6012L29.5862 10.5L30.3362 10.56L29.0912 5.1H27.3512L29.0012 11.13L26.4962 15.285H28.2512L34.3712 5.1ZM36.8463 5.1H35.2563L34.0563 12H35.6613L36.8463 5.1ZM38.5713 6.81L39.5463 5.475C39.3863 5.305 39.2063 5.175 39.0063 5.085C38.8163 4.995 38.5963 4.95 38.3463 4.95C37.9563 4.95 37.5863 5.09 37.2363 5.37C36.8863 5.64 36.5913 5.995 36.3513 6.435C36.1113 6.865 35.9463 7.315 35.8563 7.785L36.3213 8.1C36.3713 7.82 36.4513 7.555 36.5613 7.305C36.6813 7.055 36.8413 6.85 37.0413 6.69C37.2413 6.53 37.4813 6.455 37.7613 6.465C37.9313 6.465 38.0763 6.5 38.1963 6.57C38.3263 6.63 38.4513 6.71 38.5713 6.81ZM41.0813 2.355C41.0813 2.625 41.1763 2.855 41.3663 3.045C41.5663 3.235 41.8063 3.33 42.0863 3.33C42.3663 3.33 42.6063 3.235 42.8063 3.045C43.0063 2.855 43.1063 2.625 43.1063 2.355C43.1063 2.075 43.0063 1.84 42.8063 1.65C42.6063 1.46 42.3663 1.365 42.0863 1.365C41.8063 1.365 41.5663 1.46 41.3663 1.65C41.1763 1.84 41.0813 2.075 41.0813 2.355ZM40.8113 5.1L39.6713 12H41.2463L42.4163 5.1H40.8113ZM42.8934 12.465C42.8534 13.065 42.9484 13.59 43.1784 14.04C43.4184 14.5 43.7784 14.855 44.2584 15.105C44.7384 15.365 45.3234 15.495 46.0134 15.495C46.7134 15.495 47.3384 15.345 47.8884 15.045C48.4484 14.745 48.9134 14.32 49.2834 13.77C49.6534 13.22 49.8934 12.58 50.0034 11.85L51.1584 5.1H49.5834L48.4134 11.85C48.3534 12.29 48.2084 12.68 47.9784 13.02C47.7484 13.36 47.4634 13.62 47.1234 13.8C46.7834 13.99 46.4234 14.085 46.0434 14.085C45.6734 14.085 45.3684 14.015 45.1284 13.875C44.8884 13.735 44.7134 13.54 44.6034 13.29C44.5034 13.05 44.4584 12.775 44.4684 12.465H42.8934ZM43.4334 8.505C43.3534 9.165 43.4134 9.765 43.6134 10.305C43.8134 10.845 44.1334 11.275 44.5734 11.595C45.0134 11.905 45.5484 12.06 46.1784 12.06C46.6384 12.06 47.0584 11.97 47.4384 11.79C47.8284 11.61 48.1684 11.36 48.4584 11.04C48.7584 10.71 49.0034 10.33 49.1934 9.9C49.3834 9.47 49.5134 9.01 49.5834 8.52C49.6434 8.04 49.6434 7.59 49.5834 7.17C49.5234 6.75 49.3984 6.375 49.2084 6.045C49.0184 5.705 48.7634 5.44 48.4434 5.25C48.1234 5.05 47.7334 4.95 47.2734 4.95C46.6434 4.94 46.0534 5.095 45.5034 5.415C44.9634 5.725 44.5084 6.15 44.1384 6.69C43.7684 7.22 43.5334 7.825 43.4334 8.505ZM45.0834 8.52C45.1534 8.11 45.3034 7.74 45.5334 7.41C45.7734 7.07 46.0634 6.81 46.4034 6.63C46.7534 6.44 47.1234 6.35 47.5134 6.36C47.7734 6.36 48.0034 6.42 48.2034 6.54C48.4134 6.65 48.5834 6.805 48.7134 7.005C48.8434 7.205 48.9334 7.435 48.9834 7.695C49.0434 7.945 49.0484 8.215 48.9984 8.505C48.9484 8.805 48.8484 9.09 48.6984 9.36C48.5584 9.62 48.3784 9.85 48.1584 10.05C47.9484 10.24 47.7134 10.39 47.4534 10.5C47.2034 10.61 46.9484 10.66 46.6884 10.65C46.2984 10.65 45.9734 10.555 45.7134 10.365C45.4534 10.165 45.2684 9.905 45.1584 9.585C45.0584 9.255 45.0334 8.9 45.0834 8.52ZM55.5135 0.3H53.9085L51.8985 12H53.5035L55.5135 0.3ZM56.9385 7.8L56.2185 12H57.8085L58.5735 7.575C58.6335 7.065 58.6085 6.61 58.4985 6.21C58.3985 5.81 58.1985 5.495 57.8985 5.265C57.5985 5.025 57.1885 4.905 56.6685 4.905C56.1385 4.905 55.6735 5.04 55.2735 5.31C54.8835 5.58 54.5685 5.935 54.3285 6.375C54.0885 6.815 53.9185 7.285 53.8185 7.785H54.2235C54.2935 7.505 54.4085 7.25 54.5685 7.02C54.7285 6.79 54.9285 6.605 55.1685 6.465C55.4185 6.315 55.6985 6.245 56.0085 6.255C56.2985 6.275 56.5135 6.355 56.6535 6.495C56.8035 6.635 56.8985 6.82 56.9385 7.05C56.9785 7.27 56.9785 7.52 56.9385 7.8ZM60.064 5.1L59.809 6.525H63.649L63.889 5.1H60.064ZM61.564 2.7L60.004 12H61.549L63.169 2.7H61.564ZM67.4694 6.75C67.5394 6.33 67.6894 5.955 67.9194 5.625C68.1594 5.285 68.4544 5.02 68.8044 4.83C69.1644 4.63 69.5494 4.53 69.9594 4.53C70.3594 4.53 70.6994 4.61 70.9794 4.77C71.2594 4.93 71.4994 5.145 71.6994 5.415L71.8794 4.155C71.6194 3.935 71.3394 3.77 71.0394 3.66C70.7494 3.55 70.3994 3.495 69.9894 3.495C69.3694 3.495 68.7994 3.64 68.2794 3.93C67.7594 4.22 67.3244 4.61 66.9744 5.1C66.6344 5.58 66.4244 6.13 66.3444 6.75C66.2744 7.33 66.3394 7.87 66.5394 8.37C66.7494 8.86 67.0744 9.255 67.5144 9.555C67.9544 9.845 68.4794 9.99 69.0894 9.99C69.4994 10 69.8644 9.945 70.1844 9.825C70.5044 9.705 70.8094 9.545 71.0994 9.345L71.2644 8.1C70.9944 8.33 70.6844 8.535 70.3344 8.715C69.9944 8.885 69.6144 8.965 69.1944 8.955C68.7844 8.945 68.4394 8.84 68.1594 8.64C67.8894 8.44 67.6944 8.175 67.5744 7.845C67.4544 7.515 67.4194 7.15 67.4694 6.75ZM65.0994 6.75C65.1994 6.11 65.3994 5.51 65.6994 4.95C66.0094 4.39 66.3944 3.895 66.8544 3.465C67.3244 3.035 67.8494 2.7 68.4294 2.46C69.0194 2.22 69.6394 2.1 70.2894 2.1C70.9394 2.1 71.5094 2.23 71.9994 2.49C72.4894 2.74 72.8944 3.085 73.2144 3.525C73.5444 3.955 73.7744 4.45 73.9044 5.01C74.0344 5.56 74.0544 6.14 73.9644 6.75C73.8644 7.38 73.6594 7.975 73.3494 8.535C73.0494 9.095 72.6644 9.59 72.1944 10.02C71.7344 10.45 71.2094 10.785 70.6194 11.025C70.0394 11.265 69.4194 11.385 68.7594 11.385C68.1194 11.385 67.5494 11.26 67.0494 11.01C66.5594 10.75 66.1544 10.405 65.8344 9.975C65.5144 9.535 65.2894 9.04 65.1594 8.49C65.0294 7.93 65.0094 7.35 65.0994 6.75ZM64.2744 6.75C64.1744 7.47 64.2094 8.155 64.3794 8.805C64.5494 9.445 64.8344 10.02 65.2344 10.53C65.6344 11.03 66.1294 11.425 66.7194 11.715C67.3194 12.005 67.9944 12.15 68.7444 12.15C69.5144 12.15 70.2394 12.01 70.9194 11.73C71.5994 11.45 72.2094 11.065 72.7494 10.575C73.2894 10.085 73.7344 9.515 74.0844 8.865C74.4444 8.205 74.6744 7.5 74.7744 6.75C74.8744 6.03 74.8394 5.345 74.6694 4.695C74.4994 4.045 74.2144 3.47 73.8144 2.97C73.4244 2.46 72.9294 2.065 72.3294 1.785C71.7294 1.495 71.0544 1.35 70.3044 1.35C69.5444 1.35 68.8194 1.49 68.1294 1.77C67.4494 2.04 66.8394 2.425 66.2994 2.925C65.7594 3.415 65.3144 3.99 64.9644 4.65C64.6144 5.3 64.3844 6 64.2744 6.75ZM77.1049 8.55C77.1749 8.14 77.3199 7.77 77.5399 7.44C77.7699 7.11 78.0599 6.845 78.4099 6.645C78.7699 6.445 79.1549 6.345 79.5649 6.345C80.0149 6.345 80.4149 6.45 80.7649 6.66C81.1249 6.87 81.3899 7.155 81.5599 7.515L81.7999 5.73C81.5399 5.48 81.2199 5.29 80.8399 5.16C80.4699 5.02 80.0599 4.95 79.6099 4.95C78.9099 4.95 78.2599 5.11 77.6599 5.43C77.0699 5.74 76.5799 6.165 76.1899 6.705C75.7999 7.245 75.5599 7.86 75.4699 8.55C75.3899 9.21 75.4699 9.815 75.7099 10.365C75.9499 10.905 76.3199 11.335 76.8199 11.655C77.3199 11.975 77.9149 12.135 78.6049 12.135C79.0649 12.135 79.4949 12.065 79.8949 11.925C80.2949 11.785 80.6499 11.6 80.9599 11.37L81.1999 9.6C80.9399 9.91 80.5949 10.18 80.1649 10.41C79.7449 10.64 79.2899 10.75 78.7999 10.74C78.3999 10.73 78.0599 10.625 77.7799 10.425C77.5099 10.225 77.3149 9.96 77.1949 9.63C77.0849 9.29 77.0549 8.93 77.1049 8.55ZM82.5765 8.55C82.4865 9.21 82.5615 9.815 82.8015 10.365C83.0415 10.905 83.4115 11.335 83.9115 11.655C84.4115 11.975 85.0015 12.135 85.6815 12.135C86.3815 12.135 87.0265 11.98 87.6165 11.67C88.2065 11.35 88.6965 10.92 89.0865 10.38C89.4765 9.84 89.7165 9.23 89.8065 8.55C89.8965 7.89 89.8215 7.29 89.5815 6.75C89.3415 6.2 88.9715 5.765 88.4715 5.445C87.9815 5.115 87.3915 4.95 86.7015 4.95C86.0015 4.95 85.3515 5.11 84.7515 5.43C84.1615 5.74 83.6715 6.165 83.2815 6.705C82.9015 7.245 82.6665 7.86 82.5765 8.55ZM84.1965 8.55C84.2565 8.15 84.3965 7.785 84.6165 7.455C84.8465 7.125 85.1315 6.86 85.4715 6.66C85.8115 6.46 86.1765 6.365 86.5665 6.375C86.9565 6.375 87.2815 6.48 87.5415 6.69C87.8015 6.9 87.9865 7.17 88.0965 7.5C88.2065 7.82 88.2365 8.17 88.1865 8.55C88.1265 8.94 87.9815 9.305 87.7515 9.645C87.5315 9.975 87.2515 10.235 86.9115 10.425C86.5715 10.615 86.2015 10.71 85.8015 10.71C85.4115 10.71 85.0865 10.61 84.8265 10.41C84.5765 10.2 84.3965 9.93 84.2865 9.6C84.1765 9.27 84.1465 8.92 84.1965 8.55ZM95.6396 7.8L94.9196 12H96.5546L97.3046 7.62C97.3746 7.13 97.3496 6.685 97.2296 6.285C97.1196 5.875 96.9096 5.55 96.5996 5.31C96.2996 5.07 95.8846 4.95 95.3546 4.95C94.8846 4.95 94.4746 5.055 94.1246 5.265C93.7846 5.465 93.4846 5.745 93.2246 6.105L93.3896 5.1H91.7846L90.5846 12H92.2046L92.9546 7.755C92.9946 7.455 93.0946 7.195 93.2546 6.975C93.4146 6.755 93.6146 6.58 93.8546 6.45C94.1046 6.32 94.3796 6.255 94.6796 6.255C94.9796 6.255 95.2046 6.33 95.3546 6.48C95.5046 6.62 95.5996 6.81 95.6396 7.05C95.6796 7.28 95.6796 7.53 95.6396 7.8ZM98.7945 5.1L98.5395 6.525H102.379L102.619 5.1H98.7945ZM100.294 2.7L98.7345 12H100.279L101.899 2.7H100.294ZM108.735 5.1L107.565 12H109.11L110.31 5.1H108.735ZM102.54 8.55C102.45 9.2 102.505 9.8 102.705 10.35C102.905 10.89 103.22 11.325 103.65 11.655C104.09 11.975 104.63 12.135 105.27 12.135C105.73 12.135 106.15 12.045 106.53 11.865C106.92 11.675 107.26 11.415 107.55 11.085C107.85 10.755 108.095 10.375 108.285 9.945C108.485 9.505 108.615 9.04 108.675 8.55C108.735 8.08 108.735 7.635 108.675 7.215C108.625 6.785 108.505 6.4 108.315 6.06C108.125 5.72 107.87 5.45 107.55 5.25C107.24 5.05 106.85 4.95 106.38 4.95C105.75 4.94 105.16 5.095 104.61 5.415C104.06 5.735 103.6 6.17 103.23 6.72C102.87 7.26 102.64 7.87 102.54 8.55ZM104.19 8.55C104.26 8.14 104.41 7.765 104.64 7.425C104.88 7.085 105.17 6.82 105.51 6.63C105.86 6.44 106.23 6.35 106.62 6.36C106.89 6.37 107.12 6.435 107.31 6.555C107.51 6.675 107.675 6.835 107.805 7.035C107.945 7.235 108.04 7.465 108.09 7.725C108.14 7.985 108.145 8.26 108.105 8.55C108.055 8.85 107.955 9.135 107.805 9.405C107.655 9.665 107.47 9.895 107.25 10.095C107.04 10.295 106.805 10.455 106.545 10.575C106.295 10.685 106.04 10.735 105.78 10.725C105.39 10.725 105.065 10.625 104.805 10.425C104.555 10.225 104.375 9.96 104.265 9.63C104.165 9.29 104.14 8.93 104.19 8.55ZM112.759 8.55C112.829 8.14 112.974 7.77 113.194 7.44C113.424 7.11 113.714 6.845 114.064 6.645C114.424 6.445 114.809 6.345 115.219 6.345C115.669 6.345 116.069 6.45 116.419 6.66C116.779 6.87 117.044 7.155 117.214 7.515L117.454 5.73C117.194 5.48 116.874 5.29 116.494 5.16C116.124 5.02 115.714 4.95 115.264 4.95C114.564 4.95 113.914 5.11 113.314 5.43C112.724 5.74 112.234 6.165 111.844 6.705C111.454 7.245 111.214 7.86 111.124 8.55C111.044 9.21 111.124 9.815 111.364 10.365C111.604 10.905 111.974 11.335 112.474 11.655C112.974 11.975 113.569 12.135 114.259 12.135C114.719 12.135 115.149 12.065 115.549 11.925C115.949 11.785 116.304 11.6 116.614 11.37L116.854 9.6C116.594 9.91 116.249 10.18 115.819 10.41C115.399 10.64 114.944 10.75 114.454 10.74C114.054 10.73 113.714 10.625 113.434 10.425C113.164 10.225 112.969 9.96 112.849 9.63C112.739 9.29 112.709 8.93 112.759 8.55ZM118.321 5.1L118.066 6.525H121.906L122.146 5.1H118.321ZM119.821 2.7L118.261 12H119.806L121.426 2.7H119.821ZM122.996 15.285L124.706 5.1H123.131L121.361 15.3L122.996 15.285ZM129.686 8.55C129.766 7.89 129.711 7.285 129.521 6.735C129.331 6.185 129.016 5.745 128.576 5.415C128.146 5.085 127.611 4.92 126.971 4.92C126.501 4.92 126.071 5.015 125.681 5.205C125.301 5.395 124.966 5.66 124.676 6C124.386 6.33 124.146 6.715 123.956 7.155C123.776 7.595 123.651 8.06 123.581 8.55C123.521 9.01 123.516 9.46 123.566 9.9C123.626 10.33 123.741 10.72 123.911 11.07C124.091 11.41 124.341 11.68 124.661 11.88C124.981 12.08 125.371 12.18 125.831 12.18C126.471 12.18 127.066 12.025 127.616 11.715C128.166 11.395 128.626 10.96 128.996 10.41C129.366 9.85 129.596 9.23 129.686 8.55ZM128.036 8.55C127.976 8.96 127.826 9.33 127.586 9.66C127.346 9.98 127.056 10.235 126.716 10.425C126.376 10.615 126.006 10.705 125.606 10.695C125.346 10.685 125.116 10.625 124.916 10.515C124.716 10.405 124.551 10.25 124.421 10.05C124.291 9.85 124.201 9.625 124.151 9.375C124.101 9.115 124.091 8.84 124.121 8.55C124.181 8.24 124.281 7.955 124.421 7.695C124.571 7.435 124.751 7.21 124.961 7.02C125.181 6.82 125.416 6.665 125.666 6.555C125.916 6.445 126.176 6.39 126.446 6.39C126.836 6.39 127.156 6.49 127.406 6.69C127.666 6.88 127.851 7.14 127.961 7.47C128.071 7.79 128.096 8.15 128.036 8.55ZM133.336 5.1H131.746L130.546 12H132.151L133.336 5.1ZM135.061 6.81L136.036 5.475C135.876 5.305 135.696 5.175 135.496 5.085C135.306 4.995 135.086 4.95 134.836 4.95C134.446 4.95 134.076 5.09 133.726 5.37C133.376 5.64 133.081 5.995 132.841 6.435C132.601 6.865 132.436 7.315 132.346 7.785L132.811 8.1C132.861 7.82 132.941 7.555 133.051 7.305C133.171 7.055 133.331 6.85 133.531 6.69C133.731 6.53 133.971 6.455 134.251 6.465C134.421 6.465 134.566 6.5 134.686 6.57C134.816 6.63 134.941 6.71 135.061 6.81ZM135.941 8.55C135.851 9.21 135.926 9.815 136.166 10.365C136.406 10.905 136.776 11.335 137.276 11.655C137.776 11.975 138.366 12.135 139.046 12.135C139.746 12.135 140.391 11.98 140.981 11.67C141.571 11.35 142.061 10.92 142.451 10.38C142.841 9.84 143.081 9.23 143.171 8.55C143.261 7.89 143.186 7.29 142.946 6.75C142.706 6.2 142.336 5.765 141.836 5.445C141.346 5.115 140.756 4.95 140.066 4.95C139.366 4.95 138.716 5.11 138.116 5.43C137.526 5.74 137.036 6.165 136.646 6.705C136.266 7.245 136.031 7.86 135.941 8.55ZM137.561 8.55C137.621 8.15 137.761 7.785 137.981 7.455C138.211 7.125 138.496 6.86 138.836 6.66C139.176 6.46 139.541 6.365 139.931 6.375C140.321 6.375 140.646 6.48 140.906 6.69C141.166 6.9 141.351 7.17 141.461 7.5C141.571 7.82 141.601 8.17 141.551 8.55C141.491 8.94 141.346 9.305 141.116 9.645C140.896 9.975 140.616 10.235 140.276 10.425C139.936 10.615 139.566 10.71 139.166 10.71C138.776 10.71 138.451 10.61 138.191 10.41C137.941 10.2 137.761 9.93 137.651 9.6C137.541 9.27 137.511 8.92 137.561 8.55ZM147.906 12H155.721L155.976 10.35L151.581 10.335L154.926 7.425C155.376 7.035 155.771 6.59 156.111 6.09C156.461 5.58 156.671 5.04 156.741 4.47C156.831 3.95 156.761 3.45 156.531 2.97C156.301 2.48 155.941 2.085 155.451 1.785C154.971 1.475 154.381 1.32 153.681 1.32C152.891 1.32 152.206 1.495 151.626 1.845C151.056 2.195 150.591 2.665 150.231 3.255C149.881 3.835 149.646 4.48 149.526 5.19L151.251 5.205C151.331 4.795 151.466 4.415 151.656 4.065C151.856 3.715 152.106 3.435 152.406 3.225C152.716 3.005 153.081 2.9 153.501 2.91C153.851 2.91 154.136 2.99 154.356 3.15C154.586 3.31 154.751 3.515 154.851 3.765C154.951 4.015 154.981 4.28 154.941 4.56C154.901 4.85 154.801 5.13 154.641 5.4C154.491 5.66 154.306 5.915 154.086 6.165C153.876 6.405 153.641 6.645 153.381 6.885L147.906 12ZM159.455 6.75C159.525 6.28 159.64 5.82 159.8 5.37C159.96 4.91 160.165 4.495 160.415 4.125C160.675 3.755 160.97 3.465 161.3 3.255C161.64 3.035 162.015 2.925 162.425 2.925C162.755 2.935 163.025 3.02 163.235 3.18C163.455 3.33 163.625 3.54 163.745 3.81C163.865 4.07 163.945 4.365 163.985 4.695C164.035 5.025 164.055 5.365 164.045 5.715C164.035 6.065 164.015 6.41 163.985 6.75C163.925 7.22 163.81 7.685 163.64 8.145C163.48 8.595 163.27 9.005 163.01 9.375C162.76 9.745 162.465 10.04 162.125 10.26C161.795 10.47 161.425 10.57 161.015 10.56C160.685 10.56 160.41 10.48 160.19 10.32C159.98 10.16 159.815 9.95 159.695 9.69C159.585 9.42 159.505 9.125 159.455 8.805C159.405 8.475 159.385 8.135 159.395 7.785C159.405 7.425 159.425 7.08 159.455 6.75ZM157.745 6.75C157.685 7.27 157.665 7.79 157.685 8.31C157.715 8.83 157.795 9.325 157.925 9.795C158.055 10.255 158.25 10.66 158.51 11.01C158.77 11.36 159.09 11.64 159.47 11.85C159.86 12.05 160.32 12.15 160.85 12.15C161.51 12.15 162.115 12.005 162.665 11.715C163.225 11.425 163.71 11.025 164.12 10.515C164.54 10.005 164.885 9.43 165.155 8.79C165.425 8.14 165.605 7.46 165.695 6.75C165.765 6.23 165.785 5.71 165.755 5.19C165.735 4.66 165.655 4.165 165.515 3.705C165.385 3.245 165.19 2.84 164.93 2.49C164.68 2.13 164.36 1.85 163.97 1.65C163.59 1.44 163.13 1.335 162.59 1.335C161.93 1.335 161.325 1.48 160.775 1.77C160.225 2.06 159.74 2.46 159.32 2.97C158.9 3.48 158.555 4.06 158.285 4.71C158.015 5.36 157.835 6.04 157.745 6.75ZM165.791 12H173.606L173.861 10.35L169.466 10.335L172.811 7.425C173.261 7.035 173.656 6.59 173.996 6.09C174.346 5.58 174.556 5.04 174.626 4.47C174.716 3.95 174.646 3.45 174.416 2.97C174.186 2.48 173.826 2.085 173.336 1.785C172.856 1.475 172.266 1.32 171.566 1.32C170.776 1.32 170.091 1.495 169.511 1.845C168.941 2.195 168.476 2.665 168.116 3.255C167.766 3.835 167.531 4.48 167.411 5.19L169.136 5.205C169.216 4.795 169.351 4.415 169.541 4.065C169.741 3.715 169.991 3.435 170.291 3.225C170.601 3.005 170.966 2.9 171.386 2.91C171.736 2.91 172.021 2.99 172.241 3.15C172.471 3.31 172.636 3.515 172.736 3.765C172.836 4.015 172.866 4.28 172.826 4.56C172.786 4.85 172.686 5.13 172.526 5.4C172.376 5.66 172.191 5.915 171.971 6.165C171.761 6.405 171.526 6.645 171.266 6.885L165.791 12ZM174.58 12H182.395L182.65 10.35L178.255 10.335L181.6 7.425C182.05 7.035 182.445 6.59 182.785 6.09C183.135 5.58 183.345 5.04 183.415 4.47C183.505 3.95 183.435 3.45 183.205 2.97C182.975 2.48 182.615 2.085 182.125 1.785C181.645 1.475 181.055 1.32 180.355 1.32C179.565 1.32 178.88 1.495 178.3 1.845C177.73 2.195 177.265 2.665 176.905 3.255C176.555 3.835 176.32 4.48 176.2 5.19L177.925 5.205C178.005 4.795 178.14 4.415 178.33 4.065C178.53 3.715 178.78 3.435 179.08 3.225C179.39 3.005 179.755 2.9 180.175 2.91C180.525 2.91 180.81 2.99 181.03 3.15C181.26 3.31 181.425 3.515 181.525 3.765C181.625 4.015 181.655 4.28 181.615 4.56C181.575 4.85 181.475 5.13 181.315 5.4C181.165 5.66 180.98 5.915 180.76 6.165C180.55 6.405 180.315 6.645 180.055 6.885L174.58 12Z" fill="white"/>
</svg>
