<svg width="26" height="25" viewBox="0 0 26 25" fill="none" xmlns="http://www.w3.org/2000/svg">
<path d="M17.8423 8.26318C19.7686 8.26318 21.616 9.02841 22.9781 10.3905C24.3402 11.7526 25.1054 13.6 25.1054 15.5263V24H20.2633V15.5263C20.2633 14.8842 20.0082 14.2684 19.5542 13.8144C19.1002 13.3604 18.4844 13.1053 17.8423 13.1053C17.2002 13.1053 16.5844 13.3604 16.1303 13.8144C15.6763 14.2684 15.4212 14.8842 15.4212 15.5263V24H10.5791V15.5263C10.5791 13.6 11.3443 11.7526 12.7064 10.3905C14.0685 9.02841 15.916 8.26318 17.8423 8.26318V8.26318Z" stroke="white" stroke-linecap="round" stroke-linejoin="round"/>
<path d="M5.73664 9.47363H0.894531V23.9999H5.73664V9.47363Z" stroke="white" stroke-linecap="round" stroke-linejoin="round"/>
<path d="M3.31558 5.84211C4.65269 5.84211 5.73664 4.75816 5.73664 3.42105C5.73664 2.08394 4.65269 1 3.31558 1C1.97847 1 0.894531 2.08394 0.894531 3.42105C0.894531 4.75816 1.97847 5.84211 3.31558 5.84211Z" stroke="white" stroke-linecap="round" stroke-linejoin="round"/>
</svg>
