<svg width="29" height="29" viewBox="0 0 29 29" fill="none" xmlns="http://www.w3.org/2000/svg">
<path d="M25.375 9.0625C23.8127 9.0625 22.3144 8.44188 21.2097 7.33718C20.105 6.23247 19.4844 4.73417 19.4844 3.17187C19.4844 3.0517 19.4366 2.93644 19.3517 2.85147C19.2667 2.76649 19.1514 2.71875 19.0312 2.71875H14.5C14.3798 2.71875 14.2646 2.76649 14.1796 2.85147C14.0946 2.93644 14.0469 3.0517 14.0469 3.17187V17.6719C14.0464 18.1582 13.9155 18.6356 13.6678 19.0541C13.4201 19.4726 13.0646 19.8171 12.6384 20.0515C12.2123 20.2859 11.7311 20.4017 11.2449 20.3868C10.7588 20.3719 10.2856 20.2269 9.87457 19.9669C9.46356 19.7068 9.12982 19.3413 8.90816 18.9084C8.6865 18.4755 8.58502 17.9911 8.61431 17.5056C8.6436 17.0201 8.80258 16.5514 9.07468 16.1483C9.34678 15.7451 9.72204 15.4224 10.1613 15.2137C10.238 15.1762 10.3029 15.1183 10.3489 15.0464C10.3949 14.9744 10.4201 14.8912 10.4219 14.8059V10.0934C10.4229 10.0266 10.4092 9.96034 10.3816 9.89948C10.354 9.83861 10.3134 9.78459 10.2625 9.74128C10.2116 9.69798 10.1518 9.66646 10.0873 9.64899C10.0228 9.63152 9.95524 9.62853 9.88945 9.64023C8.3623 9.9139 6.94488 10.6175 5.80351 11.6683C4.66215 12.7192 3.84419 14.0739 3.44561 15.5733C3.04704 17.0727 3.08439 18.6547 3.55328 20.1336C4.02217 21.6125 4.90315 22.927 6.09283 23.9229C7.28252 24.9187 8.73157 25.5546 10.2699 25.7559C11.8083 25.9572 13.3722 25.7155 14.778 25.0593C16.1839 24.4031 17.3734 23.3595 18.207 22.051C19.0406 20.7425 19.4838 19.2234 19.4844 17.6719V12.8461C21.2564 13.9333 23.296 14.5059 25.375 14.5C25.4952 14.5 25.6104 14.4523 25.6954 14.3673C25.7804 14.2823 25.8281 14.167 25.8281 14.0469V9.51562C25.8281 9.39545 25.7804 9.28019 25.6954 9.19522C25.6104 9.11024 25.4952 9.0625 25.375 9.0625ZM24.9219 13.5824C22.8934 13.5059 20.9336 12.8277 19.2918 11.634C19.2247 11.5868 19.1461 11.5587 19.0643 11.5528C18.9825 11.5468 18.9006 11.5631 18.8273 11.6C18.7519 11.638 18.6886 11.6963 18.6446 11.7684C18.6006 11.8404 18.5775 11.9234 18.5781 12.0078V17.6719C18.5774 19.0277 18.1966 20.3562 17.4788 21.5064C16.761 22.6567 15.735 23.5826 14.5174 24.179C13.2998 24.7755 11.9394 25.0185 10.5906 24.8806C9.24176 24.7427 7.95866 24.2293 6.88698 23.3987C5.81531 22.5682 4.998 21.4538 4.52789 20.182C4.05777 18.9103 3.95369 17.5322 4.22746 16.2043C4.50122 14.8764 5.14187 13.6519 6.07664 12.6698C7.01141 11.6877 8.20284 10.9874 9.51562 10.6484V14.534C8.9645 14.8522 8.50686 15.3098 8.18869 15.861C7.87053 16.4121 7.70306 17.0373 7.70312 17.6737C7.70319 18.3101 7.87078 18.9352 8.18906 19.4863C8.50733 20.0374 8.96507 20.4949 9.51625 20.813C10.0674 21.1311 10.6926 21.2985 11.329 21.2983C11.9654 21.2982 12.5905 21.1305 13.1416 20.8121C13.6926 20.4938 14.1501 20.036 14.4681 19.4847C14.7861 18.9335 14.9534 18.3083 14.9531 17.6719V3.625H18.5895C18.7031 5.26698 19.4067 6.81247 20.5706 7.9763C21.7344 9.14013 23.2799 9.84378 24.9219 9.95742V13.5824Z" fill="white"/>
</svg>
