<svg width="22" height="23" viewBox="0 0 22 23" fill="none" xmlns="http://www.w3.org/2000/svg">
<path fill-rule="evenodd" clip-rule="evenodd" d="M5.76153 1.22681C3.14476 1.22681 1.02344 3.34812 1.02344 5.9649V16.4411C1.02344 19.0579 3.14476 21.1792 5.76153 21.1792H16.2377C18.8545 21.1792 20.9758 19.0579 20.9758 16.4411V5.9649C20.9758 3.34812 18.8545 1.22681 16.2377 1.22681H5.76153ZM0.0234375 5.9649C0.0234375 2.79584 2.59247 0.226807 5.76153 0.226807H16.2377C19.4068 0.226807 21.9758 2.79584 21.9758 5.9649V16.4411C21.9758 19.6102 19.4068 22.1792 16.2377 22.1792H5.76153C2.59247 22.1792 0.0234375 19.6102 0.0234375 16.4411V5.9649ZM11.5863 7.50692C10.8184 7.39306 10.0342 7.52421 9.34523 7.88172C8.65622 8.23924 8.09748 8.80491 7.74849 9.49827C7.3995 10.1916 7.27802 10.9774 7.40135 11.7438C7.52467 12.5102 7.8865 13.2181 8.43539 13.767C8.98428 14.3159 9.69226 14.6778 10.4586 14.8011C11.225 14.9244 12.0108 14.8029 12.7042 14.4539C13.3975 14.1049 13.9632 13.5462 14.3207 12.8572C14.6782 12.1682 14.8094 11.384 14.6955 10.6161C14.5794 9.83291 14.2144 9.1078 13.6545 8.54791C13.0946 7.98803 12.3695 7.62306 11.5863 7.50692ZM8.88466 6.9941C9.76037 6.53971 10.7571 6.37302 11.733 6.51773C12.7284 6.66535 13.65 7.12921 14.3616 7.84081C15.0732 8.5524 15.5371 9.474 15.6847 10.4695C15.8294 11.4454 15.6627 12.4421 15.2083 13.3178C14.7539 14.1935 14.035 14.9036 13.1537 15.3472C12.2725 15.7907 11.2738 15.9451 10.2998 15.7884C9.32573 15.6316 8.4259 15.1718 7.72828 14.4741C7.03067 13.7765 6.57078 12.8767 6.41405 11.9027C6.25731 10.9286 6.4117 9.92993 6.85525 9.04868C7.29881 8.16744 8.00895 7.44849 8.88466 6.9941ZM16.7615 4.94109C16.4854 4.94109 16.2615 5.16495 16.2615 5.44109C16.2615 5.71724 16.4854 5.94109 16.7615 5.94109H16.7715C17.0477 5.94109 17.2715 5.71724 17.2715 5.44109C17.2715 5.16495 17.0477 4.94109 16.7715 4.94109H16.7615Z" fill="white"/>
</svg>
