<svg width="25" height="22" viewBox="0 0 25 22" fill="none" xmlns="http://www.w3.org/2000/svg">
<path d="M25 8.53111V19.5556C25 20.9 23.875 22 22.5 22H2.5C1.125 22 0 20.9 0 19.5556V4.88889C0 3.54444 1.125 2.44444 2.5 2.44444H15.125C15.05 2.83556 15 3.25111 15 3.66667C15 5.47556 15.8125 7.07667 17.0875 8.20111L12.5 11L2.5 4.88889V7.33333L12.5 13.4444L19.125 9.38667C19.8 9.63111 20.5 9.77778 21.25 9.77778C22.6625 9.77778 23.95 9.30111 25 8.53111ZM17.5 3.66667C17.5 5.69556 19.175 7.33333 21.25 7.33333C23.325 7.33333 25 5.69556 25 3.66667C25 1.63778 23.325 0 21.25 0C19.175 0 17.5 1.63778 17.5 3.66667Z" fill="white"/>
</svg>
