<svg width="109" height="24" viewBox="0 0 109 24" fill="none" xmlns="http://www.w3.org/2000/svg">
<path fill-rule="evenodd" clip-rule="evenodd" d="M43.96 19.584H46.056L41.64 8.24H39.416L35 19.584H37.032L38.088 16.736H42.888L43.96 19.584ZM40.488 10.32L42.216 14.96H38.76L40.488 10.32ZM49.256 22.624V18.704C49.656 19.296 50.504 19.776 51.624 19.776C53.864 19.776 55.288 18.016 55.288 15.68C55.288 13.376 53.992 11.616 51.688 11.616C50.488 11.616 49.592 12.176 49.208 12.848V11.792H47.416V22.624H49.256ZM53.432 15.68C53.432 17.168 52.568 18.128 51.336 18.128C50.12 18.128 49.24 17.168 49.24 15.68C49.24 14.224 50.12 13.264 51.336 13.264C52.584 13.264 53.432 14.224 53.432 15.68ZM58.92 22.624V18.704C59.32 19.296 60.168 19.776 61.288 19.776C63.528 19.776 64.952 18.016 64.952 15.68C64.952 13.376 63.656 11.616 61.352 11.616C60.152 11.616 59.256 12.176 58.872 12.848V11.792H57.08V22.624H58.92ZM63.096 15.68C63.096 17.168 62.232 18.128 61 18.128C59.784 18.128 58.904 17.168 58.904 15.68C58.904 14.224 59.784 13.264 61 13.264C62.248 13.264 63.096 14.224 63.096 15.68ZM78.328 10.896C78.072 9.632 77.032 8 74.36 8C72.248 8 70.504 9.568 70.504 11.472C70.504 13.168 71.656 14.304 73.384 14.656L74.984 14.992C75.96 15.2 76.504 15.792 76.504 16.528C76.504 17.408 75.8 18.096 74.44 18.096C72.808 18.096 71.96 17.008 71.848 15.824L70.056 16.336C70.232 17.968 71.56 19.824 74.44 19.824C77.032 19.824 78.456 18.144 78.456 16.384C78.456 14.784 77.384 13.52 75.384 13.12L73.752 12.784C72.872 12.592 72.424 12.048 72.424 11.328C72.424 10.464 73.224 9.696 74.376 9.696C75.896 9.696 76.488 10.736 76.6 11.44L78.328 10.896ZM82.648 9.408H80.968V10.576C80.968 11.264 80.6 11.792 79.768 11.792H79.368V13.44H80.808V17.36C80.808 18.816 81.704 19.68 83.144 19.68C83.816 19.68 84.168 19.552 84.28 19.504V17.968L84.0751 17.9999C83.9482 18.0163 83.7863 18.032 83.64 18.032C82.952 18.032 82.648 17.744 82.648 17.056V13.44H84.264V11.792H82.648V9.408ZM89.56 18.16C88.424 18.16 87.384 17.296 87.384 15.68C87.384 14.064 88.424 13.232 89.56 13.232C90.712 13.232 91.736 14.064 91.736 15.68C91.736 17.312 90.712 18.16 89.56 18.16ZM89.56 11.552C87.24 11.552 85.528 13.296 85.528 15.68C85.528 18.08 87.24 19.824 89.56 19.824C91.896 19.824 93.608 18.08 93.608 15.68C93.608 13.296 91.896 11.552 89.56 11.552ZM99.96 11.744C99.88 11.728 99.688 11.696 99.464 11.696C98.44 11.696 97.576 12.192 97.208 13.04V11.792H95.4V19.584H97.256V15.872C97.256 14.416 97.912 13.584 99.352 13.584C99.544 13.584 99.752 13.6 99.96 13.632V11.744ZM102.776 14.832C102.84 14 103.512 13.104 104.68 13.104C105.96 13.104 106.568 13.92 106.6 14.832H102.776ZM106.808 16.864L108.376 17.36C107.96 18.72 106.728 19.824 104.856 19.824C102.744 19.824 100.872 18.288 100.872 15.648C100.872 13.184 102.696 11.552 104.664 11.552C107.064 11.552 108.472 13.136 108.472 15.6C108.472 15.904 108.44 16.16 108.424 16.192H102.728C102.776 17.376 103.704 18.224 104.856 18.224C105.976 18.224 106.552 17.632 106.808 16.864Z" fill="black"/>
<path fill-rule="evenodd" clip-rule="evenodd" d="M12.3938 3.53765C13.263 2.60055 13.8511 1.29864 13.6906 0C12.4371 0.0450563 10.9185 0.740522 10.0204 1.67726C9.21332 2.50753 8.50795 3.83342 8.69629 5.1059C10.0955 5.20219 11.5228 4.47366 12.3938 3.53765ZM15.0616 12.502C15.0346 9.59118 17.3495 8.19444 17.4534 8.12576C16.1524 6.15019 14.125 5.87949 13.4037 5.84933C11.6791 5.66692 10.0385 6.90197 9.16245 6.90197C8.28966 6.90197 6.93952 5.87367 5.50856 5.90092C3.62804 5.93181 1.89473 7.03496 0.927765 8.78344C-1.026 12.3 0.426605 17.5109 2.3313 20.3629C3.26182 21.7597 4.37058 23.3261 5.82643 23.269C7.23033 23.2131 7.76036 22.3279 9.45615 22.3279C11.1509 22.3279 11.6278 23.269 13.1111 23.2407C14.6204 23.2131 15.5769 21.8174 16.5009 20.4171C17.5685 18.7983 18.008 17.23 18.0347 17.1505C18.0008 17.133 15.0923 15.979 15.0616 12.502Z" fill="black"/>
</svg>
