<?xml version="1.0" encoding="iso-8859-1"?>
<!-- Generator: Adobe Illustrator 18.0.0, SVG Export Plug-In . SVG Version: 6.00 Build 0)  -->
<!DOCTYPE svg PUBLIC "-//W3C//DTD SVG 1.1//EN" "http://www.w3.org/Graphics/SVG/1.1/DTD/svg11.dtd">
<svg version="1.1" id="Capa_1" xmlns="http://www.w3.org/2000/svg" xmlns:xlink="http://www.w3.org/1999/xlink" x="0px" y="0px"
	 viewBox="0 0 297 297" style="enable-background:new 0 0 297 297;" xml:space="preserve">
<path d="M271.716,71.277H246.28l-1.127-2.011c-4.712-8.409-13.627-13.633-23.265-13.633H9.481C4.245,55.633,0,59.878,0,65.114
	v140.796c0,5.236,4.245,9.481,9.481,9.481h16.566c4.158,14.96,17.892,25.975,34.159,25.975s30.001-11.015,34.159-25.975h92.864
	c4.158,14.96,17.892,25.975,34.159,25.975s30.001-11.015,34.159-25.975h19.884c5.236,0,9.481-4.245,9.481-9.481v-56.007
	c0-5.763-1.362-11.533-3.939-16.686c-0.067-0.133-24.069-42.979-24.069-42.979h14.812c3.485,0,6.321,2.835,6.321,6.32v15.487
	c0,5.236,4.245,9.481,9.481,9.481c5.236,0,9.481-4.245,9.481-9.481V96.56C297,82.618,285.658,71.277,271.716,71.277z
	 M190.573,118.209h-33.658V74.595h33.658V118.209z M63.05,118.209V74.595h33.658v43.614H63.05z M109.982,74.595h33.658v43.614
	h-33.658V74.595z M49.777,74.595v43.614H18.962V74.595H49.777z M60.206,222.405c-9.095,0-16.494-7.399-16.494-16.494
	c0-9.095,7.399-16.494,16.494-16.494S76.7,196.815,76.7,205.911C76.7,215.006,69.301,222.405,60.206,222.405z M221.387,222.405
	c-9.095,0-16.494-7.399-16.494-16.494c0-9.095,7.399-16.494,16.494-16.494s16.494,7.399,16.494,16.494
	C237.881,215.006,230.482,222.405,221.387,222.405z M255.546,196.429c-4.158-14.96-17.892-25.975-34.159-25.975
	s-30.001,11.015-34.159,25.975H94.365c-4.158-14.96-17.892-25.975-34.159-25.975s-30.001,11.015-34.159,25.975h-7.085v-59.258
	h176.422l70.565,28.226v31.031H255.546z M265.18,144.666l-61.333-24.533V74.595h18.041c2.785,0,5.36,1.509,6.722,3.939
	C228.61,78.534,264.896,143.71,265.18,144.666z"/>
<g>
</g>
<g>
</g>
<g>
</g>
<g>
</g>
<g>
</g>
<g>
</g>
<g>
</g>
<g>
</g>
<g>
</g>
<g>
</g>
<g>
</g>
<g>
</g>
<g>
</g>
<g>
</g>
<g>
</g>
</svg>
