<svg width="123" height="24" viewBox="0 0 123 24" fill="none" xmlns="http://www.w3.org/2000/svg">
<path fill-rule="evenodd" clip-rule="evenodd" d="M45.424 10.84V16.584H43.872L43.728 15.144C43.232 15.976 42.064 16.824 40.256 16.824C37.296 16.824 34.672 14.648 34.672 10.904C34.672 7.176 37.44 5 40.384 5C43.136 5 44.896 6.584 45.504 8.456L43.696 9.144C43.312 7.864 42.192 6.776 40.384 6.776C38.544 6.776 36.624 8.088 36.624 10.904C36.624 13.672 38.416 15.064 40.368 15.064C42.656 15.064 43.52 13.496 43.616 12.52H39.872V10.84H45.424ZM48.832 12.68C48.832 14.296 49.872 15.16 51.008 15.16C52.16 15.16 53.184 14.312 53.184 12.68C53.184 11.064 52.16 10.232 51.008 10.232C49.872 10.232 48.832 11.064 48.832 12.68ZM51.008 8.552C48.688 8.552 46.976 10.296 46.976 12.68C46.976 15.08 48.688 16.824 51.008 16.824C53.344 16.824 55.056 15.08 55.056 12.68C55.056 10.296 53.344 8.552 51.008 8.552ZM58.096 12.68C58.096 14.296 59.136 15.16 60.272 15.16C61.424 15.16 62.448 14.312 62.448 12.68C62.448 11.064 61.424 10.232 60.272 10.232C59.136 10.232 58.096 11.064 58.096 12.68ZM60.272 8.552C57.952 8.552 56.24 10.296 56.24 12.68C56.24 15.08 57.952 16.824 60.272 16.824C62.608 16.824 64.32 15.08 64.32 12.68C64.32 10.296 62.608 8.552 60.272 8.552ZM69.264 19.864C67.2 19.864 65.76 18.584 65.552 17.016L67.264 16.568C67.392 17.528 68.144 18.248 69.216 18.248C70.688 18.248 71.424 17.496 71.424 15.912V15.096C71.088 15.704 70.304 16.232 69.168 16.232C67.088 16.232 65.568 14.632 65.568 12.44C65.568 10.36 67.024 8.648 69.168 8.648C70.384 8.648 71.136 9.144 71.472 9.784V8.792H73.264V15.848C73.264 17.928 72.192 19.864 69.264 19.864ZM69.472 14.648C68.256 14.648 67.44 13.8 67.44 12.44C67.44 11.112 68.288 10.248 69.472 10.248C70.624 10.248 71.472 11.112 71.472 12.44C71.472 13.784 70.656 14.648 69.472 14.648ZM77.392 5V16.584H75.536V5H77.392ZM81.088 11.832C81.152 11 81.824 10.104 82.992 10.104C84.272 10.104 84.88 10.92 84.912 11.832H81.088ZM83.168 15.224C84.288 15.224 84.864 14.632 85.12 13.864L86.688 14.36C86.272 15.72 85.04 16.824 83.168 16.824C81.056 16.824 79.184 15.288 79.184 12.648C79.184 10.184 81.008 8.552 82.976 8.552C85.376 8.552 86.784 10.136 86.784 12.6C86.784 12.904 86.752 13.16 86.736 13.192H81.04C81.088 14.376 82.016 15.224 83.168 15.224ZM94.608 10.456V6.936H96.608C97.824 6.936 98.56 7.624 98.56 8.712C98.56 9.784 97.824 10.456 96.608 10.456H94.608ZM100.512 8.696C100.512 10.696 99.072 12.152 96.896 12.152H94.608V16.584H92.688V5.24H96.896C99.072 5.24 100.512 6.712 100.512 8.696ZM104.016 16.584V5H102.16V16.584H104.016ZM108.576 16.824C106.944 16.824 105.936 15.704 105.936 14.472C105.936 13.08 106.96 12.312 108.288 12.12L110.288 11.816C110.736 11.752 110.864 11.528 110.864 11.256C110.864 10.6 110.416 10.072 109.392 10.072C108.416 10.072 107.872 10.696 107.792 11.48L106.096 11.096C106.24 9.752 107.456 8.552 109.376 8.552C111.776 8.552 112.688 9.912 112.688 11.464L112.69 15.5069C112.697 15.8937 112.727 16.1947 112.752 16.3813L112.784 16.584H111.056C111.04 16.536 110.976 16.216 110.976 15.592C110.608 16.184 109.84 16.824 108.576 16.824ZM108.928 15.368C108.192 15.368 107.792 14.888 107.792 14.36C107.792 13.72 108.256 13.4 108.832 13.304L110.864 13V13.352C110.864 14.872 109.968 15.368 108.928 15.368ZM115.312 19.736H117.296L122.256 8.792H120.288L118.192 13.72L115.952 8.792H113.856L117.184 15.656L115.312 19.736Z" fill="#0A142F"/>
<path d="M0.0958305 1.12964C0.0395254 1.33026 0 1.54551 0 1.79226V22.1068C0 22.3501 0.0380339 22.5643 0.0932203 22.7623L11.4206 11.9604L0.0958305 1.12964Z" fill="#48A0DC"/>
<path d="M2.61615 0.34056C2.0889 0.0169345 1.5691 -0.0640655 1.13022 0.0476845L12.505 10.9264L15.8415 7.74531L2.61615 0.34056Z" fill="#88C057"/>
<path d="M20.7173 10.4754L17.1868 8.49878L13.5714 11.9465L17.2547 15.47L20.6901 13.5714C22.3654 12.6103 21.7535 11.0615 20.7173 10.4754Z" fill="#FFCC66"/>
<path d="M12.4867 12.98L1.09775 23.8392C1.54334 23.9649 2.07507 23.8902 2.61575 23.5584L15.8825 16.2275L12.4867 12.98Z" fill="#ED7161"/>
</svg>
