<svg width="511" height="410" viewBox="0 0 511 410" fill="none" xmlns="http://www.w3.org/2000/svg">
<path d="M329.635 34.21C332.65 34.21 334.39 32.56 334.39 30.445C334.39 28.84 333.25 28.09 331.465 27.43C330.01 26.89 329.785 26.83 329.785 26.515C329.785 26.215 330.1 26.095 330.55 26.095C331.66 26.095 332.785 26.62 333.58 27.265L335.59 24.865C334.45 23.89 332.785 23.29 330.91 23.29C328.045 23.29 326.185 24.94 326.185 26.965C326.185 28.51 327.1 29.2 329.05 29.92C330.58 30.49 330.775 30.595 330.775 30.925C330.775 31.225 330.46 31.39 330.01 31.39C328.9 31.39 327.67 30.91 326.47 29.905L324.46 32.305C325.735 33.46 327.55 34.21 329.635 34.21ZM334.346 34H338.171L339.086 32.59H342.761L342.941 34H346.676L345.086 23.425H341.606L334.346 34ZM340.646 30.1L342.281 27.55L342.566 30.1H340.646ZM349.623 34.075H352.983L360.078 23.5H356.133L352.503 29.395L352.053 23.5H348.198L349.623 34.075ZM356.222 34H360.047L360.962 32.59H364.637L364.817 34H368.552L366.962 23.425H363.482L356.222 34ZM362.522 30.1L364.157 27.55L364.442 30.1H362.522ZM369.56 34H373.04L374.45 28.78L376.94 34H380.06L382.88 23.5H379.4L378.05 28.51L375.665 23.5H372.38L369.56 34ZM381.955 34H390.985L391.75 31.12H386.17L386.485 29.98H391.615L392.29 27.445H387.16L387.445 26.38H392.95L393.73 23.5H384.775L381.955 34ZM397.958 34.21C400.973 34.21 402.713 32.56 402.713 30.445C402.713 28.84 401.573 28.09 399.788 27.43C398.333 26.89 398.108 26.83 398.108 26.515C398.108 26.215 398.423 26.095 398.873 26.095C399.983 26.095 401.108 26.62 401.903 27.265L403.913 24.865C402.773 23.89 401.108 23.29 399.233 23.29C396.368 23.29 394.508 24.94 394.508 26.965C394.508 28.51 395.423 29.2 397.373 29.92C398.903 30.49 399.098 30.595 399.098 30.925C399.098 31.225 398.783 31.39 398.333 31.39C397.223 31.39 395.993 30.91 394.793 29.905L392.783 32.305C394.058 33.46 395.873 34.21 397.958 34.21Z" fill="#156C52"/>
<path d="M389.475 116H392.985L393.495 114.095L394.965 112.625L396.225 116H399.96L397.77 110.3L402.555 105.5H398.28L394.785 109.265L395.805 105.5H392.295L389.475 116ZM400.167 116H403.992L404.907 114.59H408.582L408.762 116H412.497L410.907 105.425H407.427L400.167 116ZM406.467 112.1L408.102 109.55L408.387 112.1H406.467ZM413.504 116H417.014L417.824 113H418.694L419.864 116H423.644L422.189 112.505C424.259 111.86 425.114 110.45 425.114 108.815C425.114 107.99 424.874 107.21 424.289 106.625C423.584 105.92 422.354 105.5 420.419 105.5H416.324L413.504 116ZM418.484 110.495L419.039 108.44H420.284C420.779 108.44 421.124 108.545 421.319 108.74C421.469 108.89 421.544 109.085 421.544 109.295C421.544 109.955 420.929 110.495 419.759 110.495H418.484ZM424.123 116H427.948L428.863 114.59H432.538L432.718 116H436.453L434.863 105.425H431.383L424.123 116ZM430.423 112.1L432.058 109.55L432.343 112.1H430.423Z" fill="#156C52"/>
<path d="M425.505 207.225C427.74 207.225 429.27 206.31 430.32 204.93L427.89 203.01C427.32 203.715 426.66 204.105 425.85 204.105C424.92 204.105 424.2 203.46 424.2 202.305C424.2 200.865 425.22 199.425 426.795 199.425C427.59 199.425 428.205 199.845 428.43 200.7L431.565 199.335C431.13 197.475 429.525 196.275 427.26 196.275C422.73 196.275 420.525 199.755 420.525 202.62C420.525 205.44 422.565 207.225 425.505 207.225ZM431.123 207H440.153L440.918 204.12H435.338L435.653 202.98H440.783L441.458 200.445H436.328L436.613 199.38H442.118L442.898 196.5H433.943L431.123 207ZM441.966 207H445.446L446.856 201.78L449.346 207H452.466L455.286 196.5H451.806L450.456 201.51L448.071 196.5H444.786L441.966 207ZM457.047 207H460.557L462.582 199.47H465.672L466.467 196.5H456.777L455.982 199.47H459.072L457.047 207ZM465.161 207H468.671L469.481 204H470.351L471.521 207H475.301L473.846 203.505C475.916 202.86 476.771 201.45 476.771 199.815C476.771 198.99 476.531 198.21 475.946 197.625C475.241 196.92 474.011 196.5 472.076 196.5H467.981L465.161 207ZM470.141 201.495L470.696 199.44H471.941C472.436 199.44 472.781 199.545 472.976 199.74C473.126 199.89 473.201 200.085 473.201 200.295C473.201 200.955 472.586 201.495 471.416 201.495H470.141ZM475.779 207H479.604L480.519 205.59H484.194L484.374 207H488.109L486.519 196.425H483.039L475.779 207ZM482.079 203.1L483.714 200.55L483.999 203.1H482.079ZM489.117 207H497.412L498.222 204H493.437L495.447 196.5H491.937L489.117 207ZM499.007 207H508.037L508.802 204.12H503.222L503.537 202.98H508.667L509.342 200.445H504.212L504.497 199.38H510.002L510.782 196.5H501.827L499.007 207Z" fill="#156C52"/>
<path d="M397.475 291H400.985L401.75 288.15H403.235C406.565 288.15 408.545 286.395 408.545 283.77C408.545 282.945 408.275 282.21 407.72 281.655C406.94 280.875 405.755 280.5 403.82 280.5H400.295L397.475 291ZM402.425 285.645L403.04 283.305H403.7C404.09 283.305 404.51 283.395 404.75 283.635C404.915 283.8 405.005 284.025 405.005 284.25C405.005 285.045 404.39 285.645 403.055 285.645H402.425ZM408.201 291H416.496L417.306 288H412.521L414.531 280.5H411.021L408.201 291ZM417.266 291H421.091L422.006 289.59H425.681L425.861 291H429.596L428.006 280.425H424.526L417.266 291ZM423.566 287.1L425.201 284.55L425.486 287.1H423.566ZM431.941 291H435.451L437.476 283.47H440.566L441.361 280.5H431.671L430.876 283.47H433.966L431.941 291ZM440.055 291H449.085L449.85 288.12H444.27L444.585 286.98H449.715L450.39 284.445H445.26L445.545 283.38H451.05L451.83 280.5H442.875L440.055 291ZM450.073 291H453.898L454.813 289.59H458.488L458.668 291H462.403L460.813 280.425H457.333L450.073 291ZM456.373 287.1L458.008 284.55L458.293 287.1H456.373ZM468.303 291.21C469.968 291.21 471.468 290.82 472.458 289.83C473.193 289.095 473.733 288.075 474.108 286.68L475.773 280.5H472.203L470.688 286.14C470.463 286.95 470.253 287.355 469.938 287.67C469.653 287.955 469.248 288.105 468.813 288.105C467.883 288.105 467.373 287.655 467.373 286.785C467.373 286.545 467.418 286.26 467.493 285.96L468.963 280.5H465.393L463.983 285.735C463.833 286.305 463.758 286.89 463.758 287.43C463.758 289.8 465.348 291.21 468.303 291.21ZM473.806 291H477.871L480.526 288.03L481.651 291H485.446L483.151 285.63L487.951 280.5H483.886L481.621 283.05L480.646 280.5H476.851L478.966 285.48L473.806 291Z" fill="#156C52"/>
<path d="M356.475 383H359.91L361.305 377.795L362.715 381.53H362.775L366.195 377.795L364.8 383H368.295L371.115 372.5H367.26L364.02 376.19L362.76 372.5H359.295L356.475 383ZM369.364 383H373.189L374.104 381.59H377.779L377.959 383H381.694L380.104 372.425H376.624L369.364 383ZM375.664 379.1L377.299 376.55L377.584 379.1H375.664ZM382.702 383H386.212L387.022 380H387.892L389.062 383H392.842L391.387 379.505C393.457 378.86 394.312 377.45 394.312 375.815C394.312 374.99 394.072 374.21 393.487 373.625C392.782 372.92 391.552 372.5 389.617 372.5H385.522L382.702 383ZM387.682 377.495L388.237 375.44H389.482C389.977 375.44 390.322 375.545 390.517 375.74C390.667 375.89 390.742 376.085 390.742 376.295C390.742 376.955 390.127 377.495 388.957 377.495H387.682ZM394.175 383H397.685L400.505 372.5H396.995L394.175 383ZM402.297 383H405.807L407.832 375.47H410.922L411.717 372.5H402.027L401.232 375.47H404.322L402.297 383ZM410.441 383H413.951L416.771 372.5H413.261L410.441 383ZM415.877 383H419.312L420.707 377.795L422.117 381.53H422.177L425.597 377.795L424.202 383H427.697L430.517 372.5H426.662L423.422 376.19L422.162 372.5H418.697L415.877 383ZM429.591 383H438.621L439.386 380.12H433.806L434.121 378.98H439.251L439.926 376.445H434.796L435.081 375.38H440.586L441.366 372.5H432.411L429.591 383Z" fill="#156C52"/>
<g filter="url(#filter0_d_154_454)">
<rect x="209.399" width="91" height="57" rx="2" fill="#D9D9D9"/>
</g>
<g filter="url(#filter1_d_154_454)">
<rect x="274.399" y="85" width="91" height="57" rx="2" fill="#D9D9D9"/>
</g>
<g filter="url(#filter2_d_154_454)">
<rect x="304.399" y="173" width="91" height="57" rx="2" fill="#D9D9D9"/>
</g>
<g filter="url(#filter3_d_154_454)">
<rect x="281.399" y="260" width="91" height="57" rx="2" fill="#D9D9D9"/>
</g>
<g filter="url(#filter4_d_154_454)">
<rect x="240.399" y="351" width="91" height="57" rx="2" fill="#D9D9D9"/>
</g>
<g filter="url(#filter5_d_154_454)">
<path d="M122.754 228.914C122.962 229.164 123.176 229.434 123.378 229.663C123.53 229.846 123.644 230.056 123.714 230.283C123.783 230.51 123.807 230.748 123.784 230.985C123.503 233.336 123.67 235.693 123.659 238.05C123.613 251.113 123.613 264.177 123.571 277.245C123.571 278.239 123.701 279.097 124.476 279.8C125.423 280.658 125.173 281.792 125.085 282.864C124.908 284.987 124.689 287.109 124.487 289.237C124.044 293.867 124.372 298.513 124.237 303.154C124.07 308.991 124.065 314.833 124.06 320.671C124.06 321.711 124.06 321.711 122.936 321.711C121.896 321.711 120.902 321.68 119.888 321.711C119.128 321.711 118.925 321.956 119.107 322.632C119.581 324.344 120.096 326.04 120.595 327.741C120.625 327.846 120.677 327.944 120.747 328.028C120.817 328.112 120.903 328.181 121.001 328.23C121.297 328.693 120.944 328.989 120.684 329.27C117.5 332.616 113.665 334.364 108.993 333.765C108.342 333.647 107.673 333.679 107.036 333.859C106.4 334.04 105.813 334.363 105.321 334.806C103.24 336.569 101.054 338.177 98.9058 339.842C97.7925 340.711 97.6208 340.716 96.4138 339.894C94.3745 338.51 92.3247 337.136 90.3321 335.685C89.544 335.1 88.5822 334.795 87.6008 334.821C83.5428 334.858 79.4797 334.821 75.4217 334.821C74.1575 334.821 74.1055 334.873 74.3292 336.132C74.6361 337.886 74.7662 339.66 74.9119 341.429C75.1304 344.004 74.4853 346.282 72.5031 348.129C71.0724 349.466 69.6261 350.788 68.0966 352.005C66.9364 352.926 65.667 353.602 64.1271 353.535C63.7369 353.535 63.2166 353.649 63.0866 353.015C63.2739 352.598 63.8825 352.38 63.7421 351.828C63.566 351.198 63.275 350.605 62.8837 350.08C62.8146 349.97 62.707 349.89 62.5818 349.855C62.4567 349.821 62.3231 349.834 62.2073 349.893C61.3281 350.21 60.6466 349.846 60.0795 349.217C59.8868 348.974 59.6414 348.779 59.362 348.646C59.0825 348.512 58.7764 348.444 58.4667 348.447C58.2298 348.446 57.9974 348.381 57.7948 348.258C57.5922 348.135 57.4269 347.96 57.317 347.75C57.2389 347.625 57.1661 347.5 57.0881 347.38C56.3025 346.199 56.2869 346.184 57.1869 345.102C57.3684 344.925 57.49 344.696 57.5348 344.447C57.5796 344.198 57.5452 343.941 57.4366 343.712C57.1023 342.83 57.0585 341.864 57.3118 340.955C57.4106 340.461 57.6916 339.873 57.2441 339.519C56.6355 339.046 55.9175 338.531 55.0851 338.775C54.8652 338.852 54.6279 338.865 54.4012 338.811C54.1744 338.758 53.9677 338.641 53.8053 338.474C53.4775 338.187 53.1654 337.886 52.822 337.62C52.1353 337.1 51.7815 336.517 52.3018 335.68C52.3576 335.595 52.3951 335.5 52.4117 335.4C52.4283 335.3 52.4237 335.197 52.3982 335.099C52.3727 335.001 52.3269 334.91 52.2636 334.83C52.2004 334.751 52.1212 334.686 52.0312 334.639C51.589 334.322 51.1468 334.01 50.6942 333.708C50.4874 333.565 50.319 333.374 50.2038 333.151C50.0885 332.928 50.03 332.679 50.0335 332.428C49.9213 331.302 50.2166 330.172 50.8659 329.244C51.1728 328.802 51.3861 328.303 51.6671 327.829C51.7264 327.747 51.7662 327.652 51.7833 327.552C51.8004 327.452 51.7945 327.349 51.7659 327.252C51.7372 327.155 51.6867 327.065 51.6182 326.99C51.5497 326.915 51.465 326.857 51.3705 326.82C51.0325 326.609 50.6733 326.435 50.2988 326.3C50.0696 326.252 49.8682 326.116 49.7379 325.922C49.6075 325.727 49.5586 325.489 49.6017 325.259C49.6093 325.187 49.6093 325.113 49.6017 325.041C49.5433 324.832 49.5277 324.613 49.5559 324.397C49.5841 324.182 49.6555 323.975 49.7657 323.788C49.876 323.601 50.0229 323.438 50.1977 323.309C50.3724 323.18 50.5714 323.088 50.7826 323.038C51.6202 322.715 52.3798 322.19 53.1914 321.794C53.444 321.696 53.6591 321.52 53.8058 321.292C53.9525 321.064 54.0234 320.796 54.0082 320.525C54.0082 319.62 54.1487 318.72 54.1955 317.814C54.2319 317.227 54.6325 316.831 54.9134 316.373C55.3921 315.588 55.3921 315.546 54.6741 314.958C54.5597 314.865 54.4348 314.792 54.3307 314.693C53.6596 314.11 53.5764 313.855 54.0706 313.132C54.8274 312.067 55.318 310.836 55.5013 309.542C55.5104 309.397 55.5498 309.255 55.617 309.126C55.6842 308.997 55.7777 308.884 55.8915 308.793C56.5938 308.299 56.7343 307.55 56.7915 306.79C56.8852 305.526 57.1037 304.277 57.2077 303.018C57.2168 302.674 57.2978 302.334 57.4457 302.023C57.5935 301.711 57.8048 301.433 58.0661 301.208C58.2773 301.063 58.423 300.841 58.4717 300.59C58.5204 300.339 58.4682 300.079 58.3263 299.866C58.0089 299.252 57.7696 298.602 57.5043 297.967C57.1842 297.278 57.0072 296.531 56.984 295.771C56.9657 295.488 56.8783 295.213 56.7294 294.972C56.5804 294.73 56.3745 294.528 56.1296 294.385C55.8848 294.241 55.6084 294.159 55.3247 294.147C55.0411 294.135 54.7587 294.193 54.5024 294.315C54.3657 294.367 54.2364 294.437 54.1174 294.523C53.1082 295.433 52.2133 295.137 51.2144 294.403C50.2156 293.67 49.3311 292.952 49.5236 291.542C49.5105 291.288 49.4775 291.036 49.4248 290.787C49.3311 288.144 49.2635 285.502 49.1334 282.859C49.0766 282.519 49.145 282.171 49.3259 281.878C49.5067 281.585 49.7878 281.368 50.1167 281.267C50.8919 280.949 51.6306 280.559 52.3954 280.226C52.6337 280.139 52.8347 279.973 52.9645 279.755C53.0944 279.537 53.1451 279.281 53.1082 279.03C53.1082 277.797 52.8168 276.585 52.8532 275.346C52.8844 274.306 52.9625 274.217 53.951 274.171C55.8447 274.082 55.9955 273.884 55.5117 272.048C55.3192 271.273 55.0539 270.487 55.8811 269.884C55.985 269.802 56.0541 269.684 56.0744 269.554C56.0946 269.424 56.0646 269.29 55.9903 269.181C55.1527 267.917 55.4129 266.497 55.5377 265.16C55.699 263.381 55.6678 261.612 55.7094 259.838C55.7547 259.831 55.8008 259.834 55.8449 259.846C55.8891 259.857 55.9305 259.878 55.9664 259.906C56.0024 259.934 56.0323 259.97 56.0543 260.01C56.0763 260.05 56.0899 260.094 56.0944 260.139C56.1672 261.18 56.8123 261.279 57.6551 261.284C59.1066 261.284 60.3761 260.998 61.3385 259.812C61.5612 259.543 61.8547 259.342 62.1857 259.232C62.5168 259.121 62.8721 259.106 63.2114 259.187C64.4636 259.427 65.7548 259.369 66.9804 259.018C68.206 258.666 69.3316 258.031 70.266 257.164C70.6191 256.819 71.047 256.561 71.5163 256.41C71.9856 256.258 72.4835 256.217 72.9713 256.29C74.3016 256.48 75.657 256.391 76.9513 256.029C78.3788 255.713 79.872 255.909 81.1705 256.581C85.3897 258.573 89.739 258.532 94.1091 257.288C97.2826 256.383 98.7914 253.896 99.4833 250.879C100.305 247.367 100.004 243.819 99.6446 240.276C99.3637 237.623 98.3127 235.157 97.8757 232.545C97.7821 232.025 97.6416 231.505 97.6 230.938C97.4283 228.768 98.5521 227.728 100.722 228.092C101.934 228.3 103.151 228.498 104.363 228.612C109.243 229.039 114.134 228.716 119.024 228.825C120.268 228.77 121.514 228.799 122.754 228.914Z" fill="#FFCE00"/>
<path d="M122.754 228.914C122.515 229.231 122.166 229.143 121.849 229.143C116.704 229.143 111.558 229.21 106.413 229.101C104.432 229.07 102.459 228.828 100.529 228.378C98.9266 227.993 97.8965 228.825 97.9277 230.459C98.0503 232.153 98.3823 233.825 98.9162 235.438C99.5007 237.48 99.9097 239.569 100.139 241.681C100.345 243.844 100.39 246.019 100.274 248.189C100.235 250.484 99.5517 252.721 98.3023 254.646C97.7605 255.467 97.0597 256.171 96.2412 256.717C95.4227 257.263 94.5032 257.639 93.5368 257.824C91.9994 258.186 90.4321 258.405 88.8546 258.48C86.3192 258.585 83.7939 258.101 81.4774 257.065C80.9572 256.815 80.4369 256.607 79.875 256.399C78.6993 255.941 77.5287 256.258 76.3633 256.482C75.3749 256.669 74.428 256.898 73.3823 256.622C72.2274 256.315 71.1973 256.747 70.2972 257.548C69.3583 258.433 68.2149 259.07 66.9693 259.404C65.7237 259.738 64.4147 259.759 63.1594 259.463C62.8406 259.372 62.5006 259.39 62.1933 259.515C61.8861 259.639 61.6292 259.863 61.4634 260.15C60.8911 261.102 59.9598 261.398 59.0026 261.549C58.1723 261.624 57.3375 261.636 56.5054 261.586C56.0892 261.586 55.9435 261.378 55.9331 260.982C55.9227 260.587 56.0788 260.176 55.7302 259.848C55.1319 258.449 54.5492 257.044 53.9353 255.65C53.7846 255.28 53.712 254.883 53.722 254.484C53.722 252.819 53.722 251.149 53.6856 249.479C53.6856 248.179 53.6388 246.878 53.5712 245.572C53.5198 244.882 53.6795 244.193 54.029 243.595C54.3047 243.132 54.5492 242.638 54.7729 242.149C55.1163 241.436 55.1163 241.431 54.4816 240.906C54.3671 240.812 54.2371 240.744 54.133 240.646C53.7064 240.261 53.7012 240.078 54.1643 239.693C54.5229 239.387 54.9076 239.112 55.314 238.871C55.63 238.696 55.9081 238.459 56.1322 238.175C56.3564 237.891 56.5221 237.565 56.6198 237.217C56.9216 236.301 56.9632 236.312 57.9465 236.301C58.165 236.301 58.3835 236.301 58.602 236.301C58.7165 236.33 58.8358 236.335 58.9521 236.315C59.0685 236.295 59.1793 236.25 59.2774 236.184C59.3755 236.119 59.4587 236.033 59.5216 235.933C59.5845 235.833 59.6257 235.721 59.6425 235.604C59.7934 234.897 60.3396 234.751 60.9223 234.626C62.6339 234.257 62.6339 234.252 62.8264 232.545C63.0238 231.431 62.8113 230.284 62.2281 229.314C61.6761 228.419 61.1842 227.487 60.7558 226.526C60.6393 226.267 60.4646 226.038 60.2453 225.858C60.0261 225.677 59.7682 225.55 59.4916 225.485C57.3638 224.851 57.7176 225.189 57.6759 222.988C57.6291 220.47 58.0245 221.23 56.1464 219.633C55.4518 219.048 54.6188 218.653 53.7272 218.483C52.9052 218.316 52.2029 218.035 51.9792 217.104C51.9268 216.93 51.8254 216.774 51.687 216.656C51.5486 216.538 51.3791 216.463 51.1988 216.438C50.4965 216.256 49.8098 216.027 49.1178 215.85C48.888 215.809 48.6721 215.711 48.4903 215.565C48.3084 215.418 48.1664 215.229 48.0773 215.013C47.9421 214.68 47.7079 214.383 47.5571 214.05C47.2761 213.369 46.9172 212.854 46.0431 213.01C45.4448 213.103 45.2524 212.583 45.0026 212.193C43.3742 209.592 41.7615 206.954 40.1383 204.332C39.8938 203.931 39.6493 203.526 39.3891 203.13C39.129 202.735 39.155 202.438 39.6076 202.261C40.0602 202.085 40.0655 201.741 39.9354 201.299C39.4724 199.801 39.488 199.769 40.9759 199.957C41.3101 200.041 41.662 200.022 41.9852 199.902C42.3083 199.782 42.5877 199.567 42.7864 199.286C43.3066 198.479 44.0142 198.49 44.8674 198.719C46.605 199.187 46.6258 199.161 46.7871 197.439C46.7914 197.149 46.8751 196.865 47.0292 196.619C47.1833 196.374 47.4019 196.175 47.6611 196.044C48.0097 195.857 48.3218 195.602 48.6652 195.394C48.838 195.321 48.9841 195.196 49.0836 195.037C49.1832 194.878 49.2315 194.692 49.2219 194.505C49.8254 193.984 50.5641 194.036 51.3029 193.984C52.6607 193.927 52.9937 193.662 53.3527 192.351C53.6725 190.861 54.1056 189.399 54.6481 187.975C55.236 186.649 56.11 185.853 57.6863 186.113C58.6176 186.264 59.2783 185.743 59.7673 185.026C60.7245 183.655 61.9404 182.485 63.3467 181.581C64.8294 180.645 65.5838 180.801 66.437 182.336C67.6804 184.583 69.6677 185.265 72.0401 184.984C73.5416 184.739 75.0605 184.615 76.5819 184.615C77.0558 184.667 77.5321 184.54 77.9172 184.259C78.3023 183.978 78.5683 183.563 78.6629 183.095C79.0322 181.862 79.7346 181.077 81.1445 181.113C81.8468 181.113 82.0653 180.697 81.7636 180.099C80.4525 177.498 81.3474 174.896 81.7636 172.331C81.8629 171.921 82.0657 171.543 82.3526 171.234C82.6394 170.924 83.0009 170.693 83.4023 170.563C86.9192 169.002 90.3997 168.731 93.7761 170.937C94.3818 171.34 95.0694 171.603 95.7892 171.707C96.509 171.812 97.2431 171.755 97.9381 171.541C100.108 170.963 102.298 170.453 104.504 170.027C106.716 169.625 108.704 168.425 110.091 166.655C110.424 166.244 110.679 165.729 111.231 165.532C112.765 167.545 114.352 169.538 115.824 171.587C116.362 172.41 117.169 173.019 118.108 173.309C118.508 173.422 118.874 173.629 119.177 173.912C119.481 174.195 119.712 174.547 119.851 174.938C120.798 177.097 121.75 179.251 122.801 181.358C123.37 182.498 123.553 183.793 123.321 185.046C123.123 186.305 123.217 187.58 123.03 188.839C123.002 189.604 123.155 190.366 123.477 191.06C124.247 193.324 124.117 195.628 123.935 197.943C123.935 198.162 123.899 198.375 123.893 198.594C123.795 201.965 123.743 205.357 123.587 208.702C123.493 210.695 123.441 212.687 123.378 214.68C123.339 215.368 123.479 216.054 123.784 216.672C124.148 217.38 124.435 218.129 124.767 218.852C124.906 219.11 124.964 219.404 124.937 219.695C124.909 219.987 124.796 220.264 124.611 220.491C124.538 220.615 124.458 220.734 124.372 220.85C123.274 221.974 123.025 223.326 123.129 224.846C123.202 225.917 123.28 227.02 122.791 228.055C122.726 228.337 122.713 228.628 122.754 228.914Z" fill="#006A4A"/>
<path d="M111.231 165.532C110.533 166.779 109.571 167.857 108.411 168.691C107.252 169.526 105.923 170.095 104.519 170.36C102.22 170.807 99.9411 171.358 97.6676 171.92C97.0215 172.101 96.3439 172.138 95.6818 172.03C95.0197 171.922 94.389 171.672 93.8334 171.296C92.1343 170.096 90.0707 169.524 87.9962 169.678C86.3687 169.799 84.7794 170.23 83.3139 170.947C82.9666 171.103 82.6644 171.344 82.4352 171.648C82.206 171.952 82.0573 172.308 82.0029 172.685C81.7178 174.206 81.5129 175.741 81.389 177.284C81.3328 178.118 81.5131 178.951 81.9092 179.688C81.9984 179.846 82.0783 180.009 82.1485 180.177C82.5023 181.061 82.2994 181.384 81.3682 181.431C81.1549 181.431 80.9364 181.431 80.7178 181.431C80.4075 181.407 80.0978 181.485 79.8365 181.654C79.5752 181.824 79.3767 182.074 79.2715 182.367C79.0999 182.804 78.9334 183.246 78.7513 183.683C78.6653 184.024 78.4692 184.326 78.1935 184.543C77.9178 184.761 77.578 184.881 77.227 184.885C75.1147 184.771 73.065 185.332 70.984 185.327C68.903 185.322 67.0717 184.453 66.1092 182.351C65.5525 181.15 64.9126 180.957 63.7733 181.644C62.2727 182.524 60.9904 183.731 60.0223 185.176C59.7597 185.66 59.344 186.043 58.8402 186.265C58.3365 186.488 57.7733 186.536 57.2389 186.404C56.8513 186.313 56.4442 186.356 56.0841 186.526C55.724 186.696 55.4323 186.983 55.2568 187.341C54.756 188.183 54.3925 189.1 54.1799 190.056C53.9405 190.967 53.7428 191.882 53.5087 192.793C53.2486 193.833 52.7336 194.286 51.6723 194.265C50.8294 194.265 50.0231 194.447 49.1959 194.489C48.8525 193.693 48.5299 192.886 48.1554 192.101C48.0256 191.866 47.9606 191.6 47.967 191.331C47.9734 191.062 48.0509 190.8 48.1918 190.571C48.6808 189.682 48.712 189.609 47.9264 189.042C47.1821 188.461 46.6279 187.671 46.3345 186.774C45.9282 185.609 45.4628 184.467 44.9402 183.35C44.7277 182.89 44.633 182.384 44.6648 181.878C44.6966 181.372 44.8538 180.882 45.1223 180.452C45.4491 179.804 45.8193 179.178 46.2304 178.58C46.4404 178.312 46.585 177.999 46.6527 177.666C46.7205 177.333 46.7095 176.988 46.6206 176.66C46.3553 175.703 46.4073 175.671 47.2033 175.198C47.4859 175.035 47.7181 174.797 47.8744 174.511C48.3687 173.585 48.8577 172.654 49.3727 171.738C49.4839 171.573 49.5407 171.378 49.5351 171.179C49.5295 170.98 49.4618 170.788 49.3415 170.63C48.9513 170.021 48.6132 169.376 48.2178 168.768C48.0862 168.596 48.0148 168.386 48.0148 168.169C48.0148 167.953 48.0862 167.743 48.2178 167.571C48.738 166.775 49.2011 165.958 49.6849 165.152C49.7619 164.969 49.8782 164.805 50.0257 164.672C50.1731 164.539 50.3481 164.44 50.5381 164.382C51.0584 164.262 51.1104 163.815 50.8659 163.44C50.2884 162.556 50.5069 161.729 50.8659 160.865C51.1416 160.236 51.3497 159.575 51.5734 158.924C51.8595 158.087 51.8491 158.045 51.0532 157.671C50.1115 157.208 49.1646 156.75 48.197 156.339C47.9155 156.268 47.6717 156.092 47.5159 155.848C47.3601 155.603 47.3041 155.308 47.3594 155.023C47.4166 154.56 47.3594 154.081 47.3958 153.613C47.4218 153.394 47.374 153.173 47.26 152.984C47.1459 152.796 46.9722 152.651 46.7663 152.572C45.566 151.817 44.1607 151.453 42.7448 151.532C41.5137 151.619 40.2783 151.632 39.0458 151.568C38.4267 151.568 37.9636 151.714 37.7764 152.328C37.2197 154.128 35.867 154.976 34.2022 155.631C31.679 156.63 32.3605 156.672 30.4408 155.069C30.0818 154.768 29.7281 154.456 29.4003 154.123C29.2784 154.01 29.1974 153.86 29.17 153.696C29.1427 153.532 29.1707 153.364 29.2494 153.217C29.3169 153.047 29.4386 152.904 29.5956 152.81C29.7527 152.716 29.9364 152.676 30.1183 152.697C30.5134 152.737 30.9027 152.823 31.2784 152.952C31.4978 153.04 31.7374 153.065 31.97 153.023C32.2027 152.982 32.4191 152.876 32.5947 152.718C33.0005 152.411 33.4271 152.14 33.8329 151.839C33.9688 151.743 34.0709 151.607 34.1242 151.45C34.1775 151.293 34.1793 151.123 34.1294 150.965C34.0947 150.784 34.0017 150.619 33.8645 150.496C33.7273 150.373 33.5535 150.298 33.3698 150.283C32.8496 150.242 32.3605 150.283 31.8507 150.247C31.3806 150.241 30.9295 150.06 30.5853 149.74C30.241 149.42 30.0282 148.983 29.9882 148.514C29.9466 147.994 29.9258 147.474 29.931 146.99C29.931 146.126 30.1547 145.897 31.0391 145.903C33.0733 145.903 35.1023 145.903 37.1312 145.97C37.8192 145.985 38.4944 145.783 39.0614 145.393C39.235 145.298 39.3745 145.151 39.4603 144.973C39.5462 144.795 39.574 144.594 39.54 144.399C39.462 143.603 39.4099 142.807 39.3631 142.011C39.3417 141.646 39.1925 141.3 38.9417 141.033C38.7137 140.751 38.4687 140.484 38.2082 140.232C37.8784 139.93 37.6214 139.558 37.4565 139.142C37.2916 138.727 37.2231 138.279 37.2561 137.834C37.3035 137.453 37.2355 137.067 37.0612 136.726C36.8868 136.385 36.614 136.104 36.278 135.919C36.0385 135.78 35.8537 135.564 35.7543 135.305C35.6549 135.047 35.6469 134.762 35.7318 134.499C36.1896 132.491 36.4653 130.415 37.6619 128.656C37.8886 128.306 38.0395 127.912 38.1049 127.5C38.1704 127.088 38.1488 126.666 38.0417 126.263C37.9064 125.587 37.8076 124.905 37.6879 124.229C37.6 123.911 37.6209 123.573 37.7472 123.269C37.8735 122.964 38.098 122.711 38.385 122.549C38.4785 122.491 38.5688 122.428 38.6556 122.361C39.5452 121.685 39.6493 121.258 39.1758 120.218C38.8585 119.562 38.5307 118.917 38.1978 118.272C37.7191 117.336 38.0365 116.42 38.3538 115.551C38.5671 114.958 39.181 114.901 39.7481 114.963C40.0659 115.038 40.3963 115.04 40.7151 114.97C41.0339 114.9 41.3328 114.759 41.5898 114.558C42.1016 114.992 42.5121 115.534 42.7925 116.144C43.0729 116.754 43.2164 117.418 43.213 118.09C43.2494 120.093 43.5667 120.379 45.5957 120.395C46.4279 120.337 47.2638 120.374 48.0877 120.504C49.2167 120.774 49.5652 121.352 49.3311 122.491C49.0398 123.88 49.2479 124.161 50.6474 124.323C53.0925 124.598 55.5481 124.754 57.9881 125.098C59.1847 125.264 59.7101 124.718 59.4968 123.511C58.68 118.829 59.7986 114.599 62.5767 110.78C62.8823 110.352 63.096 109.865 63.2043 109.351C63.3127 108.836 63.3133 108.304 63.2062 107.789C62.9721 106.27 63.3051 105.765 64.767 105.297C65.2872 105.136 65.8075 104.985 66.3277 104.86C67.4463 104.595 67.9249 104.777 68.4451 105.817C68.8041 106.535 69.1475 106.54 69.6573 106.015C69.9528 105.695 70.2747 105.401 70.6198 105.136C71.5927 104.402 72.1805 104.34 73.1846 105.032C73.2959 105.137 73.4269 105.219 73.57 105.274C73.7132 105.329 73.8657 105.355 74.0189 105.35C74.1721 105.346 74.3229 105.312 74.4628 105.249C74.6026 105.186 74.7287 105.096 74.8338 104.985C75.2953 104.545 75.855 104.221 76.4666 104.04C77.0781 103.859 77.724 103.826 78.3507 103.944C78.8209 104.014 79.3012 103.946 79.7339 103.75C80.1667 103.553 80.5336 103.236 80.7907 102.836C81.0092 102.55 81.0976 102.17 81.415 101.957C84.9041 104.347 88.3933 106.736 91.8824 109.126C95.9456 111.909 99.9879 114.724 104.067 117.487C104.407 117.681 104.685 117.969 104.869 118.315C105.053 118.661 105.136 119.052 105.107 119.443C105.107 125.061 105.107 130.68 105.216 136.294C105.274 139.301 105.263 142.308 105.336 145.315C105.396 145.932 105.234 146.55 104.878 147.058C104.612 147.403 104.447 147.815 104.4 148.248C104.353 148.681 104.427 149.119 104.613 149.513C104.852 150.117 104.988 150.762 105.211 151.376C105.435 151.99 105.653 152.166 106.351 151.896C106.564 151.8 106.804 151.781 107.029 151.844C107.255 151.907 107.451 152.047 107.584 152.239C107.85 152.505 108.057 152.825 108.192 153.176C108.328 153.527 108.388 153.903 108.369 154.279C108.302 156.453 108.369 158.628 108.317 160.803C108.299 161.309 108.461 161.804 108.775 162.202C109.623 163.289 110.419 164.418 111.231 165.532Z" fill="#FFCE00"/>
<path d="M81.4046 101.967C81.3555 102.333 81.232 102.685 81.0416 103.001C80.8513 103.318 80.5981 103.591 80.2978 103.806C79.9975 104.02 79.6563 104.171 79.2955 104.249C78.9347 104.326 78.5618 104.329 78.1998 104.257C77.6718 104.14 77.1236 104.15 76.6001 104.285C76.0765 104.421 75.5925 104.679 75.1876 105.037C74.9274 105.235 74.6985 105.474 74.4332 105.656C74.3595 105.724 74.2724 105.777 74.1775 105.81C74.0826 105.843 73.9819 105.856 73.8817 105.848C73.7816 105.84 73.6841 105.811 73.5955 105.764C73.5068 105.717 73.4289 105.652 73.3667 105.573C73.247 105.438 73.1165 105.312 72.9765 105.198C72.3002 104.678 71.8632 104.678 71.1036 105.136C70.529 105.567 69.996 106.051 69.5116 106.582C68.8977 107.102 68.6376 107.066 68.3463 106.322C68.2786 106.155 68.2266 105.979 68.1642 105.802C67.8832 105.099 67.5607 104.855 66.8323 105.016C65.9181 105.224 65.0193 105.495 64.1426 105.828C63.9865 105.858 63.8394 105.924 63.7127 106.02C63.5859 106.116 63.4829 106.24 63.4116 106.382C63.3402 106.525 63.3024 106.681 63.3011 106.84C63.2998 106.999 63.3349 107.157 63.4039 107.3C63.9241 108.975 63.3675 110.307 62.3634 111.608C61.142 113.278 60.3133 115.202 59.939 117.237C59.4048 119.265 59.3691 121.393 59.835 123.438C60.1939 124.853 59.3407 125.655 57.9048 125.426C56.0657 125.081 54.2031 124.876 52.3329 124.812C51.537 124.812 50.7722 124.609 49.971 124.541C49.0085 124.463 48.66 123.766 48.9305 122.819C48.9305 122.783 48.9617 122.752 48.9721 122.715C49.4091 121.279 49.0242 120.738 47.4842 120.681C46.5426 120.65 45.5957 120.681 44.6592 120.681C44.4238 120.699 44.1873 120.664 43.9668 120.58C43.7463 120.495 43.5473 120.363 43.3841 120.192C43.2209 120.021 43.0976 119.817 43.023 119.593C42.9484 119.369 42.9245 119.131 42.9528 118.896C43.0904 117.512 42.6732 116.129 41.7927 115.052C41.7025 114.89 41.6393 114.714 41.6054 114.532C41.7194 114.266 41.8014 113.989 41.8499 113.704C41.9435 112.367 41.6522 111.961 40.336 111.675C38.3486 111.233 38.255 111.186 38.3902 109.152C38.4816 107.743 38.403 106.328 38.1561 104.938C37.8492 103.31 38.2133 101.692 38.3538 100.074C38.4223 99.7139 38.618 99.3907 38.9053 99.1633C39.2642 98.8044 39.6336 98.4558 39.9458 98.076C40.1031 97.9214 40.2086 97.7217 40.2477 97.5046C40.2868 97.2875 40.2577 97.0637 40.1643 96.8638C40.0818 96.6416 39.9356 96.4486 39.7441 96.3089C39.5526 96.1692 39.3242 96.089 39.0874 96.0782C38.8335 96.0556 38.5777 96.0696 38.3278 96.1199C37.5058 96.3176 36.9751 95.9638 36.4913 95.3135C35.8045 94.4247 35.2668 93.4302 34.8993 92.3689C34.5525 91.3006 34.1693 90.2445 33.7496 89.2005C33.4999 88.5554 33.2293 88.5086 32.7091 88.9144C32.5946 88.9976 32.4906 89.1069 32.3813 89.1953C31.731 89.7156 31.6738 89.7156 30.9506 89.2369C30.5553 88.982 30.1599 88.7167 29.7853 88.4462C29.6473 88.3276 29.4738 88.2581 29.2921 88.2487C29.1104 88.2393 28.9307 88.2905 28.7812 88.3941C28.313 88.6699 27.8291 88.9144 27.3453 89.1641C26.5077 89.5855 26.3048 89.5179 26.0551 88.5814C25.4464 86.3391 24.64 84.1645 23.9741 81.9378C23.9008 81.6235 23.742 81.3357 23.5152 81.1061C23.2884 80.8765 23.0024 80.7142 22.6891 80.6372C21.3104 80.2054 19.9681 79.6435 18.5947 79.1857C18.3674 79.1288 18.1613 79.0079 18.0008 78.8373C17.8404 78.6667 17.7323 78.4535 17.6894 78.2232C17.6875 78.1886 17.6875 78.1538 17.6894 78.1192C17.5594 76.5064 16.6489 75.7885 15.0882 75.5179C13.6367 75.237 12.2424 74.6751 10.8117 74.2797C10.5476 74.2273 10.3061 74.0948 10.1199 73.9002C9.93376 73.7057 9.81202 73.4586 9.77123 73.1924C9.45908 71.8554 9.07409 70.5287 8.6839 69.2125C8.53823 68.7339 8.52263 68.3697 9.03247 68.12C9.1611 68.0432 9.26272 67.9284 9.3233 67.7914C9.38388 67.6544 9.40042 67.502 9.37064 67.3552C9.37843 67.2478 9.37843 67.14 9.37064 67.0326C9.04808 65.2638 9.7192 63.9632 11.2071 63.0163C11.5401 62.803 11.7846 62.4648 12.1124 62.2359C12.2391 62.1638 12.3502 62.0671 12.4389 61.9514C12.5277 61.8357 12.5924 61.7034 12.6293 61.5623C12.6661 61.4212 12.6744 61.2742 12.6535 61.1299C12.6326 60.9856 12.5831 60.8469 12.5077 60.722C12.319 60.3112 12.2292 59.862 12.2454 59.4102C12.2617 58.9585 12.3836 58.5169 12.6014 58.1207C12.7471 57.8294 12.7939 57.4964 12.9344 57.1999C13.5969 55.7435 13.8865 54.1451 13.7772 52.5489C13.7095 51.3419 13.8708 51.2066 14.9997 50.858C16.1287 50.5095 16.1235 50.4522 16.1547 49.3441C16.1859 48.236 16.1963 47.1695 16.2692 46.0821C16.2992 45.7956 16.2632 45.5059 16.164 45.2354C16.0648 44.9649 15.905 44.7206 15.6969 44.5214C15.135 43.9543 14.62 43.3456 14.0841 42.7525C13.9313 42.5455 13.7031 42.4071 13.449 42.3672C13.1948 42.3272 12.9351 42.389 12.7263 42.5392C12.1384 42.893 11.5245 43.2104 10.9366 43.5797C10.7244 43.72 10.4776 43.7991 10.2234 43.8083C9.96912 43.8175 9.71728 43.7564 9.4955 43.6318C8.2573 43.0179 6.99309 42.4664 5.74969 41.8681C5.08897 41.5508 4.88087 41.1085 5.06296 40.5831C5.24505 40.0576 5.68206 39.8964 6.41561 40.0628C13.1373 41.3322 19.8572 42.6121 26.5753 43.9023C33.1929 45.1717 39.8053 46.448 46.4125 47.7313C46.6986 47.7834 46.9848 47.8302 47.2657 47.9082C47.9732 48.1163 48.1137 48.3452 47.9264 49.0892C47.8276 49.4638 47.7547 49.8175 48.0565 50.1297C48.5039 50.5563 48.3998 51.0453 48.2698 51.5448C48.2023 51.7519 48.1519 51.9642 48.1189 52.1795C48.0943 52.2962 48.1001 52.4172 48.1357 52.5311C48.1712 52.6449 48.2354 52.7477 48.3221 52.8297C48.4087 52.9116 48.5149 52.9699 48.6306 52.9991C48.7462 53.0283 48.8674 53.0273 48.9825 52.9963C49.265 52.9319 49.5404 52.8395 49.8045 52.7205C52.2237 51.7477 54.6481 50.7852 57.062 49.8019C57.6289 49.5642 58.237 49.4405 58.8517 49.4378C61.9004 49.4378 64.9438 49.4378 67.9873 49.4065C70.0683 49.4065 72.1181 49.3701 74.1887 49.3493C74.402 49.3493 74.6205 49.3493 74.839 49.3493C75.6506 49.4065 75.8795 49.7031 75.6142 50.4731C75.2552 51.5136 74.891 52.6061 74.4644 53.6414C74.2888 53.9797 74.1972 54.3553 74.1972 54.7365C74.1972 55.1177 74.2888 55.4933 74.4644 55.8316C74.6984 56.2002 74.8053 56.6352 74.7686 57.0702C74.732 57.5052 74.5539 57.9162 74.2615 58.2404C74.1263 58.4069 74.0586 58.6254 73.9286 58.8023C73.2804 59.6416 72.9771 60.6967 73.0806 61.7521C73.1367 62.2734 73.0586 62.8003 72.8538 63.2829C72.6489 63.7656 72.324 64.1877 71.91 64.5094C70.6874 65.5915 69.6001 66.8141 68.4243 67.9483C68.2187 68.1216 68.0586 68.3426 67.9579 68.5919C67.8573 68.8413 67.8191 69.1115 67.8468 69.379C68.0653 72.2351 68.2214 75.1017 68.4503 77.9527C68.501 78.236 68.4896 78.527 68.4169 78.8054C68.3441 79.0839 68.2117 79.3432 68.0289 79.5655C66.8323 80.8765 66.4682 82.4061 66.5358 84.1593C66.5878 86.2403 66.4526 88.3681 66.3225 90.4647C66.2793 90.8183 66.343 91.1767 66.5052 91.4938C66.6675 91.8109 66.9209 92.0722 67.2329 92.244C71.6759 95.251 76.0772 98.3049 80.5097 101.343C80.8323 101.525 81.1132 101.749 81.4046 101.967Z" fill="#D21B33"/>
<path d="M63.1074 353.041C64.4392 353.608 65.6358 353.16 66.8064 352.52C67.6182 352.046 68.3769 351.486 69.0694 350.85C70.5005 349.682 71.8494 348.416 73.1066 347.063C74.1068 345.894 74.6599 344.408 74.6673 342.87C74.6724 341.317 74.5523 339.767 74.3084 338.234C74.2181 337.186 74.067 336.144 73.8558 335.113C73.7673 334.712 73.9494 334.488 74.376 334.494H75.0315C79.4172 334.494 83.8029 334.494 88.1939 334.494C88.844 334.479 89.4806 334.68 90.0043 335.066C92.2518 336.627 94.5253 338.187 96.7676 339.748C97.6728 340.367 97.678 340.362 98.5052 339.748C101.072 337.761 103.637 335.768 106.2 333.77C106.427 333.573 106.697 333.431 106.99 333.359C107.282 333.287 107.587 333.285 107.88 333.354C109.727 333.726 111.633 333.695 113.467 333.264C115.301 332.833 117.02 332.012 118.509 330.857C119.24 330.267 119.935 329.633 120.59 328.958C120.708 328.874 120.807 328.764 120.878 328.638C120.949 328.511 120.991 328.37 121.001 328.225C122.041 328.297 122.125 328.323 122.078 329.265C122 330.706 121.859 332.147 121.724 333.583C121.528 334.732 121.658 335.912 122.099 336.991C122.39 337.605 122.541 338.291 122.796 338.931C122.993 339.42 122.853 339.639 122.364 339.811C121.365 340.159 121.396 340.185 121.422 341.236C121.422 341.855 121.662 342.563 120.834 342.927C120.559 343.052 120.579 343.338 120.782 343.572C121.152 344.019 121.511 344.472 121.891 344.909C122.447 345.559 122.473 345.653 121.859 346.204C121.785 346.255 121.724 346.321 121.678 346.398C121.632 346.475 121.603 346.561 121.594 346.65C121.585 346.739 121.595 346.829 121.623 346.914C121.652 346.998 121.699 347.076 121.76 347.141C122.241 347.825 122.873 348.39 123.607 348.79C124.732 349.534 125.613 350.592 126.141 351.834C126.264 352.13 126.453 352.395 126.695 352.606C126.937 352.817 127.225 352.969 127.535 353.051C129.684 353.68 129.278 353.571 129.257 355.413C129.257 356.235 129.429 356.812 130.23 357.151C130.589 357.301 130.891 357.593 131.245 357.775C133.045 358.706 133.586 360.314 133.601 362.187C133.579 362.47 133.616 362.756 133.71 363.025C133.804 363.293 133.953 363.54 134.148 363.747C134.551 364.214 134.765 364.816 134.746 365.433C134.814 366.473 134.933 367.514 134.975 368.554C135.003 369.028 135.186 369.479 135.495 369.839C136.041 370.526 135.948 370.828 135.11 371.078C133.378 371.598 131.63 372.061 129.908 372.534C127.608 373.164 125.324 373.856 122.999 374.386C118.993 375.313 114.961 376.145 110.939 376.988C108.826 377.464 106.753 378.103 104.738 378.897C102.098 379.904 99.5167 381.059 97.0069 382.357C95.6699 383.043 94.6242 382.424 94.4993 380.931C94.5032 380.532 94.4578 380.133 94.364 379.745C94.2988 379.384 94.1043 379.06 93.8171 378.832C93.5299 378.604 93.1695 378.488 92.8033 378.507C91.9709 378.476 91.1333 378.455 90.3009 378.507C89.3488 378.554 88.4332 378.325 87.4915 378.283C87.2162 378.266 86.953 378.164 86.7386 377.991C86.5241 377.817 86.3691 377.581 86.2949 377.315C86.0712 376.707 85.8215 376.103 85.5926 375.495C85.5033 375.178 85.333 374.89 85.0985 374.659C84.8641 374.428 84.5736 374.263 84.2556 374.178C84.0273 374.118 83.8175 374.002 83.6442 373.841C83.471 373.681 83.3397 373.48 83.2619 373.258C82.778 372.217 82.3098 371.145 81.8156 370.094C81.6833 369.717 81.6319 369.317 81.6647 368.919C81.6335 367.93 81.3161 367.566 80.3693 367.358C78.6848 367.091 76.973 367.042 75.276 367.212C73.8505 367.29 72.9297 366.786 72.4927 365.516C71.9985 364.085 70.9319 363.534 69.5897 363.253C68.9914 363.128 68.4035 362.941 67.8104 362.79C67.5207 362.742 67.2536 362.604 67.0479 362.394C66.8421 362.185 66.7083 361.915 66.6659 361.625C66.6421 361.261 66.5041 360.914 66.2714 360.634C66.0387 360.354 65.7234 360.154 65.3705 360.064C65.0508 359.982 64.7653 359.801 64.555 359.547C64.3447 359.293 64.2204 358.978 64.1999 358.649C64.1563 358.326 64.092 358.006 64.0074 357.692C63.919 357.301 63.8201 356.859 63.3987 356.724C62.2229 356.355 62.3166 355.267 62.1293 354.404C61.9472 353.764 62.6652 353.441 63.1074 353.041Z" fill="#006A4A"/>
</g>
<path d="M89.7385 79.9907C89.4826 80.0946 89.3595 80.3863 89.4634 80.6421C89.5673 80.898 89.8589 81.0211 90.1148 80.9172L89.7385 79.9907ZM178.546 44.4596L174.785 42.8714L173.196 46.6323L176.957 48.2205L178.546 44.4596ZM90.1148 80.9172L176.059 46.0092L175.683 45.0827L89.7385 79.9907L90.1148 80.9172Z" fill="#156C52"/>
<path d="M112.501 131.512C112.227 131.547 112.033 131.796 112.067 132.07C112.102 132.344 112.351 132.539 112.626 132.505L112.501 131.512ZM252.813 114.473L249.59 111.967L247.084 115.189L250.307 117.696L252.813 114.473ZM112.626 132.505L250.011 115.327L249.886 114.335L112.501 131.512L112.626 132.505Z" fill="#156C52"/>
<path d="M132.394 203.312C132.118 203.314 131.896 203.539 131.897 203.815C131.899 204.091 132.124 204.314 132.4 204.312L132.394 203.312ZM260.287 203.009L257.382 200.141L254.514 203.046L257.418 205.914L260.287 203.009ZM132.4 204.312L257.403 203.527L257.397 202.527L132.394 203.312L132.4 204.312Z" fill="#156C52"/>
<path d="M132.399 290.5C132.123 290.5 131.899 290.724 131.899 291C131.899 291.276 132.123 291.5 132.399 291.5V290.5ZM253.286 291L250.399 288.113L247.512 291L250.399 293.887L253.286 291ZM132.399 291.5H250.399V290.5H132.399V291.5Z" fill="#156C52"/>
<path d="M144.419 360.47C144.152 360.398 143.878 360.556 143.806 360.823C143.735 361.09 143.893 361.364 144.16 361.435L144.419 360.47ZM224.569 382.463L222.527 378.928L218.992 380.969L221.033 384.505L224.569 382.463ZM144.16 361.435L221.651 382.199L221.91 381.233L144.419 360.47L144.16 361.435Z" fill="#156C52"/>
<defs>
<filter id="filter0_d_154_454" x="208.399" y="0" width="93" height="59" filterUnits="userSpaceOnUse" color-interpolation-filters="sRGB">
<feFlood flood-opacity="0" result="BackgroundImageFix"/>
<feColorMatrix in="SourceAlpha" type="matrix" values="0 0 0 0 0 0 0 0 0 0 0 0 0 0 0 0 0 0 127 0" result="hardAlpha"/>
<feOffset dy="1"/>
<feGaussianBlur stdDeviation="0.5"/>
<feComposite in2="hardAlpha" operator="out"/>
<feColorMatrix type="matrix" values="0 0 0 0 0 0 0 0 0 0 0 0 0 0 0 0 0 0 0.15 0"/>
<feBlend mode="normal" in2="BackgroundImageFix" result="effect1_dropShadow_154_454"/>
<feBlend mode="normal" in="SourceGraphic" in2="effect1_dropShadow_154_454" result="shape"/>
</filter>
<filter id="filter1_d_154_454" x="273.399" y="85" width="93" height="59" filterUnits="userSpaceOnUse" color-interpolation-filters="sRGB">
<feFlood flood-opacity="0" result="BackgroundImageFix"/>
<feColorMatrix in="SourceAlpha" type="matrix" values="0 0 0 0 0 0 0 0 0 0 0 0 0 0 0 0 0 0 127 0" result="hardAlpha"/>
<feOffset dy="1"/>
<feGaussianBlur stdDeviation="0.5"/>
<feComposite in2="hardAlpha" operator="out"/>
<feColorMatrix type="matrix" values="0 0 0 0 0 0 0 0 0 0 0 0 0 0 0 0 0 0 0.15 0"/>
<feBlend mode="normal" in2="BackgroundImageFix" result="effect1_dropShadow_154_454"/>
<feBlend mode="normal" in="SourceGraphic" in2="effect1_dropShadow_154_454" result="shape"/>
</filter>
<filter id="filter2_d_154_454" x="303.399" y="173" width="93" height="59" filterUnits="userSpaceOnUse" color-interpolation-filters="sRGB">
<feFlood flood-opacity="0" result="BackgroundImageFix"/>
<feColorMatrix in="SourceAlpha" type="matrix" values="0 0 0 0 0 0 0 0 0 0 0 0 0 0 0 0 0 0 127 0" result="hardAlpha"/>
<feOffset dy="1"/>
<feGaussianBlur stdDeviation="0.5"/>
<feComposite in2="hardAlpha" operator="out"/>
<feColorMatrix type="matrix" values="0 0 0 0 0 0 0 0 0 0 0 0 0 0 0 0 0 0 0.15 0"/>
<feBlend mode="normal" in2="BackgroundImageFix" result="effect1_dropShadow_154_454"/>
<feBlend mode="normal" in="SourceGraphic" in2="effect1_dropShadow_154_454" result="shape"/>
</filter>
<filter id="filter3_d_154_454" x="280.399" y="260" width="93" height="59" filterUnits="userSpaceOnUse" color-interpolation-filters="sRGB">
<feFlood flood-opacity="0" result="BackgroundImageFix"/>
<feColorMatrix in="SourceAlpha" type="matrix" values="0 0 0 0 0 0 0 0 0 0 0 0 0 0 0 0 0 0 127 0" result="hardAlpha"/>
<feOffset dy="1"/>
<feGaussianBlur stdDeviation="0.5"/>
<feComposite in2="hardAlpha" operator="out"/>
<feColorMatrix type="matrix" values="0 0 0 0 0 0 0 0 0 0 0 0 0 0 0 0 0 0 0.15 0"/>
<feBlend mode="normal" in2="BackgroundImageFix" result="effect1_dropShadow_154_454"/>
<feBlend mode="normal" in="SourceGraphic" in2="effect1_dropShadow_154_454" result="shape"/>
</filter>
<filter id="filter4_d_154_454" x="239.399" y="351" width="93" height="59" filterUnits="userSpaceOnUse" color-interpolation-filters="sRGB">
<feFlood flood-opacity="0" result="BackgroundImageFix"/>
<feColorMatrix in="SourceAlpha" type="matrix" values="0 0 0 0 0 0 0 0 0 0 0 0 0 0 0 0 0 0 127 0" result="hardAlpha"/>
<feOffset dy="1"/>
<feGaussianBlur stdDeviation="0.5"/>
<feComposite in2="hardAlpha" operator="out"/>
<feColorMatrix type="matrix" values="0 0 0 0 0 0 0 0 0 0 0 0 0 0 0 0 0 0 0.15 0"/>
<feBlend mode="normal" in2="BackgroundImageFix" result="effect1_dropShadow_154_454"/>
<feBlend mode="normal" in="SourceGraphic" in2="effect1_dropShadow_154_454" result="shape"/>
</filter>
<filter id="filter5_d_154_454" x="0" y="40" width="140.837" height="352.636" filterUnits="userSpaceOnUse" color-interpolation-filters="sRGB">
<feFlood flood-opacity="0" result="BackgroundImageFix"/>
<feColorMatrix in="SourceAlpha" type="matrix" values="0 0 0 0 0 0 0 0 0 0 0 0 0 0 0 0 0 0 127 0" result="hardAlpha"/>
<feOffset dy="5"/>
<feGaussianBlur stdDeviation="2.5"/>
<feComposite in2="hardAlpha" operator="out"/>
<feColorMatrix type="matrix" values="0 0 0 0 0 0 0 0 0 0 0 0 0 0 0 0 0 0 0.25 0"/>
<feBlend mode="normal" in2="BackgroundImageFix" result="effect1_dropShadow_154_454"/>
<feBlend mode="normal" in="SourceGraphic" in2="effect1_dropShadow_154_454" result="shape"/>
</filter>
</defs>
</svg>
